<svg width="142" height="49" viewBox="0 0 142 49" fill="none" xmlns="http://www.w3.org/2000/svg">
<path d="M129.851 1.00015H12.155C11.726 1.00015 11.3021 1.00015 10.8743 1.0025C10.5161 1.00485 10.1607 1.01168 9.79913 1.01743C9.01353 1.02671 8.22978 1.09612 7.45469 1.22506C6.68068 1.3568 5.93092 1.60518 5.23077 1.96178C4.53147 2.3214 3.8925 2.78869 3.33704 3.3467C2.77867 3.90314 2.31322 4.54631 1.95859 5.25148C1.60299 5.95524 1.35641 6.70939 1.22738 7.48787C1.09712 8.26537 1.02702 9.05184 1.01772 9.84021C1.00687 10.2005 1.00572 10.5619 1 10.9222V38.0814C1.00572 38.4462 1.00687 38.7997 1.01772 39.1646C1.02703 39.9529 1.09712 40.7394 1.22738 41.5168C1.35606 42.2958 1.60265 43.0504 1.95859 43.7544C2.31306 44.4573 2.77857 45.0978 3.33704 45.6512C3.89039 46.2117 4.52978 46.6793 5.23077 47.0361C5.93092 47.3937 6.68059 47.6436 7.45469 47.7773C8.22991 47.9052 9.01358 47.9747 9.79913 47.9851C10.1607 47.9931 10.5161 47.9977 10.8743 47.9977C11.3021 48 11.726 48 12.155 48H129.851C130.272 48 130.699 48 131.119 47.9977C131.476 47.9977 131.842 47.9931 132.198 47.9851C132.982 47.9752 133.764 47.9058 134.538 47.7773C135.315 47.6426 136.067 47.3928 136.77 47.0361C137.471 46.6791 138.11 46.2115 138.662 45.6512C139.219 45.0957 139.686 44.4556 140.045 43.7544C140.398 43.0498 140.642 42.2953 140.769 41.5168C140.9 40.7393 140.972 39.953 140.986 39.1646C140.991 38.7997 140.991 38.4462 140.991 38.0814C141 37.6545 141 37.23 141 36.7962V12.2051C141 11.7748 141 11.3479 140.991 10.9222C140.991 10.5619 140.991 10.2005 140.986 9.84017C140.972 9.05172 140.9 8.26543 140.769 7.48782C140.642 6.70979 140.398 5.9557 140.045 5.25143C139.323 3.838 138.178 2.68748 136.77 1.96168C136.067 1.60594 135.314 1.35763 134.538 1.22495C133.764 1.09545 132.982 1.02601 132.198 1.01726C131.842 1.01153 131.476 1.00464 131.119 1.00235C130.699 1 130.272 1 129.851 1V1.00015Z" fill="#2F2F2F" stroke="#2F2F2F"/>
<path fill-rule="evenodd" clip-rule="evenodd" d="M88.3675 35.1659C86.4549 35.1659 85.0553 34.2159 84.8942 32.7689L82.6685 32.7688C82.8091 35.408 84.9844 37.0775 88.2063 37.0775C91.6499 37.0775 93.815 35.3678 93.815 32.638C93.815 30.5038 92.5765 29.3012 89.5956 28.5933L87.995 28.1985C86.1224 27.7339 85.3569 27.1268 85.3569 26.0953C85.3569 24.801 86.5554 23.9117 88.3069 23.9117C90.0584 23.9117 91.2569 24.7906 91.3883 26.2467H93.5831C93.5122 23.7292 91.4077 22 88.3378 22C85.2358 22 83.0513 23.7292 83.0513 26.2467C83.0513 28.28 84.2898 29.5331 86.9576 30.1802L88.8405 30.6358C90.7233 31.1005 91.5185 31.7786 91.5185 32.9112C91.5185 34.2158 90.2001 35.1659 88.3675 35.1659ZM50.4906 32.8906H44.9528L43.6229 36.8344H41.2773L46.5227 22.2433H48.9597L54.205 36.8344H51.8194L50.4906 32.8906ZM45.5275 31.0707H49.9172L47.7532 24.6702H47.6927L45.5275 31.0707ZM61.1112 36.9458C63.7699 36.9458 65.5316 34.8218 65.5316 31.516C65.5316 28.2193 63.7595 26.0851 61.0712 26.0851C59.6879 26.0403 58.3921 26.7629 57.6985 27.9658H57.6585V26.1964H55.554V40.3537H57.7282V35.0846H57.7785C58.4425 36.2951 59.737 37.018 61.1112 36.9458ZM63.2976 31.5159C63.2976 29.3621 62.1893 27.9462 60.4984 27.9462C58.8372 27.9462 57.7198 29.392 57.7198 31.5159C57.7198 33.6594 58.8372 35.0948 60.4984 35.0948C62.1893 35.0948 63.2976 33.6892 63.2976 31.5159ZM72.7689 36.9457C75.4276 36.9457 77.1893 34.8218 77.1893 31.516C77.1893 28.2193 75.4173 26.0851 72.7289 26.0851C71.3456 26.0403 70.0497 26.7628 69.3562 27.9657H69.3162V26.1964H67.2117V40.3537H69.3859V35.0846H69.4362C70.1002 36.295 71.3947 37.0179 72.7689 36.9457ZM74.9573 31.5159C74.9573 29.3621 73.849 27.9462 72.1581 27.9462C70.4969 27.9462 69.3795 29.392 69.3795 31.5159C69.3795 33.6594 70.4969 35.0948 72.1581 35.0948C73.849 35.0948 74.9573 33.6892 74.9573 31.5159ZM98.5119 23.6789V26.1964H100.526V27.9256H98.5119V33.7903C98.5119 34.7013 98.9152 35.1259 99.8006 35.1259C100.04 35.1217 100.279 35.1048 100.516 35.0754V36.7943C100.118 36.869 99.7131 36.9028 99.3082 36.8952C97.1637 36.8952 96.3274 36.0863 96.3274 34.0232V27.9256H94.7873V26.1964H96.3274V23.6789H98.5119ZM106.718 26.0655C103.657 26.0655 101.694 28.1688 101.694 31.5159C101.694 34.8722 103.637 36.9663 106.718 36.9663C109.799 36.9663 111.743 34.8722 111.743 31.5159C111.743 28.1687 109.789 26.0655 106.718 26.0655ZM109.523 31.5159C109.523 29.2199 108.476 27.8647 106.714 27.8647C104.952 27.8647 103.906 29.2302 103.906 31.5159C103.906 33.8212 104.952 35.166 106.714 35.166C108.476 35.166 109.523 33.8212 109.523 31.5159ZM115.604 26.1963H113.531L113.531 36.8344H115.705V30.5245C115.632 29.8862 115.842 29.2479 116.277 28.7774C116.713 28.3068 117.331 28.051 117.97 28.077C118.301 28.0673 118.631 28.1119 118.947 28.209V26.1665C118.703 26.1115 118.453 26.0841 118.202 26.085C117.007 26.0392 115.944 26.8414 115.655 28.007H115.604V26.1963ZM128.973 33.7099C128.681 35.641 126.808 36.9663 124.412 36.9663C121.331 36.9663 119.418 34.8929 119.418 31.5664C119.418 28.2296 121.341 26.0655 124.321 26.0655C127.251 26.0655 129.094 28.0873 129.094 31.3128V32.061H121.613V32.1929C121.543 32.9849 121.815 33.7688 122.361 34.3454C122.906 34.9219 123.671 35.2354 124.462 35.2061C125.517 35.3054 126.512 34.6969 126.908 33.7098L128.973 33.7099ZM126.917 30.5349H121.622C121.62 29.8167 121.904 29.1275 122.41 28.6205C122.917 28.1134 123.604 27.8307 124.319 27.8349C125.029 27.8196 125.712 28.1023 126.206 28.6148C126.699 29.1273 126.957 29.8233 126.917 30.5349Z" fill="white"/>
<path fill-rule="evenodd" clip-rule="evenodd" d="M70.1341 10.9141H71.1738V18.2704H70.1341V10.9141ZM47.7183 12.2205C47.082 11.5456 46.178 11.1929 45.2549 11.2595H42.7334V18.2705H45.2549C47.3343 18.2705 48.5397 16.983 48.5397 14.7431C48.6561 13.8211 48.3546 12.8953 47.7183 12.2205ZM45.1325 17.279H43.8163V12.2503H45.1325C45.7886 12.2137 46.4267 12.4735 46.8722 12.9587C47.3177 13.4439 47.524 14.1036 47.4347 14.7575C47.531 15.414 47.3276 16.0793 46.881 16.5684C46.4344 17.0576 45.7921 17.3186 45.1325 17.279ZM49.7652 15.6227C49.6749 14.6744 50.1277 13.7565 50.9337 13.2542C51.7397 12.7519 52.7596 12.7519 53.5656 13.2542C54.3716 13.7565 54.8244 14.6744 54.7341 15.6227C54.8261 16.5721 54.3738 17.4917 53.567 17.9951C52.7603 18.4985 51.739 18.4985 50.9323 17.9951C50.1256 17.4917 49.6732 16.5721 49.7652 15.6227ZM52.2505 13.8051C53.1508 13.8051 53.6638 14.4758 53.6638 15.6227H53.6638C53.6638 16.7742 53.1508 17.4443 52.2505 17.4443C51.3468 17.4443 50.8384 16.7788 50.8384 15.6227C50.8384 14.4758 51.3468 13.8051 52.2505 13.8051ZM61.3383 18.2704H60.2597L59.1709 14.3736H59.0886L58.0044 18.2704H56.9361L55.484 12.9795H56.5385L57.4823 17.0168H57.5599L58.6431 12.9795H59.6405L60.7236 17.0168H60.8058L61.745 12.9795H62.7847L61.3383 18.2704ZM65.0031 12.9795H64.0023L64.0023 18.2704H65.042V15.1751C65.0047 14.823 65.1223 14.4721 65.3641 14.2144C65.6059 13.9567 65.9477 13.8179 66.2999 13.8343C67.0688 13.8343 67.4367 14.2572 67.4367 15.1074V18.2703H68.4764V14.8452C68.5526 14.3279 68.3904 13.8038 68.0357 13.421C67.681 13.0382 67.1722 12.8381 66.6529 12.8773C65.9823 12.8226 65.351 13.2011 65.0808 13.82H65.0031V12.9795ZM73.7884 13.2542C72.9823 13.7565 72.5294 14.6743 72.6197 15.6227C72.5278 16.5722 72.9802 17.4917 73.787 17.9951C74.5938 18.4985 75.615 18.4985 76.4218 17.9951C77.2286 17.4917 77.681 16.5722 77.5891 15.6227C77.6794 14.6743 77.2265 13.7565 76.4204 13.2542C75.6144 12.7518 74.5944 12.7518 73.7884 13.2542ZM76.5183 15.6227C76.5183 14.4758 76.0053 13.8051 75.105 13.8051C74.2012 13.8051 73.6928 14.4758 73.6928 15.6227C73.6928 16.7788 74.2013 17.4443 75.105 17.4443C76.0053 17.4443 76.5183 16.7742 76.5183 15.6227ZM80.6456 15.1947C79.3923 15.2727 78.6862 15.8218 78.6862 16.7742C78.6879 17.2257 78.8798 17.6555 79.2144 17.9572C79.549 18.2589 79.995 18.4043 80.4422 18.3576C81.0802 18.3873 81.6847 18.0699 82.0246 17.5269H82.1069V18.2705H83.1077V14.6554C83.1077 13.5378 82.3628 12.8774 81.042 12.8774C79.847 12.8774 78.9958 13.4603 78.8895 14.3691H79.8961C80.0115 13.995 80.4137 13.781 80.9941 13.781C81.7047 13.781 82.0726 14.0966 82.0726 14.6554V15.1121L80.6456 15.1947ZM82.0704 16.3221V15.8798L80.7839 15.9624C80.0584 16.0111 79.7294 16.259 79.7294 16.7254C79.7294 17.2016 80.1407 17.4787 80.7063 17.4787C81.0411 17.5128 81.3753 17.4089 81.6325 17.1909C81.8896 16.9728 82.0476 16.6593 82.0704 16.3221ZM86.6591 12.8917C85.3281 12.8917 84.4723 13.9508 84.4723 15.6227C84.4723 17.2985 85.3189 18.3577 86.6591 18.3576C87.3386 18.3828 87.9758 18.0272 88.3135 17.4345H88.3958V18.2704H89.392V10.9141H88.3523V13.82H88.2746C87.9607 13.2223 87.3312 12.8606 86.6591 12.8917ZM85.5493 15.6226C85.5493 16.7449 86.076 17.4201 86.9569 17.4201C87.8332 17.4201 88.3748 16.7351 88.3748 15.6272C88.3748 14.5245 87.8275 13.8297 86.9569 13.8297C86.0817 13.8297 85.5493 14.5096 85.5493 15.6226H85.5493ZM94.8623 13.2542C94.0563 13.7565 93.6035 14.6744 93.6938 15.6227C93.6018 16.5721 94.0542 17.4917 94.8609 17.9951C95.6676 18.4985 96.6889 18.4985 97.4956 17.9951C98.3023 17.4917 98.7547 16.5721 98.6627 15.6227C98.753 14.6744 98.3002 13.7565 97.4942 13.2542C96.6882 12.7519 95.6683 12.7519 94.8623 13.2542ZM97.5943 15.6227C97.5943 14.4758 97.0814 13.8051 96.1811 13.8051C95.2773 13.8051 94.7689 14.4758 94.7689 15.6227C94.7689 16.7788 95.2774 17.4443 96.1811 17.4443C97.0814 17.4443 97.5943 16.7742 97.5943 15.6227ZM101.059 12.9795H100.058V18.2704H101.098V15.1751C101.061 14.823 101.178 14.4721 101.42 14.2144C101.662 13.9567 102.004 13.8179 102.356 13.8343C103.125 13.8343 103.493 14.2572 103.493 15.1074V18.2703H104.532V14.8452C104.609 14.3279 104.447 13.8038 104.092 13.421C103.737 13.0382 103.228 12.8381 102.709 12.8773C102.038 12.8226 101.407 13.2011 101.137 13.82H101.059V12.9795ZM110.406 11.6622V13.0036H111.547V13.8831H110.406V16.6038C110.406 17.158 110.633 17.4007 111.151 17.4007C111.284 17.4002 111.416 17.3922 111.547 17.3766V18.2463C111.361 18.2799 111.172 18.2977 110.982 18.2997C109.826 18.2997 109.365 17.8912 109.365 16.8711V13.8831H108.529V13.0036H109.365V11.6622H110.406ZM114 10.9141H112.97L112.97 18.2704H114.01V15.1803C113.977 14.8172 114.107 14.4584 114.362 14.1998C114.618 13.9412 114.974 13.8091 115.336 13.8389C116.071 13.8389 116.463 14.2669 116.463 15.112V18.2704H117.503V14.8544C117.572 14.3398 117.409 13.8211 117.058 13.4396C116.707 13.0582 116.205 12.8537 115.689 12.882C115.008 12.8265 114.366 13.2055 114.083 13.8298H114V10.9141ZM123.564 16.8418C123.273 17.8399 122.311 18.4847 121.282 18.3725C120.579 18.3912 119.904 18.0987 119.435 17.5728C118.967 17.0469 118.752 16.3407 118.848 15.6416C118.755 14.9405 118.968 14.2332 119.435 13.7029C119.901 13.1725 120.573 12.8713 121.277 12.8774C122.743 12.8774 123.627 13.8832 123.627 15.5446V15.909H119.907V15.9675C119.874 16.3601 120.008 16.7484 120.275 17.037C120.542 17.3256 120.918 17.4876 121.31 17.4832C121.819 17.5446 122.314 17.2912 122.564 16.8418L123.564 16.8418ZM122.569 15.1367H119.909C119.904 14.7719 120.046 14.4206 120.303 14.1625C120.56 13.9045 120.909 13.7615 121.273 13.7661C121.631 13.7578 121.976 13.902 122.223 14.163C122.47 14.424 122.596 14.7776 122.569 15.1367Z" fill="white"/>
<path fill-rule="evenodd" clip-rule="evenodd" d="M28.0808 11.2461C28.194 12.7316 27.7263 14.2029 26.7768 15.3476C25.8557 16.4982 24.46 17.1609 22.99 17.1457C22.8965 15.703 23.3779 14.2822 24.3281 13.1961C25.2904 12.0954 26.6302 11.3991 28.0808 11.2461ZM32.7331 19.9744C31.0422 21.0185 30.0016 22.8597 29.9761 24.853C29.9785 27.1083 31.3232 29.1435 33.3914 30.0221C32.9936 31.3197 32.3941 32.5461 31.6149 33.6557C30.5686 35.2278 29.4715 36.7636 27.7301 36.792C26.902 36.8112 26.3429 36.572 25.7604 36.3228C25.1528 36.0628 24.5197 35.7919 23.5289 35.7919C22.4781 35.7919 21.8166 36.0715 21.1786 36.3412C20.6272 36.5742 20.0935 36.7999 19.3412 36.8312C17.6828 36.8929 16.4155 35.1534 15.3311 33.5961C13.1636 30.4158 11.4759 24.6336 13.7385 20.6992C14.801 18.7817 16.7877 17.5648 18.9716 17.494C19.9121 17.4745 20.8146 17.8386 21.6059 18.1578C22.211 18.4019 22.7511 18.6198 23.1933 18.6198C23.5821 18.6198 24.1071 18.4105 24.7189 18.1667C25.6827 17.7825 26.8619 17.3124 28.0637 17.4391C29.931 17.4978 31.6615 18.4374 32.7331 19.9744Z" fill="white"/>
</svg>
