<svg width="158" height="47" viewBox="0 0 158 47" fill="none" xmlns="http://www.w3.org/2000/svg">
<rect width="158" height="47" rx="5.85812" fill="#2F2F2F"/>
<path fill-rule="evenodd" clip-rule="evenodd" d="M5.85185 0H152.148C155.38 0 158 2.63033 158 5.875V41.125C158 44.3697 155.38 47 152.148 47H5.85185C2.61996 47 0 44.3697 0 41.125V5.875C0 2.63033 2.61996 0 5.85185 0ZM157.064 5.87499C157.064 3.14946 154.864 0.939986 152.149 0.939986H5.85248C3.13769 0.939986 0.93692 3.14946 0.93692 5.87499V41.125C0.93692 43.8505 3.13769 46.06 5.85248 46.06H152.149C154.864 46.06 157.064 43.8505 157.064 41.125V5.87499Z" fill="#2F2F2F"/>
<path fill-rule="evenodd" clip-rule="evenodd" d="M55.8739 27.0951V29.2101H60.9299C60.8506 30.2063 60.4382 31.1463 59.7595 31.8774C58.7367 32.9234 57.3211 33.4867 55.8622 33.4284C52.7596 33.4284 50.2444 30.9033 50.2444 27.7884C50.2444 24.6735 52.7596 22.1484 55.8622 22.1484C57.2875 22.1251 58.6638 22.6702 59.6893 23.6641L61.1757 22.1719C59.777 20.75 57.8644 19.9573 55.8739 19.9746C53.0404 19.8639 50.3736 21.3185 48.9241 23.7653C47.4745 26.2121 47.4745 29.259 48.9241 31.7058C50.3736 34.1526 53.0404 35.6071 55.8739 35.4964C57.9007 35.5883 59.8681 34.7957 61.2693 33.3226C62.4955 31.9701 63.1501 30.1922 63.0951 28.3641C63.0989 27.9188 63.0597 27.4742 62.9781 27.0364L55.8739 27.0951ZM68.8519 25.5559C66.1063 25.5624 63.8852 27.8011 63.8895 30.5575C63.8938 33.3139 66.1219 35.5456 68.8675 35.5434C71.6131 35.5413 73.8377 33.3061 73.8377 30.5497C73.8569 29.2153 73.3358 27.9303 72.3937 26.9889C71.4516 26.0474 70.1692 25.5303 68.8402 25.5559H68.8519ZM74.7977 30.5653C74.7891 27.8104 77.0043 25.5689 79.7483 25.5559C81.0773 25.5303 82.3597 26.0474 83.3019 26.9889C84.244 27.9303 84.7651 29.2153 84.7458 30.5497C84.7458 33.3046 82.5235 35.5391 79.7795 35.5434C77.0354 35.5477 74.8063 33.3202 74.7977 30.5653ZM76.815 31.8638C77.3495 32.987 78.5134 33.668 79.7503 33.5811C80.5266 33.5631 81.2627 33.2309 81.7916 32.6602C82.3204 32.0894 82.5972 31.3283 82.5592 30.5496C82.5561 29.3049 81.7955 28.1885 80.6411 27.7344C79.4867 27.2804 78.1732 27.5809 77.3287 28.4923C76.4843 29.4036 76.2805 30.7407 76.815 31.8638ZM65.9108 31.8728C66.449 32.9953 67.6164 33.6729 68.8538 33.5812H68.8421C69.6184 33.5631 70.3545 33.231 70.8834 32.6602C71.4123 32.0894 71.6891 31.3283 71.651 30.5497C71.6476 29.3039 70.8855 28.1871 69.7297 27.734C68.5738 27.2809 67.2595 27.5839 66.4163 28.4977C65.5731 29.4116 65.3725 30.7504 65.9108 31.8728ZM104.642 25.5559C106.582 25.6276 108.277 26.8945 108.902 28.7402L109.148 29.2689L102.488 32.0302C102.906 32.9845 103.862 33.5856 104.899 33.5459C105.901 33.5484 106.83 33.0218 107.345 32.1594L109.042 33.3344C108.118 34.7226 106.562 35.5524 104.899 35.5434C103.577 35.5629 102.304 35.0418 101.373 34.1C100.441 33.1582 99.9314 31.8766 99.9601 30.5497C99.8793 29.2531 100.337 27.9807 101.223 27.0347C102.11 26.0887 103.348 25.5534 104.642 25.5559ZM102.114 30.4087C102.066 29.6745 102.314 28.9518 102.803 28.4036C103.292 27.8554 103.98 27.5278 104.712 27.4947C105.484 27.4436 106.211 27.8597 106.561 28.5522L102.114 30.4087ZM98.8962 35.2496H96.7076V20.5621H98.8962V35.2496ZM93.1257 26.6721H93.0438C92.3766 25.9233 91.4229 25.4958 90.4222 25.4971C87.7656 25.6265 85.6779 27.8265 85.6779 30.4968C85.6779 33.167 87.7656 35.367 90.4222 35.4964C91.4262 35.5133 92.3861 35.0831 93.0438 34.3214H93.114V35.0381C93.114 36.9534 92.0958 37.9756 90.4573 37.9756C89.3411 37.9494 88.3515 37.2483 87.9527 36.2014L86.045 37.0004C86.7796 38.7944 88.5253 39.9612 90.4573 39.9496C93.0204 39.9496 95.1388 38.4339 95.1388 34.7444V25.8496H93.1257V26.6721ZM90.6182 33.5809L90.6219 33.5812H90.6102L90.6182 33.5809ZM92.5904 32.6386C92.0881 33.2092 91.3759 33.5495 90.6182 33.5809C89.0551 33.4407 87.8567 32.1257 87.8567 30.5497C87.8567 28.9725 89.0569 27.6567 90.6219 27.5182C91.3781 27.5572 92.0866 27.901 92.5867 28.4717C93.0869 29.0425 93.3364 29.7918 93.2786 30.5497C93.3431 31.3112 93.0945 32.066 92.5904 32.6386ZM119.155 20.5622H113.923V35.2497H116.112V29.6802H119.166C120.867 29.8028 122.492 28.9617 123.38 27.5005C124.267 26.0394 124.267 24.203 123.38 22.7418C122.492 21.2807 120.867 20.4396 119.166 20.5622H119.155ZM116.1 27.6121H119.155L119.201 27.6474C120.588 27.6474 121.712 26.519 121.712 25.127C121.712 23.735 120.588 22.6066 119.201 22.6066H116.1V27.6121ZM132.649 25.4971C131.02 25.3994 129.49 26.2809 128.751 27.7413L130.694 28.5521C131.086 27.8279 131.866 27.4039 132.684 27.4711C133.245 27.4053 133.809 27.5686 134.249 27.9243C134.689 28.28 134.969 28.7983 135.025 29.3628V29.5156C134.322 29.1419 133.538 28.9482 132.742 28.9516C130.647 28.9516 128.529 30.1266 128.529 32.2533C128.571 33.1695 128.98 34.0297 129.663 34.6383C130.347 35.247 131.246 35.5522 132.157 35.4846C133.28 35.5655 134.357 35.0248 134.966 34.0746H135.036V35.2496H137.143V29.5978C137.143 27.0246 135.2 25.5323 132.707 25.5323L132.649 25.4971ZM130.672 32.3004C130.672 33.1817 131.667 33.5459 132.381 33.5459L132.439 33.5812C133.758 33.5489 134.851 32.5465 135.002 31.2312C134.395 30.8909 133.708 30.7204 133.013 30.7377C131.913 30.7377 130.672 31.1254 130.672 32.3004ZM144.822 25.8497L142.317 32.2182H142.247L139.649 25.8497H137.308L141.205 34.7562L138.982 39.7029H141.264L147.256 25.8497H144.822ZM127.335 35.2496H125.146V20.5621H127.335V35.2496Z" fill="white"/>
<path fill-rule="evenodd" clip-rule="evenodd" d="M80.9998 9.13095C79.6191 10.5982 79.6191 12.8924 80.9998 14.3597C82.4242 15.7817 84.7251 15.7817 86.1495 14.3597C87.5361 12.8948 87.5361 10.5959 86.1495 9.13095C85.4683 8.4421 84.5415 8.05469 83.5746 8.05469C82.6078 8.05469 81.681 8.4421 80.9998 9.13095ZM54.6195 14.3834C55.2202 13.7538 55.5374 12.9044 55.4972 12.0334C55.4973 11.8561 55.4816 11.6792 55.4504 11.5047H52.0446V12.3507H54.5843C54.567 12.8836 54.3593 13.3924 53.9992 13.7842C53.197 14.5627 52.0071 14.7802 50.983 14.3356C49.959 13.8909 49.302 12.8714 49.3177 11.7514C49.2922 11.0103 49.5686 10.2907 50.0831 9.75857C50.5977 9.22647 51.306 8.92781 52.0446 8.93144C52.7795 8.89113 53.4905 9.20014 53.964 9.76569L54.5843 9.14294C54.2847 8.79697 53.9077 8.52719 53.4842 8.35569C53.0293 8.16026 52.5394 8.06029 52.0446 8.06194C51.0739 8.04023 50.1376 8.42305 49.4581 9.11944C48.4124 10.1761 48.0996 11.7592 48.6642 13.1367C49.2289 14.5141 50.561 15.4175 52.0446 15.4292C53.0119 15.4638 53.9482 15.0835 54.6195 14.3834ZM57.6988 9.09524H60.8588V8.22574H56.7626V15.2757H60.8588V14.4062H57.6988V12.1737H60.578V11.3277H57.6988V9.09524ZM64.6973 15.2757H63.7961V9.09524H61.8299V8.22574H66.7103V9.09524H64.6973V15.2757ZM70.1505 8.22574V15.2757H71.0517V8.22574H70.1505ZM75.0553 15.2757H74.1541V9.09524H72.1879V8.22574H77.0098V9.09524H75.0553V15.2757ZM81.6663 13.7723C82.7211 14.8269 84.4268 14.8269 85.4817 13.7723C86.5177 12.6257 86.5177 10.8769 85.4817 9.73026C84.4268 8.67562 82.7211 8.67562 81.6663 9.73026C80.6302 10.8769 80.6302 12.6257 81.6663 13.7723ZM88.4564 8.22574V15.2757H89.3693V9.52999L92.9389 15.2757H93.8752V8.22574H92.974V13.713L89.5565 8.22574H88.4564Z" fill="white"/>
<path d="M80.9998 14.3597L80.9145 14.44L80.9171 14.4426L80.9998 14.3597ZM80.9998 9.13095L80.9165 9.04854L80.9145 9.05066L80.9998 9.13095ZM86.1495 14.3597L86.2323 14.4426L86.2346 14.4402L86.1495 14.3597ZM86.1495 9.13095L86.2346 9.05039L86.2328 9.04857L86.1495 9.13095ZM55.4972 12.0334L55.3799 12.0334L55.3802 12.0388L55.4972 12.0334ZM54.6195 14.3834L54.704 14.4645L54.7042 14.4643L54.6195 14.3834ZM55.4504 11.5047L55.5657 11.4841L55.5485 11.3875H55.4504V11.5047ZM52.0446 11.5047V11.3875H51.9275V11.5047H52.0446ZM52.0446 12.3507H51.9275V12.4679H52.0446V12.3507ZM54.5843 12.3507L54.7014 12.3545L54.7054 12.2335H54.5843V12.3507ZM53.9992 13.7842L54.0809 13.8684L54.0854 13.8635L53.9992 13.7842ZM50.983 14.3356L50.9364 14.443L50.983 14.3356ZM49.3177 11.7514L49.435 11.7531L49.4348 11.7474L49.3177 11.7514ZM50.0831 9.75857L50.1674 9.84002L50.0831 9.75857ZM52.0446 8.93144L52.0441 9.04882L52.0511 9.04843L52.0446 8.93144ZM53.964 9.76569L53.8742 9.84092L53.9566 9.93924L54.0471 9.84838L53.964 9.76569ZM54.5843 9.14294L54.6674 9.22563L54.7442 9.14851L54.6729 9.06624L54.5843 9.14294ZM53.4842 8.35569L53.4379 8.46337L53.4402 8.46429L53.4842 8.35569ZM52.0446 8.06194L52.042 8.17912L52.045 8.17911L52.0446 8.06194ZM49.4581 9.11944L49.5414 9.20186L49.542 9.20126L49.4581 9.11944ZM48.6642 13.1367L48.7727 13.0922L48.6642 13.1367ZM52.0446 15.4292L52.0488 15.3121L52.0456 15.312L52.0446 15.4292ZM60.8588 9.09524V9.2124H60.976V9.09524H60.8588ZM57.6988 9.09524V8.97808H57.5817V9.09524H57.6988ZM60.8588 8.22574H60.976V8.10858H60.8588V8.22574ZM56.7626 8.22574V8.10858H56.6454V8.22574H56.7626ZM56.7626 15.2757H56.6454V15.3929H56.7626V15.2757ZM60.8588 15.2757V15.3929H60.976V15.2757H60.8588ZM60.8588 14.4062H60.976V14.2891H60.8588V14.4062ZM57.6988 14.4062H57.5817V14.5234H57.6988V14.4062ZM57.6988 12.1737V12.0566H57.5817V12.1737H57.6988ZM60.578 12.1737V12.2909H60.6951V12.1737H60.578ZM60.578 11.3277H60.6951V11.2106H60.578V11.3277ZM57.6988 11.3277H57.5817V11.4449H57.6988V11.3277ZM63.7961 15.2757H63.6789V15.3929H63.7961V15.2757ZM64.6973 15.2757V15.3929H64.8145V15.2757H64.6973ZM63.7961 9.09524H63.9133V8.97808H63.7961V9.09524ZM61.8299 9.09524H61.7127V9.2124H61.8299V9.09524ZM61.8299 8.22574V8.10858H61.7127V8.22574H61.8299ZM66.7103 8.22574H66.8275V8.10858H66.7103V8.22574ZM66.7103 9.09524V9.2124H66.8275V9.09524H66.7103ZM64.6973 9.09524V8.97808H64.5801V9.09524H64.6973ZM70.1505 15.2757H70.0334V15.3929H70.1505V15.2757ZM70.1505 8.22574V8.10858H70.0334V8.22574H70.1505ZM71.0517 15.2757V15.3929H71.1689V15.2757H71.0517ZM71.0517 8.22574H71.1689V8.10858H71.0517V8.22574ZM74.1541 15.2757H74.0369V15.3929H74.1541V15.2757ZM75.0553 15.2757V15.3929H75.1724V15.2757H75.0553ZM74.1541 9.09524H74.2712V8.97808H74.1541V9.09524ZM72.1879 9.09524H72.0707V9.2124H72.1879V9.09524ZM72.1879 8.22574V8.10858H72.0707V8.22574H72.1879ZM77.0098 8.22574H77.1269V8.10858H77.0098V8.22574ZM77.0098 9.09524V9.2124H77.1269V9.09524H77.0098ZM75.0553 9.09524V8.97808H74.9381V9.09524H75.0553ZM85.4817 13.7723L85.5646 13.8552L85.5686 13.8508L85.4817 13.7723ZM81.6663 13.7723L81.5792 13.8509L81.5834 13.8551L81.6663 13.7723ZM85.4817 9.73026L85.5687 9.65161L85.5645 9.6474L85.4817 9.73026ZM81.6663 9.73026L81.5833 9.6473L81.5793 9.65171L81.6663 9.73026ZM88.4564 15.2757H88.3392V15.3929H88.4564V15.2757ZM88.4564 8.22574V8.10858H88.3392V8.22574H88.4564ZM89.3693 15.2757V15.3929H89.4864V15.2757H89.3693ZM89.3693 9.52999L89.4688 9.46816L89.2521 9.11938V9.52999H89.3693ZM92.9389 15.2757L92.8394 15.3376L92.8738 15.3929H92.9389V15.2757ZM93.8752 15.2757V15.3929H93.9924V15.2757H93.8752ZM93.8752 8.22574H93.9924V8.10858H93.8752V8.22574ZM92.974 8.22574V8.10858H92.8568V8.22574H92.974ZM92.974 13.713L92.8746 13.7749L93.0912 14.1227V13.713H92.974ZM89.5565 8.22574L89.656 8.1638L89.6216 8.10858H89.5565V8.22574ZM81.0852 14.2794C79.7469 12.8572 79.7469 10.6334 81.0852 9.21124L80.9145 9.05066C79.4913 10.5631 79.4913 12.9276 80.9145 14.44L81.0852 14.2794ZM86.0667 14.2768C84.6881 15.6531 82.4612 15.6531 81.0826 14.2768L80.9171 14.4426C82.3871 15.9103 84.7621 15.9103 86.2322 14.4426L86.0667 14.2768ZM86.0644 9.21149C87.4082 10.6313 87.4082 12.8594 86.0644 14.2792L86.2346 14.4402C87.6639 12.9301 87.6639 10.5605 86.2346 9.05041L86.0644 9.21149ZM83.5746 8.17185C84.5101 8.17185 85.407 8.54669 86.0662 9.21333L86.2328 9.04857C85.5297 8.33751 84.5728 7.93753 83.5746 7.93753V8.17185ZM81.0831 9.21333C81.7423 8.54669 82.6392 8.17185 83.5746 8.17185V7.93753C82.5765 7.93753 81.6196 8.33751 80.9165 9.04857L81.0831 9.21333ZM55.3802 12.0388C55.4189 12.8779 55.1133 13.6961 54.5347 14.3026L54.7042 14.4643C55.3271 13.8115 55.6559 12.9309 55.6143 12.028L55.3802 12.0388ZM55.3351 11.5253C55.3651 11.693 55.3801 11.863 55.3801 12.0334L55.6144 12.0335C55.6145 11.8493 55.5982 11.6654 55.5657 11.4841L55.3351 11.5253ZM52.0446 11.6219H55.4504V11.3875H52.0446V11.6219ZM52.1618 12.3507V11.5047H51.9275V12.3507H52.1618ZM54.5843 12.2335H52.0446V12.4679H54.5843V12.2335ZM54.0854 13.8635C54.4646 13.451 54.6832 12.9154 54.7014 12.3545L54.4672 12.3469C54.4508 12.8518 54.254 13.3338 53.9129 13.7049L54.0854 13.8635ZM50.9364 14.443C52.004 14.9066 53.2446 14.6798 54.0808 13.8683L53.9176 13.7001C53.1494 14.4456 52.0101 14.6538 51.0297 14.2281L50.9364 14.443ZM49.2005 11.7498C49.1842 12.9169 49.8688 13.9795 50.9364 14.443L51.0297 14.2281C50.0492 13.8024 49.4198 12.826 49.4348 11.7531L49.2005 11.7498ZM49.9989 9.67713C49.4622 10.2321 49.174 10.9826 49.2006 11.7555L49.4348 11.7474C49.4104 11.038 49.675 10.3492 50.1674 9.84002L49.9989 9.67713ZM52.0452 8.81428C51.2745 8.81049 50.5356 9.12211 49.9989 9.67713L50.1674 9.84002C50.6597 9.33084 51.3374 9.04513 52.0441 9.04861L52.0452 8.81428ZM54.0539 9.69047C53.5566 9.09669 52.81 8.77212 52.0382 8.81446L52.0511 9.04843C52.7489 9.01015 53.4243 9.30359 53.8742 9.84092L54.0539 9.69047ZM54.5013 9.06026L53.881 9.68301L54.0471 9.84838L54.6674 9.22563L54.5013 9.06026ZM53.4402 8.46429C53.8465 8.62882 54.2083 8.88766 54.4958 9.21965L54.6729 9.06624C54.3612 8.70629 53.9689 8.42556 53.5282 8.2471L53.4402 8.46429ZM52.045 8.17911C52.5238 8.17751 52.9978 8.27423 53.4379 8.46334L53.5304 8.24805C53.0608 8.04628 52.5551 7.94307 52.0442 7.94478L52.045 8.17911ZM49.542 9.20126C50.1988 8.52807 51.1038 8.15809 52.042 8.17908L52.0473 7.94481C51.044 7.92236 50.0763 8.31804 49.3743 9.03763L49.542 9.20126ZM48.7727 13.0922C48.2258 11.7582 48.5288 10.2251 49.5414 9.20186L49.3748 9.03703C48.296 10.1272 47.9734 11.7602 48.5558 13.1811L48.7727 13.0922ZM52.0456 15.312C50.6093 15.3008 49.3195 14.4262 48.7727 13.0922L48.5558 13.1811C49.1383 14.602 50.5127 15.5343 52.0437 15.5464L52.0456 15.312ZM54.5349 14.3024C53.8867 14.9784 52.9827 15.3455 52.0488 15.3121L52.0405 15.5463C53.0412 15.5821 54.0097 15.1886 54.704 14.4645L54.5349 14.3024ZM60.8588 8.97808H57.6988V9.2124H60.8588V8.97808ZM60.7417 8.22574V9.09524H60.976V8.22574H60.7417ZM56.7626 8.3429H60.8588V8.10858H56.7626V8.3429ZM56.8797 15.2757V8.22574H56.6454V15.2757H56.8797ZM60.8588 15.1586H56.7626V15.3929H60.8588V15.1586ZM60.7417 14.4062V15.2757H60.976V14.4062H60.7417ZM57.6988 14.5234H60.8588V14.2891H57.6988V14.5234ZM57.5817 12.1737V14.4062H57.816V12.1737H57.5817ZM60.578 12.0566H57.6988V12.2909H60.578V12.0566ZM60.4608 11.3277V12.1737H60.6951V11.3277H60.4608ZM57.6988 11.4449H60.578V11.2106H57.6988V11.4449ZM57.5817 9.09524V11.3277H57.816V9.09524H57.5817ZM63.7961 15.3929H64.6973V15.1586H63.7961V15.3929ZM63.6789 9.09524V15.2757H63.9133V9.09524H63.6789ZM61.8299 9.2124H63.7961V8.97808H61.8299V9.2124ZM61.7127 8.22574V9.09524H61.9471V8.22574H61.7127ZM66.7103 8.10858H61.8299V8.3429H66.7103V8.10858ZM66.8275 9.09524V8.22574H66.5932V9.09524H66.8275ZM64.6973 9.2124H66.7103V8.97808H64.6973V9.2124ZM64.8145 15.2757V9.09524H64.5801V15.2757H64.8145ZM70.2677 15.2757V8.22574H70.0334V15.2757H70.2677ZM71.0517 15.1586H70.1505V15.3929H71.0517V15.1586ZM70.9346 8.22574V15.2757H71.1689V8.22574H70.9346ZM70.1505 8.3429H71.0517V8.10858H70.1505V8.3429ZM74.1541 15.3929H75.0553V15.1586H74.1541V15.3929ZM74.0369 9.09524V15.2757H74.2712V9.09524H74.0369ZM72.1879 9.2124H74.1541V8.97808H72.1879V9.2124ZM72.0707 8.22574V9.09524H72.305V8.22574H72.0707ZM77.0098 8.10858H72.1879V8.3429H77.0098V8.10858ZM77.1269 9.09524V8.22574H76.8926V9.09524H77.1269ZM75.0553 9.2124H77.0098V8.97808H75.0553V9.2124ZM75.1724 15.2757V9.09524H74.9381V15.2757H75.1724ZM85.3988 13.6894C84.3897 14.6983 82.7582 14.6983 81.7491 13.6894L81.5834 13.8551C82.6841 14.9555 84.4639 14.9555 85.5645 13.8551L85.3988 13.6894ZM85.3947 9.80881C86.3904 10.9108 86.3904 12.5917 85.3947 13.6937L85.5686 13.8508C86.6449 12.6596 86.6449 10.8429 85.5686 9.65171L85.3947 9.80881ZM81.7491 9.81311C82.7582 8.80422 84.3897 8.80422 85.3988 9.81311L85.5645 9.6474C84.4639 8.54702 82.6841 8.54702 81.5834 9.6474L81.7491 9.81311ZM81.7532 13.6937C80.7575 12.5917 80.7575 10.9108 81.7532 9.80881L81.5793 9.65171C80.503 10.8429 80.503 12.6596 81.5793 13.8508L81.7532 13.6937ZM88.5735 15.2757V8.22574H88.3392V15.2757H88.5735ZM89.3693 15.1586H88.4564V15.3929H89.3693V15.1586ZM89.2521 9.52999V15.2757H89.4864V9.52999H89.2521ZM93.0384 15.2139L89.4688 9.46816L89.2697 9.59182L92.8394 15.3376L93.0384 15.2139ZM93.8752 15.1586H92.9389V15.3929H93.8752V15.1586ZM93.758 8.22574V15.2757H93.9924V8.22574H93.758ZM92.974 8.3429H93.8752V8.10858H92.974V8.3429ZM93.0912 13.713V8.22574H92.8568V13.713H93.0912ZM89.4571 8.28768L92.8746 13.7749L93.0735 13.651L89.656 8.1638L89.4571 8.28768ZM88.4564 8.3429H89.5565V8.10858H88.4564V8.3429Z" fill="white"/>
<path d="M12.2193 8.85959C11.8379 9.31915 11.6453 9.90745 11.681 10.5046V36.4956C11.6453 37.0927 11.8379 37.681 12.2193 38.1406L12.3012 38.2228L26.8021 23.6763V23.3356L12.3012 8.77734L12.2193 8.85959Z" fill="url(#paint0_linear)"/>
<path d="M31.6013 28.5307L26.8027 23.6779V23.3372L31.6013 18.4727L31.7066 18.5314L37.4531 21.8097C39.0916 22.7379 39.0916 24.2654 37.4531 25.2054L31.73 28.4719L31.6013 28.5307Z" fill="url(#paint1_linear)"/>
<path d="M31.7435 28.4585L26.8045 23.5L12.2217 38.1405C12.9107 38.7486 13.9333 38.7782 14.656 38.211L31.7552 28.4585" fill="url(#paint2_linear)"/>
<path d="M31.7444 18.5416L14.6453 8.7891C13.9225 8.22189 12.9 8.25151 12.2109 8.8596L26.8055 23.5001L31.7444 18.5416Z" fill="url(#paint3_linear)"/>
<path opacity="0.2" d="M31.603 28.3516L14.6443 38.0453C13.9504 38.5662 12.9976 38.5662 12.3036 38.0453L12.2217 38.1276L12.3036 38.2098C12.9963 38.7347 13.9517 38.7347 14.6443 38.2098L31.7435 28.4573L31.603 28.3516Z" fill="black"/>
<path opacity="0.12" fill-rule="evenodd" clip-rule="evenodd" d="M31.6003 28.3527L37.4521 25.0275C38.0569 24.7278 38.4891 24.1637 38.6225 23.5C38.5622 24.2337 38.1158 24.879 37.4521 25.192L31.7056 28.4585L31.6003 28.3527ZM11.6774 36.5597C11.6968 37.0767 11.8857 37.5753 12.2183 37.976L12.3003 38.07L12.2183 38.1522C11.8481 37.7062 11.6558 37.1387 11.6774 36.5597ZM11.6774 36.5597C11.6781 36.5422 11.6789 36.5247 11.68 36.5072V36.331C11.6754 36.4075 11.6746 36.4838 11.6774 36.5597Z" fill="black"/>
<path opacity="0.25" d="M14.6427 8.95141L37.4532 21.9704C38.0579 22.2701 38.4902 22.8342 38.6236 23.4979C38.5632 22.7642 38.1169 22.1189 37.4532 21.8059L14.6427 8.78691C13.0041 7.85866 11.6699 8.63416 11.6699 10.5142V10.6904C11.705 8.79866 13.0158 8.02316 14.6427 8.95141Z" fill="white"/>
<defs>
<linearGradient id="paint0_linear" x1="20.4508" y1="-8.8817" x2="-2.78074" y2="-2.72756" gradientUnits="userSpaceOnUse">
<stop stop-color="#00A0FF"/>
<stop offset="0.01" stop-color="#00A1FF"/>
<stop offset="0.26" stop-color="#00BEFF"/>
<stop offset="0.51" stop-color="#00D2FF"/>
<stop offset="0.76" stop-color="#00DFFF"/>
<stop offset="1" stop-color="#00E3FF"/>
</linearGradient>
<linearGradient id="paint1_linear" x1="39.5949" y1="11.5163" x2="11.2836" y2="11.5163" gradientUnits="userSpaceOnUse">
<stop stop-color="#FFE000"/>
<stop offset="0.41" stop-color="#FFBD00"/>
<stop offset="0.78" stop-color="#FFA500"/>
<stop offset="1" stop-color="#FF9C00"/>
</linearGradient>
<linearGradient id="paint2_linear" x1="11.7932" y1="15.8948" x2="-6.96736" y2="47.3275" gradientUnits="userSpaceOnUse">
<stop stop-color="#FF3A44"/>
<stop offset="1" stop-color="#C31162"/>
</linearGradient>
<linearGradient id="paint3_linear" x1="0.83496" y1="4.8129" x2="9.20881" y2="18.8492" gradientUnits="userSpaceOnUse">
<stop stop-color="#32A071"/>
<stop offset="0.07" stop-color="#2DA771"/>
<stop offset="0.48" stop-color="#15CF74"/>
<stop offset="0.8" stop-color="#06E775"/>
<stop offset="1" stop-color="#00F076"/>
</linearGradient>
</defs>
</svg>
