<svg width="88" height="51" viewBox="0 0 88 51" fill="none" xmlns="http://www.w3.org/2000/svg">
<path d="M17.4653 23.7846L11.6885 26.8746V5.3125H27.8106C33.4482 5.3125 38.029 9.83695 38.12 15.4528L38.1214 15.6233V15.7869C38.1214 18.9553 36.6693 21.7846 34.3942 23.6454C32.637 22.6351 27.9742 20.1573 27.9742 20.1573C30.3637 20.1573 32.3054 18.2395 32.344 15.8592L32.3446 15.7869V15.6233C32.3446 13.1443 30.355 11.13 27.8856 11.09L27.8106 11.0894L17.4653 11.0893L17.4653 23.7846Z" fill="#34C0E3"/>
<path fill-rule="evenodd" clip-rule="evenodd" d="M23.5409 22.0897V19.0234H18.9731V24.6139L11.6875 28.6401V33.9237L17.2264 30.9349L17.2263 40.5139L17.2263 40.6532H11.709V45.2944H19.1806V45.2913C19.2881 45.2933 19.3993 45.2943 19.5157 45.2943L19.8445 45.2917C22.0297 45.2562 28.605 45.262 33.5176 45.2723C36.7237 45.279 39.3234 42.6772 39.3125 39.4711L39.2812 30.3253C39.2713 27.4276 37.7068 24.7582 35.1834 23.3335L28.311 19.4537L23.5409 22.0897ZM23.5277 27.3633H23.5409V27.3562L28.2488 24.7955L33.1477 27.4632C34.1847 28.0279 34.83 29.1142 34.83 30.2949V39.3867C34.83 40.0545 34.2887 40.5958 33.6209 40.5958H30.3925V30.8459C30.3925 29.5846 29.37 28.562 28.1086 28.562C26.8473 28.562 25.8248 29.5846 25.8248 30.8459V40.5958H21.66L21.6598 28.3793L23.5277 27.3633Z" fill="#FA52A3"/>
<path d="M51.2744 10.3438L53.8566 16.9496" stroke="#34C0E3" stroke-width="1.06968" stroke-linecap="round" stroke-linejoin="round"/>
<path d="M56.4893 10.2461L52.8057 19.9454" stroke="#34C0E3" stroke-width="1.06968" stroke-linecap="round" stroke-linejoin="round"/>
<path d="M44.625 7.96875H47.4321C48.5037 7.96875 49.3724 8.83745 49.3724 9.90905V9.90905C49.3724 10.9807 48.5037 11.8494 47.4321 11.8494H44.625V7.96875Z" stroke="#34C0E3" stroke-width="1.06968" stroke-linecap="round" stroke-linejoin="round"/>
<path d="M44.625 11.8906H47.4321C48.8483 11.8906 49.9964 13.0387 49.9964 14.4549V14.4549C49.9964 15.8711 48.8483 17.0192 47.4321 17.0192H44.625V11.8906Z" stroke="#34C0E3" stroke-width="1.06968" stroke-linecap="round" stroke-linejoin="round"/>
<path d="M44.625 22.5781V31.5798" stroke="#34C0E3" stroke-width="1.06968" stroke-linecap="round" stroke-linejoin="round"/>
<path d="M50.5977 22.5781V31.5798" stroke="#34C0E3" stroke-width="1.06968" stroke-linecap="round" stroke-linejoin="round"/>
<path d="M50.5169 27.4609H44.7773" stroke="#34C0E3" stroke-width="1.06968" stroke-linecap="round" stroke-linejoin="round"/>
<circle cx="55.9661" cy="28.2396" r="3.29818" stroke="#34C0E3" stroke-width="1.06968" stroke-linecap="round" stroke-linejoin="round"/>
<path d="M78.431 28.2383H72.0674" stroke="#34C0E3" stroke-width="1.06968" stroke-linecap="round" stroke-linejoin="round"/>
<path d="M78.443 28.2396C78.443 26.4181 76.9664 24.9414 75.1449 24.9414C73.3233 24.9414 71.8467 26.4181 71.8467 28.2396C71.8467 30.0611 73.3233 31.5378 75.1449 31.5378C76.1797 31.5378 77.1032 31.0612 77.7079 30.3155" stroke="#34C0E3" stroke-width="1.06968" stroke-linecap="round" stroke-linejoin="round"/>
<path d="M61.3506 24.8555V31.5395" stroke="#34C0E3" stroke-width="1.06968" stroke-linecap="round" stroke-linejoin="round"/>
<path d="M65.5041 31.5353V26.9195C65.5041 25.7731 64.5748 24.8438 63.4283 24.8438V24.8438C62.2819 24.8438 61.3525 25.7731 61.3525 26.9195V31.5353" stroke="#34C0E3" stroke-width="1.06968" stroke-linecap="round" stroke-linejoin="round"/>
<path d="M69.6945 31.5353V26.9195C69.6945 25.7731 68.7652 24.8438 67.6188 24.8438V24.8438C66.4723 24.8438 65.543 25.7731 65.543 26.9195V31.5353" stroke="#34C0E3" stroke-width="1.06968" stroke-linecap="round" stroke-linejoin="round"/>
<circle cx="49.1115" cy="39.3928" r="4.4865" stroke="#34C0E3" stroke-width="1.06968" stroke-linecap="round" stroke-linejoin="round"/>
<path d="M78.6273 40.582H72.2637" stroke="#34C0E3" stroke-width="1.06968" stroke-linecap="round" stroke-linejoin="round"/>
<path d="M78.6374 40.5833C78.6374 38.7618 77.1607 37.2852 75.3392 37.2852C73.5177 37.2852 72.041 38.7618 72.041 40.5833C72.041 42.4049 73.5177 43.8815 75.3392 43.8815C76.374 43.8815 77.2976 43.4049 77.9022 42.6593" stroke="#34C0E3" stroke-width="1.06968" stroke-linecap="round" stroke-linejoin="round"/>
<path d="M65.3008 37.2461V43.9301" stroke="#34C0E3" stroke-width="1.06968" stroke-linecap="round" stroke-linejoin="round"/>
<path d="M69.9 43.9259V39.533C69.9 38.2635 68.8709 37.2344 67.6014 37.2344V37.2344C66.3319 37.2344 65.3027 38.2635 65.3027 39.533V43.9259" stroke="#34C0E3" stroke-width="1.06968" stroke-linecap="round" stroke-linejoin="round"/>
<path d="M84.2694 37.1914V37.1914C82.337 37.1914 80.7705 38.7579 80.7705 40.6903V43.883" stroke="#34C0E3" stroke-width="1.06968" stroke-linecap="round" stroke-linejoin="round"/>
<path d="M80.7705 37.2031V43.8871" stroke="#34C0E3" stroke-width="1.06968" stroke-linecap="round" stroke-linejoin="round"/>
<path d="M55.5938 37.293L58.1301 43.9325L60.6664 37.293" stroke="#34C0E3" stroke-width="1.06968" stroke-linecap="round" stroke-linejoin="round"/>
<path d="M58.0898 37.293L60.6261 43.9325L63.1624 37.293" stroke="#34C0E3" stroke-width="1.06968" stroke-linecap="round" stroke-linejoin="round"/>
<path d="M80.7256 31.8594V34.3716" stroke="#34C0E3" stroke-width="0.4457"/>
<path d="M79.8408 31.8477H81.61" stroke="#34C0E3" stroke-width="0.4457"/>
<path fill-rule="evenodd" clip-rule="evenodd" d="M83.7439 31.625H84.1622L84.7298 34.3307H84.2894L83.913 32.5839L83.3764 34.3126H83.3756L83.376 34.3139H82.9042L82.3676 32.5852L81.9911 34.332H81.5508L82.1183 31.6263H82.5367L83.1401 33.5585L83.7439 31.625Z" fill="#34C0E3"/>
</svg>
