<svg width="48" height="48" viewBox="0 0 48 48" fill="none" xmlns="http://www.w3.org/2000/svg">
<path d="M46.9565 0H7.30435H1.04348C0.467478 0 0 0.467478 0 1.04348V7.30435V46.9565C0 47.5325 0.467478 48 1.04348 48H7.30435C7.88035 48 8.34783 47.5325 8.34783 46.9565V45.913H38.6087C38.8852 45.913 39.1513 45.8035 39.3464 45.6073L45.6073 39.3464C45.8035 39.1513 45.913 38.8852 45.913 38.6087V8.34783H46.9565C47.5325 8.34783 48 7.88035 48 7.30435V1.04348C48 0.467478 47.5325 0 46.9565 0ZM6.26087 45.913H2.08696V8.34783H6.26087V45.913ZM6.26087 6.26087H2.08696V2.08696H6.26087V6.26087ZM43.8261 38.1767L38.1767 43.8261H37.5652V37.5652H43.8261V38.1767ZM43.8261 35.4783H36.5217C35.9457 35.4783 35.4783 35.9457 35.4783 36.5217V43.8261H8.34783V25.0435H13.5652C14.1412 25.0435 14.6087 24.576 14.6087 24C14.6087 23.424 14.1412 22.9565 13.5652 22.9565H8.34783V8.34783H22.9565V13.5652C22.9565 14.1412 23.424 14.6087 24 14.6087C24.576 14.6087 25.0435 14.1412 25.0435 13.5652V8.34783H43.8261V35.4783ZM45.913 6.26087H8.34783V2.08696H45.913V6.26087Z" fill="#888888"/>
<path d="M23.9991 18.7827C23.4231 18.7827 22.9557 19.2502 22.9557 19.8262V22.9566H19.8252C19.2492 22.9566 18.7817 23.4241 18.7817 24.0001C18.7817 24.5761 19.2492 25.0436 19.8252 25.0436H23.9991C24.5751 25.0436 25.0426 24.5761 25.0426 24.0001V19.8262C25.0426 19.2502 24.5751 18.7827 23.9991 18.7827Z" fill="#888888"/>
</svg>
