<svg width="48" height="48" viewBox="0 0 48 48" fill="none" xmlns="http://www.w3.org/2000/svg">
<path d="M43.9023 26.4336C43.9023 25.7742 43.3539 25.2395 42.6775 25.2395H40.2262V8.95821C40.2262 5.76008 37.5573 3.1582 34.277 3.1582C30.9967 3.1582 28.3279 5.76008 28.3279 8.95821V11.1351C28.3279 11.7945 28.8763 12.3292 29.5527 12.3292C30.2291 12.3292 30.7776 11.7945 30.7776 11.1351V8.95821C30.7776 7.07696 32.3474 5.54649 34.277 5.54649C36.2066 5.54649 37.7764 7.07696 37.7764 8.95821V25.2394H5.12718C4.45078 25.2394 3.90234 25.7741 3.90234 26.4336C3.90234 31.823 7.39864 36.4306 12.2958 38.2155C11.3538 39.1809 10.7711 40.5048 10.7711 41.9641C10.7711 42.6235 11.3196 43.1582 11.996 43.1582C12.6724 43.1582 13.2208 42.6235 13.2208 41.9641C13.2208 40.3335 14.4969 39.0069 16.0656 39.0069C16.1232 39.0069 31.6816 39.0069 31.7392 39.0069C33.3079 39.0069 34.5841 40.3335 34.5841 41.9641C34.5841 42.6235 35.1325 43.1582 35.8089 43.1582C36.4853 43.1582 37.0337 42.6235 37.0337 41.9641C37.0337 40.5049 36.451 39.181 35.509 38.2155C40.4061 36.4307 43.9023 31.8229 43.9023 26.4336ZM31.0058 36.6187H16.799C11.4527 36.6187 7.03154 32.6834 6.42341 27.6278H41.3814C40.7732 32.6834 36.352 36.6187 31.0058 36.6187Z" fill="#888888"/>
<path d="M29.5564 14.4045C28.88 14.4045 28.3315 14.9392 28.3315 15.5987V16.6336C28.3315 17.2931 28.88 17.8278 29.5564 17.8278C30.2328 17.8278 30.7812 17.2931 30.7812 16.6336V15.5987C30.7811 14.9392 30.2328 14.4045 29.5564 14.4045Z" fill="#888888"/>
<path d="M29.5564 20.1362C28.88 20.1362 28.3315 20.6709 28.3315 21.3304V22.3653C28.3315 23.0248 28.88 23.5594 29.5564 23.5594C30.2328 23.5594 30.7812 23.0248 30.7812 22.3653V21.3304C30.7811 20.6708 30.2328 20.1362 29.5564 20.1362Z" fill="#888888"/>
</svg>
