<svg width="48" height="48" viewBox="0 0 48 48" fill="none" xmlns="http://www.w3.org/2000/svg">
<g clip-path="url(#clip0)">
<path d="M42.4252 16.232C42.4252 15.448 41.7895 14.8123 41.0055 14.8123H6.99494C6.21091 14.8123 5.5752 15.4479 5.5752 16.232C5.5752 23.4694 9.77031 29.7445 15.856 32.7561L13.2605 46.3132C13.1131 47.0832 13.6178 47.827 14.388 47.9745C14.4781 47.9919 14.5679 48.0002 14.6565 48.0002C15.324 48.0002 15.9191 47.527 16.0493 46.8471L17.268 40.4809H30.7316L31.951 46.8473C32.0813 47.5271 32.6762 48.0002 33.3438 48.0002C33.4324 48.0002 33.5223 47.9919 33.6125 47.9745C34.3825 47.827 34.8872 47.0832 34.7397 46.3131L32.1429 32.7569C38.2294 29.7454 42.4252 23.47 42.4252 16.232ZM17.8117 37.6415L18.5412 33.8314C20.2668 34.3677 22.1004 34.657 24.0002 34.657C25.8996 34.657 27.7326 34.3679 29.458 33.8318L30.1878 37.6415H17.8117ZM24.0001 31.8176C15.8847 31.8176 9.19797 25.5831 8.47872 17.6518H39.5215C38.8023 25.583 32.1157 31.8176 24.0001 31.8176Z" fill="#888888"/>
<path d="M18.5498 7.33089C18.8828 6.98851 19.6877 6.04961 19.9718 4.72886C20.2064 3.63808 20.1464 2.0029 18.5286 0.408401C17.9703 -0.142004 17.0715 -0.135629 16.521 0.422839C15.9706 0.981119 15.977 1.88009 16.5354 2.43049C17.2944 3.17871 17.2758 3.75977 17.1959 4.13196C17.0596 4.76552 16.6042 5.25883 16.5143 5.35127C16.1813 5.69364 15.3764 6.63254 15.0923 7.95329C14.8576 9.04407 14.9176 10.6793 16.5355 12.2738C16.812 12.5464 17.1721 12.6823 17.532 12.6823C17.8988 12.6823 18.2654 12.5411 18.5431 12.2592C19.0935 11.7009 19.0871 10.802 18.5287 10.2516C17.7697 9.50335 17.7883 8.92229 17.8682 8.5501C18.0045 7.91673 18.4599 7.42342 18.5498 7.33089Z" fill="#888888"/>
<path d="M25.018 7.33089C25.351 6.98851 26.156 6.04961 26.44 4.72886C26.6747 3.63808 26.6147 2.0029 24.9969 0.408401C24.4386 -0.142004 23.5396 -0.135629 22.9892 0.422839C22.4388 0.981119 22.4453 1.88009 23.0037 2.43049C23.7626 3.17871 23.7441 3.75977 23.6641 4.13196C23.5279 4.76552 23.0725 5.25883 22.9826 5.35127C22.6496 5.69364 21.8446 6.63254 21.5606 7.95329C21.3259 9.04407 21.3859 10.6793 23.0037 12.2738C23.2802 12.5464 23.6403 12.6823 24.0003 12.6823C24.367 12.6823 24.7336 12.5411 25.0114 12.2592C25.5618 11.7009 25.5553 10.802 24.997 10.2516C24.238 9.50335 24.2565 8.92229 24.3365 8.5501C24.4727 7.91673 24.9281 7.42342 25.018 7.33089Z" fill="#888888"/>
<path d="M31.4853 7.33089C31.8183 6.98851 32.6233 6.04961 32.9073 4.72886C33.142 3.63808 33.082 2.0029 31.4642 0.408401C30.9059 -0.142004 30.007 -0.135629 29.4565 0.422839C28.9061 0.981119 28.9126 1.88009 29.4709 2.43049C30.2299 3.17871 30.2114 3.75977 30.1314 4.13196C29.9952 4.76552 29.5398 5.25883 29.4498 5.35127C29.1168 5.69364 28.3119 6.63254 28.0279 7.95329C27.7932 9.04407 27.8532 10.6793 29.471 12.2738C29.7476 12.5464 30.1076 12.6823 30.4676 12.6823C30.8343 12.6823 31.2009 12.5411 31.4787 12.2592C32.0291 11.7009 32.0226 10.802 31.4643 10.2516C30.7053 9.50335 30.7238 8.92229 30.8038 8.5501C30.94 7.91673 31.3954 7.42342 31.4853 7.33089Z" fill="#888888"/>
</g>
<defs>
<clipPath id="clip0">
<rect width="48" height="48" fill="white"/>
</clipPath>
</defs>
</svg>
