<svg width="48" height="48" viewBox="0 0 48 48" fill="none" xmlns="http://www.w3.org/2000/svg">
<path d="M44.3765 25.9255C44.5159 25.5325 44.5925 25.1099 44.5925 24.6698C44.5925 23.3695 43.9304 22.2212 42.9257 21.5439V12.4392C42.9257 10.3619 41.2357 8.67188 39.1584 8.67188H8.83767C6.7604 8.67188 5.07039 10.3619 5.07039 12.4392V21.5439C4.0657 22.2212 3.40358 23.3695 3.40358 24.6698C3.40358 25.1099 3.48018 25.5325 3.61957 25.9255H2.56641V41.9993H5.07793V38.1561H42.9182V41.9993H45.4297V25.9255H44.3765ZM8.83767 11.1834H39.1584C39.8509 11.1834 40.4142 11.7467 40.4142 12.4392V20.9025H37.9063V19.6467C37.9063 17.5694 36.2163 15.8794 34.139 15.8794H26.5096C25.5454 15.8794 24.665 16.2439 23.9981 16.8418C23.331 16.2439 22.4507 15.8794 21.4865 15.8794H13.8571C11.7798 15.8794 10.0898 17.5694 10.0898 19.6467V20.9025H7.58191V12.4392C7.58191 11.7467 8.14525 11.1834 8.83767 11.1834ZM22.7423 20.9025H12.6014V19.6467C12.6014 18.9543 13.1647 18.391 13.8571 18.391H21.4865C22.179 18.391 22.7423 18.9543 22.7423 19.6467V20.9025ZM25.2538 19.6467C25.2538 18.9543 25.8171 18.391 26.5096 18.391H34.139C34.8314 18.391 35.3947 18.9543 35.3947 19.6467V20.9025H25.2538V19.6467ZM5.9151 24.6698C5.9151 23.9773 6.47844 23.414 7.17086 23.414H40.8252C41.5177 23.414 42.081 23.9773 42.081 24.6698C42.081 25.3622 41.5177 25.9255 40.8252 25.9255H7.17086C6.47844 25.9255 5.9151 25.3622 5.9151 24.6698ZM5.07793 28.437H42.9182V35.6446H5.07793V28.437Z" fill="#888888"/>
</svg>
