<svg width="48" height="48" viewBox="0 0 48 48" fill="none" xmlns="http://www.w3.org/2000/svg">
<path d="M35.9985 16.0007C35.9985 12.8181 34.7343 9.76589 32.4838 7.51545C30.2334 5.26501 27.1811 4.00073 23.9985 4.00073C20.8159 4.00073 17.7637 5.26501 15.5133 7.51545C13.2628 9.76589 11.9985 12.8181 11.9985 16.0007C11.9985 30.0007 5.99854 34.0007 5.99854 34.0007H41.9985C41.9985 34.0007 35.9985 30.0007 35.9985 16.0007Z" stroke="#888888" stroke-width="4" stroke-linecap="round" stroke-linejoin="round"/>
<path d="M27.4605 42.0002C27.1089 42.6064 26.6042 43.1095 25.997 43.4593C25.3897 43.8091 24.7013 43.9932 24.0005 43.9932C23.2998 43.9932 22.6113 43.8091 22.0041 43.4593C21.3968 43.1095 20.8921 42.6064 20.5405 42.0002" stroke="#888888" stroke-width="4" stroke-linecap="round" stroke-linejoin="round"/>
</svg>
