<svg width="48" height="48" viewBox="0 0 48 48" fill="none" xmlns="http://www.w3.org/2000/svg">
<g clip-path="url(#clip0)">
<path d="M36.9597 1.14526C32.1755 1.14526 28.0927 4.26697 26.5632 8.44697H7.26146C6.83389 8.44697 6.48682 8.83239 6.48379 9.25958L6.3 36.5405H0.79818C0.368712 36.5405 0 36.8514 0 37.2817V40.7436C0.00987277 44.0028 2.57681 46.6802 5.83256 46.8275V46.8446H29.8433V46.8219C30.0377 46.8291 30.1178 46.8446 30.2408 46.8446H30.2575C33.6272 46.8393 36.3563 44.1061 36.3563 40.7364V23.2327C36.5507 23.2433 36.7565 23.249 36.9578 23.249C43.0459 23.249 48.0001 18.2852 48.0001 12.1967C48.0001 6.10863 43.0482 1.14526 36.9597 1.14526ZM6.12836 45.2893H6.12343C3.60776 45.2859 1.56674 43.2517 1.55535 40.7356V38.0958H24.1079V40.7246C24.1091 42.3476 24.7572 43.9033 25.9086 45.0474C25.9902 45.129 26.0916 45.1921 26.177 45.2893H6.12836ZM34.8009 40.7356C34.8013 43.2471 32.7679 45.2844 30.2568 45.2893H30.242C27.7206 45.2847 25.6758 43.2464 25.6633 40.7254V37.2817C25.6697 37.0827 25.5938 36.8902 25.4529 36.7497C25.312 36.6092 25.1195 36.5336 24.9209 36.5405H7.85535L8.03382 10.0023H26.1315C25.9936 10.7143 25.9222 11.4373 25.9184 12.1622C25.9169 13.6951 26.2366 15.211 26.8571 16.6126H19.5117C19.0819 16.6126 18.7341 16.9608 18.7341 17.3902C18.7341 17.8197 19.0819 18.1679 19.5117 18.1679H27.7009C29.3052 20.6908 31.8699 22.4497 34.8009 23.0382V40.7356ZM36.9597 21.694C31.721 21.694 27.4738 17.4472 27.4742 12.2081C27.4742 6.96909 31.721 2.72226 36.96 2.72226C42.1987 2.72226 46.4456 6.96947 46.4456 12.2081C46.4399 17.4445 42.1964 21.6883 36.9597 21.694Z" fill="#888888"/>
<path d="M14.5189 21.7881C13.1462 21.7881 12.0298 22.8692 12.0298 24.1982C12.0298 25.5272 13.1462 26.6083 14.5189 26.6083C15.8916 26.6083 17.0083 25.5272 17.0083 24.1982C17.0083 22.8692 15.8916 21.7881 14.5189 21.7881ZM14.5189 25.053C14.0036 25.053 13.5851 24.6694 13.5851 24.1982C13.5851 23.7266 14.004 23.3434 14.5189 23.3434C15.0338 23.3434 15.453 23.727 15.453 24.1982C15.453 24.6694 15.0338 25.053 14.5189 25.053Z" fill="#888888"/>
<path d="M18.7344 24.1949C18.7344 24.6244 19.0822 24.9726 19.512 24.9726H29.88C30.3095 24.9726 30.6577 24.6244 30.6577 24.1949C30.6577 23.7654 30.3095 23.4172 29.88 23.4172H19.512C19.0822 23.4172 18.7344 23.7654 18.7344 24.1949Z" fill="#888888"/>
<path d="M14.5189 15.0281C13.1462 15.0281 12.0298 16.1095 12.0298 17.4386C12.0298 18.7676 13.1462 19.8487 14.5189 19.8487C15.8916 19.8487 17.0083 18.7676 17.0083 17.4386C17.0083 16.1095 15.8916 15.0281 14.5189 15.0281ZM14.5189 18.2933C14.0036 18.2933 13.5851 17.9098 13.5851 17.4386C13.5851 16.9673 14.004 16.5834 14.5189 16.5834C15.0338 16.5834 15.453 16.9669 15.453 17.4386C15.453 17.9098 15.0338 18.2937 14.5189 18.2937V18.2933Z" fill="#888888"/>
<path d="M14.5189 28.5476C13.1462 28.5476 12.0298 29.6287 12.0298 30.9577C12.0298 32.2867 13.1462 33.3678 14.5189 33.3678C15.8916 33.3678 17.0083 32.2867 17.0083 30.9577C17.0083 29.6287 15.8916 28.5476 14.5189 28.5476ZM14.5189 31.8125C14.0036 31.8125 13.5851 31.4293 13.5851 30.9577C13.5851 30.4865 14.004 30.103 14.5189 30.103C15.0338 30.103 15.453 30.4865 15.453 30.9577C15.453 31.4289 15.0338 31.8125 14.5189 31.8125Z" fill="#888888"/>
<path d="M29.88 30.2217H19.512C19.0822 30.2217 18.7344 30.5699 18.7344 30.9994C18.7344 31.4288 19.0822 31.777 19.512 31.777H29.88C30.3095 31.777 30.6577 31.4288 30.6577 30.9994C30.6577 30.5699 30.3095 30.2217 29.88 30.2217Z" fill="#888888"/>
<path d="M32.6304 11.8895C32.6304 11.7119 32.6856 11.5607 32.796 11.4359C32.9064 11.3063 33.072 11.2415 33.2928 11.2415H33.9912V9.60715C33.9912 9.15595 34.0584 8.72635 34.1928 8.31835C34.332 7.91035 34.5408 7.55275 34.8192 7.24555C35.0976 6.93355 35.4456 6.68875 35.8632 6.51115C36.2856 6.32875 36.7824 6.23755 37.3536 6.23755C37.7376 6.23755 38.0832 6.28795 38.3904 6.38875C38.7024 6.48475 38.9784 6.61915 39.2184 6.79195C39.4632 6.95995 39.6768 7.16155 39.8592 7.39675C40.0416 7.62715 40.1976 7.87675 40.3272 8.14555L39.5352 8.64955C39.3528 8.74555 39.1752 8.78875 39.0024 8.77915C38.8344 8.76475 38.6808 8.68075 38.5416 8.52715C38.4504 8.42635 38.3616 8.33755 38.2752 8.26075C38.1936 8.17915 38.1072 8.10955 38.016 8.05195C37.9248 7.99435 37.824 7.95115 37.7136 7.92235C37.608 7.89355 37.488 7.87915 37.3536 7.87915C36.9024 7.87915 36.5688 8.03035 36.3528 8.33275C36.1368 8.63035 36.0288 9.05275 36.0288 9.59995V11.2415H38.8728V12.012C38.8728 12.0743 38.8584 12.1367 38.8296 12.1991C38.8056 12.2567 38.7672 12.3095 38.7144 12.3575C38.6664 12.4055 38.6088 12.4439 38.5416 12.4727C38.4744 12.5015 38.4 12.5159 38.3184 12.5159H36.0288V13.7903C36.0288 14.0928 35.9712 14.3664 35.856 14.6111C35.7456 14.8511 35.592 15.0744 35.3952 15.2808C35.5872 15.2423 35.7792 15.2112 35.9712 15.1872C36.1632 15.1583 36.36 15.144 36.5616 15.144H40.5072V15.9648C40.5072 16.0608 40.4856 16.1592 40.4424 16.26C40.404 16.3608 40.3464 16.452 40.2696 16.5336C40.1976 16.6104 40.1088 16.6751 40.0032 16.728C39.9024 16.7759 39.7872 16.8 39.6576 16.8H32.7672V15.5831C32.9256 15.5496 33.0792 15.4992 33.228 15.4319C33.3768 15.3647 33.5064 15.2808 33.6168 15.1799C33.732 15.0792 33.8232 14.9567 33.8904 14.8127C33.9576 14.6687 33.9912 14.5031 33.9912 14.3159V12.5159H32.6304V11.8895Z" fill="#888888"/>
</g>
<defs>
<clipPath id="clip0">
<rect width="48" height="48" fill="white"/>
</clipPath>
</defs>
</svg>
