<svg width="48" height="48" viewBox="0 0 48 48" fill="none" xmlns="http://www.w3.org/2000/svg">
<path d="M3.99951 6H15.9995C18.1212 6 20.1561 6.84285 21.6564 8.34315C23.1567 9.84344 23.9995 11.8783 23.9995 14V42C23.9995 40.4087 23.3674 38.8826 22.2422 37.7574C21.1169 36.6321 19.5908 36 17.9995 36H3.99951V6Z" stroke="#888888" stroke-width="4" stroke-linecap="round" stroke-linejoin="round"/>
<path d="M44 6H32C29.8783 6 27.8434 6.84285 26.3431 8.34315C24.8429 9.84344 24 11.8783 24 14V42C24 40.4087 24.6321 38.8826 25.7574 37.7574C26.8826 36.6321 28.4087 36 30 36H44V6Z" stroke="#888888" stroke-width="4" stroke-linecap="round" stroke-linejoin="round"/>
</svg>
