<svg width="48" height="48" viewBox="0 0 48 48" fill="none" xmlns="http://www.w3.org/2000/svg">
<path d="M12.2812 44H35.7188C37.6572 44 39.2344 42.4229 39.2344 40.4844V7.51562C39.2344 5.57715 37.6572 4 35.7188 4H12.2812C10.3428 4 8.76562 5.57715 8.76562 7.51562V40.4844C8.76562 42.4229 10.3428 44 12.2812 44ZM36.8906 15.875V27.5938H25.1719V15.875H36.8906ZM22.8281 27.5938H11.1094V15.875H22.8281V27.5938ZM11.1094 40.4844V29.9375H22.8281V41.6562H12.2812C11.6352 41.6562 11.1094 41.1304 11.1094 40.4844ZM35.7188 41.6562H25.1719V29.9375H36.8906V40.4844C36.8906 41.1304 36.3648 41.6562 35.7188 41.6562ZM12.2812 6.34375H35.7188C36.3648 6.34375 36.8906 6.86957 36.8906 7.51562V13.5312H11.1094V7.51562C11.1094 6.86957 11.6352 6.34375 12.2812 6.34375Z" fill="#888888"/>
<path d="M14.625 22.9062H15.7969V24.0781C15.7969 24.7254 16.3215 25.25 16.9688 25.25C17.616 25.25 18.1406 24.7254 18.1406 24.0781V22.9062H19.3125C19.9598 22.9062 20.4844 22.3817 20.4844 21.7344C20.4844 21.0871 19.9598 20.5625 19.3125 20.5625H18.1406V19.3906C18.1406 18.7433 17.616 18.2188 16.9688 18.2188C16.3215 18.2188 15.7969 18.7433 15.7969 19.3906V20.5625H14.625C13.9777 20.5625 13.4531 21.0871 13.4531 21.7344C13.4531 22.3817 13.9777 22.9062 14.625 22.9062Z" fill="#888888"/>
<path d="M18.6268 35.7973L19.4554 34.9688C19.9131 34.511 19.9131 33.7691 19.4554 33.3113C18.9979 32.8539 18.2557 32.8539 17.798 33.3113L16.9694 34.1399L16.1409 33.3113C15.6831 32.8536 14.9412 32.8536 14.4835 33.3113C14.0257 33.7691 14.0257 34.511 14.4835 34.9688L15.312 35.7973L14.4835 36.6259C14.0257 37.0836 14.0257 37.8255 14.4835 38.2833C14.9409 38.7407 15.6831 38.741 16.1409 38.2833L16.9694 37.4547L17.798 38.2833C18.2557 38.741 18.9976 38.741 19.4554 38.2833C19.9131 37.8255 19.9131 37.0836 19.4554 36.6259L18.6268 35.7973Z" fill="#888888"/>
<path d="M28.6875 22.9062H33.375C34.0223 22.9062 34.5469 22.3817 34.5469 21.7344C34.5469 21.0871 34.0223 20.5625 33.375 20.5625H28.6875C28.0402 20.5625 27.5156 21.0871 27.5156 21.7344C27.5156 22.3817 28.0402 22.9062 28.6875 22.9062Z" fill="#888888"/>
<path d="M33.375 36.9688H28.6875C28.0402 36.9688 27.5156 37.4933 27.5156 38.1406C27.5156 38.7879 28.0402 39.3125 28.6875 39.3125H33.375C34.0223 39.3125 34.5469 38.7879 34.5469 38.1406C34.5469 37.4933 34.0223 36.9688 33.375 36.9688Z" fill="#888888"/>
<path d="M33.375 32.2812H28.6875C28.0402 32.2812 27.5156 32.8058 27.5156 33.4531C27.5156 34.1004 28.0402 34.625 28.6875 34.625H33.375C34.0223 34.625 34.5469 34.1004 34.5469 33.4531C34.5469 32.8058 34.0223 32.2812 33.375 32.2812Z" fill="#888888"/>
<path d="M14.625 11.1094H16.9688C17.616 11.1094 18.1406 10.5848 18.1406 9.9375C18.1406 9.29022 17.616 8.76562 16.9688 8.76562H14.625C13.9777 8.76562 13.4531 9.29022 13.4531 9.9375C13.4531 10.5848 13.9777 11.1094 14.625 11.1094Z" fill="#888888"/>
</svg>
