<svg width="48" height="48" viewBox="0 0 48 48" fill="none" xmlns="http://www.w3.org/2000/svg">
<path d="M12.2812 44H35.7188C37.6572 44 39.2344 42.4229 39.2344 40.4844V7.51562C39.2344 5.57715 37.6572 4 35.7188 4H12.2812C10.3428 4 8.76562 5.57715 8.76562 7.51562V40.4844C8.76562 42.4229 10.3428 44 12.2812 44ZM36.8906 15.875V27.5938H25.1719V15.875H36.8906ZM22.8281 27.5938H11.1094V15.875H22.8281V27.5938ZM11.1094 40.4844V29.9375H22.8281V41.6562H12.2812C11.6352 41.6562 11.1094 41.1304 11.1094 40.4844ZM35.7188 41.6562H25.1719V29.9375H36.8906V40.4844C36.8906 41.1304 36.3648 41.6562 35.7188 41.6562ZM12.2812 6.34375H35.7188C36.3648 6.34375 36.8906 6.86957 36.8906 7.51562V13.5312H11.1094V7.51562C11.1094 6.86957 11.6352 6.34375 12.2812 6.34375Z" fill="#888888"/>
<path d="M14.625 22.906H15.7969V24.0779C15.7969 24.7252 16.3215 25.2498 16.9688 25.2498C17.616 25.2498 18.1406 24.7252 18.1406 24.0779V22.906H19.3125C19.9598 22.906 20.4844 22.3814 20.4844 21.7341C20.4844 21.0869 19.9598 20.5623 19.3125 20.5623H18.1406V19.3904C18.1406 18.7431 17.616 18.2185 16.9688 18.2185C16.3215 18.2185 15.7969 18.7431 15.7969 19.3904V20.5623H14.625C13.9777 20.5623 13.4531 21.0869 13.4531 21.7341C13.4531 22.3814 13.9777 22.906 14.625 22.906Z" fill="#888888"/>
<path d="M18.6259 35.7971L19.4544 34.9685C19.9122 34.5107 19.9122 33.7689 19.4544 33.3111C18.9969 32.8536 18.2548 32.8536 17.797 33.3111L16.9684 34.1396L16.1399 33.3111C15.6821 32.8533 14.9402 32.8533 14.4825 33.3111C14.0247 33.7689 14.0247 34.5107 14.4825 34.9685L15.311 35.7971L14.4825 36.6256C14.0247 37.0834 14.0247 37.8253 14.4825 38.283C14.9399 38.7405 15.6821 38.7408 16.1399 38.283L16.9684 37.4545L17.797 38.283C18.2548 38.7408 18.9966 38.7408 19.4544 38.283C19.9122 37.8253 19.9122 37.0834 19.4544 36.6256L18.6259 35.7971Z" fill="#888888"/>
<path d="M28.6875 22.906H33.375C34.0223 22.906 34.5469 22.3814 34.5469 21.7341C34.5469 21.0869 34.0223 20.5623 33.375 20.5623H28.6875C28.0402 20.5623 27.5156 21.0869 27.5156 21.7341C27.5156 22.3814 28.0402 22.906 28.6875 22.906Z" fill="#888888"/>
<path d="M33.375 36.9685H28.6875C28.0402 36.9685 27.5156 37.4931 27.5156 38.1404C27.5156 38.7877 28.0402 39.3123 28.6875 39.3123H33.375C34.0223 39.3123 34.5469 38.7877 34.5469 38.1404C34.5469 37.4931 34.0223 36.9685 33.375 36.9685Z" fill="#888888"/>
<path d="M33.375 32.281H28.6875C28.0402 32.281 27.5156 32.8056 27.5156 33.4529C27.5156 34.1002 28.0402 34.6248 28.6875 34.6248H33.375C34.0223 34.6248 34.5469 34.1002 34.5469 33.4529C34.5469 32.8056 34.0223 32.281 33.375 32.281Z" fill="#888888"/>
<path d="M14.625 11.1094H16.9688C17.616 11.1094 18.1406 10.5848 18.1406 9.9375C18.1406 9.29022 17.616 8.76562 16.9688 8.76562H14.625C13.9777 8.76562 13.4531 9.29022 13.4531 9.9375C13.4531 10.5848 13.9777 11.1094 14.625 11.1094Z" fill="#888888"/>
</svg>
