<svg width="47" height="47" viewBox="0 0 47 47" fill="none" xmlns="http://www.w3.org/2000/svg">
<g clip-path="url(#clip0)">
<path d="M44.7969 32.6186V6.47168C44.7969 4.92784 43.5408 3.67188 41.9971 3.67188H35.3418V2.75391C35.3418 1.2354 34.1064 0 32.5879 0C31.0694 0 29.834 1.2354 29.834 2.75391V3.67188H14.9629V2.75391C14.9629 1.2354 13.7275 0 12.209 0C10.6905 0 9.45508 1.2354 9.45508 2.75391V3.67188H2.7998C1.25606 3.67188 0 4.92784 0 6.47168V40.5283C0 42.0722 1.25606 43.3281 2.7998 43.3281H15.3118C15.8187 43.3281 16.2298 42.9171 16.2298 42.4102C16.2298 41.9032 15.8187 41.4922 15.3118 41.4922H2.7998C2.2683 41.4922 1.83594 41.0598 1.83594 40.5283V6.47168C1.83594 5.94018 2.2683 5.50781 2.7998 5.50781H9.45508V6.42578C9.45508 7.94428 10.6905 9.17969 12.209 9.17969C13.7275 9.17969 14.9629 7.94428 14.9629 6.42578V5.50781H29.834V6.42578C29.834 7.94428 31.0694 9.17969 32.5879 9.17969C34.1064 9.17969 35.3418 7.94428 35.3418 6.42578V5.50781H41.9971C42.5286 5.50781 42.9609 5.94018 42.9609 6.47168V11.0156H8.26172C7.75482 11.0156 7.34375 11.4266 7.34375 11.9336C7.34375 12.4406 7.75482 12.8516 8.26172 12.8516H42.9609V31.0675C42.1794 30.5745 41.3137 30.2036 40.3906 29.9814V16.3398C40.3906 15.8328 39.9796 15.4219 39.4727 15.4219H5.32422C4.81732 15.4219 4.40625 15.8328 4.40625 16.3398V38.0039C4.40625 38.5109 4.81732 38.9219 5.32422 38.9219H29.7603C29.8173 39.8229 30.0129 40.6867 30.3266 41.4922H22.6555C22.1486 41.4922 21.7375 41.9032 21.7375 42.4102C21.7375 42.9171 22.1486 43.3281 22.6555 43.3281H31.3122C32.8752 45.5472 35.4565 47 38.3711 47C43.1291 47 47 43.1291 47 38.3711C47 36.163 46.1659 34.1464 44.7969 32.6186ZM13.127 6.42578C13.127 6.93195 12.7152 7.34375 12.209 7.34375C11.7028 7.34375 11.291 6.93195 11.291 6.42578V2.75391C11.291 2.24774 11.7028 1.83594 12.209 1.83594C12.7152 1.83594 13.127 2.24774 13.127 2.75391V6.42578ZM33.5059 6.42578C33.5059 6.93195 33.0941 7.34375 32.5879 7.34375C32.0817 7.34375 31.6699 6.93195 31.6699 6.42578V2.75391C31.6699 2.24774 32.0817 1.83594 32.5879 1.83594C33.0941 1.83594 33.5059 2.24774 33.5059 2.75391V6.42578ZM38.3711 29.7422C37.9443 29.7422 37.5248 29.7739 37.1144 29.834H33.5609V24.5098H38.5547V29.7445C38.4936 29.7432 38.4325 29.7422 38.3711 29.7422ZM29.8379 37.0859H26.7313V31.6699H31.725V32.8737C30.7462 34.0551 30.0757 35.5007 29.8379 37.0859ZM6.24219 24.5098H11.2359V29.834H6.24219V24.5098ZM13.0719 24.5098H18.0656V29.834H13.0719V24.5098ZM26.7313 24.5098H31.725V29.834H26.7313V24.5098ZM24.8953 29.834H19.9016V24.5098H24.8953V29.834ZM26.7313 22.6738V17.2578H31.725V22.6738H26.7313ZM24.8953 22.6738H19.9016V17.2578H24.8953V22.6738ZM18.0656 22.6738H13.0719V17.2578H18.0656V22.6738ZM18.0656 31.6699V37.0859H13.0719V31.6699H18.0656ZM19.9016 31.6699H24.8953V37.0859H19.9016V31.6699ZM38.5547 22.6738H33.5609V17.2578H38.5547V22.6738ZM11.2359 17.2578V22.6738H6.24219V17.2578H11.2359ZM6.24219 31.6699H11.2359V37.0859H6.24219V31.6699ZM38.3711 45.1641C34.6254 45.1641 31.5781 42.1168 31.5781 38.3711C31.5781 34.6254 34.6254 31.5781 38.3711 31.5781C42.1168 31.5781 45.1641 34.6254 45.1641 38.3711C45.1641 42.1168 42.1168 45.1641 38.3711 45.1641Z" fill="#888888"/>
<path d="M41.0275 36.1461L38.1883 38.9853L36.925 37.7219C36.5667 37.3635 35.9856 37.3635 35.6268 37.7219C35.2683 38.0804 35.2683 38.6617 35.6268 39.0201L37.5392 40.9325C37.7114 41.1047 37.9448 41.2014 38.1883 41.2014C38.4317 41.2014 38.6651 41.1047 38.8374 40.9325L42.3256 37.4443C42.6841 37.0858 42.6841 36.5045 42.3256 36.146C41.9672 35.7876 41.3861 35.7876 41.0275 36.1461Z" fill="#888888"/>
<path d="M18.9834 41.4922C18.742 41.4922 18.5051 41.5904 18.3344 41.7612C18.1637 41.9319 18.0654 42.1687 18.0654 42.4102C18.0654 42.6516 18.1637 42.8884 18.3344 43.0592C18.5051 43.2299 18.742 43.3281 18.9834 43.3281C19.2248 43.3281 19.4617 43.2299 19.6324 43.0592C19.8031 42.8884 19.9014 42.6516 19.9014 42.4102C19.9014 42.1687 19.8031 41.9319 19.6324 41.7612C19.4617 41.5904 19.2248 41.4922 18.9834 41.4922Z" fill="#888888"/>
<path d="M5.23876 12.5826C5.40959 12.4119 5.50781 12.175 5.50781 11.9336C5.50781 11.6922 5.40959 11.4553 5.23876 11.2846C5.06811 11.1138 4.83127 11.0156 4.58984 11.0156C4.34741 11.0156 4.11158 11.1138 3.94084 11.2846C3.7701 11.4553 3.67188 11.6922 3.67188 11.9336C3.67188 12.175 3.77001 12.4119 3.94084 12.5826C4.11167 12.7533 4.34741 12.8516 4.58984 12.8516C4.83127 12.8516 5.06811 12.7533 5.23876 12.5826Z" fill="#888888"/>
</g>
<defs>
<clipPath id="clip0">
<rect width="47" height="47" fill="white"/>
</clipPath>
</defs>
</svg>
