<svg width="48" height="48" viewBox="0 0 48 48" fill="none" xmlns="http://www.w3.org/2000/svg">
<g clip-path="url(#clip0)">
<path d="M39.9898 26.6189L32.8228 15.3836C33.8382 14.8499 34.5329 13.785 34.5329 12.5604C34.5329 11.22 33.7008 10.0709 32.5263 9.60054L34.6975 2.0097C34.7912 1.68222 34.6998 1.32979 34.4591 1.08893C33.0148 -0.355282 30.6649 -0.355282 29.2206 1.08893C28.8751 1.43442 28.4158 1.62465 27.9272 1.62465C27.4387 1.62465 26.9794 1.43442 26.6317 1.08668L26.6271 1.08209C25.188 -0.357251 22.8421 -0.361282 21.3971 1.07355L21.3702 1.10037C20.657 1.80851 19.4987 1.80644 18.7881 1.09577L18.7813 1.08893C17.337 -0.355282 14.9871 -0.355282 13.5428 1.08893C13.3018 1.32998 13.2106 1.68269 13.3044 2.01036L15.4803 9.59876C14.3033 10.0679 13.469 11.2182 13.469 12.5605C13.469 13.7851 14.1635 14.85 15.1791 15.3837L8.01192 26.6189C5.23919 30.9654 5.06349 36.2594 7.54192 40.7802C10.0204 45.301 14.578 48 19.7337 48H28.2679C33.4236 48 37.9812 45.301 40.4597 40.7802C42.9382 36.2594 42.7626 30.9654 39.9898 26.6189ZM17.4553 2.41482L17.4621 2.42167C18.9015 3.86091 21.2472 3.86485 22.6921 2.4302L22.719 2.40339C23.4321 1.69525 24.5905 1.69731 25.3033 2.41014L25.3079 2.41473C26.7522 3.85894 29.1021 3.85894 30.5464 2.41473C31.134 1.82707 32.0254 1.72366 32.7199 2.10449L30.6412 9.37271H17.3663L15.2821 2.1044C15.9767 1.72366 16.8677 1.82726 17.4553 2.41482ZM38.8155 39.8788C36.6713 43.79 32.7284 46.125 28.268 46.125H19.7338C15.2735 46.125 11.3305 43.79 9.1863 39.8788C7.04211 35.9677 7.19409 31.3878 9.59283 27.6273L17.1706 15.7481H19.7819C20.2997 15.7481 20.7195 15.3284 20.7195 14.8105C20.7195 14.2927 20.2997 13.873 19.7819 13.873H16.6567C15.9329 13.873 15.3441 13.2842 15.3441 12.5604C15.3441 11.8366 15.9329 11.2478 16.6567 11.2478H16.6598H31.3451C32.0689 11.2478 32.6577 11.8366 32.6577 12.5604C32.6577 13.2842 32.0689 13.873 31.3451 13.873H28.2199C27.7021 13.873 27.2824 14.2927 27.2824 14.8105C27.2824 15.3284 27.7021 15.7481 28.2199 15.7481H30.8311L38.409 27.6273C40.8077 31.3877 40.9597 35.9676 38.8155 39.8788Z" fill="#888888"/>
<path d="M25.6527 30.6186C25.4175 30.5355 25.1774 30.4489 24.9373 30.359V26.1098C25.573 26.2969 25.9975 26.6002 26.0155 26.6133C26.428 26.9222 27.0131 26.8403 27.3247 26.429C27.6374 26.0163 27.5563 25.4282 27.1436 25.1155C27.0886 25.0737 26.2168 24.4266 24.9373 24.1816V23.2486C24.9373 22.7308 24.5176 22.311 23.9998 22.311C23.482 22.311 23.0622 22.7308 23.0622 23.2486V24.1749C22.9034 24.2054 22.7424 24.2439 22.5793 24.2929C21.2598 24.6894 20.2735 25.8179 20.0052 27.2379C19.7604 28.5345 20.1759 29.7851 21.0894 30.5016C21.5852 30.8904 22.2046 31.2455 23.0622 31.6226V37.06C22.3239 37.0133 21.83 36.8453 21.0066 36.3067C20.5734 36.0231 19.9922 36.1447 19.7088 36.578C19.4253 37.0114 19.5468 37.5924 19.9801 37.8759C21.1807 38.6613 21.9937 38.8838 23.0622 38.9364V39.9059C23.0622 40.4237 23.482 40.8434 23.9998 40.8434C24.5176 40.8434 24.9373 40.4237 24.9373 39.9059V38.8389C26.945 38.3992 28.1192 36.7239 28.3827 35.1567C28.727 33.1078 27.6555 31.3265 25.6527 30.6186ZM22.2466 29.0261C21.8862 28.7434 21.7334 28.1915 21.8478 27.5857C21.953 27.0286 22.3278 26.3569 23.0622 26.1083V29.5419C22.754 29.3776 22.4758 29.2058 22.2466 29.0261ZM26.5334 34.8457C26.3984 35.6487 25.8564 36.5004 24.9372 36.8767V32.354C24.9678 32.3649 24.9968 32.3755 25.0277 32.3865C26.7087 32.9806 26.6053 34.419 26.5334 34.8457Z" fill="#888888"/>
<path d="M23.9996 15.7484C24.2461 15.7484 24.488 15.6481 24.6624 15.4737C24.8368 15.2993 24.9371 15.0574 24.9371 14.8108C24.9371 14.5643 24.8368 14.3224 24.6624 14.148C24.488 13.9736 24.2461 13.8733 23.9996 13.8733C23.753 13.8733 23.5111 13.9736 23.3367 14.148C23.1623 14.3224 23.062 14.5643 23.062 14.8108C23.062 15.0574 23.1623 15.2993 23.3367 15.4737C23.5111 15.6481 23.7529 15.7484 23.9996 15.7484Z" fill="#888888"/>
</g>
<defs>
<clipPath id="clip0">
<rect width="48" height="48" fill="white"/>
</clipPath>
</defs>
</svg>
