<svg width="48" height="48" viewBox="0 0 48 48" fill="none" xmlns="http://www.w3.org/2000/svg">
<g clip-path="url(#clip0)">
<path d="M24.627 26.1965C24.5382 26.1773 24.4471 26.1738 24.3571 26.1873C23.4556 26.0823 22.7755 25.3196 22.774 24.4123C22.774 23.9775 22.4214 23.625 21.9866 23.625C21.5518 23.625 21.1993 23.9775 21.1993 24.4123C21.2016 25.9274 22.215 27.2545 23.6759 27.6554V28.4428C23.6759 28.8776 24.0284 29.2301 24.4632 29.2301C24.898 29.2301 25.2506 28.8776 25.2506 28.4428V27.7031C26.9367 27.3502 28.0827 25.7798 27.9055 24.0663C27.7279 22.3528 26.2843 21.0507 24.5616 21.0503C23.5744 21.0503 22.774 20.2499 22.774 19.2627C22.774 18.2754 23.5744 17.475 24.5616 17.475C25.5489 17.475 26.3493 18.2754 26.3493 19.2627C26.3493 19.6975 26.7018 20.05 27.1366 20.05C27.5714 20.05 27.924 19.6975 27.924 19.2627C27.9217 17.6719 26.8072 16.2998 25.2506 15.9715V15.2549C25.2506 14.8201 24.898 14.4675 24.4632 14.4675C24.0284 14.4675 23.6759 14.8201 23.6759 15.2549V16.0195C22.0512 16.4632 21.0055 18.0405 21.2293 19.7098C21.453 21.379 22.8774 22.625 24.5616 22.6246C25.5358 22.6246 26.3305 23.4047 26.3481 24.3785C26.3662 25.3523 25.6004 26.1611 24.627 26.1965Z" fill="#888888"/>
<path d="M13.145 21.8979C13.145 28.2035 18.2566 33.3151 24.5622 33.3151C30.8678 33.3151 35.9794 28.2035 35.9794 21.8979C35.9794 15.5923 30.8678 10.4807 24.5622 10.4807C18.2596 10.4876 13.1523 15.5953 13.145 21.8979ZM24.5622 12.0554C29.9982 12.0554 34.4047 16.4619 34.4047 21.8979C34.4047 27.3339 29.9982 31.7404 24.5622 31.7404C19.1262 31.7404 14.7197 27.3339 14.7197 21.8979C14.7258 16.4646 19.1289 12.0615 24.5622 12.0554Z" fill="#888888"/>
<path d="M39.8592 35.2564L33.6916 38.1704C32.84 36.5865 31.2065 35.5785 29.4089 35.5278L23.7153 35.3713C22.8138 35.3455 21.9292 35.1172 21.1276 34.7031L20.5482 34.4029C17.5819 32.8567 14.0462 32.8605 11.0829 34.4129L11.119 33.1004C11.1309 32.6656 10.7884 32.3035 10.3536 32.2915L4.11024 32.1197C3.67543 32.1078 3.31367 32.4503 3.30176 32.8851L2.92462 46.5859C2.9127 47.0207 3.25524 47.3828 3.69004 47.3947L9.93339 47.5666H9.95492C10.3817 47.5666 10.7307 47.2271 10.7423 46.8008L10.7603 46.1453L12.3823 45.2769C13.0189 44.9343 13.7632 44.8528 14.4587 45.0496L24.1443 47.768C24.1612 47.773 24.1781 47.7769 24.1954 47.7807C24.8955 47.9272 25.609 48.0006 26.3241 48.0002C27.8388 48.001 29.3358 47.6746 30.7125 47.0426C30.7463 47.0272 30.779 47.0092 30.8102 46.9888L44.8535 37.9052C45.2033 37.6787 45.3163 37.2193 45.1114 36.8564C44.0688 35.0065 41.7564 34.3018 39.8592 35.2564ZM4.52044 45.8424L4.85414 33.7155L9.52319 33.8439L9.1895 45.9712L4.52044 45.8424ZM30.0032 45.6363C28.2928 46.4083 26.3825 46.6212 24.5441 46.2456L14.8846 43.5342C13.7974 43.227 12.6337 43.3543 11.6392 43.889L10.8103 44.333L11.0321 36.2701C13.6586 34.5232 17.0271 34.3437 19.8243 35.8011L20.4037 36.1014C21.4163 36.6242 22.5331 36.9125 23.6722 36.9456L29.3662 37.1021C30.9655 37.1482 32.3237 38.2869 32.6482 39.8539L24.167 39.6198C23.7322 39.6079 23.3704 39.9508 23.3581 40.3852C23.3462 40.82 23.6891 41.1822 24.1236 41.1941L33.4832 41.4516H33.5051C33.9315 41.4513 34.2801 41.1118 34.2917 40.6858C34.3013 40.3437 34.2759 40.0011 34.2156 39.6644L40.5416 36.6753C40.5477 36.6726 40.5539 36.6696 40.56 36.6665C41.4573 36.2125 42.5422 36.3643 43.2803 37.0475L30.0032 45.6363Z" fill="#888888"/>
<path d="M25.3486 8.26705V0.787338C25.3486 0.352534 24.9961 0 24.5613 0C24.1265 0 23.7739 0.352534 23.7739 0.787338V8.26705C23.7739 8.70186 24.1265 9.05439 24.5613 9.05439C24.9961 9.05439 25.3486 8.70186 25.3486 8.26705Z" fill="#888888"/>
<path d="M31.2529 8.26713V4.72411C31.2529 4.2893 30.9004 3.93677 30.4656 3.93677C30.0308 3.93677 29.6782 4.2893 29.6782 4.72411V8.26713C29.6782 8.70193 30.0308 9.05447 30.4656 9.05447C30.9004 9.05447 31.2529 8.70193 31.2529 8.26713Z" fill="#888888"/>
<path d="M19.4433 8.26713V4.72411C19.4433 4.2893 19.0908 3.93677 18.656 3.93677C18.2212 3.93677 17.8687 4.2893 17.8687 4.72411V8.26713C17.8687 8.70193 18.2212 9.05447 18.656 9.05447C19.0908 9.05447 19.4433 8.70193 19.4433 8.26713Z" fill="#888888"/>
</g>
<defs>
<clipPath id="clip0">
<rect width="48" height="48" fill="white"/>
</clipPath>
</defs>
</svg>
