<svg width="48" height="48" viewBox="0 0 48 48" fill="none" xmlns="http://www.w3.org/2000/svg">
<path d="M24 16.0002V30.6669" stroke="#888888" stroke-width="1.33333" stroke-linecap="round" stroke-linejoin="round"/>
<path d="M27.3338 18.6663H22.3338C21.715 18.6663 21.1215 18.9121 20.6839 19.3497C20.2463 19.7873 20.0005 20.3808 20.0005 20.9996C20.0005 21.6184 20.2463 22.2119 20.6839 22.6495C21.1215 23.0871 21.715 23.3329 22.3338 23.3329H25.6672C26.286 23.3329 26.8795 23.5788 27.3171 24.0163C27.7547 24.4539 28.0005 25.0474 28.0005 25.6663C28.0005 26.2851 27.7547 26.8786 27.3171 27.3162C26.8795 27.7538 26.286 27.9996 25.6672 27.9996H20.0005" stroke="#888888" stroke-width="1.33333" stroke-linecap="round" stroke-linejoin="round"/>
<circle cx="23.9995" cy="24.0002" r="13" stroke="#888888" stroke-width="2"/>
<path d="M43.5998 20.0002C41.7467 10.8713 33.6757 4.00024 23.9998 4.00024C14.324 4.00024 6.25298 10.8713 4.3999 20.0002M43.5998 28.0003C41.7467 37.1292 33.6757 44.0002 23.9998 44.0002C14.324 44.0002 6.25298 37.1292 4.3999 28.0002" stroke="#888888" stroke-width="2"/>
<path d="M2.00146 16.9993L4.1122 20.7906L7.90357 18.6799" stroke="#888888" stroke-width="1.6" stroke-linecap="round" stroke-linejoin="round"/>
<path d="M45.6763 32.0056L44.0065 28.0004L40.0013 29.6702" stroke="#888888" stroke-width="1.6" stroke-linecap="round" stroke-linejoin="round"/>
</svg>
