<svg width="48" height="48" viewBox="0 0 48 48" fill="none" xmlns="http://www.w3.org/2000/svg">
<path d="M9 25.4938C9 24.8427 9.19355 24.2873 9.58065 23.8276C9.96774 23.3488 10.5392 23.1094 11.2949 23.1094H14.2811V16.3297C14.2811 14.5294 14.5392 12.8249 15.0553 11.2161C15.5714 9.58823 16.3548 8.171 17.4055 6.96443C18.4562 5.73871 19.7742 4.77155 21.3594 4.06293C22.9447 3.35431 24.8065 3 26.9447 3C28.4194 3 29.7373 3.20109 30.8986 3.60328C32.0783 3.98632 33.1198 4.51299 34.023 5.18331C34.9447 5.85362 35.7373 6.64842 36.4009 7.56771C37.083 8.46785 37.6636 9.4446 38.1429 10.4979L35.4055 12.3078C34.8157 12.6142 34.2903 12.7674 33.8295 12.7674C33.1475 12.7674 32.5392 12.4514 32.0046 11.8194C31.6544 11.3981 31.3041 11.015 30.9539 10.6703C30.6221 10.3064 30.2535 10 29.8479 9.75102C29.4608 9.50205 29.0276 9.31053 28.5484 9.17647C28.0876 9.04241 27.553 8.97537 26.9447 8.97537C25.0461 8.97537 23.6267 9.62654 22.6866 10.9289C21.7465 12.212 21.2765 14.0027 21.2765 16.301V23.1094H32.5853V25.9248C32.5853 26.3844 32.4009 26.8057 32.0323 27.1888C31.682 27.5718 31.2212 27.7633 30.6498 27.7633H21.2765V33.3365C21.2765 34.6005 21.0461 35.7305 20.5853 36.7264C20.1429 37.7031 19.5253 38.6129 18.7327 39.4555C20.0968 39.13 21.4516 38.9672 22.7972 38.9672H39V41.9549C39 42.2996 38.9263 42.6539 38.7788 43.0178C38.6498 43.3817 38.4562 43.7168 38.1982 44.0233C37.9401 44.3105 37.6267 44.5499 37.2581 44.7415C36.9078 44.9138 36.5115 45 36.0691 45H9.553V40.5472C10.1797 40.394 10.7788 40.1833 11.3502 39.9152C11.9217 39.6279 12.4194 39.2736 12.8433 38.8523C13.2857 38.4118 13.6359 37.9042 13.894 37.3297C14.1521 36.736 14.2811 36.0465 14.2811 35.2613V27.7633H9V25.4938Z" fill="#898989"/>
</svg>
