<svg width="48" height="48" viewBox="0 0 48 48" fill="none" xmlns="http://www.w3.org/2000/svg">
<path d="M1.67166 14.5069C2.59509 14.5069 3.34332 13.7584 3.34332 12.8352V5.70772L14.1099 16.4721C14.4365 16.7984 14.8642 16.9616 15.2919 16.9616C15.7199 16.9616 16.1478 16.7984 16.4741 16.4719C17.127 15.8191 17.127 14.7606 16.4739 14.1079L5.70683 3.34332H12.8359C13.7591 3.34332 14.5076 2.59487 14.5076 1.67166C14.5076 0.748459 13.7593 0 12.8359 0H1.67166C0.748236 0 0 0.748459 0 1.67166V12.8355C0 13.7584 0.748236 14.5069 1.67166 14.5069Z" fill="#888888"/>
<path d="M46.3271 33.4894C45.4037 33.4894 44.6555 34.2379 44.6555 35.1611V42.2889L33.5574 31.1908C32.9044 30.538 31.8461 30.538 31.1932 31.1908C30.5404 31.8436 30.5404 32.9021 31.1932 33.5548L42.2911 44.6526H35.1638C34.2403 44.6526 33.4921 45.401 33.4921 46.3242C33.4921 47.2475 34.2403 47.9959 35.1638 47.9959H46.3274C47.2508 47.9959 47.999 47.2475 47.999 46.3242V35.1611C47.9988 34.2379 47.2503 33.4894 46.3271 33.4894Z" fill="#888888"/>
<path d="M14.4417 31.1908L3.34479 42.2887V35.1611C3.34479 34.2379 2.59655 33.4895 1.67313 33.4895C0.749701 33.4895 0.00146484 34.2379 0.00146484 35.1611V46.3247C0.00146484 47.2479 0.749701 47.9964 1.67313 47.9964H12.8363C13.7595 47.9964 14.5079 47.2479 14.5079 46.3247C14.5079 45.4015 13.7597 44.6531 12.8363 44.6531H5.70874L16.8059 33.5548C17.4587 32.9019 17.4587 31.8434 16.8057 31.1906C16.1533 30.538 15.0948 30.538 14.4417 31.1908Z" fill="#888888"/>
<path d="M46.3281 0H35.1645C34.2411 0 33.4929 0.748459 33.4929 1.67166C33.4929 2.59487 34.2411 3.34332 35.1645 3.34332H42.2923L31.5272 14.1091C30.8744 14.7619 30.8744 15.8204 31.5274 16.4732C31.8537 16.7995 32.2817 16.9627 32.7094 16.9627C33.1371 16.9627 33.5651 16.7993 33.8916 16.473L44.6567 5.70728V12.8352C44.6567 13.7584 45.4049 14.5069 46.3283 14.5069C47.2517 14.5069 48 13.7584 48 12.8352V1.67166C47.9998 0.748236 47.2513 0 46.3281 0Z" fill="#888888"/>
</svg>
