<svg width="48" height="48" viewBox="0 0 48 48" fill="none" xmlns="http://www.w3.org/2000/svg">
<path d="M28.2395 28.24C27.6902 28.8295 27.0278 29.3024 26.2918 29.6303C25.5558 29.9582 24.7613 30.1346 23.9557 30.1488C23.1501 30.163 22.3498 30.0148 21.6027 29.713C20.8556 29.4113 20.177 28.9621 19.6072 28.3924C19.0375 27.8226 18.5883 27.1439 18.2865 26.3968C17.9848 25.6497 17.8366 24.8495 17.8508 24.0439C17.865 23.2382 18.0413 22.4437 18.3693 21.7077C18.6972 20.9718 19.17 20.3093 19.7595 19.7601M35.8795 35.8801C32.4607 38.4861 28.2977 39.9298 23.9995 40C9.99951 40 1.99951 24 1.99951 24C4.48729 19.3638 7.93778 15.3133 12.1195 12.1201L35.8795 35.8801ZM19.7995 8.48005C21.1762 8.15781 22.5856 7.99673 23.9995 8.00005C37.9995 8.00005 45.9995 24 45.9995 24C44.7855 26.2713 43.3376 28.4095 41.6795 30.38L30.7395 19.43L19.7995 8.48005Z" stroke="#898989" stroke-width="4" stroke-linecap="round" stroke-linejoin="round"/>
<path d="M1.99951 2L45.9995 46" stroke="#898989" stroke-width="4" stroke-linecap="round" stroke-linejoin="round"/>
</svg>
