<svg width="48" height="48" viewBox="0 0 48 48" fill="none" xmlns="http://www.w3.org/2000/svg">
<path d="M45.3507 0H2.64933C1.94669 0 1.27282 0.279125 0.775972 0.775972C0.279125 1.27282 0 1.94669 0 2.64933V45.3513C0.000176782 46.0539 0.27938 46.7276 0.776208 47.2243C1.27303 47.721 1.9468 48 2.64933 48H25.638V29.412H19.3827V22.168H25.638V16.8253C25.638 10.6253 29.4247 7.25 34.9553 7.25C37.6047 7.25 39.8813 7.44667 40.5453 7.53533V14.0147L36.7093 14.0167C33.7013 14.0167 33.1193 15.446 33.1193 17.5433V22.1687H40.2927L39.3587 29.4127H33.1193V48H45.3513C46.0539 47.9998 46.7276 47.7206 47.2243 47.2238C47.721 46.727 48 46.0532 48 45.3507V2.64933C48 1.94669 47.7209 1.27282 47.224 0.775972C46.7272 0.279125 46.0533 0 45.3507 0Z" fill="#888888"/>
</svg>
