<svg width="48" height="48" viewBox="0 0 48 48" fill="none" xmlns="http://www.w3.org/2000/svg">
<path d="M38.614 20.3458C40.412 19.1323 41.5966 17.0765 41.5966 14.7491C41.5966 11.0279 38.5691 8.00042 34.8479 8.00042C31.1267 8.00042 28.0992 11.0279 28.0992 14.7491C28.0992 17.0754 29.2827 19.1305 31.0793 20.3442C29.7705 20.7873 28.5451 21.462 27.4572 22.3466C26.5366 21.4613 25.3012 20.9513 24.0002 20.9513C22.6993 20.9513 21.4639 21.4614 20.5439 22.3466C19.4556 21.462 18.23 20.7873 16.921 20.3441C18.7176 19.1304 19.9011 17.0753 19.9011 14.7489C19.9011 11.0277 16.8736 8.00024 13.1524 8.00024C9.43164 8.00024 6.40462 11.0277 6.40462 14.7489C6.40462 17.0763 7.58899 19.1321 9.38666 20.3456C4.76563 21.9158 1.43015 26.293 1.42018 31.4361C1.41992 31.444 1.41895 31.4514 1.41895 31.4592C1.41895 32.8187 2.19147 34.8252 5.87202 36.6634C8.49461 37.9733 12.0986 38.958 16.2945 39.5108C18.7556 39.8354 21.3482 40.0001 24.0002 40.0001C26.6528 40.0001 29.2457 39.8355 31.7067 39.5108C35.9022 38.958 39.506 37.9733 42.1285 36.6634C45.8088 34.8251 46.5813 32.8187 46.5813 31.4592C46.5813 26.3062 43.2422 21.9184 38.614 20.3458ZM29.8703 14.7491C29.8703 12.0044 32.1033 9.77154 34.8479 9.77154C37.5925 9.77154 39.8255 12.0045 39.8255 14.7491C39.8255 17.4933 37.5925 19.7258 34.8479 19.7258C32.1033 19.7258 29.8703 17.4933 29.8703 14.7491ZM21.3579 24.1059C21.9596 23.2397 22.9472 22.7225 24.0001 22.7225C25.0536 22.7225 26.0415 23.2397 26.6431 24.1059C26.643 24.1057 26.6432 24.1062 26.6431 24.1059C27.0185 24.6457 27.2171 25.28 27.2171 25.9396C27.2171 27.7135 25.774 29.1567 24 29.1567C22.2265 29.1567 20.7838 27.7134 20.7838 25.9395C20.7838 25.279 20.982 24.6454 21.3579 24.1059ZM8.17557 14.7491C8.17557 12.0044 10.4081 9.77154 13.1522 9.77154C15.8969 9.77154 18.1298 12.0045 18.1298 14.7491C18.1298 17.4933 15.8968 19.7258 13.1522 19.7258C10.4081 19.7258 8.17557 17.4933 8.17557 14.7491ZM15.525 37.6126C11.9539 37.0688 8.90549 36.1988 6.66351 35.079C4.43009 33.9637 3.19765 32.6822 3.19051 31.4698C3.19051 31.4662 3.19104 31.4628 3.19104 31.4593C3.19095 25.966 7.65964 21.4969 13.1523 21.4969C15.4891 21.4969 17.7186 22.3042 19.5027 23.7828C19.181 24.4513 19.0129 25.1843 19.0129 25.9397C19.0129 27.4813 19.716 28.8616 20.818 29.7774C17.7227 31.0359 15.5331 34.0727 15.525 37.6126ZM30.7054 37.8496C28.5515 38.1009 26.3002 38.2291 24.0001 38.2291C21.7005 38.2291 19.4497 38.1009 17.2957 37.8496V37.6322C17.2957 33.9353 20.3032 30.9278 24.0001 30.9278C27.6974 30.9278 30.7054 33.9353 30.7054 37.6322V37.8496ZM41.337 35.079C39.0952 36.1988 36.0471 37.0687 32.4763 37.6125C32.4683 34.0726 30.2785 31.0359 27.1829 29.7773C28.2852 28.8615 28.9885 27.4812 28.9885 25.9395C28.9885 25.185 28.8204 24.4519 28.4984 23.7827C30.2817 22.304 32.5108 21.4967 34.8481 21.4967C40.3412 21.4968 44.8103 25.966 44.8103 31.4591C44.8103 32.6748 43.5768 33.9603 41.337 35.079Z" fill="#888888"/>
<path d="M26.6431 24.1059C26.0415 23.2397 25.0536 22.7225 24.0001 22.7225C22.9472 22.7225 21.9596 23.2397 21.3579 24.1059C20.982 24.6454 20.7838 25.279 20.7838 25.9395C20.7838 27.7134 22.2265 29.1567 24 29.1567C25.774 29.1567 27.2171 27.7135 27.2171 25.9396C27.2171 25.28 27.0185 24.6457 26.6431 24.1059ZM26.6431 24.1059C26.6432 24.1062 26.643 24.1057 26.6431 24.1059ZM38.614 20.3458C40.412 19.1323 41.5966 17.0765 41.5966 14.7491C41.5966 11.0279 38.5691 8.00042 34.8479 8.00042C31.1267 8.00042 28.0992 11.0279 28.0992 14.7491C28.0992 17.0754 29.2827 19.1305 31.0793 20.3442C29.7705 20.7873 28.5451 21.462 27.4572 22.3466C26.5366 21.4613 25.3012 20.9513 24.0002 20.9513C22.6993 20.9513 21.4639 21.4614 20.5439 22.3466C19.4556 21.462 18.23 20.7873 16.921 20.3441C18.7176 19.1304 19.9011 17.0753 19.9011 14.7489C19.9011 11.0277 16.8736 8.00024 13.1524 8.00024C9.43164 8.00024 6.40462 11.0277 6.40462 14.7489C6.40462 17.0763 7.58899 19.1321 9.38666 20.3456C4.76563 21.9158 1.43015 26.293 1.42018 31.4361C1.41992 31.444 1.41895 31.4514 1.41895 31.4592C1.41895 32.8187 2.19147 34.8252 5.87202 36.6634C8.49461 37.9733 12.0986 38.958 16.2945 39.5108C18.7556 39.8354 21.3482 40.0001 24.0002 40.0001C26.6528 40.0001 29.2457 39.8355 31.7067 39.5108C35.9022 38.958 39.506 37.9733 42.1285 36.6634C45.8088 34.8251 46.5813 32.8187 46.5813 31.4592C46.5813 26.3062 43.2422 21.9184 38.614 20.3458ZM29.8703 14.7491C29.8703 12.0044 32.1033 9.77154 34.8479 9.77154C37.5925 9.77154 39.8255 12.0045 39.8255 14.7491C39.8255 17.4933 37.5925 19.7258 34.8479 19.7258C32.1033 19.7258 29.8703 17.4933 29.8703 14.7491ZM8.17557 14.7491C8.17557 12.0044 10.4081 9.77154 13.1522 9.77154C15.8969 9.77154 18.1298 12.0045 18.1298 14.7491C18.1298 17.4933 15.8968 19.7258 13.1522 19.7258C10.4081 19.7258 8.17557 17.4933 8.17557 14.7491ZM15.525 37.6126C11.9539 37.0688 8.90549 36.1988 6.66351 35.079C4.43009 33.9637 3.19765 32.6822 3.19051 31.4698C3.19051 31.4662 3.19104 31.4628 3.19104 31.4593C3.19095 25.966 7.65964 21.4969 13.1523 21.4969C15.4891 21.4969 17.7186 22.3042 19.5027 23.7828C19.181 24.4513 19.0129 25.1843 19.0129 25.9397C19.0129 27.4813 19.716 28.8616 20.818 29.7774C17.7227 31.0359 15.5331 34.0727 15.525 37.6126ZM30.7054 37.8496C28.5515 38.1009 26.3002 38.2291 24.0001 38.2291C21.7005 38.2291 19.4497 38.1009 17.2957 37.8496V37.6322C17.2957 33.9353 20.3032 30.9278 24.0001 30.9278C27.6974 30.9278 30.7054 33.9353 30.7054 37.6322V37.8496ZM41.337 35.079C39.0952 36.1988 36.0471 37.0687 32.4763 37.6125C32.4683 34.0726 30.2785 31.0359 27.1829 29.7773C28.2852 28.8615 28.9885 27.4812 28.9885 25.9395C28.9885 25.185 28.8204 24.4519 28.4984 23.7827C30.2817 22.304 32.5108 21.4967 34.8481 21.4967C40.3412 21.4968 44.8103 25.9659 44.8103 31.4591C44.8103 32.6748 43.5768 33.9603 41.337 35.079Z" stroke="#888888" stroke-width="0.282265"/>
</svg>
