<svg width="48" height="48" viewBox="0 0 48 48" fill="none" xmlns="http://www.w3.org/2000/svg">
<path d="M44.8696 14.6088H42.7826C42.4153 14.6088 42.0668 14.6839 41.7391 14.8008V11.4783C41.7391 9.75242 40.3346 8.3479 38.6087 8.3479H36.5217C34.7958 8.3479 33.3913 9.75242 33.3913 11.4783V18.7827H14.6087V11.4783C14.6087 9.75242 13.2042 8.3479 11.4783 8.3479H9.3913C7.66539 8.3479 6.26087 9.75242 6.26087 11.4783V14.8008C5.93322 14.6839 5.5847 14.6088 5.21739 14.6088H3.13043C1.40452 14.6088 0 16.0133 0 17.7392V30.2609C0 31.9869 1.40452 33.3914 3.13043 33.3914H5.21739C5.5847 33.3914 5.93322 33.3162 6.26087 33.1994V36.5218C6.26087 38.2477 7.66539 39.6522 9.3913 39.6522H11.4783C13.2042 39.6522 14.6087 38.2477 14.6087 36.5218V29.2175H33.3913V36.5218C33.3913 38.2477 34.7958 39.6522 36.5217 39.6522H38.6087C40.3346 39.6522 41.7391 38.2477 41.7391 36.5218V33.1994C42.0668 33.3162 42.4153 33.3914 42.7826 33.3914H44.8696C46.5955 33.3914 48 31.9869 48 30.2609V17.7392C48 16.0133 46.5955 14.6088 44.8696 14.6088ZM6.26087 30.2609C6.26087 30.8359 5.79235 31.3044 5.21739 31.3044H3.13043C2.55548 31.3044 2.08696 30.8359 2.08696 30.2609V17.7392C2.08696 17.1642 2.55548 16.6957 3.13043 16.6957H5.21739C5.79235 16.6957 6.26087 17.1642 6.26087 17.7392V30.2609ZM12.5217 36.5218C12.5217 37.0968 12.0532 37.5653 11.4783 37.5653H9.3913C8.81635 37.5653 8.34783 37.0968 8.34783 36.5218V30.2609V17.7392V11.4783C8.34783 10.9034 8.81635 10.4349 9.3913 10.4349H11.4783C12.0532 10.4349 12.5217 10.9034 12.5217 11.4783V36.5218ZM33.3913 27.1305H14.6087V20.8696H33.3913V27.1305ZM39.6522 17.7392V30.2609V36.5218C39.6522 37.0968 39.1837 37.5653 38.6087 37.5653H36.5217C35.9468 37.5653 35.4783 37.0968 35.4783 36.5218V11.4783C35.4783 10.9034 35.9468 10.4349 36.5217 10.4349H38.6087C39.1837 10.4349 39.6522 10.9034 39.6522 11.4783V17.7392ZM45.913 30.2609C45.913 30.8359 45.4445 31.3044 44.8696 31.3044H42.7826C42.2077 31.3044 41.7391 30.8359 41.7391 30.2609V17.7392C41.7391 17.1642 42.2077 16.6957 42.7826 16.6957H44.8696C45.4445 16.6957 45.913 17.1642 45.913 17.7392V30.2609Z" fill="#888888"/>
</svg>
