<svg width="48" height="48" viewBox="0 0 48 48" fill="none" xmlns="http://www.w3.org/2000/svg">
<path d="M41.0152 10.9765C40.6839 4.86736 35.6098 0 29.4194 0C25.2379 0 21.3554 2.29858 19.3099 5.91948C18.6008 5.59045 17.8266 5.41935 17.0323 5.41935C15.1347 5.41935 13.385 6.42039 12.4088 8.01755C11.6423 7.83484 10.8565 7.74194 10.0645 7.74194C4.5151 7.74194 0 12.257 0 17.8065C0 23.3559 4.5151 27.871 10.0645 27.871H10.8387V48H37.1613V27.871H39.4839C44.1794 27.871 48 24.0503 48 19.3548C48 15.1889 45.0426 11.7004 41.0152 10.9765ZM35.6129 46.4516H12.3871V24.7742H35.6129V46.4516ZM35.6129 23.2258H12.3871V18.5806H35.6129V23.2258ZM39.4839 26.3226H37.1613V18.5806H38.7097V17.0323H9.29032V18.5806H10.8387V26.3226H10.0645C5.36903 26.3226 1.54839 22.5019 1.54839 17.8065C1.54839 13.111 5.36903 9.29032 10.0645 9.29032C10.9177 9.29032 11.7615 9.41729 12.5737 9.66735L13.2255 9.86787L13.5066 9.24619C14.1337 7.86194 15.5172 6.96774 17.0323 6.96774C17.808 6.96774 18.5559 7.19613 19.1954 7.62813L19.9425 8.1329L20.3288 7.31845C21.9879 3.8129 25.5569 1.54839 29.4194 1.54839C34.9688 1.54839 39.4839 6.06348 39.4846 11.5742L39.4815 12.353L40.1791 12.4219C43.7551 12.7765 46.4516 15.7572 46.4516 19.3548C46.4516 23.1964 43.3254 26.3226 39.4839 26.3226Z" fill="#888888"/>
<path d="M15.4844 20.1287H13.936V21.677H15.4844V20.1287Z" fill="#888888"/>
<path d="M18.5811 20.1287H17.0327V21.677H18.5811V20.1287Z" fill="#888888"/>
<path d="M21.6773 20.1287H20.1289V21.677H21.6773V20.1287Z" fill="#888888"/>
<path d="M34.0651 26.3225H13.936V35.6128H34.0651V26.3225ZM32.5167 34.0644H15.4844V27.8709H32.5167V34.0644Z" fill="#888888"/>
<path d="M23.2264 37.1614H13.936V44.9033H23.2264V37.1614ZM21.678 43.3549H15.4844V38.7098H21.678V43.3549Z" fill="#888888"/>
<path d="M34.0642 37.1614H24.7739V38.7098H34.0642V37.1614Z" fill="#888888"/>
<path d="M34.0642 40.2583H24.7739V41.8067H34.0642V40.2583Z" fill="#888888"/>
<path d="M34.0645 43.355H32.5161V44.9034H34.0645V43.355Z" fill="#888888"/>
<path d="M30.9675 43.355H24.7739V44.9034H30.9675V43.355Z" fill="#888888"/>
</svg>
