<svg width="48" height="48" viewBox="0 0 48 48" fill="none" xmlns="http://www.w3.org/2000/svg">
<g clip-path="url(#clip0)">
<path fill-rule="evenodd" clip-rule="evenodd" d="M43.1389 17.763L47.1938 21.4578C47.9511 22.1479 48.2013 23.211 47.8314 24.1663C47.4614 25.1214 46.5604 25.7387 45.536 25.7387H42.0957V45.4C42.0958 46.1797 41.4637 46.8116 40.6842 46.8116H28.8803C28.1007 46.8116 27.4687 46.1796 27.4687 45.4V33.4622H20.5311V45.3999C20.5311 46.1796 19.8991 46.8115 19.1195 46.8115H7.3152C6.53558 46.8115 5.90361 46.1795 5.90361 45.3999V25.7386H2.46402C1.43961 25.7386 0.538673 25.1214 0.168642 24.1662C-0.201296 23.211 0.0489232 22.1479 0.806048 21.4579L4.65398 17.9516C5.38256 18.6065 6.23204 19.1295 7.16485 19.4831L3.39795 22.9155H7.31511C8.09474 22.9155 8.7267 23.5476 8.7267 24.3271V43.9884H17.708V32.0506C17.708 31.271 18.34 30.639 19.1195 30.639H28.8804C29.66 30.639 30.292 31.2711 30.292 32.0506V43.9884H39.2726V24.3271C39.2726 23.5475 39.9047 22.9155 40.6842 22.9155H44.602L40.7767 19.4299C40.4831 19.1623 40.3159 18.7837 40.3159 18.3864V6.92306H33.3782V9.49247C33.3782 10.0514 33.0483 10.5578 32.537 10.7838C32.0257 11.0094 31.4292 10.9124 31.016 10.5359L24.0001 4.143L17.7136 9.87119C17.4475 8.90478 17.0046 8.01162 16.422 7.22866L22.3421 1.83422C23.287 0.972936 24.7125 0.972842 25.6578 1.83431L30.5549 6.29653V5.51147C30.5549 4.73184 31.187 4.09987 31.9665 4.09987H41.7273C42.5069 4.09987 43.1389 4.73194 43.1389 5.51147V17.763Z" fill="#888888"/>
<circle cx="10" cy="12" r="8" stroke="#888888" stroke-width="1.2"/>
<path d="M7 11.8201C7 11.6806 7.04516 11.5616 7.13548 11.4631C7.22581 11.3605 7.35914 11.3092 7.53548 11.3092H8.23226V9.85636C8.23226 9.47059 8.29247 9.10534 8.4129 8.7606C8.53333 8.41176 8.71613 8.10807 8.96129 7.84952C9.20645 7.58687 9.51398 7.37962 9.88387 7.22777C10.2538 7.07592 10.6882 7 11.1871 7C11.5312 7 11.8387 7.04309 12.1097 7.12927C12.3849 7.21135 12.628 7.32421 12.8387 7.46785C13.0538 7.61149 13.2387 7.78181 13.3935 7.9788C13.5527 8.17168 13.6882 8.38098 13.8 8.6067L13.1613 8.99453C13.0237 9.06019 12.9011 9.09302 12.7935 9.09302C12.6344 9.09302 12.4925 9.02531 12.3677 8.88988C12.286 8.79959 12.2043 8.71751 12.1226 8.64364C12.0452 8.56566 11.9591 8.5 11.8645 8.44665C11.7742 8.3933 11.6731 8.35226 11.5613 8.32353C11.4538 8.2948 11.329 8.28044 11.1871 8.28044C10.7441 8.28044 10.4129 8.41997 10.1935 8.69904C9.97419 8.97401 9.86452 9.35773 9.86452 9.8502V11.3092H12.5032V11.9124C12.5032 12.0109 12.4602 12.1012 12.3742 12.1833C12.2925 12.2654 12.1849 12.3064 12.0516 12.3064H9.86452V13.5007C9.86452 13.7715 9.81075 14.0137 9.70323 14.2271C9.6 14.4364 9.45591 14.6313 9.27097 14.8119C9.58925 14.7421 9.90538 14.7073 10.2194 14.7073H14V15.3475C14 15.4213 13.9828 15.4973 13.9484 15.5752C13.9183 15.6532 13.8731 15.725 13.8129 15.7907C13.7527 15.8523 13.6796 15.9036 13.5935 15.9446C13.5118 15.9815 13.4194 16 13.3161 16H7.12903V15.0458C7.27527 15.013 7.41505 14.9679 7.54839 14.9104C7.68172 14.8488 7.79785 14.7729 7.89677 14.6826C8 14.5882 8.08172 14.4795 8.14194 14.3564C8.20215 14.2291 8.23226 14.0814 8.23226 13.9131V12.3064H7V11.8201Z" fill="#888888"/>
</g>
<defs>
<clipPath id="clip0">
<rect width="48" height="48" fill="white"/>
</clipPath>
</defs>
</svg>
