<svg width="48" height="48" viewBox="0 0 48 48" fill="none" xmlns="http://www.w3.org/2000/svg">
<path d="M38 6H10C7.79086 6 6 7.79086 6 10V38C6 40.2091 7.79086 42 10 42H38C40.2091 42 42 40.2091 42 38V10C42 7.79086 40.2091 6 38 6Z" stroke="#898989" stroke-width="4" stroke-linecap="round" stroke-linejoin="round"/>
<path d="M16.999 20.0005C18.6559 20.0005 19.999 18.6573 19.999 17.0005C19.999 15.3436 18.6559 14.0005 16.999 14.0005C15.3422 14.0005 13.999 15.3436 13.999 17.0005C13.999 18.6573 15.3422 20.0005 16.999 20.0005Z" stroke="#898989" stroke-width="4" stroke-linecap="round" stroke-linejoin="round"/>
<path d="M42.001 30.0005L32.001 20.0005L10.001 42.0005" stroke="#898989" stroke-width="4" stroke-linecap="round" stroke-linejoin="round"/>
</svg>
