<svg width="48" height="48" viewBox="0 0 48 48" fill="none" xmlns="http://www.w3.org/2000/svg">
<path d="M47.0623 22.4012C47.0623 20.7548 45.7229 19.4155 44.0766 19.4155H28.1433C27.6255 19.4155 27.2058 19.8353 27.2058 20.353C27.2058 20.8707 27.6255 21.2905 28.1433 21.2905H44.0766C44.6891 21.2905 45.1874 21.7887 45.1874 22.4013C45.1874 23.0137 44.6891 23.5119 44.0766 23.5119H3.92325C3.31078 23.5119 2.8125 23.0137 2.8125 22.4012C2.8125 21.7888 3.31078 21.2905 3.92325 21.2905H19.8944C20.4122 21.2905 20.8319 20.8707 20.8319 20.353C20.8319 19.8353 20.4122 19.4155 19.8944 19.4155H3.92325C2.27691 19.4155 0.9375 20.7549 0.9375 22.4013C0.9375 23.8602 1.98966 25.0773 3.37491 25.3356V44.183C3.37491 46.2876 5.08725 47.9999 7.19203 47.9999H40.9016C43.0064 47.9999 44.7186 46.2876 44.7186 44.183V25.3166C46.0573 25.022 47.0623 23.827 47.0623 22.4012ZM34.9499 25.3868V32.3322H28.9312V25.3868H34.9499ZM5.24991 37.5221V34.2073H42.8437V37.5221H5.24991ZM27.0562 25.3868V32.3322H21.0374V25.3868H27.0562ZM19.1624 25.3868V32.3322H13.1437V25.3868H19.1624ZM11.2687 25.3868V32.3322H5.24991V25.3868H11.2687ZM42.8437 32.3322H36.8249V25.3868H42.8437V32.3322ZM5.24991 44.183V39.3975H11.2687V46.1249H7.19203C6.12112 46.1249 5.24991 45.2537 5.24991 44.183ZM13.1437 39.3975H19.1624V46.1249H13.1437V39.3975ZM21.0374 39.3975H27.0562V46.1249H21.0374V39.3975ZM28.9312 39.3975H34.9499V46.1249H28.9312V39.3975ZM42.8437 44.183C42.8437 45.2538 41.9724 46.125 40.9016 46.125H36.8249V39.3975H42.8437V44.183Z" fill="#888888"/>
<path d="M13.9708 11.0097C14.3783 12.2985 14.0194 13.5612 12.9038 14.7625C12.5515 15.142 12.5735 15.7352 12.9529 16.0875C13.3272 16.435 13.9302 16.4126 14.2778 16.0385C16.3131 13.8465 16.1914 11.74 15.7309 10.359C15.2465 8.90635 14.2813 7.96753 14.2404 7.92825C13.867 7.56956 13.2719 7.57978 12.9132 7.9531C12.5544 8.32641 12.5646 8.91835 12.9379 9.27704C12.9449 9.28397 13.6447 9.97847 13.9708 11.0097Z" fill="#888888"/>
<path d="M23.2878 13.235C23.656 13.5888 24.2595 13.5768 24.6133 13.2086C24.9721 12.8352 24.9602 12.2418 24.5868 11.8829C24.5802 11.8766 23.9103 11.2138 23.5759 10.2111C23.1394 8.90196 23.492 7.61984 24.6242 6.40062C24.9766 6.02122 24.9545 5.42797 24.5752 5.07565C24.1958 4.72334 23.6027 4.74546 23.2503 5.12468C21.215 7.31665 21.3366 9.42312 21.7972 10.8042C22.2818 12.257 23.247 13.1957 23.2878 13.235Z" fill="#888888"/>
<path d="M35.2138 17.2086C35.4421 17.2086 35.6711 17.1256 35.8515 16.9581C36.2309 16.6058 36.2529 16.0126 35.9006 15.6331C34.6082 14.2413 34.1952 12.7746 34.6729 11.2736C35.0517 10.0836 35.8579 9.28532 35.8631 9.28025C35.8759 9.26788 35.8884 9.25513 35.9005 9.24219C38.1565 6.81257 38.023 4.48213 37.5137 2.95494C36.9765 1.34394 35.9083 0.304911 35.8631 0.261505C35.4897 -0.0972766 34.8961 -0.0853704 34.5375 0.287942C34.1787 0.661255 34.1906 1.25469 34.564 1.61357C34.6903 1.73488 37.6178 4.62041 34.5395 7.95238C34.3701 8.12179 33.4125 9.12482 32.9133 10.6218C32.4041 12.149 32.2706 14.4794 34.5266 16.9091C34.7113 17.108 34.9622 17.2086 35.2138 17.2086Z" fill="#888888"/>
<path d="M24.7097 19.6902C24.3494 19.3299 23.7443 19.3297 23.384 19.6902C23.0231 20.0512 23.023 20.6548 23.384 21.0159C23.7446 21.3765 24.3491 21.3765 24.7097 21.0159C25.0706 20.655 25.0698 20.0511 24.7097 19.6902Z" fill="#888888"/>
</svg>
