<svg width="48" height="48" viewBox="0 0 48 48" fill="none" xmlns="http://www.w3.org/2000/svg">
<path d="M20 26.0002C20.8589 27.1484 21.9547 28.0985 23.2131 28.7861C24.4715 29.4736 25.863 29.8824 27.2933 29.9848C28.7236 30.0873 30.1592 29.8809 31.5027 29.3797C32.8462 28.8786 34.0662 28.0943 35.08 27.0802L41.08 21.0802C42.9016 19.1942 43.9095 16.6681 43.8867 14.0462C43.864 11.4242 42.8123 8.91607 40.9582 7.06199C39.1041 5.20791 36.596 4.15622 33.974 4.13343C31.352 4.11065 28.826 5.11859 26.94 6.94017L23.5 10.3602" stroke="#868686" stroke-width="4" stroke-linecap="round" stroke-linejoin="round"/>
<path d="M27.9999 22C27.141 20.8517 26.0452 19.9016 24.7868 19.2141C23.5284 18.5266 22.1369 18.1177 20.7066 18.0153C19.2763 17.9129 17.8407 18.1192 16.4972 18.6204C15.1537 19.1216 13.9337 19.9058 12.9199 20.92L6.91991 26.92C5.09833 28.806 4.09039 31.332 4.11317 33.954C4.13596 36.5759 5.18764 39.0841 7.04173 40.9381C8.89581 42.7922 11.4039 43.8439 14.0259 43.8667C16.6479 43.8895 19.1739 42.8815 21.0599 41.06L24.4799 37.64" stroke="#868686" stroke-width="4" stroke-linecap="round" stroke-linejoin="round"/>
</svg>
