<svg width="48" height="48" viewBox="0 0 48 48" fill="none" xmlns="http://www.w3.org/2000/svg">
<path d="M43.2 0H4.8C2.16 0 0 2.16 0 4.8V43.2C0 45.84 2.16 48 4.8 48H43.2C45.84 48 48 45.84 48 43.2V4.8C48 2.16 45.84 0 43.2 0ZM14.4 40.8H7.2V19.2H14.4V40.8ZM10.8 15.12C8.4 15.12 6.48 13.2 6.48 10.8C6.48 8.4 8.4 6.48 10.8 6.48C13.2 6.48 15.12 8.4 15.12 10.8C15.12 13.2 13.2 15.12 10.8 15.12ZM40.8 40.8H33.6V28.08C33.6 26.1601 31.92 24.48 30 24.48C28.08 24.48 26.4 26.1601 26.4 28.08V40.8H19.2V19.2H26.4V22.08C27.6 20.16 30.24 18.72 32.4 18.72C36.96 18.72 40.8 22.56 40.8 27.12V40.8Z" fill="#898989"/>
</svg>
