<svg width="48" height="48" viewBox="0 0 48 48" fill="none" xmlns="http://www.w3.org/2000/svg">
<path d="M32.0591 30.7838C30.9218 30.7838 29.9966 29.9829 29.9966 28.9987C29.9966 28.0143 30.9218 27.2135 32.0591 27.2135C33.1964 27.2135 34.1216 28.0143 34.1216 28.9987C34.1216 29.5163 34.5414 29.9362 35.0591 29.9362C35.5768 29.9362 35.9966 29.5163 35.9966 28.9987C35.9966 27.2807 34.7165 25.8362 32.9966 25.4441V24.9565C32.9966 24.4389 32.5768 24.019 32.0591 24.019C31.5414 24.019 31.1216 24.4389 31.1216 24.9565V25.4441C29.4016 25.8362 28.1216 27.2807 28.1216 28.9987C28.1216 31.0168 29.8879 32.6587 32.0591 32.6587C33.1964 32.6587 34.1216 33.4596 34.1216 34.4439C34.1216 35.4283 33.1964 36.2291 32.0591 36.2291C30.9218 36.2291 29.9966 35.4283 29.9966 34.4439C29.9966 33.9262 29.5768 33.5064 29.0591 33.5064C28.5414 33.5064 28.1216 33.9262 28.1216 34.4439C28.1216 36.1619 29.4016 37.6064 31.1216 37.9985V38.4035C31.1216 38.9211 31.5414 39.341 32.0591 39.341C32.5768 39.341 32.9966 38.9211 32.9966 38.4035V37.9985C34.7165 37.6064 35.9966 36.1619 35.9966 34.4439C35.9966 32.4257 34.2302 30.7838 32.0591 30.7838Z" fill="#888888"/>
<path d="M42.3252 25.207C41.1006 23.2988 39.3752 21.7718 37.3357 20.7913C36.8689 20.5669 36.3087 20.7634 36.0845 21.2301C35.8601 21.6968 36.0566 22.2568 36.5232 22.4812C40.0774 24.1897 42.3738 27.8402 42.3738 31.7812C42.3738 33.4676 41.9581 35.14 41.1718 36.6179C40.9286 37.0749 41.102 37.6427 41.5591 37.8859C41.6994 37.9605 41.8501 37.9959 41.9986 37.9959C42.334 37.9959 42.6585 37.8153 42.8271 37.4986C43.7572 35.7507 44.2488 33.7736 44.2488 31.7812C44.2488 29.4412 43.5836 27.1679 42.3252 25.207Z" fill="#888888"/>
<path d="M33.5318 19.5938L33.4687 19.5938C32.9511 19.5938 32.5312 20.0135 32.5312 20.5312C32.5312 21.049 32.9511 21.4687 33.4687 21.4687L33.523 21.4688C33.5245 21.4688 33.5259 21.4688 33.5275 21.4688C34.0432 21.4688 34.4625 21.052 34.4649 20.5357C34.4673 20.018 34.0495 19.5963 33.5318 19.5938Z" fill="#888888"/>
<path d="M27.6005 41.0819C24.0464 39.3733 21.75 35.7228 21.75 31.7818C21.75 30.0954 22.1657 28.423 22.952 26.9451C23.1951 26.4881 23.0218 25.9204 22.5647 25.6772C22.1077 25.434 21.5398 25.6073 21.2967 26.0645C20.3666 27.8124 19.875 29.7894 19.875 31.7818C19.875 34.1218 20.5402 36.395 21.7986 38.356C23.0232 40.2643 24.7486 41.7913 26.7881 42.7718C26.9191 42.8348 27.0575 42.8645 27.1937 42.8645C27.5428 42.8645 27.8779 42.6687 28.0393 42.3331C28.2635 41.8664 28.0671 41.3062 27.6005 41.0819Z" fill="#888888"/>
<path d="M30.6567 42.0939L30.6024 42.0938C30.0822 42.0928 29.663 42.509 29.6607 43.0268C29.6582 43.5446 30.0762 43.9663 30.5938 43.9687L30.6567 43.9689C31.1743 43.9689 31.5942 43.5491 31.5942 43.0314C31.5942 42.5138 31.1743 42.0939 30.6567 42.0939Z" fill="#888888"/>
<path d="M36.3195 16.422C36.2054 16.1501 36.0657 15.8939 35.903 15.6562H38.3437C40.7215 15.6562 42.6562 13.7216 42.6562 11.3437C42.6562 8.96586 40.7215 7.03124 38.3437 7.03124H30.8362C31.3135 6.3373 31.5937 5.49777 31.5937 4.59374C31.5937 2.21587 29.6591 0.28125 27.2812 0.28125H4.31249C1.93462 0.28125 0 2.21587 0 4.59374C0 6.97161 1.93462 8.90623 4.31249 8.90623H11.82C11.3427 9.60017 11.0625 10.4397 11.0625 11.3437C11.0625 12.2478 11.3426 13.0873 11.82 13.7812H9.37498C6.99711 13.7812 5.06249 15.7158 5.06249 18.0937C5.06249 19.4594 5.7013 20.678 6.69514 21.4687C5.7013 22.2594 5.06249 23.4781 5.06249 24.8437C5.06249 26.2094 5.7013 27.428 6.69514 28.2187C5.7013 29.0094 5.06249 30.228 5.06249 31.5937C5.06249 32.9593 5.7013 34.178 6.69514 34.9687C5.7013 35.7594 5.06249 36.978 5.06249 38.3437C5.06249 40.7215 6.99711 42.6562 9.37498 42.6562H20.4234C23.334 45.7693 27.4745 47.7188 32.0625 47.7188C40.8505 47.7188 48 40.5692 48 31.7813C48 24.4672 43.0472 18.289 36.3195 16.422ZM38.3437 8.90623C39.6878 8.90623 40.7812 9.99973 40.7812 11.3437C40.7812 12.6877 39.6878 13.7812 38.3437 13.7812H32.3437H15.375C14.0309 13.7812 12.9375 12.6877 12.9375 11.3437C12.9375 9.99973 14.0309 8.90623 15.375 8.90623H38.3437ZM4.31249 7.03124C2.9684 7.03124 1.875 5.93774 1.875 4.59374C1.875 3.24974 2.9684 2.15625 4.31249 2.15625H27.2812C28.6253 2.15625 29.7187 3.24974 29.7187 4.59374C29.7187 5.93774 28.6253 7.03124 27.2812 7.03124H4.31249ZM9.37498 15.6562H32.3437C32.7213 15.6562 33.0829 15.744 33.4073 15.9011C32.9638 15.8639 32.5155 15.8438 32.0625 15.8438C27.6614 15.8438 23.6715 17.6372 20.7845 20.5312H9.37498C8.03098 20.5312 6.93749 19.4377 6.93749 18.0937C6.93749 16.7497 8.03098 15.6562 9.37498 15.6562ZM9.37498 22.4062H19.1826C18.1184 23.8643 17.2955 25.5089 16.773 27.2812H9.37498C8.03089 27.2812 6.93749 26.1878 6.93749 24.8437C6.93749 23.4997 8.03089 22.4062 9.37498 22.4062ZM9.37498 29.1562H16.3425C16.2003 30.0105 16.1251 30.8872 16.1251 31.7813C16.1251 32.545 16.1803 33.2959 16.2846 34.0312H9.37498C8.03089 34.0312 6.93749 32.9378 6.93749 31.5937C6.93749 30.2496 8.03089 29.1562 9.37498 29.1562ZM9.37498 40.7812C8.03089 40.7812 6.93749 39.6878 6.93749 38.3437C6.93749 36.9996 8.03089 35.9062 9.37498 35.9062H16.6674C17.1405 37.6699 17.9089 39.3136 18.9167 40.7812H9.37498ZM32.0625 45.8438C24.3085 45.8438 18.0001 39.5353 18.0001 31.7813C18.0001 24.0272 24.3085 17.7188 32.0625 17.7188C39.8166 17.7188 46.125 24.0272 46.125 31.7813C46.125 39.5353 39.8166 45.8438 32.0625 45.8438Z" fill="#888888"/>
</svg>
