<svg width="48" height="48" viewBox="0 0 48 48" fill="none" xmlns="http://www.w3.org/2000/svg">
<path d="M47.5001 27.75V26.25H43.7501V16.5H46.7501C47.0801 16.5 47.3718 16.2833 47.4678 15.9675C47.5638 15.6518 47.4408 15.3097 47.1663 15.126L40.0001 10.3485V3.75C40.0001 3.336 39.6648 3 39.2501 3H28.9773L24.6663 0.126C24.4143 -0.042 24.0866 -0.042 23.8346 0.126L19.5228 3H9.25006C8.83531 3 8.50006 3.336 8.50006 3.75V10.3485L1.33381 15.126C1.05931 15.3097 0.936311 15.651 1.03231 15.9675C1.12831 16.2833 1.42006 16.5 1.75006 16.5H4.75006V26.25H1.00006V27.75H3.25006V32.25H1.75006C1.33531 32.25 1.00006 32.586 1.00006 33V36C1.00006 36.414 1.33531 36.75 1.75006 36.75H4.75006V42.0285C4.25431 42.3045 3.79156 42.648 3.37906 43.0605L1.21981 45.2197L2.28031 46.2803L4.43956 44.121C5.32456 43.2367 6.49981 42.75 7.75006 42.75C9.00031 42.75 10.1756 43.2367 11.0606 44.121L11.6291 44.6895C12.7968 45.8573 14.3493 46.5 16.0001 46.5C17.6508 46.5 19.2033 45.8573 20.3711 44.6895L20.9396 44.121C21.8246 43.2367 22.9998 42.75 24.2501 42.75C25.5003 42.75 26.6756 43.2367 27.5606 44.121L28.1291 44.6895C29.2968 45.8573 30.8493 46.5 32.5001 46.5C34.1508 46.5 35.7033 45.8573 36.8711 44.6895L37.4396 44.121C38.3246 43.2367 39.4998 42.75 40.7501 42.75C42.0003 42.75 43.1756 43.2367 44.0606 44.121L46.2198 46.2803L47.2803 45.2197L45.1211 43.0605C44.7086 42.648 44.2458 42.3052 43.7501 42.0285V36.75H46.7501C47.1648 36.75 47.5001 36.414 47.5001 36V33C47.5001 32.586 47.1648 32.25 46.7501 32.25H45.2501V27.75H47.5001ZM39.2501 32.25V27.75H40.7501V32.25H39.2501ZM39.2501 16.5V26.25H27.2501V27.75H28.7501V32.25H19.7501V27.75H21.2501V26.25H9.25006V16.5H39.2501ZM9.25006 27.75V32.25H7.75006V27.75H9.25006ZM10.7501 27.75H12.2501V32.25H10.7501V27.75ZM13.7501 27.75H15.2501V32.25H13.7501V27.75ZM16.7501 27.75H18.2501V32.25H16.7501V27.75ZM21.2501 36.75H27.2501V38.25H21.2501V36.75ZM27.2501 35.25H21.2501V33.75H27.2501V35.25ZM30.2501 27.75H31.7501V32.25H30.2501V27.75ZM33.2501 27.75H34.7501V32.25H33.2501V27.75ZM36.2501 27.75H37.7501V32.25H36.2501V27.75ZM42.2501 26.25H40.7501V16.5H42.2501V26.25ZM38.5001 4.5V9.34875L31.2273 4.5H38.5001ZM10.0001 4.5H17.2728L10.0001 9.34875V4.5ZM24.2501 1.6515L44.2728 15H4.22731L24.2501 1.6515ZM6.25006 16.5H7.75006V26.25H6.25006V16.5ZM4.75006 27.75H6.25006V32.25H4.75006V27.75ZM6.25006 41.4398V36.75H7.75006V41.25C7.23706 41.25 6.73531 41.319 6.25006 41.4398ZM16.0001 45C14.7498 45 13.5746 44.5133 12.6896 43.629L12.1211 43.0605C11.3163 42.2558 10.3263 41.7075 9.25006 41.4398V36.75H18.2501V35.25H2.50006V33.75H19.7501V43.1895L19.3106 43.629C18.4256 44.5133 17.2503 45 16.0001 45ZM21.2501 42.0285V39.75H27.2501V42.0285C26.3418 41.523 25.3181 41.25 24.2501 41.25C23.1821 41.25 22.1583 41.523 21.2501 42.0285ZM42.2501 41.4398C41.7648 41.319 41.2631 41.25 40.7501 41.25V36.75H42.2501V41.4398ZM46.0001 35.25H30.2501V36.75H39.2501V41.4398C38.1738 41.7075 37.1838 42.2558 36.3791 43.0605L35.8106 43.629C34.9256 44.5133 33.7503 45 32.5001 45C31.2498 45 30.0746 44.5133 29.1896 43.629L28.7501 43.1895V33.75H46.0001V35.25ZM43.7501 32.25H42.2501V27.75H43.7501V32.25Z" fill="#888888"/>
</svg>
