<svg width="48" height="48" viewBox="0 0 48 48" fill="none" xmlns="http://www.w3.org/2000/svg">
<g clip-path="url(#clip0)">
<path d="M32.0983 25.4393C29.9384 22.0698 26.2598 20.0579 22.2579 20.0579C18.2563 20.0579 14.5773 22.0698 12.4178 25.4393L7.21319 33.5586C6.34967 34.9059 5.95123 36.4619 6.06073 38.0582C6.17022 39.6549 6.77777 41.1417 7.81744 42.3586C8.85784 43.5752 10.2326 44.4065 11.793 44.7632C13.3534 45.1195 14.9531 44.9675 16.4186 44.3234L16.5142 44.2809C20.2023 42.6912 24.4178 42.7054 28.0967 44.3234C29.0456 44.7405 30.0508 44.9514 31.0652 44.9514C31.6168 44.9514 32.1716 44.8888 32.7212 44.7635C34.2817 44.4072 35.6564 43.5759 36.6972 42.3594C37.7372 41.1428 38.3451 39.6556 38.455 38.059C38.5649 36.4619 38.1664 34.9059 37.3029 33.5582L32.0983 25.4393ZM34.5589 40.5305C33.235 42.0781 31.0934 42.5674 29.2294 41.7478C27.0138 40.7733 24.6357 40.2863 22.2568 40.2863C19.8801 40.2863 17.5023 40.7729 15.2881 41.7463L15.2252 41.7742C13.3754 42.5564 11.2653 42.0609 9.95611 40.5305C8.63372 38.9825 8.48321 36.7911 9.58184 35.0769L14.7868 26.9576C16.4267 24.3993 19.2194 22.8718 22.2579 22.8718C25.2963 22.8718 28.0894 24.3993 29.7297 26.9576L34.9339 35.0765C36.0329 36.7915 35.882 38.9833 34.5589 40.5305Z" fill="#888888"/>
<path d="M8.61515 25.4287C10.1635 24.834 11.3398 23.5863 11.9275 21.9153C12.4864 20.3252 12.4406 18.53 11.7979 16.8601C11.1548 15.1913 9.98515 13.829 8.50456 13.0237C6.94853 12.1781 5.23942 12.0404 3.69364 12.6362C0.58378 13.8319 -0.843345 17.6749 0.512735 21.2048C1.59599 24.0144 4.12248 25.788 6.6768 25.788C7.32902 25.788 7.98307 25.6722 8.61515 25.4287ZM3.13847 20.1941C2.33939 18.114 3.04142 15.9013 4.70438 15.2619C5.00468 15.1462 5.32218 15.0887 5.64628 15.0887C6.14652 15.0887 6.66325 15.2253 7.16056 15.496C8.05485 15.9819 8.76933 16.8257 9.17216 17.8712C9.57462 18.9175 9.61051 20.022 9.27287 20.9818C8.96342 21.8614 8.37125 22.5082 7.60587 22.8022L7.60441 22.803C5.94364 23.4431 3.9401 22.2723 3.13847 20.1941Z" fill="#888888"/>
<path d="M18.7135 19.0675C22.6012 19.0675 25.7642 15.464 25.7642 11.0347C25.7642 6.60425 22.6012 3 18.7135 3C14.8262 3 11.6636 6.60425 11.6636 11.0347C11.6636 15.464 14.8262 19.0675 18.7135 19.0675ZM18.7135 5.8136C21.0496 5.8136 22.9506 8.15588 22.9506 11.0347C22.9506 13.9124 21.0496 16.2539 18.7135 16.2539C16.3774 16.2539 14.4772 13.9124 14.4772 11.0347C14.4772 8.15588 16.3774 5.8136 18.7135 5.8136Z" fill="#888888"/>
<path d="M30.8901 21.0411H30.8905C31.4885 21.2396 32.0986 21.3345 32.7061 21.3345C35.5413 21.3345 38.3044 19.2709 39.3587 16.0995C39.9659 14.2739 39.926 12.3436 39.2463 10.6645C38.5351 8.9071 37.2171 7.63122 35.5347 7.07165C33.8524 6.51281 32.0319 6.74572 30.41 7.7279C28.8606 8.6665 27.6733 10.1885 27.0672 12.014C25.7873 15.8651 27.5023 19.9147 30.8901 21.0411ZM29.7373 12.9014C30.1331 11.7093 30.8897 10.7272 31.8679 10.1346C32.7728 9.58642 33.7601 9.4469 34.6474 9.7417C35.5344 10.0369 36.2412 10.7393 36.6381 11.72C37.067 12.7798 37.0853 14.0198 36.6887 15.2118C35.898 17.5907 33.6949 19.0079 31.7778 18.3711C29.8621 17.7339 28.9466 15.2803 29.7373 12.9014Z" fill="#888888"/>
<path d="M45.7387 20.1036L45.7376 20.1025C43.0565 18.122 39.0469 18.9804 36.7987 22.017C34.5528 25.0551 34.904 29.1395 37.581 31.1214C38.5573 31.8447 39.7108 32.1904 40.8915 32.1904C42.9492 32.1904 45.0901 31.1401 46.5209 29.2087C48.7669 26.1706 48.416 22.0863 45.7387 20.1036ZM44.2595 27.5347C42.932 29.3266 40.6875 29.9209 39.2553 28.86C37.8241 27.8006 37.737 25.481 39.0608 23.6903C39.9408 22.5015 41.2262 21.8402 42.4109 21.8402C43.01 21.8402 43.5835 22.0093 44.0654 22.3657C45.4955 23.4262 45.5823 25.7451 44.2595 27.5347Z" fill="#888888"/>
</g>
<defs>
<clipPath id="clip0">
<rect width="48" height="48" fill="white"/>
</clipPath>
</defs>
</svg>
