<svg width="48" height="48" viewBox="0 0 48 48" fill="none" xmlns="http://www.w3.org/2000/svg">
<path d="M42.4203 31.7802C41.148 34.7891 39.1579 37.4406 36.6241 39.5028C34.0903 41.5649 31.0899 42.975 27.8852 43.6097C24.6805 44.2444 21.3692 44.0844 18.2406 43.1437C15.1121 42.2031 12.2616 40.5103 9.93836 38.2135C7.61515 35.9166 5.88995 33.0857 4.91359 29.9681C3.93723 26.8504 3.73944 23.5411 4.33751 20.3294C4.93559 17.1177 6.31131 14.1014 8.34441 11.5442C10.3775 8.98702 13.0061 6.96679 16.0003 5.66016" stroke="#888888" stroke-width="4" stroke-linecap="round" stroke-linejoin="round"/>
<path d="M44 24.0002C44 21.3738 43.4827 18.7731 42.4776 16.3466C41.4725 13.9201 39.9993 11.7153 38.1421 9.85811C36.285 8.00094 34.0802 6.52775 31.6537 5.52265C29.2272 4.51756 26.6264 4.00024 24 4.00024V24.0002H44Z" stroke="#888888" stroke-width="4" stroke-linecap="round" stroke-linejoin="round"/>
</svg>
