<svg width="48" height="48" viewBox="0 0 48 48" fill="none" xmlns="http://www.w3.org/2000/svg">
<path d="M47.2 46.4V4.8C47.1974 2.1501 45.0499 0.0026 42.4 0H5.6C2.9501 0.0026 0.8026 2.1501 0.8 4.8V46.4C0.3582 46.4 0 46.7582 0 47.2C0 47.6418 0.3582 48 0.8 48H5.6C6.0418 48 6.4 47.6418 6.4 47.2C6.4 46.7582 6.0418 46.4 5.6 46.4V5.6C5.6 5.1582 5.9582 4.8 6.4 4.8H9.6V37.6H8.8C8.3582 37.6 8 37.9582 8 38.4V41.6C8 42.0418 8.3582 42.4 8.8 42.4H21.6C22.0418 42.4 22.4 42.0418 22.4 41.6V38.4C22.4 37.9582 22.0418 37.6 21.6 37.6H20.8V4.8H27.2V29.6H26.4C25.9582 29.6 25.6 29.9582 25.6 30.4V33.6C25.6 34.0418 25.9582 34.4 26.4 34.4H39.2C39.6418 34.4 40 34.0418 40 33.6V30.4C40 29.9582 39.6418 29.6 39.2 29.6H38.4V4.8H41.6C42.0418 4.8 42.4 5.1582 42.4 5.6V46.4C41.9582 46.4 41.6 46.7582 41.6 47.2C41.6 47.6418 41.9582 48 42.4 48H47.2C47.6418 48 48 47.6418 48 47.2C48 46.7582 47.6418 46.4 47.2 46.4ZM20.8 40.8H9.6V39.2H20.8V40.8ZM11.2 37.6V4.8H19.2V37.6H11.2ZM38.4 32.8H27.2V31.2H38.4V32.8ZM28.8 29.6V4.8H36.8V29.6H28.8ZM45.6 46.4H44V5.6C44 4.2745 42.9255 3.2 41.6 3.2H6.4C5.0745 3.2 4 4.2745 4 5.6V46.4H2.4V4.8C2.4 3.0327 3.8327 1.6 5.6 1.6H42.4C44.1673 1.6 45.6 3.0327 45.6 4.8V46.4Z" fill="#888888"/>
</svg>
