<svg width="48" height="48" viewBox="0 0 48 48" fill="none" xmlns="http://www.w3.org/2000/svg">
<g clip-path="url(#clip0)">
<path d="M45.7599 45.1446C45.1044 44.7224 44.5488 44.089 43.971 43.4224C42.771 42.0557 41.2822 40.3557 38.4377 40.3557C35.571 40.3557 34.0822 42.0668 32.8822 43.4557C31.7488 44.7557 30.8488 45.789 29.0044 45.789C27.1599 45.789 26.2599 44.7557 25.1266 43.4557C23.9266 42.0779 22.4377 40.3557 19.571 40.3557C16.7044 40.3557 15.2155 42.0668 14.0155 43.4557C12.8822 44.7557 11.9822 45.789 10.1377 45.789C8.29327 45.789 7.40438 44.7668 6.27105 43.4668C5.45993 42.5335 4.61549 41.5668 3.34882 40.9557C2.79327 40.689 2.1266 40.9224 1.87105 41.4779C1.60438 42.0335 1.83771 42.7002 2.39327 42.9557C3.24882 43.3668 3.90438 44.1224 4.60438 44.9224C5.80438 46.3002 7.29327 48.0002 10.1488 48.0002C13.0155 48.0002 14.5044 46.289 15.7044 44.9002C16.8377 43.6002 17.7377 42.5668 19.5822 42.5668C21.4266 42.5668 22.3266 43.6002 23.4599 44.9002C24.6599 46.2779 26.1488 48.0002 29.0155 48.0002C31.8822 48.0002 33.371 46.289 34.571 44.9002C35.7044 43.6002 36.6044 42.5668 38.4488 42.5668C40.2933 42.5668 41.1822 43.589 42.3155 44.8779C42.971 45.6335 43.6599 46.4113 44.571 47.0002C45.0822 47.3335 45.771 47.1779 46.1044 46.6668C46.4266 46.1668 46.271 45.4779 45.7599 45.1446Z" fill="#888888"/>
<path d="M45.7601 35.9222C45.1045 35.5 44.549 34.8667 43.9712 34.2C42.7712 32.8333 41.2823 31.1333 38.4378 31.1333C35.5712 31.1333 34.049 32.8444 32.849 34.2333C32.1378 35.0556 31.549 35.7667 30.6601 36.1778V3.28889C30.6601 3.27778 30.6823 3.25556 30.6823 3.24444C30.6823 3.23333 30.6934 3.21111 30.6934 3.2C30.6934 1.43333 29.2601 0 27.4934 0C25.7267 0 24.2934 1.43333 24.2934 3.2C24.2934 3.81111 24.7934 4.31111 25.4045 4.31111C26.0156 4.31111 26.5156 3.81111 26.5156 3.2C26.5156 2.65556 26.9601 2.22222 27.4934 2.22222C28.0267 2.22222 28.4712 2.66667 28.4712 3.2C28.4712 3.21111 28.449 3.23333 28.449 3.24444C28.449 3.25556 28.4267 3.27778 28.4267 3.28889V8.33333H14.549V3.28889C14.549 3.27778 14.5378 3.25556 14.5378 3.24444C14.5378 3.23333 14.5378 3.21111 14.5378 3.2C14.5378 1.43333 13.0934 0 11.3378 0C9.58229 0 8.13784 1.43333 8.13784 3.2C8.13784 3.81111 8.63784 4.31111 9.24895 4.31111C9.86006 4.31111 10.3601 3.81111 10.3601 3.2C10.3601 2.65556 10.8045 2.22222 11.3378 2.22222C11.8823 2.22222 12.3156 2.66667 12.3156 3.2C12.3156 3.21111 12.3267 3.23333 12.3267 3.24444C12.3267 3.25556 12.3378 3.27778 12.3378 3.28889V35.8889C11.6712 36.3 11.049 36.5556 10.1267 36.5556C8.28229 36.5556 7.38229 35.5333 6.24895 34.2333C5.43784 33.3 4.5934 32.3333 3.32673 31.7222C2.77118 31.4556 2.10451 31.6889 1.83784 32.2444C1.57118 32.8 1.80451 33.4667 2.36006 33.7222C3.21562 34.1333 3.87118 34.8889 4.57118 35.6889C5.76006 37.0778 7.24895 38.7778 10.1045 38.7778C12.9712 38.7778 14.4601 37.0667 15.6601 35.6778C16.7934 34.3778 17.6934 33.3444 19.5378 33.3444C21.3823 33.3444 22.2823 34.3778 23.4156 35.6778C24.6156 37.0556 26.1045 38.7778 28.9712 38.7778C31.8378 38.7778 33.3267 37.0667 34.5267 35.6778C35.6601 34.3778 36.5601 33.3444 38.4045 33.3444C40.249 33.3444 41.1378 34.3667 42.2712 35.6556C42.9267 36.4111 43.6156 37.1889 44.5267 37.7778C45.0378 38.1111 45.7267 37.9556 46.0601 37.4444C46.4267 36.9444 46.2712 36.2556 45.7601 35.9222ZM14.549 18.7778H28.4378V24.7778H14.549V18.7778ZM28.4378 10.5556V16.5556H14.549V10.5556H28.4378ZM25.0823 34.2333C23.8823 32.8556 22.4156 31.1333 19.549 31.1333C17.0934 31.1333 15.6601 32.3889 14.549 33.6222V27H28.4378V36.5333C26.9934 36.3556 26.1045 35.4111 25.0823 34.2333Z" fill="#888888"/>
</g>
<defs>
<clipPath id="clip0">
<rect width="48" height="48" fill="white"/>
</clipPath>
</defs>
</svg>
