<svg width="48" height="48" viewBox="0 0 48 48" fill="none" xmlns="http://www.w3.org/2000/svg">
<g clip-path="url(#clip0)">
<path d="M40.2082 6.69873C36.5156 3.60321 31.6714 1.83364 26.4952 1.67212V0.777536C26.4952 0.348025 26.1471 0 25.7176 0C25.2881 0 24.9401 0.348025 24.9401 0.777536V1.67212C19.7638 1.83353 14.9196 3.60321 11.2271 6.69873C7.31045 9.98201 5.15357 14.3591 5.15357 19.0237C5.15357 19.3317 5.33541 19.6107 5.61718 19.735C5.89896 19.8594 6.22771 19.8055 6.45516 19.5982C7.67973 18.4811 10.0063 17.787 12.5266 17.787C15.0468 17.787 17.3734 18.481 18.598 19.5982C18.8948 19.8688 19.3492 19.8688 19.646 19.5982C20.7435 18.597 22.7261 17.9362 24.9399 17.8096V38.1511H22.3039L19.8602 34.7299H21.5706C22.0001 34.7299 22.3481 34.3819 22.3481 33.9524C22.3481 33.5229 22.0001 33.1749 21.5706 33.1749H10.1472L6.13668 27.5601C5.75859 27.0307 5.1968 26.6801 4.55466 26.5731C3.91251 26.4656 3.26695 26.6154 2.73802 26.9939C1.64491 27.7746 1.39091 29.2992 2.17177 30.3924L10.4656 42.0038C10.5661 42.1445 10.6811 42.2718 10.8067 42.3862L10.022 47.0945C9.95138 47.5181 10.2376 47.9187 10.6611 47.9894C10.7044 47.9966 10.7475 48.0001 10.7899 48.0001C11.1632 48.0001 11.4925 47.7306 11.556 47.3503L12.2782 43.0172C12.3345 43.0212 12.3911 43.0238 12.4479 43.0238H24.9401V47.2225C24.9401 47.652 25.2881 48 25.7176 48C26.1471 48 26.4952 47.652 26.4952 47.2225V43.0237H41.6463L42.3675 47.3502C42.4309 47.7304 42.7603 48 43.1336 48C43.176 48 43.219 47.9966 43.2624 47.9893C43.6859 47.9186 43.9721 47.518 43.9015 47.0944L43.2227 43.0214C44.5254 42.9748 45.571 41.9012 45.571 40.5873C45.571 39.2439 44.4781 38.151 43.1348 38.151H26.4952V17.8096C28.709 17.9361 30.6916 18.597 31.789 19.5982C32.0859 19.8688 32.5403 19.8688 32.8371 19.5982C34.0617 18.4811 36.3882 17.787 38.9085 17.787C41.4287 17.787 43.7553 18.481 44.9799 19.5982C45.126 19.7314 45.3138 19.8013 45.5042 19.8013C45.6101 19.8013 45.7171 19.7796 45.8179 19.735C46.0997 19.6107 46.2815 19.3316 46.2815 19.0237C46.2816 14.3591 44.1248 9.98201 40.2082 6.69873ZM17.9494 34.7299L20.3932 38.1511H13.7016L11.258 34.7299H17.9494ZM44.0159 40.5874C44.0159 41.0733 43.6206 41.4686 43.1346 41.4686H12.4479C12.164 41.4686 11.8959 41.3306 11.7308 41.0996L3.43708 29.4884C3.30033 29.2968 3.24622 29.0634 3.28489 28.8312C3.32356 28.5991 3.45035 28.3959 3.64224 28.2589C3.79298 28.151 3.96995 28.0947 4.15189 28.0947C4.20072 28.0947 4.24976 28.0987 4.2989 28.1068C4.53112 28.1456 4.73442 28.2724 4.87127 28.4638L12.6689 39.3805C12.8148 39.5849 13.0505 39.7062 13.3016 39.7062H21.9031C21.9038 39.7062 21.9043 39.7063 21.9049 39.7063C21.9053 39.7063 21.9058 39.7062 21.9063 39.7062H43.1348C43.6205 39.7062 44.0159 40.1015 44.0159 40.5874ZM29.6594 7.55309C30.7379 10.2485 31.384 13.7494 31.5116 17.5285C29.9814 16.7034 27.9283 16.2319 25.7175 16.2319C23.5067 16.2319 21.4536 16.7034 19.9234 17.5285C20.0511 13.7494 20.6971 10.2487 21.7756 7.55309C22.8792 4.79543 24.3159 3.21382 25.7176 3.21382C27.1193 3.21382 28.5561 4.79543 29.6594 7.55309ZM6.79728 17.4913C7.61815 10.4221 14.0606 4.70088 22.3502 3.46335C21.5977 4.33761 20.9158 5.51657 20.332 6.97554C19.181 9.85211 18.4948 13.5669 18.3669 17.5534C16.8319 16.713 14.7598 16.2321 12.5267 16.2321C10.3478 16.2319 8.32021 16.6885 6.79728 17.4913ZM38.9086 16.2319C36.6755 16.2319 34.6033 16.7129 33.0684 17.5533C32.9403 13.5668 32.2541 9.852 31.1033 6.97543C30.5195 5.51646 29.8375 4.33761 29.0851 3.46325C37.3747 4.70088 43.8171 10.4221 44.638 17.4912C43.115 16.6885 41.0874 16.2319 38.9086 16.2319Z" fill="#888888"/>
</g>
<defs>
<clipPath id="clip0">
<rect width="48" height="48" fill="white"/>
</clipPath>
</defs>
</svg>
