<svg width="48" height="48" viewBox="0 0 48 48" fill="none" xmlns="http://www.w3.org/2000/svg">
<path d="M45 12H3C1.346 12 0 10.654 0 9V3C0 1.346 1.346 0 3 0H45C46.654 0 48 1.346 48 3V9C48 10.654 46.654 12 45 12ZM3 2C2.45 2 2 2.45 2 3V9C2 9.55 2.45 10 3 10H45C45.55 10 46 9.55 46 9V3C46 2.45 45.55 2 45 2H3Z" fill="#888888"/>
<path d="M45 48H3C1.346 48 0 46.654 0 45V19C0 17.346 1.346 16 3 16H45C46.654 16 48 17.346 48 19V45C48 46.654 46.654 48 45 48ZM3 18C2.45 18 2 18.45 2 19V45C2 45.55 2.45 46 3 46H45C45.55 46 46 45.55 46 45V19C46 18.45 45.55 18 45 18H3Z" fill="#888888"/>
<path d="M39.0061 42H26.9941C25.3401 42 23.9941 40.654 23.9941 39V25C23.9941 23.346 25.3401 22 26.9941 22H39.0061C40.6601 22 42.0061 23.346 42.0061 25V39C42.0061 40.654 40.6601 42 39.0061 42ZM26.9941 24C26.4441 24 25.9941 24.45 25.9941 25V39C25.9941 39.55 26.4441 40 26.9941 40H39.0061C39.5561 40 40.0061 39.55 40.0061 39V25C40.0061 24.45 39.5561 24 39.0061 24H26.9941Z" fill="#888888"/>
<path d="M18.9941 26H6.99414C6.44214 26 5.99414 25.552 5.99414 25C5.99414 24.448 6.44214 24 6.99414 24H18.9941C19.5461 24 19.9941 24.448 19.9941 25C19.9941 25.552 19.5461 26 18.9941 26Z" fill="#888888"/>
<path d="M18.9941 32H6.99414C6.44214 32 5.99414 31.552 5.99414 31C5.99414 30.448 6.44214 30 6.99414 30H18.9941C19.5461 30 19.9941 30.448 19.9941 31C19.9941 31.552 19.5461 32 18.9941 32Z" fill="#888888"/>
<path d="M18.9941 38H6.99414C6.44214 38 5.99414 37.552 5.99414 37C5.99414 36.448 6.44214 36 6.99414 36H18.9941C19.5461 36 19.9941 36.448 19.9941 37C19.9941 37.552 19.5461 38 18.9941 38Z" fill="#888888"/>
</svg>
