<svg width="48" height="48" viewBox="0 0 48 48" fill="none" xmlns="http://www.w3.org/2000/svg">
<g clip-path="url(#clip0)">
<path d="M46.8872 13.7326C46.8726 13.7227 46.8579 13.7129 46.8433 13.7033L41.1951 9.93862H41.3605V4.14815C41.3605 3.69132 40.9901 3.32094 40.5333 3.32094H36.3972C35.9404 3.32094 35.57 3.69132 35.57 4.14815V6.18722L27.757 0.975796C27.4791 0.790294 27.1168 0.790294 26.8388 0.975796L7.75261 13.7033C6.57384 14.4716 6.24109 16.0501 7.00947 17.2289C7.77784 18.4077 9.35637 18.7404 10.5351 17.9721C10.5499 17.9625 10.5646 17.9526 10.5791 17.9427L13.2354 16.1716V32.2733H11.5809C11.5809 31.8165 11.2106 31.4461 10.7537 31.4461H4.13605C3.67922 31.4461 3.30884 31.8165 3.30884 32.2733H0V33.9277H3.30884V42.1998H0V43.8542H3.30884C3.30884 44.3111 3.67922 44.6814 4.13605 44.6814H10.7537C11.2106 44.6814 11.5809 44.3111 11.5809 43.8542V43.5391L17.7569 46.1034C21.1239 47.4773 24.8875 47.5187 28.284 46.2192L41.0627 41.3478C41.8195 41.06 42.4284 40.4794 42.7519 39.7372C43.0872 38.9844 43.1048 38.1282 42.8007 37.3623C42.5302 36.6777 42.0177 36.1163 41.3605 35.7848V16.1716L44.0167 17.9427C45.1793 18.7354 46.7644 18.4355 47.557 17.273C48.3497 16.1103 48.0498 14.5253 46.8872 13.7326ZM9.92652 43.027H4.96326V33.1005H9.92652V43.027ZM37.2245 4.97536H39.7061V8.94596L37.2245 7.29155V4.97536ZM41.2389 39.0688C41.0923 39.406 40.8163 39.6701 40.4729 39.8017L27.6942 44.674C24.6914 45.8239 21.3635 45.7878 18.3864 44.5731L11.5809 41.7465V33.9277H13.6779C16.4208 33.9309 19.1257 34.5696 21.5803 35.7939C22.3911 36.1976 23.2843 36.4082 24.1901 36.4093H30.6068C31.292 36.4134 31.8444 36.972 31.8403 37.6574C31.837 38.2317 31.44 38.7287 30.8806 38.8587C30.7722 38.8686 30.6655 38.891 30.5555 38.891H20.6803V40.5454H30.5555C30.5729 40.5454 30.5894 40.5454 30.6068 40.5454C30.6233 40.5454 30.639 40.5404 30.6564 40.5404C31.3128 40.5296 31.961 40.3926 32.5656 40.1367L39.4819 37.2002C39.8113 37.0595 40.184 37.0595 40.5134 37.2002C40.8558 37.3456 41.1245 37.6238 41.2579 37.9711C41.3988 38.3248 41.3919 38.7203 41.2389 39.0688ZM30.6068 34.7549H24.1901C23.5411 34.7538 22.901 34.6029 22.3198 34.314C20.0012 33.1587 17.475 32.479 14.8898 32.3146V15.0673L27.2979 6.79522L39.7061 15.0673V35.468C39.4069 35.4933 39.1133 35.5636 38.835 35.6764L33.4714 37.9546C33.487 37.8537 33.4972 37.7521 33.502 37.6502C33.502 36.0512 32.2058 34.7549 30.6068 34.7549ZM45.8523 16.6101V16.6076C45.562 16.7654 45.208 16.7484 44.9341 16.5637L27.757 5.11433C27.4791 4.92883 27.1168 4.92883 26.8388 5.11433L9.66181 16.5662C9.25069 16.8399 8.69563 16.7285 8.42193 16.3173C8.32421 16.1705 8.2721 15.9981 8.2721 15.8217C8.27158 15.5226 8.421 15.243 8.66999 15.0772L27.2979 2.65917L45.9259 15.0797C46.1749 15.2456 46.3243 15.5251 46.3238 15.8242C46.3263 16.1539 46.1443 16.4572 45.8523 16.6101Z" fill="#888888"/>
<path d="M8.27258 39.717H6.61816V41.3715H8.27258V39.717Z" fill="#888888"/>
<path d="M29.6721 23.4177C29.4814 22.8047 29.0483 22.2961 28.4734 22.0101L26.8612 21.2036C26.5121 21.0293 26.3706 20.605 26.5449 20.2559C26.6644 20.0167 26.9089 19.8654 27.1764 19.8652H27.4179C27.8077 19.8661 28.1234 20.1818 28.1243 20.5716V20.6924H29.7788V20.5716C29.7749 19.5438 29.1055 18.637 28.1243 18.3307V17.3835H26.4699V18.3307C25.2292 18.7166 24.5363 20.0352 24.9222 21.2759C25.1129 21.8889 25.5459 22.3975 26.1208 22.6835L27.7331 23.49C28.0822 23.6643 28.2237 24.0886 28.0494 24.4377C27.9298 24.677 27.6854 24.8282 27.4179 24.8284H27.1764C26.7865 24.8275 26.4709 24.5118 26.4699 24.122V24.0012H24.8155V24.122C24.8193 25.1498 25.4888 26.0566 26.4699 26.3629V27.3101H28.1243V26.3629C29.3651 25.977 30.0579 24.6584 29.6721 23.4177Z" fill="#888888"/>
<path d="M27.297 14.0745C22.7305 14.0794 19.03 17.7801 19.0249 22.3466C19.0249 26.9151 22.7284 30.6187 27.297 30.6187C31.8656 30.6187 35.5691 26.9151 35.5691 22.3466C35.5691 17.7781 31.8656 14.0745 27.297 14.0745ZM27.297 28.9642C23.6422 28.9642 20.6793 26.0014 20.6793 22.3466C20.6793 18.6917 23.6422 15.7289 27.297 15.7289C30.9502 15.733 33.9105 18.6934 33.9147 22.3466C33.9147 26.0015 30.9518 28.9642 27.297 28.9642Z" fill="#888888"/>
<path d="M32.2614 21.5188H30.6069V23.1732H32.2614V21.5188Z" fill="#888888"/>
<path d="M23.9879 21.5188H22.3335V23.1732H23.9879V21.5188Z" fill="#888888"/>
</g>
<defs>
<clipPath id="clip0">
<rect width="48" height="48" fill="white"/>
</clipPath>
</defs>
</svg>
