<svg width="48" height="48" viewBox="0 0 48 48" fill="none" xmlns="http://www.w3.org/2000/svg">
<g clip-path="url(#clip0)">
<path d="M5.20804 44.8094H42.8992C44.2574 44.8119 45.5603 44.2716 46.5183 43.3085C47.4759 42.3459 48.0095 41.0401 47.9999 39.6819V26.6886C47.9999 23.8468 45.7415 21.5074 42.8992 21.5074H41.3258L27.4911 8.56366C27.7382 8.05234 27.8661 7.49152 27.8657 6.92357C27.8644 4.81829 26.1564 3.11276 24.0511 3.11401C21.9458 3.11527 20.2403 4.82332 20.2416 6.9286C20.2411 7.49488 20.3691 8.0536 20.6161 8.56283L6.78144 21.5074H5.20804C2.36576 21.5074 0 23.8468 0 26.6886V39.6819C0 42.5241 2.36576 44.8094 5.20804 44.8094ZM24.0536 4.83633C25.2101 4.83633 26.1476 5.77382 26.1476 6.93028C26.1476 8.08674 25.2101 9.02423 24.0536 9.02423C22.8972 9.02423 21.9597 8.08674 21.9597 6.93028C21.9609 5.77424 22.8976 4.83758 24.0536 4.83633ZM21.6941 9.90804C23.0733 11.0129 25.0352 11.0116 26.4131 9.90469L38.812 21.5074H9.29527L21.6941 9.90804ZM46.2817 39.655C46.2817 41.5527 44.7432 43.0913 42.8455 43.0913H5.15435C3.2567 43.0913 1.71812 41.5527 1.71812 39.655V26.6618C1.71812 24.7641 3.2567 23.2255 5.15435 23.2255H42.8455C44.7432 23.2255 46.2817 24.7641 46.2817 26.6618V39.655Z" fill="#888888"/>
<path d="M11.3292 37.0162C11.7478 37.0162 12.1346 36.8443 12.1346 36.5007V33.9638H12.8972L14.3682 36.7948C14.4718 36.9923 14.6828 37.1094 14.9051 37.0934C15.3988 37.0934 15.9576 36.6362 15.9576 36.2172C15.9584 36.1479 15.94 36.0796 15.9039 36.0209L14.5935 33.6459C15.3452 33.356 15.893 32.6505 15.893 31.4479C15.893 29.6974 14.7227 29.1316 13.2512 29.1316H11.0285C10.89 29.1354 10.7583 29.1945 10.6635 29.296C10.5687 29.3971 10.5184 29.5322 10.5238 29.671V36.5003C10.5238 36.8443 10.9106 37.0162 11.3292 37.0162ZM12.1346 30.6349H13.2512C13.8527 30.6349 14.2176 30.9034 14.2176 31.6551C14.2176 32.4068 13.8527 32.6752 13.2512 32.6752H12.1346V30.6349Z" fill="#888888"/>
<path d="M18.5873 36.9705H22.4099C22.7643 36.9705 22.9145 36.627 22.9145 36.2834C22.9145 35.8862 22.732 35.5745 22.4099 35.5745H19.5428V33.749H21.1427C21.4971 33.749 21.6477 33.4055 21.6477 33.1157C21.6477 32.7721 21.4648 32.4605 21.1427 32.4605H19.5428V30.6349H22.4099C22.732 30.6349 22.9145 30.27 22.9145 29.8728C22.9145 29.5288 22.7643 29.1316 22.4099 29.1316H18.5873C18.2219 29.1316 17.8247 29.338 17.8247 29.6815V36.5003C17.8247 36.8443 18.2219 36.9705 18.5873 36.9705Z" fill="#888888"/>
<path d="M25.5568 37.0163C25.9754 37.0163 26.4159 36.8444 26.4159 36.5008V32.8498L28.4452 36.5654C28.6495 36.9412 28.9717 37.0163 29.358 37.0163C29.777 37.0163 30.1743 36.8444 30.1743 36.5008V29.6715C30.1743 29.3171 29.7875 29.1665 29.3689 29.1665C28.9503 29.1665 28.5635 29.3171 28.5635 29.6715V33.3225L26.8077 30.0042C26.3999 29.2202 26.1554 29.1665 25.5543 29.1665C25.1353 29.1665 24.6978 29.3276 24.6978 29.682V36.5008C24.6978 36.8444 25.1382 37.0163 25.5568 37.0163Z" fill="#888888"/>
<path d="M32.4504 30.6349H33.9324V36.5007C33.9324 36.8443 34.3728 37.0162 34.7914 37.0162C35.2101 37.0162 35.6505 36.8443 35.6505 36.5007V30.6349H37.0893C37.4114 30.6349 37.5943 30.2805 37.5943 29.8728C37.5943 29.5183 37.4437 29.1316 37.0893 29.1316H32.4504C32.096 29.1316 31.9458 29.5183 31.9458 29.8728C31.9458 30.2805 32.1283 30.6349 32.4504 30.6349Z" fill="#888888"/>
</g>
<defs>
<clipPath id="clip0">
<rect width="48" height="48" fill="white"/>
</clipPath>
</defs>
</svg>
