<svg width="48" height="48" viewBox="0 0 48 48" fill="none" xmlns="http://www.w3.org/2000/svg">
<path d="M5.20804 44.8094H42.8992C44.2574 44.8119 45.5603 44.2716 46.5183 43.3085C47.4759 42.3459 48.0095 41.0401 47.9999 39.6819V26.6886C47.9999 23.8468 45.7415 21.5074 42.8992 21.5074H41.3258L27.4911 8.56366C27.7382 8.05234 27.8661 7.49152 27.8657 6.92357C27.8644 4.81829 26.1564 3.11276 24.0511 3.11401C21.9458 3.11527 20.2403 4.82332 20.2415 6.9286C20.2411 7.49488 20.3691 8.0536 20.6161 8.56283L6.78144 21.5074H5.20804C2.36576 21.5074 0 23.8468 0 26.6886V39.6819C0 42.5241 2.36576 44.8094 5.20804 44.8094ZM24.0536 4.83633C25.2101 4.83633 26.1476 5.77382 26.1476 6.93028C26.1476 8.08674 25.2101 9.02423 24.0536 9.02423C22.8972 9.02423 21.9597 8.08674 21.9597 6.93028C21.9609 5.77424 22.8976 4.83758 24.0536 4.83633ZM21.6941 9.90804C23.0733 11.0129 25.0352 11.0116 26.4131 9.90468L38.812 21.5074H9.29527L21.6941 9.90804ZM46.2817 39.655C46.2817 41.5527 44.7432 43.0913 42.8455 43.0913H5.15435C3.2567 43.0913 1.71812 41.5527 1.71812 39.655V26.6618C1.71812 24.7641 3.2567 23.2255 5.15435 23.2255H42.8455C44.7432 23.2255 46.2817 24.7641 46.2817 26.6618V39.655Z" fill="#888888"/>
<path d="M19.0545 34.7024C19.0545 35.0907 18.9612 35.4528 18.7745 35.7888C18.5878 36.1174 18.3041 36.3824 17.9233 36.584C17.5425 36.7856 17.0758 36.8864 16.5233 36.8864C15.9857 36.8864 15.5041 36.7931 15.0785 36.6064C14.6529 36.4123 14.3132 36.1435 14.0593 35.8C13.9523 35.6553 13.8645 35.5012 13.796 35.3378C13.6401 34.9662 13.9681 34.6128 14.371 34.6128C14.7226 34.6128 15.0006 34.8936 15.1824 35.1945C15.2478 35.3026 15.3288 35.4036 15.4257 35.4976C15.687 35.744 16.0342 35.8672 16.4673 35.8672C16.8556 35.8672 17.1542 35.7627 17.3633 35.5536C17.5798 35.3446 17.6881 35.0758 17.6881 34.7472C17.6881 34.4635 17.6097 34.232 17.4529 34.0528C17.2961 33.8662 17.102 33.7206 16.8705 33.616C16.639 33.5115 16.3217 33.392 15.9185 33.2576C15.4257 33.1008 15.0225 32.944 14.7089 32.7872C14.4028 32.6304 14.1414 32.4027 13.9249 32.104C13.7084 31.8054 13.6001 31.4134 13.6001 30.928C13.6001 30.5024 13.7046 30.1291 13.9137 29.808C14.1228 29.487 14.4214 29.2406 14.8097 29.0688C15.198 28.8896 15.646 28.8 16.1537 28.8C16.9601 28.8 17.5985 28.9942 18.0689 29.3824C18.338 29.6011 18.5419 29.8575 18.6808 30.1519C18.8597 30.5311 18.5208 30.9056 18.1015 30.9056C17.7589 30.9056 17.4829 30.6413 17.2819 30.3638C17.2253 30.2858 17.1591 30.2125 17.0833 30.144C16.8593 29.9275 16.5494 29.8192 16.1537 29.8192C15.7953 29.8192 15.5078 29.9126 15.2913 30.0992C15.0748 30.2784 14.9665 30.5398 14.9665 30.8832C14.9665 31.152 15.0412 31.376 15.1905 31.5552C15.3398 31.727 15.5265 31.8651 15.7505 31.9696C15.982 32.0667 16.2956 32.1824 16.6913 32.3168C17.1916 32.4736 17.5985 32.6342 17.9121 32.7984C18.2332 32.9552 18.502 33.1867 18.7185 33.4928C18.9425 33.799 19.0545 34.2022 19.0545 34.7024Z" fill="#888888"/>
<path d="M21.6095 29.9312V32.328H24.0287C24.3009 32.328 24.5215 32.5487 24.5215 32.8208C24.5215 33.093 24.3009 33.3136 24.0287 33.3136H21.6095V35.7664H24.3367C24.6243 35.7664 24.8575 35.9996 24.8575 36.2872C24.8575 36.5749 24.6243 36.808 24.3367 36.808H21.0868C20.6703 36.808 20.3327 36.4704 20.3327 36.0539V29.655C20.3327 29.2385 20.6703 28.9008 21.0868 28.9008H24.3423C24.6268 28.9008 24.8575 29.1315 24.8575 29.416C24.8575 29.7006 24.6268 29.9312 24.3423 29.9312H21.6095Z" fill="#888888"/>
<path d="M27.3736 35.8112H29.608C29.8832 35.8112 30.1064 36.0344 30.1064 36.3096C30.1064 36.5849 29.8832 36.808 29.608 36.808H26.0968V29.5392C26.0968 29.1867 26.3826 28.9008 26.7352 28.9008C27.0877 28.9008 27.3736 29.1867 27.3736 29.5392V35.8112Z" fill="#888888"/>
<path d="M32.3829 35.8112H34.6173C34.8926 35.8112 35.1157 36.0344 35.1157 36.3096C35.1157 36.5849 34.8926 36.808 34.6173 36.808H31.7744C31.4053 36.808 31.1061 36.5089 31.1061 36.1398V29.5392C31.1061 29.1867 31.392 28.9008 31.7445 28.9008C32.0971 28.9008 32.3829 29.1867 32.3829 29.5392V35.8112Z" fill="#888888"/>
</svg>
