<svg width="48" height="48" viewBox="0 0 48 48" fill="none" xmlns="http://www.w3.org/2000/svg">
<path d="M36 15.9998C39.3137 15.9998 42 13.3135 42 9.99976C42 6.68605 39.3137 3.99976 36 3.99976C32.6863 3.99976 30 6.68605 30 9.99976C30 13.3135 32.6863 15.9998 36 15.9998Z" stroke="#898989" stroke-width="4" stroke-linecap="round" stroke-linejoin="round"/>
<path d="M12 30C15.3137 30 18 27.3137 18 24C18 20.6863 15.3137 18 12 18C8.68629 18 6 20.6863 6 24C6 27.3137 8.68629 30 12 30Z" stroke="#898989" stroke-width="4" stroke-linecap="round" stroke-linejoin="round"/>
<path d="M36 44.0002C39.3137 44.0002 42 41.314 42 38.0002C42 34.6865 39.3137 32.0002 36 32.0002C32.6863 32.0002 30 34.6865 30 38.0002C30 41.314 32.6863 44.0002 36 44.0002Z" stroke="#898989" stroke-width="4" stroke-linecap="round" stroke-linejoin="round"/>
<path d="M17.1812 27.0198L30.8412 34.9798" stroke="#898989" stroke-width="4" stroke-linecap="round" stroke-linejoin="round"/>
<path d="M30.8212 13.0203L17.1812 20.9803" stroke="#898989" stroke-width="4" stroke-linecap="round" stroke-linejoin="round"/>
</svg>
