<svg width="48" height="48" viewBox="0 0 48 48" fill="none" xmlns="http://www.w3.org/2000/svg">
<path d="M12.0005 3.99927L6.00049 11.9993V39.9993C6.00049 41.0601 6.42192 42.0776 7.17206 42.8277C7.92221 43.5778 8.93962 43.9993 10.0005 43.9993H38.0005C39.0614 43.9993 40.0788 43.5778 40.8289 42.8277C41.5791 42.0776 42.0005 41.0601 42.0005 39.9993V11.9993L36.0005 3.99927H12.0005Z" stroke="#888888" stroke-width="4" stroke-linecap="round" stroke-linejoin="round"/>
<path d="M6.00049 12.0007H42.0005" stroke="#888888" stroke-width="4" stroke-linecap="round" stroke-linejoin="round"/>
<path d="M31.9966 19.9993C31.9966 22.121 31.1537 24.1558 29.6534 25.6561C28.1531 27.1564 26.1183 27.9993 23.9966 27.9993C21.8748 27.9993 19.84 27.1564 18.3397 25.6561C16.8394 24.1558 15.9966 22.121 15.9966 19.9993" stroke="#888888" stroke-width="4" stroke-linecap="round" stroke-linejoin="round"/>
</svg>
