<svg width="48" height="48" viewBox="0 0 48 48" fill="none" xmlns="http://www.w3.org/2000/svg">
<path d="M39.5625 26.8125C39.5625 27.5891 40.1921 28.2188 40.9688 28.2188C41.7454 28.2188 42.375 27.5891 42.375 26.8125C42.375 20.4844 39.0878 18.0189 36.1875 15.8438C33.471 13.8064 31.125 12.0469 31.125 7.125C31.125 6.34837 30.4954 5.71875 29.7188 5.71875C28.9421 5.71875 28.3125 6.34837 28.3125 7.125C28.3125 13.4531 31.5998 15.9186 34.5 18.0938C37.2165 20.1311 39.5625 21.8906 39.5625 26.8125Z" fill="#888888"/>
<path d="M42.375 7.125C42.375 6.34837 41.7454 5.71875 40.9688 5.71875C40.1921 5.71875 39.5625 6.34837 39.5625 7.125C39.5625 13.1758 41.1821 15.6053 42.6112 17.7488C43.936 19.7362 45.1875 21.6133 45.1875 26.8125C45.1875 27.5891 45.8171 28.2188 46.5938 28.2188C47.3704 28.2188 48 27.5891 48 26.8125C48 20.7617 46.3804 18.3322 44.9513 16.1887C43.6265 14.2013 42.375 12.3242 42.375 7.125Z" fill="#888888"/>
<path d="M46.5938 31.0312H1.40625C0.629625 31.0312 0 31.6609 0 32.4375V40.875C0 41.6516 0.629625 42.2812 1.40625 42.2812H46.5938C47.3704 42.2812 48 41.6516 48 40.875V32.4375C48 31.6609 47.3704 31.0312 46.5938 31.0312ZM39.5625 33.8438V39.4688H19.7812V33.8438H39.5625ZM2.8125 33.8438H16.9688V39.4688H2.8125V33.8438ZM45.1875 39.4688H42.375V33.8438H45.1875V39.4688Z" fill="#888888"/>
</svg>
