<svg width="48" height="48" viewBox="0 0 48 48" fill="none" xmlns="http://www.w3.org/2000/svg">
<g clip-path="url(#clip0)">
<path d="M45.1875 34.2038V14.7763L47.0857 14.0675C47.6355 13.8621 48 13.3369 48 12.75C48 12.1631 47.6355 11.6379 47.0857 11.4326L24.492 2.99513C24.1747 2.87662 23.8253 2.87662 23.5081 2.99513L0.914344 11.4326C0.3645 11.6379 0 12.1631 0 12.75C0 13.3369 0.3645 13.8621 0.91425 14.0674L10.2769 17.5638C8.06034 23.8179 8.61956 27.1078 8.53125 28.2188C8.53125 28.6853 8.76272 29.1217 9.14906 29.3832C9.5355 29.6449 10.0264 29.6977 10.4597 29.5244C10.4924 29.5114 13.7611 28.2188 16.9688 28.2188C19.936 28.2188 23.0917 30.6995 23.1215 30.7231C23.6351 31.1339 24.3649 31.1339 24.8784 30.7231C25.7492 30.0265 28.5519 28.2188 31.0312 28.2188C34.2212 28.2188 37.5086 29.5118 37.5402 29.5244C37.9734 29.6977 38.4645 29.6448 38.8508 29.3832C39.2373 29.1217 39.4688 28.6853 39.4688 28.2188C39.3871 27.1922 39.928 23.7851 37.723 17.5638L42.375 15.8266V34.2038C41.652 34.5945 41.0213 35.2953 40.5347 36.2686C39.9078 37.5225 39.5625 39.1584 39.5625 40.875V43.6875C39.5625 44.4641 40.1921 45.0938 40.9688 45.0938H46.5938C47.3704 45.0938 48 44.4641 48 43.6875V40.875C48 39.1584 47.6547 37.5225 47.0278 36.2686C46.5412 35.2953 45.9105 34.5945 45.1875 34.2038ZM24 5.81363L42.5741 12.75C40.658 13.4656 25.8544 18.9939 24 19.6864C22.1456 18.9939 7.34203 13.4656 5.42587 12.75L24 5.81363ZM36.6447 26.2709C35.2026 25.8608 33.1306 25.4062 31.0312 25.4062C28.1547 25.4062 25.3713 26.9828 24 27.8962C22.6287 26.9828 19.8452 25.4062 16.9688 25.4062C14.8695 25.4062 12.7974 25.8608 11.3553 26.2709C11.4362 23.4119 11.9439 21.2826 12.9118 18.5478L23.5081 22.5049C23.8253 22.6234 24.1747 22.6234 24.492 22.5049L35.0883 18.5478C36.0561 21.2826 36.5637 23.412 36.6447 26.2709ZM45.1875 42.2812H42.375V40.875C42.375 39.6053 42.6212 38.3847 43.0503 37.5264C43.4097 36.8076 43.7325 36.6562 43.7812 36.6562C43.83 36.6562 44.1528 36.8076 44.5122 37.5264C44.9413 38.3847 45.1875 39.6053 45.1875 40.875V42.2812Z" fill="#888888"/>
</g>
<defs>
<clipPath id="clip0">
<rect width="48" height="48" fill="white"/>
</clipPath>
</defs>
</svg>
