<svg width="48" height="48" viewBox="0 0 48 48" fill="none" xmlns="http://www.w3.org/2000/svg">
<path d="M14 43.9995H8C6.93913 43.9995 5.92172 43.5781 5.17157 42.8279C4.42143 42.0778 4 41.0604 4 39.9995V25.9995C4 24.9387 4.42143 23.9212 5.17157 23.1711C5.92172 22.4209 6.93913 21.9995 8 21.9995H14M28 17.9995V9.99951C28 8.40821 27.3679 6.88209 26.2426 5.75687C25.1174 4.63165 23.5913 3.99951 22 3.99951L14 21.9995V43.9995H36.56C37.5247 44.0104 38.4608 43.6723 39.1958 43.0475C39.9309 42.4227 40.4154 41.5533 40.56 40.5995L43.32 22.5995C43.407 22.0262 43.3683 21.4409 43.2067 20.884C43.045 20.3272 42.7642 19.8121 42.3837 19.3745C42.0032 18.937 41.5322 18.5874 41.0031 18.35C40.4741 18.1125 39.8998 17.9929 39.32 17.9995H28Z" stroke="#888888" stroke-width="4.02539" stroke-linecap="round" stroke-linejoin="round"/>
</svg>
