<svg width="48" height="48" viewBox="0 0 48 48" fill="none" xmlns="http://www.w3.org/2000/svg">
<path d="M46 10.2618C44.3525 10.9966 42.605 11.4787 40.8156 11.692C42.7004 10.5566 44.1108 8.76996 44.784 6.66505C43.0124 7.72392 41.0738 8.46955 39.0523 8.8696C38.2077 7.9626 37.187 7.2399 36.0536 6.74628C34.9203 6.25267 33.6983 5.99866 32.4634 6.00001C27.4784 6.00001 23.4363 10.0685 23.4363 15.0886C23.4363 15.8002 23.5163 16.4946 23.6706 17.1603C16.168 16.7811 9.51685 13.1625 5.06445 7.6632C4.26167 9.05028 3.83983 10.6274 3.84221 12.2328C3.84103 13.7292 4.20699 15.2027 4.90757 16.5223C5.60816 17.842 6.62167 18.967 7.85806 19.7974C6.4248 19.7516 5.02313 19.3619 3.76965 18.6606C3.7685 18.6986 3.7685 18.736 3.7685 18.7751C3.7685 23.1773 6.87981 26.8506 11.0088 27.6865C9.67927 28.0489 8.2853 28.102 6.93238 27.8419C8.08091 31.4519 11.4145 34.0804 15.3646 34.154C12.167 36.6805 8.21834 38.0509 4.15363 38.0448C3.42509 38.0448 2.70683 38.0022 2 37.9177C6.12746 40.5877 10.9312 42.0049 15.8372 42C32.4411 42 41.5207 28.1519 41.5207 16.1431C41.5207 15.7496 41.5116 15.3567 41.4945 14.9661C43.2627 13.6808 44.7885 12.0877 46 10.2618Z" fill="#888888"/>
</svg>
