<svg width="48" height="48" viewBox="0 0 48 48" fill="none" xmlns="http://www.w3.org/2000/svg">
<path d="M47.0235 11.3456C46.7504 10.3201 46.2165 9.38498 45.4751 8.63317C44.7337 7.88135 43.8106 7.3391 42.7977 7.06039C39.042 6.017 24.0166 6.00002 24.0166 6.00002C24.0166 6.00002 8.99364 5.98303 5.2355 6.98032C4.22324 7.27185 3.30204 7.82177 2.56035 8.57728C1.81866 9.33278 1.28138 10.2685 1.0001 11.2946C0.00959716 15.0945 3.51386e-06 22.9757 3.51386e-06 22.9757C3.51386e-06 22.9757 -0.00958966 30.8958 0.973715 34.6569C1.52532 36.7364 3.14418 38.3791 5.20192 38.9396C8.99604 39.983 23.9806 40 23.9806 40C23.9806 40 39.006 40.017 42.7618 39.0221C43.775 38.7439 44.699 38.2029 45.4422 37.4526C46.1855 36.7023 46.7223 35.7688 46.9996 34.7442C47.9925 30.9468 47.9996 23.0679 47.9996 23.0679C47.9996 23.0679 48.0476 15.1455 47.0235 11.3456ZM19.2104 30.277L19.2224 15.7181L31.7104 23.0097L19.2104 30.277Z" fill="#888888"/>
</svg>
