<svg width="38" height="38" viewBox="0 0 38 38" fill="none" xmlns="http://www.w3.org/2000/svg">
<g clip-path="url(#clip0)" filter="url(#filter0_d)">
<path d="M32.5938 20.8204V4.13086C32.5938 3.14543 31.792 2.34375 30.8066 2.34375H26.5586V1.75781C26.5586 0.788555 25.77 0 24.8008 0C23.8315 0 23.043 0.788555 23.043 1.75781V2.34375H13.5508V1.75781C13.5508 0.788555 12.7622 0 11.793 0C10.8237 0 10.0352 0.788555 10.0352 1.75781V2.34375H5.78711C4.80174 2.34375 4 3.14543 4 4.13086V25.8691C4 26.8546 4.80174 27.6562 5.78711 27.6562H13.7735C14.0971 27.6562 14.3594 27.3939 14.3594 27.0703C14.3594 26.7467 14.0971 26.4844 13.7735 26.4844H5.78711C5.44785 26.4844 5.17188 26.2084 5.17188 25.8691V4.13086C5.17188 3.7916 5.44785 3.51562 5.78711 3.51562H10.0352V4.10156C10.0352 5.07082 10.8237 5.85938 11.793 5.85938C12.7622 5.85938 13.5508 5.07082 13.5508 4.10156V3.51562H23.043V4.10156C23.043 5.07082 23.8315 5.85938 24.8008 5.85938C25.77 5.85938 26.5586 5.07082 26.5586 4.10156V3.51562H30.8066C31.1459 3.51562 31.4219 3.7916 31.4219 4.13086V7.03125H9.27344C8.94988 7.03125 8.6875 7.29357 8.6875 7.61719C8.6875 7.9408 8.94988 8.20312 9.27344 8.20312H31.4219V19.8303C30.923 19.5156 30.3705 19.2789 29.7812 19.1371V10.4297C29.7812 10.1061 29.5189 9.84375 29.1953 9.84375H7.39844C7.07488 9.84375 6.8125 10.1061 6.8125 10.4297V24.2578C6.8125 24.5814 7.07488 24.8438 7.39844 24.8438H22.9959C23.0323 25.4188 23.1572 25.9702 23.3574 26.4844H18.4609C18.1374 26.4844 17.875 26.7467 17.875 27.0703C17.875 27.3939 18.1374 27.6562 18.4609 27.6562H23.9865C24.9842 29.0727 26.6318 30 28.4922 30C31.5292 30 34 27.5292 34 24.4922C34 23.0828 33.4676 21.7956 32.5938 20.8204ZM12.3789 4.10156C12.3789 4.42465 12.1161 4.6875 11.793 4.6875C11.4699 4.6875 11.207 4.42465 11.207 4.10156V1.75781C11.207 1.43473 11.4699 1.17188 11.793 1.17188C12.1161 1.17188 12.3789 1.43473 12.3789 1.75781V4.10156ZM25.3867 4.10156C25.3867 4.42465 25.1239 4.6875 24.8008 4.6875C24.4777 4.6875 24.2148 4.42465 24.2148 4.10156V1.75781C24.2148 1.43473 24.4777 1.17188 24.8008 1.17188C25.1239 1.17188 25.3867 1.43473 25.3867 1.75781V4.10156ZM28.4922 18.9844C28.2198 18.9844 27.952 19.0046 27.69 19.043H25.4219V15.6445H28.6094V18.9858C28.5704 18.985 28.5314 18.9844 28.4922 18.9844ZM23.0455 23.6719H21.0625V20.2148H24.25V20.9832C23.6252 21.7373 23.1972 22.66 23.0455 23.6719ZM7.98438 15.6445H11.1719V19.043H7.98438V15.6445ZM12.3438 15.6445H15.5312V19.043H12.3438V15.6445ZM21.0625 15.6445H24.25V19.043H21.0625V15.6445ZM19.8906 19.043H16.7031V15.6445H19.8906V19.043ZM21.0625 14.4727V11.0156H24.25V14.4727H21.0625ZM19.8906 14.4727H16.7031V11.0156H19.8906V14.4727ZM15.5312 14.4727H12.3438V11.0156H15.5312V14.4727ZM15.5312 20.2148V23.6719H12.3438V20.2148H15.5312ZM16.7031 20.2148H19.8906V23.6719H16.7031V20.2148ZM28.6094 14.4727H25.4219V11.0156H28.6094V14.4727ZM11.1719 11.0156V14.4727H7.98438V11.0156H11.1719ZM7.98438 20.2148H11.1719V23.6719H7.98438V20.2148ZM28.4922 28.8281C26.1013 28.8281 24.1562 26.883 24.1562 24.4922C24.1562 22.1013 26.1013 20.1562 28.4922 20.1562C30.883 20.1562 32.8281 22.1013 32.8281 24.4922C32.8281 26.883 30.883 28.8281 28.4922 28.8281Z" fill="#24CB39"/>
<path d="M30.1873 23.072L28.375 24.8843L27.5687 24.0779C27.3399 23.8491 26.969 23.8491 26.74 24.0779C26.5112 24.3067 26.5112 24.6777 26.74 24.9065L27.9606 26.1272C28.0706 26.2371 28.2196 26.2988 28.375 26.2988C28.5304 26.2988 28.6794 26.2371 28.7893 26.1272L31.0158 23.9006C31.2446 23.6718 31.2446 23.3008 31.0158 23.0719C30.787 22.8432 30.4161 22.8432 30.1873 23.072Z" fill="#24CB39"/>
<path d="M16.1172 26.4844C15.9631 26.4844 15.8119 26.5471 15.7029 26.6561C15.594 26.765 15.5312 26.9162 15.5312 27.0703C15.5312 27.2244 15.5939 27.3756 15.7029 27.4846C15.8119 27.5936 15.9631 27.6562 16.1172 27.6562C16.2713 27.6562 16.4225 27.5936 16.5314 27.4846C16.6404 27.3756 16.7031 27.2244 16.7031 27.0703C16.7031 26.9162 16.6404 26.765 16.5314 26.6561C16.4225 26.5471 16.2713 26.4844 16.1172 26.4844Z" fill="#24CB39"/>
<path d="M7.34389 8.03145C7.45293 7.92246 7.51562 7.77129 7.51562 7.61719C7.51562 7.46309 7.45293 7.31191 7.34389 7.20293C7.23496 7.09395 7.08379 7.03125 6.92969 7.03125C6.77494 7.03125 6.62441 7.09395 6.51543 7.20293C6.40645 7.31191 6.34375 7.46309 6.34375 7.61719C6.34375 7.77129 6.40639 7.92246 6.51543 8.03145C6.62447 8.14043 6.77494 8.20312 6.92969 8.20312C7.08379 8.20312 7.23496 8.14043 7.34389 8.03145Z" fill="#24CB39"/>
</g>
<defs>
<filter id="filter0_d" x="0" y="0" width="38" height="38" filterUnits="userSpaceOnUse" color-interpolation-filters="sRGB">
<feFlood flood-opacity="0" result="BackgroundImageFix"/>
<feColorMatrix in="SourceAlpha" type="matrix" values="0 0 0 0 0 0 0 0 0 0 0 0 0 0 0 0 0 0 127 0" result="hardAlpha"/>
<feOffset dy="4"/>
<feGaussianBlur stdDeviation="2"/>
<feComposite in2="hardAlpha" operator="out"/>
<feColorMatrix type="matrix" values="0 0 0 0 0 0 0 0 0 0 0 0 0 0 0 0 0 0 0.25 0"/>
<feBlend mode="normal" in2="BackgroundImageFix" result="effect1_dropShadow"/>
<feBlend mode="normal" in="SourceGraphic" in2="effect1_dropShadow" result="shape"/>
</filter>
<clipPath id="clip0">
<rect width="30" height="30" fill="white" transform="translate(4)"/>
</clipPath>
</defs>
</svg>
