<svg width="38" height="38" viewBox="0 0 38 38" fill="none" xmlns="http://www.w3.org/2000/svg">
<g filter="url(#filter0_d)">
<path d="M29.6345 6.86032C29.4274 3.0421 26.2561 0 22.3871 0C19.7737 0 17.3471 1.43661 16.0687 3.69968C15.6255 3.49403 15.1416 3.3871 14.6452 3.3871C13.4592 3.3871 12.3656 4.01274 11.7555 5.01097C11.2765 4.89677 10.7853 4.83871 10.2903 4.83871C6.82194 4.83871 4 7.66065 4 11.129C4 14.5974 6.82194 17.4194 10.2903 17.4194H10.7742V30H27.2258V17.4194H28.6774C31.6121 17.4194 34 15.0315 34 12.0968C34 9.49306 32.1516 7.31274 29.6345 6.86032ZM26.2581 29.0323H11.7419V15.4839H26.2581V29.0323ZM26.2581 14.5161H11.7419V11.6129H26.2581V14.5161ZM28.6774 16.4516H27.2258V11.6129H28.1935V10.6452H9.80645V11.6129H10.7742V16.4516H10.2903C7.35564 16.4516 4.96774 14.0637 4.96774 11.129C4.96774 8.19436 7.35564 5.80645 10.2903 5.80645C10.8235 5.80645 11.351 5.88581 11.8585 6.0421L12.266 6.16742L12.4416 5.77887C12.8335 4.91371 13.6982 4.35484 14.6452 4.35484C15.13 4.35484 15.5974 4.49758 15.9971 4.76758L16.464 5.08306L16.7055 4.57403C17.7424 2.38306 19.9731 0.967742 22.3871 0.967742C25.8555 0.967742 28.6774 3.78968 28.6779 7.23387L28.676 7.72064L29.1119 7.76371C31.3469 7.98532 33.0323 9.84823 33.0323 12.0968C33.0323 14.4977 31.0784 16.4516 28.6774 16.4516Z" fill="#5C65DC"/>
<path d="M13.6777 12.5801H12.71V13.5478H13.6777V12.5801Z" fill="#5C65DC"/>
<path d="M15.6132 12.5801H14.6455V13.5478H15.6132V12.5801Z" fill="#5C65DC"/>
<path d="M17.5488 12.5801H16.5811V13.5478H17.5488V12.5801Z" fill="#5C65DC"/>
<path d="M25.2906 16.4512H12.71V22.2576H25.2906V16.4512ZM24.3229 21.2899H13.6777V17.4189H24.3229V21.2899Z" fill="#5C65DC"/>
<path d="M18.5164 23.2266H12.71V28.0653H18.5164V23.2266ZM17.5487 27.0975H13.6777V24.1943H17.5487V27.0975Z" fill="#5C65DC"/>
<path d="M25.2908 23.2266H19.4844V24.1943H25.2908V23.2266Z" fill="#5C65DC"/>
<path d="M25.2908 25.1621H19.4844V26.1299H25.2908V25.1621Z" fill="#5C65DC"/>
<path d="M25.29 27.0977H24.3223V28.0654H25.29V27.0977Z" fill="#5C65DC"/>
<path d="M23.3553 27.0977H19.4844V28.0654H23.3553V27.0977Z" fill="#5C65DC"/>
</g>
<defs>
<filter id="filter0_d" x="0" y="0" width="38" height="38" filterUnits="userSpaceOnUse" color-interpolation-filters="sRGB">
<feFlood flood-opacity="0" result="BackgroundImageFix"/>
<feColorMatrix in="SourceAlpha" type="matrix" values="0 0 0 0 0 0 0 0 0 0 0 0 0 0 0 0 0 0 127 0" result="hardAlpha"/>
<feOffset dy="4"/>
<feGaussianBlur stdDeviation="2"/>
<feComposite in2="hardAlpha" operator="out"/>
<feColorMatrix type="matrix" values="0 0 0 0 0 0 0 0 0 0 0 0 0 0 0 0 0 0 0.25 0"/>
<feBlend mode="normal" in2="BackgroundImageFix" result="effect1_dropShadow"/>
<feBlend mode="normal" in="SourceGraphic" in2="effect1_dropShadow" result="shape"/>
</filter>
</defs>
</svg>
