<svg width="38" height="38" viewBox="0 0 38 38" fill="none" xmlns="http://www.w3.org/2000/svg">
<g filter="url(#filter0_d)">
<path d="M32.125 7.5H5.875C4.84125 7.5 4 6.65875 4 5.625V1.875C4 0.84125 4.84125 0 5.875 0H32.125C33.1588 0 34 0.84125 34 1.875V5.625C34 6.65875 33.1588 7.5 32.125 7.5ZM5.875 1.25C5.53125 1.25 5.25 1.53125 5.25 1.875V5.625C5.25 5.96875 5.53125 6.25 5.875 6.25H32.125C32.4688 6.25 32.75 5.96875 32.75 5.625V1.875C32.75 1.53125 32.4688 1.25 32.125 1.25H5.875Z" fill="#FBB855"/>
<path d="M32.125 30H5.875C4.84125 30 4 29.1588 4 28.125V11.875C4 10.8412 4.84125 10 5.875 10H32.125C33.1588 10 34 10.8412 34 11.875V28.125C34 29.1588 33.1588 30 32.125 30ZM5.875 11.25C5.53125 11.25 5.25 11.5312 5.25 11.875V28.125C5.25 28.4688 5.53125 28.75 5.875 28.75H32.125C32.4688 28.75 32.75 28.4688 32.75 28.125V11.875C32.75 11.5312 32.4688 11.25 32.125 11.25H5.875Z" fill="#FBB855"/>
<path d="M28.3786 26.25H20.8711C19.8373 26.25 18.9961 25.4087 18.9961 24.375V15.625C18.9961 14.5912 19.8373 13.75 20.8711 13.75H28.3786C29.4123 13.75 30.2536 14.5912 30.2536 15.625V24.375C30.2536 25.4087 29.4123 26.25 28.3786 26.25ZM20.8711 15C20.5273 15 20.2461 15.2812 20.2461 15.625V24.375C20.2461 24.7188 20.5273 25 20.8711 25H28.3786C28.7223 25 29.0036 24.7188 29.0036 24.375V15.625C29.0036 15.2812 28.7223 15 28.3786 15H20.8711Z" fill="#FBB855"/>
<path d="M15.8711 16.25H8.37109C8.02609 16.25 7.74609 15.97 7.74609 15.625C7.74609 15.28 8.02609 15 8.37109 15H15.8711C16.2161 15 16.4961 15.28 16.4961 15.625C16.4961 15.97 16.2161 16.25 15.8711 16.25Z" fill="#FBB855"/>
<path d="M15.8711 20H8.37109C8.02609 20 7.74609 19.72 7.74609 19.375C7.74609 19.03 8.02609 18.75 8.37109 18.75H15.8711C16.2161 18.75 16.4961 19.03 16.4961 19.375C16.4961 19.72 16.2161 20 15.8711 20Z" fill="#FBB855"/>
<path d="M15.8711 23.75H8.37109C8.02609 23.75 7.74609 23.47 7.74609 23.125C7.74609 22.78 8.02609 22.5 8.37109 22.5H15.8711C16.2161 22.5 16.4961 22.78 16.4961 23.125C16.4961 23.47 16.2161 23.75 15.8711 23.75Z" fill="#FBB855"/>
</g>
<defs>
<filter id="filter0_d" x="0" y="0" width="38" height="38" filterUnits="userSpaceOnUse" color-interpolation-filters="sRGB">
<feFlood flood-opacity="0" result="BackgroundImageFix"/>
<feColorMatrix in="SourceAlpha" type="matrix" values="0 0 0 0 0 0 0 0 0 0 0 0 0 0 0 0 0 0 127 0" result="hardAlpha"/>
<feOffset dy="4"/>
<feGaussianBlur stdDeviation="2"/>
<feComposite in2="hardAlpha" operator="out"/>
<feColorMatrix type="matrix" values="0 0 0 0 0 0 0 0 0 0 0 0 0 0 0 0 0 0 0.25 0"/>
<feBlend mode="normal" in2="BackgroundImageFix" result="effect1_dropShadow"/>
<feBlend mode="normal" in="SourceGraphic" in2="effect1_dropShadow" result="shape"/>
</filter>
</defs>
</svg>
