<svg width="36" height="36" viewBox="0 0 36 36" fill="none" xmlns="http://www.w3.org/2000/svg">
<g clip-path="url(#clip0)">
<path d="M27.7198 0.859375C24.1316 0.859375 21.0696 3.20066 19.9224 6.33566H5.4461C5.12542 6.33566 4.86512 6.62472 4.86284 6.94511L4.725 27.4058H0.598635C0.276534 27.4058 0 27.639 0 27.9617V30.5581C0.00740458 33.0025 1.9326 35.0106 4.37442 35.1211V35.1339H22.3824V35.1168C22.5283 35.1222 22.5884 35.1339 22.6806 35.1339H22.6932C25.2204 35.1299 27.2672 33.08 27.2672 30.5527V17.4249C27.413 17.4329 27.5674 17.4372 27.7183 17.4372C32.2844 17.4372 36.0001 13.7144 36.0001 9.14799C36.0001 4.5819 32.2861 0.859375 27.7198 0.859375ZM4.59627 33.9674H4.59257C2.70582 33.9648 1.17506 32.4392 1.16651 30.5522V28.5723H18.0809V30.5439C18.0818 31.7611 18.5679 32.9279 19.4314 33.786C19.4927 33.8472 19.5687 33.8945 19.6328 33.9674H4.59627ZM26.1007 30.5522C26.101 32.4358 24.5759 33.9637 22.6926 33.9674H22.6815C20.7905 33.964 19.2568 32.4352 19.2474 30.5445V27.9617C19.2523 27.8125 19.1953 27.6681 19.0897 27.5627C18.984 27.4573 18.8396 27.4006 18.6907 27.4058H5.89151L6.02536 7.50217H19.5986C19.4952 8.03615 19.4417 8.5784 19.4388 9.12207C19.4377 10.2718 19.6775 11.4087 20.1428 12.4598H14.6338C14.3114 12.4598 14.0505 12.721 14.0505 13.0431C14.0505 13.3652 14.3114 13.6264 14.6338 13.6264H20.7756C21.9789 15.5185 23.9024 16.8377 26.1007 17.2791V30.5522ZM27.7198 16.2709C23.7907 16.2709 20.6053 13.0858 20.6056 9.15653C20.6056 5.22724 23.7907 2.04212 27.72 2.04212C31.649 2.04212 34.8342 5.22753 34.8342 9.15653C34.8299 13.0838 31.6473 16.2667 27.7198 16.2709Z" fill="#222222"/>
<path d="M10.8893 16.3398C9.85975 16.3398 9.02246 17.1507 9.02246 18.1474C9.02246 19.1442 9.85975 19.955 10.8893 19.955C11.9188 19.955 12.7564 19.1442 12.7564 18.1474C12.7564 17.1507 11.9188 16.3398 10.8893 16.3398ZM10.8893 18.7885C10.5028 18.7885 10.189 18.5009 10.189 18.1474C10.189 17.7937 10.5031 17.5064 10.8893 17.5064C11.2755 17.5064 11.5899 17.794 11.5899 18.1474C11.5899 18.5009 11.2755 18.7885 10.8893 18.7885Z" fill="#222222"/>
<path d="M14.0508 18.1458C14.0508 18.4679 14.3117 18.729 14.634 18.729H22.41C22.7321 18.729 22.9933 18.4679 22.9933 18.1458C22.9933 17.8237 22.7321 17.5625 22.41 17.5625H14.634C14.3117 17.5625 14.0508 17.8237 14.0508 18.1458Z" fill="#222222"/>
<path d="M10.8893 11.2695C9.85975 11.2695 9.02246 12.0806 9.02246 13.0774C9.02246 14.0742 9.85975 14.885 10.8893 14.885C11.9188 14.885 12.7564 14.0742 12.7564 13.0774C12.7564 12.0806 11.9188 11.2695 10.8893 11.2695ZM10.8893 13.7185C10.5028 13.7185 10.189 13.4308 10.189 13.0774C10.189 12.724 10.5031 12.436 10.8893 12.436C11.2755 12.436 11.5899 12.7237 11.5899 13.0774C11.5899 13.4308 11.2755 13.7188 10.8893 13.7188V13.7185Z" fill="#222222"/>
<path d="M10.8893 21.4102C9.85975 21.4102 9.02246 22.221 9.02246 23.2177C9.02246 24.2145 9.85975 25.0253 10.8893 25.0253C11.9188 25.0253 12.7564 24.2145 12.7564 23.2177C12.7564 22.221 11.9188 21.4102 10.8893 21.4102ZM10.8893 23.8588C10.5028 23.8588 10.189 23.5714 10.189 23.2177C10.189 22.8643 10.5031 22.5767 10.8893 22.5767C11.2755 22.5767 11.5899 22.8643 11.5899 23.2177C11.5899 23.5712 11.2755 23.8588 10.8893 23.8588Z" fill="#222222"/>
<path d="M22.41 22.668H14.634C14.3117 22.668 14.0508 22.9291 14.0508 23.2512C14.0508 23.5733 14.3117 23.8345 14.634 23.8345H22.41C22.7321 23.8345 22.9933 23.5733 22.9933 23.2512C22.9933 22.9291 22.7321 22.668 22.41 22.668Z" fill="#222222"/>
<path d="M24.4727 8.91869C24.4727 8.78549 24.5141 8.67209 24.5969 8.57849C24.6797 8.48129 24.8039 8.43269 24.9695 8.43269H25.4933V7.20689C25.4933 6.86849 25.5437 6.54629 25.6445 6.24029C25.7489 5.93429 25.9055 5.66609 26.1143 5.43569C26.3231 5.20169 26.5841 5.01809 26.8973 4.88489C27.2141 4.74809 27.5867 4.67969 28.0151 4.67969C28.3031 4.67969 28.5623 4.71749 28.7927 4.79309C29.0267 4.86509 29.2337 4.96589 29.4137 5.09549C29.5973 5.22149 29.7575 5.37269 29.8943 5.54909C30.0311 5.72189 30.1481 5.90909 30.2453 6.11069L29.6513 6.48869C29.5145 6.56069 29.3813 6.59309 29.2517 6.58589C29.1257 6.57509 29.0105 6.51209 28.9061 6.39689C28.8377 6.32129 28.7711 6.25469 28.7063 6.19709C28.6451 6.13589 28.5803 6.08369 28.5119 6.04049C28.4435 5.99729 28.3679 5.96489 28.2851 5.94329C28.2059 5.92169 28.1159 5.91089 28.0151 5.91089C27.6767 5.91089 27.4265 6.02429 27.2645 6.25109C27.1025 6.47429 27.0215 6.79109 27.0215 7.20149V8.43269H29.1545V9.01049C29.1545 9.05729 29.1437 9.10409 29.1221 9.15089C29.1041 9.19409 29.0753 9.23369 29.0357 9.26969C28.9997 9.30569 28.9565 9.33449 28.9061 9.35609C28.8557 9.37769 28.7999 9.38849 28.7387 9.38849H27.0215V10.3443C27.0215 10.5711 26.9783 10.7763 26.8919 10.9599C26.8091 11.1399 26.6939 11.3073 26.5463 11.4621C26.6903 11.4333 26.8343 11.4099 26.9783 11.3919C27.1223 11.3703 27.2699 11.3595 27.4211 11.3595H30.3803V11.9751C30.3803 12.0471 30.3641 12.1209 30.3317 12.1965C30.3029 12.2721 30.2597 12.3405 30.2021 12.4017C30.1481 12.4593 30.0815 12.5079 30.0023 12.5475C29.9267 12.5835 29.8403 12.6015 29.7431 12.6015H24.5753V11.6889C24.6941 11.6637 24.8093 11.6259 24.9209 11.5755C25.0325 11.5251 25.1297 11.4621 25.2125 11.3865C25.2989 11.3109 25.3673 11.2191 25.4177 11.1111C25.4681 11.0031 25.4933 10.8789 25.4933 10.7385V9.38849H24.4727V8.91869Z" fill="#222222"/>
</g>
<defs>
<clipPath id="clip0">
<rect width="36" height="36" fill="white"/>
</clipPath>
</defs>
</svg>
