<svg width="72" height="72" viewBox="0 0 72 72" fill="none" xmlns="http://www.w3.org/2000/svg">
<path d="M54.4344 32.1587V30.5585C54.4344 29.7598 54.0321 29.0148 53.3641 28.5768L34.8682 14.3256C34.0845 13.8117 33.0715 13.8079 32.284 14.316L12.335 28.5786C11.6586 29.015 11.25 29.765 11.25 30.5699V42.5452V51.1778V57.3207C11.25 58.6295 12.311 59.6904 13.6197 59.6904H18.0348C19.2267 59.6904 20.193 58.7242 20.193 57.5323V47.8205C20.193 46.6286 21.1592 45.6624 22.3511 45.6624H28.3037C29.4956 45.6624 30.4619 46.6286 30.4619 47.8205V57.5323C30.4619 58.7242 31.4281 59.6904 32.62 59.6904H41.8028H52.2763C53.4682 59.6904 54.4344 58.7242 54.4344 57.5323V54.6587" stroke="black" stroke-width="1.5"/>
<path d="M42.543 20.4222V12.3291C42.543 11.7331 43.0261 11.25 43.6221 11.25H51.1756C51.7716 11.25 52.2547 11.7331 52.2547 12.3291V27.4362" stroke="black" stroke-width="1.5"/>
<rect x="36" y="31.5938" width="29.25" height="23.625" rx="2.15816" stroke="black" stroke-width="1.5"/>
<path d="M39.9637 41.6354C39.7859 41.6354 39.6418 41.5799 39.5314 41.4688C39.4271 41.3576 39.375 41.2126 39.375 41.0336V35.6169C39.375 35.4379 39.4241 35.299 39.5222 35.2002C39.6264 35.1015 39.7675 35.0521 39.9453 35.0521H43.1741C43.5482 35.0521 43.7353 35.2126 43.7353 35.5336C43.7353 35.8484 43.5482 36.0058 43.1741 36.0058H40.5433V37.7836H42.9902C43.3642 37.7836 43.5513 37.9441 43.5513 38.265C43.5513 38.5799 43.3642 38.7373 42.9902 38.7373H40.5433V41.0336C40.5433 41.2126 40.4911 41.3576 40.3869 41.4688C40.2826 41.5799 40.1416 41.6354 39.9637 41.6354Z" fill="black"/>
<path d="M47.3839 41.6632C46.7523 41.6632 46.2034 41.5274 45.7373 41.2558C45.2774 40.9842 44.9217 40.5953 44.6702 40.0891C44.4188 39.5829 44.2931 38.9904 44.2931 38.3113C44.2931 37.6323 44.4157 37.0428 44.661 36.5428C44.9125 36.0367 45.2712 35.6478 45.7373 35.3762C46.2034 35.1046 46.7523 34.9688 47.3839 34.9688C48.0156 34.9688 48.5614 35.1046 49.0213 35.3762C49.4874 35.6478 49.8431 36.0367 50.0884 36.5428C50.3398 37.0428 50.4655 37.6323 50.4655 38.3113C50.4655 38.9904 50.3398 39.5829 50.0884 40.0891C49.8369 40.5953 49.4782 40.9842 49.0121 41.2558C48.5522 41.5274 48.0094 41.6632 47.3839 41.6632ZM47.3839 40.7095C47.9788 40.7095 48.4418 40.5027 48.7729 40.0891C49.1102 39.6755 49.2789 39.0829 49.2789 38.3113C49.2789 37.5397 49.1102 36.9502 48.7729 36.5428C48.4418 36.1292 47.9788 35.9225 47.3839 35.9225C46.7829 35.9225 46.3138 36.1292 45.9765 36.5428C45.6453 36.9502 45.4797 37.5397 45.4797 38.3113C45.4797 39.0829 45.6453 39.6755 45.9765 40.0891C46.3138 40.5027 46.7829 40.7095 47.3839 40.7095Z" fill="black"/>
<path d="M56.8523 40.8299C56.9259 40.941 56.9627 41.049 56.9627 41.1539C56.9627 41.2959 56.9044 41.4132 56.7879 41.5058C56.6775 41.5984 56.5457 41.6447 56.3923 41.6447C56.2942 41.6447 56.1992 41.6231 56.1072 41.5799C56.0213 41.5305 55.9477 41.4595 55.8864 41.3669L54.6629 39.4965C54.5403 39.299 54.4084 39.1601 54.2674 39.0799C54.1325 38.9996 53.9546 38.9595 53.7339 38.9595H52.8324V41.0336C52.8324 41.2188 52.7802 41.3669 52.676 41.478C52.5717 41.5829 52.4307 41.6354 52.2528 41.6354C52.075 41.6354 51.9309 41.5829 51.8205 41.478C51.7162 41.3669 51.6641 41.2188 51.6641 41.0336V35.6169C51.6641 35.4379 51.7132 35.299 51.8113 35.2002C51.9156 35.1015 52.0566 35.0521 52.2344 35.0521H54.5342C55.2701 35.0521 55.8281 35.2188 56.2084 35.5521C56.5947 35.8792 56.7879 36.3546 56.7879 36.978C56.7879 37.4842 56.6438 37.9008 56.3555 38.228C56.0734 38.549 55.6718 38.7558 55.1505 38.8484C55.3283 38.8916 55.4847 38.9688 55.6196 39.0799C55.7545 39.191 55.8864 39.3453 56.0152 39.5428L56.8523 40.8299ZM54.3686 38.0428C54.8163 38.0428 55.1444 37.9595 55.3529 37.7928C55.5614 37.62 55.6656 37.3576 55.6656 37.0058C55.6656 36.6478 55.5614 36.3885 55.3529 36.228C55.1444 36.0613 54.8163 35.978 54.3686 35.978H52.8232V38.0428H54.3686Z" fill="black"/>
<path d="M44.5632 49.9039C44.6368 50.015 44.6735 50.1231 44.6735 50.228C44.6735 50.37 44.6153 50.4873 44.4988 50.5799C44.3884 50.6725 44.2565 50.7188 44.1032 50.7188C44.0051 50.7188 43.91 50.6971 43.8181 50.6539C43.7322 50.6046 43.6586 50.5336 43.5973 50.441L42.3738 48.5706C42.2512 48.3731 42.1193 48.2342 41.9783 48.1539C41.8434 48.0737 41.6655 48.0336 41.4447 48.0336H40.5433V50.1076C40.5433 50.2928 40.4911 50.441 40.3869 50.5521C40.2826 50.657 40.1416 50.7095 39.9637 50.7095C39.7859 50.7095 39.6418 50.657 39.5314 50.5521C39.4271 50.441 39.375 50.2928 39.375 50.1076V44.691C39.375 44.512 39.4241 44.3731 39.5222 44.2743C39.6264 44.1755 39.7675 44.1262 39.9453 44.1262H42.245C42.981 44.1262 43.539 44.2928 43.9192 44.6262C44.3056 44.9533 44.4988 45.4286 44.4988 46.0521C44.4988 46.5583 44.3547 46.9749 44.0664 47.3021C43.7843 47.6231 43.3826 47.8299 42.8614 47.9225C43.0392 47.9657 43.1956 48.0428 43.3305 48.1539C43.4654 48.265 43.5973 48.4194 43.7261 48.6169L44.5632 49.9039ZM42.0795 47.1169C42.5271 47.1169 42.8552 47.0336 43.0637 46.8669C43.2723 46.6941 43.3765 46.4317 43.3765 46.0799C43.3765 45.7218 43.2723 45.4626 43.0637 45.3021C42.8552 45.1354 42.5271 45.0521 42.0795 45.0521H40.5341V47.1169H42.0795Z" fill="black"/>
<path d="M46.3414 50.6539C46.1636 50.6539 46.0225 50.6046 45.9183 50.5058C45.8202 50.407 45.7711 50.2681 45.7711 50.0891V44.691C45.7711 44.512 45.8202 44.3731 45.9183 44.2743C46.0225 44.1755 46.1636 44.1262 46.3414 44.1262H49.6622C49.8401 44.1262 49.978 44.1663 50.0762 44.2465C50.1743 44.3268 50.2233 44.441 50.2233 44.5891C50.2233 44.7434 50.1743 44.8638 50.0762 44.9502C49.978 45.0305 49.8401 45.0706 49.6622 45.0706H46.9301V46.8669H49.4782C49.6561 46.8669 49.7941 46.907 49.8922 46.9873C49.9903 47.0675 50.0394 47.1848 50.0394 47.3391C50.0394 47.4873 49.9903 47.6015 49.8922 47.6817C49.7941 47.762 49.6561 47.8021 49.4782 47.8021H46.9301V49.7095H49.6622C49.8401 49.7095 49.978 49.7527 50.0762 49.8391C50.1743 49.9194 50.2233 50.0367 50.2233 50.191C50.2233 50.3391 50.1743 50.4533 50.0762 50.5336C49.978 50.6138 49.8401 50.6539 49.6622 50.6539H46.3414Z" fill="black"/>
<path d="M56.1002 44.0799C56.2719 44.0799 56.4068 44.1354 56.505 44.2465C56.6092 44.3515 56.6613 44.4934 56.6613 44.6725V50.1076C56.6613 50.2867 56.6092 50.4317 56.505 50.5428C56.4007 50.6539 56.2658 50.7095 56.1002 50.7095C55.904 50.7095 55.7537 50.6385 55.6495 50.4965L52.2919 46.0984V50.1076C52.2919 50.2867 52.2428 50.4317 52.1447 50.5428C52.0466 50.6539 51.9116 50.7095 51.7399 50.7095C51.5682 50.7095 51.4333 50.6539 51.3352 50.5428C51.2371 50.4317 51.188 50.2867 51.188 50.1076V44.6725C51.188 44.4934 51.2401 44.3515 51.3444 44.2465C51.4486 44.1354 51.5866 44.0799 51.7583 44.0799C51.9484 44.0799 52.0956 44.1508 52.1999 44.2928L55.5483 48.6725V44.6725C55.5483 44.4934 55.5973 44.3515 55.6954 44.2465C55.7997 44.1354 55.9346 44.0799 56.1002 44.0799Z" fill="black"/>
<path d="M60.1851 50.7002C60.0012 50.7002 59.854 50.6478 59.7436 50.5428C59.6393 50.4317 59.5872 50.2867 59.5872 50.1076V45.1076H57.913C57.5451 45.1076 57.3611 44.9441 57.3611 44.6169C57.3611 44.2897 57.5451 44.1262 57.913 44.1262H62.4481C62.816 44.1262 63 44.2897 63 44.6169C63 44.9441 62.816 45.1076 62.4481 45.1076H60.7739V50.1076C60.7739 50.2867 60.7187 50.4317 60.6083 50.5428C60.504 50.6478 60.363 50.7002 60.1851 50.7002Z" fill="black"/>
</svg>
