<svg width="72" height="72" viewBox="0 0 72 72" fill="none" xmlns="http://www.w3.org/2000/svg">
<path d="M54.4945 33.1885V28.9906C54.4945 28.2567 54.1248 27.5722 53.5111 27.1698L36.5165 14.0753C35.7964 13.6031 34.8656 13.5997 34.1421 14.0665L15.8124 27.1714C15.1909 27.5724 14.8154 28.2614 14.8154 29.0011V38.5011M40.3177 55.7578H34.4508C33.3556 55.7578 32.4678 54.87 32.4678 53.7748V44.8514C32.4678 43.7562 31.58 42.8684 30.4849 42.8684H25.0155C23.9203 42.8684 23.0325 43.7562 23.0325 44.8514V53.7748C23.0325 54.87 22.1447 55.7578 21.0495 55.7578H16.9928C15.7903 55.7578 14.8154 54.7829 14.8154 53.5804V50.0011" stroke="black" stroke-width="1.5"/>
<path d="M43.5684 19.6777V12.2415C43.5684 11.6939 44.0123 11.25 44.5598 11.25H51.5003C52.0479 11.25 52.4918 11.6939 52.4918 12.2415V26.1223" stroke="black" stroke-width="1.5"/>
<path d="M47.3336 33.0117H59.7307C60.2709 33.0117 60.7088 33.4496 60.7088 33.9898V61.3765L58.1527 59.3976L55.5965 61.3765L53.0404 59.514L50.4843 61.3765L47.9282 59.3976L45.372 61.3765L42.8159 59.3976L40.2598 61.2601V41" stroke="black" stroke-width="1.5"/>
<path d="M43.1943 47.1961C43.1943 46.926 43.4133 46.707 43.6834 46.707H57.3767C57.6468 46.707 57.8658 46.926 57.8658 47.1961C57.8658 47.4662 57.6468 47.6851 57.3767 47.6851H43.6834C43.4133 47.6851 43.1943 47.4662 43.1943 47.1961Z" fill="black"/>
<path d="M43.1943 50.1304C43.1943 49.8603 43.4133 49.6413 43.6834 49.6413H57.3767C57.6468 49.6413 57.8658 49.8603 57.8658 50.1304C57.8658 50.4005 57.6468 50.6194 57.3767 50.6194H43.6834C43.4133 50.6194 43.1943 50.4005 43.1943 50.1304Z" fill="black"/>
<path d="M43.1943 53.0647C43.1943 52.7946 43.4133 52.5756 43.6834 52.5756H57.3767C57.6468 52.5756 57.8658 52.7946 57.8658 53.0647C57.8658 53.3348 57.6468 53.5537 57.3767 53.5537H43.6834C43.4133 53.5537 43.1943 53.3348 43.1943 53.0647Z" fill="black"/>
<circle cx="40.9376" cy="33.9787" r="6.97837" transform="rotate(-180 40.9376 33.9787)" stroke="black" stroke-width="1.5"/>
<path d="M19.3602 42.683L18.8299 42.1527L18.5054 42.4772L18.6466 42.9138L19.3602 42.683ZM16.741 39.4935L16.3751 40.1482L16.8702 40.425L17.2714 40.0239L16.741 39.4935ZM24.8784 31.3562L24.8784 30.6062L24.5677 30.6062L24.348 30.8259L24.8784 31.3562ZM27.7827 31.3562L28.5181 31.5033L28.6976 30.6062L27.7827 30.6062L27.7827 31.3562ZM27.0566 34.9867L27.2037 35.7221L27.694 35.624L27.7921 35.1337L27.0566 34.9867ZM25.2414 35.3497L25.0943 34.6143L24.604 34.7123L24.506 35.2026L25.2414 35.3497ZM24.8784 37.1649L25.1155 37.8764L25.5284 37.7388L25.6138 37.312L24.8784 37.1649ZM22.7001 37.891L22.4629 37.1795L21.9501 37.3504L21.9501 37.891L22.7001 37.891ZM22.7001 39.3432L23.2304 39.8735L23.4501 39.6538L23.4501 39.3432L22.7001 39.3432ZM20.1588 41.8845L19.6285 41.3542L20.1588 41.8845ZM18.5108 48.9496C20.2695 47.1909 20.7891 44.6638 20.0738 42.4522L18.6466 42.9138C19.1954 44.6104 18.7951 46.5439 17.4501 47.8889L18.5108 48.9496ZM9.46315 48.9496C11.9616 51.448 16.0123 51.448 18.5108 48.9496L17.4501 47.8889C15.5375 49.8016 12.4365 49.8016 10.5238 47.8889L9.46315 48.9496ZM9.46315 39.902C6.96472 42.4004 6.96472 46.4512 9.46315 48.9496L10.5238 47.8889C8.61117 45.9763 8.61117 42.8753 10.5238 40.9626L9.46315 39.902ZM17.107 38.8389C14.6716 37.4773 11.5347 37.8305 9.46315 39.902L10.5238 40.9626C12.1083 39.3782 14.51 39.1055 16.3751 40.1482L17.107 38.8389ZM24.348 30.8259L16.2107 38.9632L17.2714 40.0239L25.4087 31.8865L24.348 30.8259ZM27.7827 30.6062L24.8784 30.6062L24.8784 32.1062L27.7827 32.1062L27.7827 30.6062ZM27.7921 35.1337L28.5181 31.5033L27.0473 31.2091L26.3212 34.8396L27.7921 35.1337ZM25.3885 36.0851L27.2037 35.7221L26.9095 34.2512L25.0943 34.6143L25.3885 36.0851ZM25.6138 37.312L25.9768 35.4968L24.506 35.2026L24.1429 37.0178L25.6138 37.312ZM22.9373 38.6025L25.1155 37.8764L24.6412 36.4534L22.4629 37.1795L22.9373 38.6025ZM23.4501 39.3432L23.4501 37.891L21.9501 37.891L21.9501 39.3432L23.4501 39.3432ZM20.6891 42.4148L23.2304 39.8735L22.1698 38.8129L19.6285 41.3542L20.6891 42.4148ZM19.8906 43.2134L20.6891 42.4148L19.6285 41.3542L18.8299 42.1527L19.8906 43.2134Z" fill="black"/>
<circle r="1.4278" transform="matrix(0.707107 -0.707107 -0.707107 -0.707107 12.0322 45.7542)" fill="black"/>
<path d="M38 34.239C38 34.1058 38.0414 33.9924 38.1242 33.8988C38.207 33.8016 38.3312 33.753 38.4968 33.753H39.0206V32.5272C39.0206 32.1888 39.071 31.8666 39.1718 31.5606C39.2762 31.2546 39.4328 30.9864 39.6416 30.756C39.8504 30.522 40.1114 30.3384 40.4246 30.2052C40.7414 30.0684 41.114 30 41.5424 30C41.8304 30 42.0896 30.0378 42.32 30.1134C42.554 30.1854 42.761 30.2862 42.941 30.4158C43.1246 30.5418 43.2848 30.693 43.4216 30.8694C43.5584 31.0422 43.6754 31.2294 43.7726 31.431L43.1786 31.809C43.0418 31.881 42.9086 31.9134 42.779 31.9062C42.653 31.8954 42.5378 31.8324 42.4334 31.7172C42.365 31.6416 42.2984 31.575 42.2336 31.5174C42.1724 31.4562 42.1076 31.404 42.0392 31.3608C41.9708 31.3176 41.8952 31.2852 41.8124 31.2636C41.7332 31.242 41.6432 31.2312 41.5424 31.2312C41.204 31.2312 40.9538 31.3446 40.7918 31.5714C40.6298 31.7946 40.5488 32.1114 40.5488 32.5218V33.753H42.6818V34.3308C42.6818 34.3776 42.671 34.4244 42.6494 34.4712C42.6314 34.5144 42.6026 34.554 42.563 34.59C42.527 34.626 42.4838 34.6548 42.4334 34.6764C42.383 34.698 42.3272 34.7088 42.266 34.7088H40.5488V35.6646C40.5488 35.8914 40.5056 36.0966 40.4192 36.2802C40.3364 36.4602 40.2212 36.6276 40.0736 36.7824C40.2176 36.7536 40.3616 36.7302 40.5056 36.7122C40.6496 36.6906 40.7972 36.6798 40.9484 36.6798H43.9076V37.2954C43.9076 37.3674 43.8914 37.4412 43.859 37.5168C43.8302 37.5924 43.787 37.6608 43.7294 37.722C43.6754 37.7796 43.6088 37.8282 43.5296 37.8678C43.454 37.9038 43.3676 37.9218 43.2704 37.9218H38.1026V37.0092C38.2214 36.984 38.3366 36.9462 38.4482 36.8958C38.5598 36.8454 38.657 36.7824 38.7398 36.7068C38.8262 36.6312 38.8946 36.5394 38.945 36.4314C38.9954 36.3234 39.0206 36.1992 39.0206 36.0588V34.7088H38V34.239Z" fill="#222222"/>
</svg>
