<svg width="72" height="72" viewBox="0 0 72 72" fill="none" xmlns="http://www.w3.org/2000/svg">
<path d="M54.4344 32.1587V30.5585C54.4344 29.7598 54.0321 29.0148 53.3641 28.5768L34.8682 14.3256C34.0845 13.8117 33.0715 13.8079 32.284 14.316L12.335 28.5786C11.6586 29.015 11.25 29.765 11.25 30.5699V42.5452V51.1778V57.3207C11.25 58.6295 12.311 59.6904 13.6197 59.6904H18.0348C19.2267 59.6904 20.193 58.7242 20.193 57.5323V47.8205C20.193 46.6286 21.1592 45.6624 22.3511 45.6624H28.3037C29.4956 45.6624 30.4619 46.6286 30.4619 47.8205V57.5323C30.4619 58.7242 31.4281 59.6904 32.62 59.6904H41.8028H52.2763C53.4682 59.6904 54.4344 58.7242 54.4344 57.5323V54.6587" stroke="black" stroke-width="1.5"/>
<path d="M42.543 20.4222V12.3291C42.543 11.7331 43.0261 11.25 43.6221 11.25H51.1756C51.7716 11.25 52.2547 11.7331 52.2547 12.3291V27.4362" stroke="black" stroke-width="1.5"/>
<rect x="36" y="31.5938" width="29.25" height="23.625" rx="2.15816" stroke="black" stroke-width="1.5"/>
<path d="M39.9339 41.3229C39.7651 41.3229 39.6282 41.2699 39.5235 41.164C39.4245 41.0581 39.375 40.9199 39.375 40.7492V35.5865C39.375 35.4159 39.4216 35.2835 39.5147 35.1894C39.6137 35.0952 39.7476 35.0482 39.9164 35.0482H42.9815C43.3367 35.0482 43.5142 35.2011 43.5142 35.5071C43.5142 35.8071 43.3367 35.9572 42.9815 35.9572H40.484V37.6516H42.8069C43.162 37.6516 43.3396 37.8046 43.3396 38.1105C43.3396 38.4106 43.162 38.5606 42.8069 38.5606H40.484V40.7492C40.484 40.9199 40.4346 41.0581 40.3356 41.164C40.2366 41.2699 40.1027 41.3229 39.9339 41.3229Z" fill="black"/>
<path d="M46.9779 41.3494C46.3783 41.3494 45.8572 41.2199 45.4148 40.961C44.9782 40.7022 44.6405 40.3315 44.4018 39.8491C44.1631 39.3666 44.0438 38.8018 44.0438 38.1546C44.0438 37.5075 44.1602 36.9456 44.3931 36.469C44.6318 35.9866 44.9723 35.6159 45.4148 35.3571C45.8572 35.0982 46.3783 34.9688 46.9779 34.9688C47.5776 34.9688 48.0957 35.0982 48.5323 35.3571C48.9748 35.6159 49.3124 35.9866 49.5453 36.469C49.784 36.9456 49.9033 37.5075 49.9033 38.1546C49.9033 38.8018 49.784 39.3666 49.5453 39.8491C49.3066 40.3315 48.966 40.7022 48.5236 40.961C48.087 41.2199 47.5717 41.3494 46.9779 41.3494ZM46.9779 40.4404C47.5426 40.4404 47.9822 40.2433 48.2965 39.8491C48.6167 39.4549 48.7768 38.8901 48.7768 38.1546C48.7768 37.4192 48.6167 36.8573 48.2965 36.469C47.9822 36.0748 47.5426 35.8777 46.9779 35.8777C46.4074 35.8777 45.962 36.0748 45.6418 36.469C45.3275 36.8573 45.1703 37.4192 45.1703 38.1546C45.1703 38.8901 45.3275 39.4549 45.6418 39.8491C45.962 40.2433 46.4074 40.4404 46.9779 40.4404Z" fill="black"/>
<path d="M55.9663 40.5551C56.0362 40.661 56.0711 40.7639 56.0711 40.864C56.0711 40.9993 56.0158 41.1111 55.9052 41.1993C55.8004 41.2876 55.6752 41.3317 55.5297 41.3317C55.4366 41.3317 55.3463 41.3111 55.259 41.2699C55.1775 41.2229 55.1076 41.1552 55.0494 41.0669L53.888 39.2843C53.7715 39.096 53.6464 38.9636 53.5125 38.8871C53.3844 38.8106 53.2156 38.7724 53.006 38.7724H52.1502V40.7492C52.1502 40.9257 52.1007 41.0669 52.0017 41.1729C51.9028 41.2729 51.7689 41.3229 51.6 41.3229C51.4312 41.3229 51.2944 41.2729 51.1896 41.1729C51.0906 41.0669 51.0412 40.9257 51.0412 40.7492V35.5865C51.0412 35.4159 51.0877 35.2835 51.1809 35.1894C51.2799 35.0952 51.4138 35.0482 51.5826 35.0482H53.7657C54.4643 35.0482 54.9941 35.207 55.355 35.5247C55.7218 35.8366 55.9052 36.2896 55.9052 36.8838C55.9052 37.3663 55.7684 37.7634 55.4948 38.0752C55.227 38.3812 54.8456 38.5782 54.3508 38.6665C54.5196 38.7077 54.6681 38.7812 54.7962 38.8871C54.9242 38.993 55.0494 39.1401 55.1717 39.3284L55.9663 40.5551ZM53.6085 37.8987C54.0335 37.8987 54.345 37.8193 54.5429 37.6604C54.7409 37.4957 54.8398 37.2456 54.8398 36.9103C54.8398 36.569 54.7409 36.3219 54.5429 36.169C54.345 36.0101 54.0335 35.9307 53.6085 35.9307H52.1415V37.8987H53.6085Z" fill="black"/>
<path d="M41.8201 50.7188C41.3718 50.7188 40.9469 50.6599 40.5452 50.5422C40.1493 50.4187 39.8262 50.254 39.5758 50.048C39.442 49.948 39.375 49.8068 39.375 49.6244C39.375 49.5009 39.4099 49.395 39.4798 49.3067C39.5555 49.2126 39.6428 49.1655 39.7418 49.1655C39.8466 49.1655 39.9659 49.2067 40.0998 49.2891C40.3501 49.4715 40.6121 49.6038 40.8857 49.6862C41.1594 49.7686 41.4621 49.8098 41.7939 49.8098C42.2189 49.8098 42.5449 49.7362 42.772 49.5891C42.999 49.4362 43.1125 49.2155 43.1125 48.9272C43.1125 48.7037 43.0048 48.533 42.7894 48.4154C42.5799 48.2918 42.2276 48.1742 41.7328 48.0624C41.2205 47.9506 40.8042 47.8211 40.484 47.6741C40.1638 47.527 39.9222 47.3387 39.7592 47.1093C39.5962 46.8798 39.5147 46.5886 39.5147 46.2356C39.5147 45.8708 39.6166 45.5443 39.8204 45.256C40.0241 44.9677 40.3065 44.7441 40.6674 44.5853C41.0342 44.4205 41.4446 44.3381 41.8987 44.3381C42.7312 44.3381 43.4094 44.5617 43.9334 45.0089C44.0091 45.0736 44.0615 45.1383 44.0906 45.203C44.1255 45.2618 44.143 45.3383 44.143 45.4325C44.143 45.556 44.1051 45.6649 44.0295 45.759C43.9596 45.8473 43.8752 45.8914 43.7762 45.8914C43.718 45.8914 43.6627 45.8826 43.6103 45.8649C43.5637 45.8473 43.4997 45.8149 43.4182 45.7678C43.1795 45.5913 42.9466 45.4619 42.7196 45.3795C42.4983 45.2913 42.2247 45.2471 41.8987 45.2471C41.5028 45.2471 41.1885 45.3295 40.9556 45.4942C40.7285 45.6531 40.615 45.8767 40.615 46.165C40.615 46.4062 40.7169 46.5915 40.9207 46.7209C41.1244 46.8504 41.4708 46.971 41.9598 47.0828C42.478 47.2004 42.8971 47.3328 43.2173 47.4799C43.5433 47.6211 43.7908 47.8035 43.9596 48.0271C44.1342 48.2506 44.2216 48.5301 44.2216 48.8655C44.2216 49.2302 44.1197 49.5538 43.9159 49.8362C43.718 50.1128 43.4356 50.3304 43.0689 50.4893C42.7079 50.6423 42.2917 50.7188 41.8201 50.7188Z" fill="black"/>
<path d="M50.7785 49.9598C50.8134 50.0363 50.8309 50.1128 50.8309 50.1892C50.8309 50.3246 50.7756 50.4393 50.665 50.5334C50.5602 50.6276 50.4379 50.6746 50.2982 50.6746C50.2051 50.6746 50.1177 50.6511 50.0362 50.604C49.9547 50.5511 49.8907 50.4716 49.8441 50.3657L49.3202 49.1832H46.2463L45.7223 50.3657C45.6758 50.4716 45.6117 50.5511 45.5302 50.604C45.4487 50.6511 45.3585 50.6746 45.2595 50.6746C45.1256 50.6746 45.0034 50.6276 44.8928 50.5334C44.7821 50.4393 44.7268 50.3246 44.7268 50.1892C44.7268 50.1128 44.7443 50.0363 44.7792 49.9598L47.1894 44.7265C47.2418 44.6088 47.3204 44.5205 47.4252 44.4617C47.5358 44.397 47.6522 44.3646 47.7745 44.3646C47.8968 44.3646 48.0103 44.397 48.1151 44.4617C48.2257 44.5205 48.3072 44.6088 48.3596 44.7265L50.7785 49.9598ZM46.6305 48.3007H48.9359L47.7832 45.6796L46.6305 48.3007Z" fill="black"/>
<path d="M52.2123 50.6393C52.0435 50.6393 51.9125 50.5923 51.8193 50.4981C51.7262 50.404 51.6796 50.2745 51.6796 50.1098V44.9383C51.6796 44.7676 51.7291 44.6323 51.828 44.5323C51.9328 44.4264 52.0696 44.3734 52.2385 44.3734C52.4131 44.3734 52.5499 44.4264 52.6489 44.5323C52.7537 44.6323 52.8061 44.7676 52.8061 44.9383V49.7039H55.2599C55.6092 49.7039 55.7839 49.8598 55.7839 50.1716C55.7839 50.4834 55.6092 50.6393 55.2599 50.6393H52.2123Z" fill="black"/>
<path d="M57.0649 50.6393C56.896 50.6393 56.7621 50.5923 56.6632 50.4981C56.57 50.404 56.5234 50.2716 56.5234 50.101V44.9559C56.5234 44.7853 56.57 44.6529 56.6632 44.5588C56.7621 44.4646 56.896 44.4176 57.0649 44.4176H60.2173C60.3861 44.4176 60.5171 44.4558 60.6103 44.5323C60.7034 44.6088 60.75 44.7176 60.75 44.8588C60.75 45.0059 60.7034 45.1206 60.6103 45.203C60.5171 45.2795 60.3861 45.3177 60.2173 45.3177H57.6237V47.0298H60.0427C60.2115 47.0298 60.3425 47.0681 60.4356 47.1446C60.5288 47.221 60.5753 47.3328 60.5753 47.4799C60.5753 47.6211 60.5288 47.73 60.4356 47.8064C60.3425 47.8829 60.2115 47.9212 60.0427 47.9212H57.6237V49.7392H60.2173C60.3861 49.7392 60.5171 49.7803 60.6103 49.8627C60.7034 49.9392 60.75 50.051 60.75 50.1981C60.75 50.3393 60.7034 50.4481 60.6103 50.5246C60.5171 50.6011 60.3861 50.6393 60.2173 50.6393H57.0649Z" fill="black"/>
</svg>
