<svg width="36" height="36" viewBox="0 0 36 36" fill="none" xmlns="http://www.w3.org/2000/svg">
<path d="M3.90603 33.6075H32.1744C33.1931 33.6093 34.1702 33.2041 34.8887 32.4818C35.607 31.7598 36.0071 30.7805 35.9999 29.7618V20.0169C35.9999 17.8855 34.3061 16.131 32.1744 16.131H30.9943L20.6183 6.42318C20.8036 6.03968 20.8996 5.61907 20.8993 5.1931C20.8983 3.61414 19.6173 2.33499 18.0383 2.33594C16.4594 2.33688 15.1802 3.61792 15.1812 5.19688C15.1808 5.62158 15.2768 6.04063 15.4621 6.42255L5.08608 16.131H3.90603C1.77432 16.131 0 17.8855 0 20.0169V29.7618C0 31.8935 1.77432 33.6075 3.90603 33.6075ZM18.0402 3.62767C18.9076 3.62767 19.6107 4.33079 19.6107 5.19814C19.6107 6.06548 18.9076 6.7686 18.0402 6.7686C17.1729 6.7686 16.4697 6.06548 16.4697 5.19814C16.4707 4.33111 17.1732 3.62862 18.0402 3.62767ZM16.2706 7.43146C17.305 8.26011 18.7764 8.25916 19.8098 7.42894L29.109 16.131H6.97146L16.2706 7.43146ZM34.7113 29.7417C34.7113 31.1649 33.5574 32.3189 32.1341 32.3189H3.86576C2.44253 32.3189 1.28859 31.1649 1.28859 29.7417V19.9968C1.28859 18.5735 2.44253 17.4196 3.86576 17.4196H32.1341C33.5574 17.4196 34.7113 18.5735 34.7113 19.9968V29.7417Z" fill="#222222"/>
<path d="M8.49691 27.7611C8.81088 27.7611 9.10093 27.6322 9.10093 27.3745V25.4718H9.67287L10.7762 27.595C10.8539 27.7432 11.0121 27.831 11.1789 27.819C11.5491 27.819 11.9682 27.4761 11.9682 27.1618C11.9688 27.1099 11.955 27.0586 11.9279 27.0146L10.9451 25.2334C11.5089 25.016 11.9197 24.4868 11.9197 23.5849C11.9197 22.272 11.042 21.8477 9.93839 21.8477H8.27134C8.16752 21.8505 8.06874 21.8948 7.99764 21.971C7.92654 22.0468 7.88879 22.1481 7.89288 22.2522V27.3742C7.89288 27.6322 8.18294 27.7611 8.49691 27.7611ZM9.10093 22.9752H9.93839C10.3895 22.9752 10.6632 23.1765 10.6632 23.7403C10.6632 24.304 10.3895 24.5054 9.93839 24.5054H9.10093V22.9752Z" fill="#222222"/>
<path d="M13.9411 27.7269H16.808C17.0738 27.7269 17.1865 27.4692 17.1865 27.2115C17.1865 26.9136 17.0496 26.6799 16.808 26.6799H14.6577V25.3107H15.8576C16.1234 25.3107 16.2364 25.0531 16.2364 24.8357C16.2364 24.578 16.0992 24.3443 15.8576 24.3443H14.6577V22.9752H16.808C17.0496 22.9752 17.1865 22.7015 17.1865 22.4035C17.1865 22.1456 17.0738 21.8477 16.808 21.8477H13.9411C13.6671 21.8477 13.3691 22.0024 13.3691 22.2601V27.3742C13.3691 27.6322 13.6671 27.7269 13.9411 27.7269Z" fill="#222222"/>
<path d="M19.1677 27.7624C19.4817 27.7624 19.812 27.6334 19.812 27.3757V24.6375L21.3341 27.4242C21.4873 27.7061 21.7289 27.7624 22.0186 27.7624C22.3329 27.7624 22.6308 27.6334 22.6308 27.3757V22.2538C22.6308 21.9879 22.3408 21.875 22.0268 21.875C21.7128 21.875 21.4228 21.9879 21.4228 22.2538V24.992L20.1059 22.5033C19.8001 21.9153 19.6167 21.875 19.1658 21.875C18.8516 21.875 18.5234 21.9958 18.5234 22.2616V27.3757C18.5234 27.6334 18.8538 27.7624 19.1677 27.7624Z" fill="#222222"/>
<path d="M24.3384 22.9752H25.4499V27.3745C25.4499 27.6322 25.7802 27.7611 26.0942 27.7611C26.4082 27.7611 26.7385 27.6322 26.7385 27.3745V22.9752H27.8176C28.0592 22.9752 28.1963 22.7093 28.1963 22.4036C28.1963 22.1377 28.0834 21.8477 27.8176 21.8477H24.3384C24.0726 21.8477 23.96 22.1377 23.96 22.4036C23.96 22.7093 24.0968 22.9752 24.3384 22.9752Z" fill="#222222"/>
</svg>
