<svg width="36" height="36" viewBox="0 0 36 36" fill="none" xmlns="http://www.w3.org/2000/svg">
<path d="M3.90603 33.6075H32.1744C33.1931 33.6093 34.1702 33.2041 34.8887 32.4818C35.607 31.7598 36.0071 30.7805 35.9999 29.7618V20.0169C35.9999 17.8855 34.3061 16.131 32.1744 16.131H30.9943L20.6183 6.42318C20.8036 6.03968 20.8996 5.61907 20.8993 5.1931C20.8983 3.61414 19.6173 2.33499 18.0383 2.33594C16.4594 2.33688 15.1802 3.61792 15.1812 5.19688C15.1808 5.62158 15.2768 6.04063 15.4621 6.42255L5.08608 16.131H3.90603C1.77432 16.131 0 17.8855 0 20.0169V29.7618C0 31.8fig
<path d="M16.2072 22.45V24.2476H18.0216C18.2258 24.2476 18.3912 24.413 18.3912 24.6172C18.3912 24.8213 18.2258 24.9868 18.0216 24.9868H16.2072V26.8264H18.2526C18.4684 26.8264 18.6432 27.0012 18.6432 27.217C18.6432 27.4327 18.4684 27.6076 18.2526 27.6076H15.8152C15.5029 27.6076 15.2496 27.3543 15.2496 27.042V22.2428C15.2496 21.9304 15.5029 21.6772 15.8152 21.6772H18.2568C18.4702 21.6772 18.6432 21.8502 18.6432 22.0636C18.6432 22.277 18.4702 22.45 18.2568 22.45H16.2072Z" fill="#222222"/>
<path d="M20.5303 26.86H22.2061C22.4125 26.86 22.5799 27.0273 22.5799 27.2338C22.5799 27.4402 22.4125 27.6076 22.2061 27.6076H19.5727V22.156C19.5727 21.8915 19.7871 21.6772 20.0515 21.6772C20.3159 21.6772 20.5303 21.8915 20.5303 22.156V26.86Z" fill="#222222"/>
<path d="M24.2873 26.86H25.9631C26.1696 26.86 26.3369 27.0273 26.3369 27.2338C26.3369 27.4402 26.1696 27.6076 25.9631 27.6076H23.8309C23.5541 27.6076 23.3297 27.3832 23.3297 27.1064V22.156C23.3297 21.8915 23.5441 21.6772 23.8085 21.6772C24.073 21.6772 24.2873 21.8915 24.2873 22.156V26.86Z" fill="#222222"/>
</svg>
