<svg width="36" height="36" viewBox="0 0 36 36" fill="none" xmlns="http://www.w3.org/2000/svg">
<path d="M3.90603 33.6075H32.1744C33.1931 33.6093 34.1702 33.2041 34.8887 32.4818C35.607 31.7598 36.0071 30.7805 35.9999 29.7618V20.0169C35.9999 17.8855 34.3061 16.131 32.1744 16.131H30.9943L20.6183 6.42318C20.8036 6.03968 20.8996 5.61907 20.8993 5.1931C20.8983 3.61414 19.6173 2.33499 18.0383 2.33594C16.4594 2.33688 15.1802 3.61792 15.1812 5.19688C15.1808 5.62158 15.2768 6.04063 15.4621 6.42255L5.08608 16.131H3.90603C1.77432 16.131 0 17.8855 0 20.0169V29.7618C0 31.8935 1.77432 33.6075 3.90603 33.6075ZM18.0402 3.62767C18.9076 3.62767 19.6107 4.33079 19.6107 5.19814C19.6107 6.06548 18.9076 6.7686 18.0402 6.7686C17.1729 6.7686 16.4697 6.06548 16.4697 5.19814C16.4707 4.33111 17.1732 3.62861 18.0402 3.62767ZM16.2706 7.43146C17.305 8.2601 18.7764 8.25916 19.8098 7.42894L29.109 16.131H6.97146L16.2706 7.43146ZM34.7113 29.7417C34.7113 31.1649 33.5574 32.3189 32.1341 32.3189H3.86576C2.44253 32.3189 1.28859 31.1649 1.28859 29.7417V19.9968C1.28859 18.5735 2.44253 17.4196 3.86576 17.4196H32.1341C33.5574 17.4196 34.7113 18.5735 34.7113 19.9968V29.7417Z" fill="#222222"/>
<path d="M14.291 26.0284C14.291 26.3196 14.221 26.5912 14.081 26.8432C13.941 27.0896 13.7282 27.2884 13.4426 27.4396C13.157 27.5908 12.807 27.6664 12.3926 27.6664C11.9894 27.6664 11.6282 27.5964 11.309 27.4564C10.9898 27.3108 10.735 27.1092 10.5446 26.8516C10.4643 26.743 10.3985 26.6274 10.3471 26.5049C10.2302 26.2262 10.4762 25.9612 10.7784 25.9612C11.042 25.9612 11.2506 26.1717 11.3869 26.3974C11.4359 26.4785 11.4968 26.5543 11.5694 26.6248C11.7654 26.8096 12.0258 26.902 12.3506 26.902C12.6418 26.902 12.8658 26.8236 13.0226 26.6668C13.185 26.51 13.2662 26.3084 13.2662 26.062C13.2662 25.8492 13.2074 25.6756 13.0898 25.5412C12.9722 25.4012 12.8266 25.292 12.653 25.2136C12.4794 25.1352 12.2414 25.0456 11.939 24.9448C11.5694 24.8272 11.267 24.7096 11.0318 24.592C10.8022 24.4744 10.6062 24.3036 10.4438 24.0796C10.2814 23.8556 10.2002 23.5616 10.2002 23.1976C10.2002 22.8784 10.2786 22.5984 10.4354 22.3576C10.5922 22.1168 10.8162 21.932 11.1074 21.8032C11.3986 21.6688 11.7346 21.6016 12.1154 21.6016C12.7202 21.6016 13.199 21.7472 13.5518 22.0384C13.7536 22.2023 13.9066 22.3947 14.0107 22.6155C14.1449 22.8999 13.8907 23.1808 13.5763 23.1808C13.3193 23.1808 13.1123 22.9825 12.9615 22.7744C12.9191 22.7159 12.8694 22.6609 12.8126 22.6096C12.6446 22.4472 12.4122 22.366 12.1154 22.366C11.8466 22.366 11.631 22.436 11.4686 22.576C11.3062 22.7104 11.225 22.9064 11.225 23.164C11.225 23.3656 11.281 23.5336 11.393 23.668C11.505 23.7968 11.645 23.9004 11.813 23.9788C11.9866 24.0516 12.2218 24.1384 12.5186 24.2392C12.8938 24.3568 13.199 24.4772 13.4342 24.6004C13.675 24.718 13.8766 24.8916 14.039 25.1212C14.207 25.3508 14.291 25.6532 14.291 26.0284Z" fill="#222222"/>
<path d="M16.2072 22.45V24.2476H18.0216C18.2258 24.2476 18.3912 24.413 18.3912 24.6172C18.3912 24.8213 18.2258 24.9868 18.0216 24.9868H16.2072V26.8264H18.2526C18.4684 26.8264 18.6432 27.0012 18.6432 27.217C18.6432 27.4327 18.4684 27.6076 18.2526 27.6076H15.8152C15.5029 27.6076 15.2496 27.3543 15.2496 27.042V22.2428C15.2496 21.9304 15.5029 21.6772 15.8152 21.6772H18.2568C18.4702 21.6772 18.6432 21.8502 18.6432 22.0636C18.6432 22.277 18.4702 22.45 18.2568 22.45H16.2072Z" fill="#222222"/>
<path d="M20.5303 26.86H22.2061C22.4125 26.86 22.5799 27.0273 22.5799 27.2338C22.5799 27.4402 22.4125 27.6076 22.2061 27.6076H19.5727V22.156C19.5727 21.8915 19.7871 21.6772 20.0515 21.6772C20.3159 21.6772 20.5303 21.8915 20.5303 22.156V26.86Z" fill="#222222"/>
<path d="M24.2873 26.86H25.9631C26.1696 26.86 26.3369 27.0273 26.3369 27.2338C26.3369 27.4402 26.1696 27.6076 25.9631 27.6076H23.8309C23.5541 27.6076 23.3297 27.3832 23.3297 27.1064V22.156C23.3297 21.8915 23.5441 21.6772 23.8085 21.6772C24.073 21.6772 24.2873 21.8915 24.2873 22.156V26.86Z" fill="#222222"/>
</svg>
