<svg width="18" height="15" viewBox="0 0 18 15" fill="none" xmlns="http://www.w3.org/2000/svg">
<path d="M17.4902 7.8023C17.5483 7.63853 17.5802 7.46248 17.5802 7.27907C17.5802 6.73731 17.3043 6.25883 16.8857 5.97663V2.18298C16.8857 1.31745 16.1815 0.613281 15.316 0.613281H2.68236C1.81683 0.613281 1.11266 1.31745 1.11266 2.18298V5.97663C0.694042 6.25883 0.418158 6.73731 0.418158 7.27907C0.418158 7.46248 0.450076 7.63853 0.508154 7.8023H0.0693359V14.4997H1.1158V12.8984H16.8826V14.4997H17.929V7.8023H17.4902ZM2.68236 1.65975H15.316C15.6045 1.65975 15.8392 1.89447 15.8392 2.18298V5.70937H14.7943V5.18613C14.7943 4.3206 14.0901 3.61643 13.2246 3.61643H10.0457C9.64392 3.61643 9.27709 3.76831 8.99919 4.0174C8.72125 3.76827 8.35446 3.61643 7.95272 3.61643H4.7738C3.90827 3.61643 3.2041 4.3206 3.2041 5.18613V5.70937H2.15913V2.18298C2.15913 1.89447 2.39385 1.65975 2.68236 1.65975ZM8.47596 5.70937H4.25057V5.18613C4.25057 4.89762 4.48529 4.6629 4.7738 4.6629H7.95272C8.24123 4.6629 8.47596 4.89762 8.47596 5.18613V5.70937ZM9.52242 5.18613C9.52242 4.89762 9.75714 4.6629 10.0457 4.6629H13.2246C13.5131 4.6629 13.7478 4.89762 13.7478 5.18613V5.70937H9.52242V5.18613ZM1.46463 7.27907C1.46463 6.99056 1.69935 6.75583 1.98786 6.75583H16.0105C16.299 6.75583 16.5338 6.99056 16.5338 7.27907C16.5338 7.56758 16.299 7.8023 16.0105 7.8023H1.98786C1.69935 7.8023 1.46463 7.56758 1.46463 7.27907ZM1.1158 8.84877H16.8826V11.8519H1.1158V8.84877Z" fill="#919191"/>
</svg>
