<svg width="20" height="17" viewBox="0 0 20 17" fill="none" xmlns="http://www.w3.org/2000/svg">
<path d="M3.74984 8.25C3.92562 8.25 4.08838 8.28255 4.23812 8.34765C4.38786 8.41276 4.51807 8.50065 4.62874 8.61133C4.73942 8.722 4.83057 8.85547 4.90218 9.01172C4.9738 9.16797 5.00635 9.33073 4.99984 9.5C4.99984 9.67578 4.96729 9.83854 4.90218 9.98828C4.83708 10.138 4.74919 10.2682 4.63851 10.3789C4.52783 10.4896 4.39437 10.5807 4.23812 10.6523C4.08187 10.724 3.91911 10.7565 3.74984 10.75C3.57406 10.75 3.4113 10.7174 3.26156 10.6523C3.11182 10.5872 2.98161 10.4993 2.87093 10.3887C2.76025 10.278 2.66911 10.1445 2.59749 9.98828C2.52588 9.83203 2.49333 9.66927 2.49984 9.5C2.49984 9.32421 2.53239 9.16146 2.59749 9.01172C2.6626 8.86198 2.75049 8.73177 2.86117 8.62109C2.97184 8.51041 3.10531 8.41927 3.26156 8.34765C3.41781 8.27604 3.58057 8.24349 3.74984 8.25ZM16.2498 8.25C16.4256 8.25 16.5884 8.28255 16.7381 8.34765C16.8879 8.41276 17.0181 8.50065 17.1287 8.61133C17.2394 8.722 17.3306 8.85547 17.4022 9.01172C17.4738 9.16797 17.5063 9.33073 17.4998 9.5C17.4998 9.67578 17.4673 9.83854 17.4022 9.98828C17.3371 10.138 17.2492 10.2682 17.1385 10.3789C17.0278 10.4896 16.8944 10.5807 16.7381 10.6523C16.5819 10.724 16.4191 10.7565 16.2498 10.75C16.0741 10.75 15.9113 10.7174 15.7616 10.6523C15.6118 10.5872 15.4816 10.4993 15.3709 10.3887C15.2603 10.278 15.1691 10.1445 15.0975 9.98828C15.0259 9.83203 14.9933 9.66927 14.9998 9.5C14.9998 9.32421 15.0324 9.16146 15.0975 9.01172C15.1626 8.86198 15.2505 8.73177 15.3612 8.62109C15.4718 8.51041 15.6053 8.41927 15.7616 8.34765C15.9178 8.27604 16.0806 8.24349 16.2498 8.25ZM19.6385 5.75L18.994 6.38476C19.007 6.41732 19.0396 6.51497 19.0916 6.67773C19.1437 6.84049 19.2056 7.03255 19.2772 7.2539C19.3488 7.47526 19.4302 7.71289 19.5213 7.96679C19.6125 8.2207 19.6906 8.45182 19.7557 8.66015C19.8208 8.86849 19.8794 9.04427 19.9315 9.1875C19.9836 9.33073 20.0063 9.40234 19.9998 9.40234V15.75C19.9998 15.9258 19.9673 16.0885 19.9022 16.2383C19.8371 16.388 19.7492 16.5182 19.6385 16.6289C19.5278 16.7396 19.3944 16.8307 19.2381 16.9023C19.0819 16.974 18.9191 17.0065 18.7498 17H17.4998C17.3241 17 17.1613 16.9674 17.0116 16.9023C16.8618 16.8372 16.7316 16.7493 16.6209 16.6387C16.5103 16.528 16.4191 16.3945 16.3475 16.2383C16.2759 16.082 16.2433 15.9193 16.2498 15.75H3.74984C3.74984 15.9258 3.71729 16.0885 3.65218 16.2383C3.58708 16.388 3.49919 16.5182 3.38851 16.6289C3.27783 16.7396 3.14437 16.8307 2.98812 16.9023C2.83187 16.974 2.66911 17.0065 2.49984 17H1.24984C1.07406 17 0.911296 16.9674 0.761556 16.9023C0.611816 16.8372 0.481608 16.7493 0.370931 16.6387C0.260254 16.528 0.169108 16.3945 0.0974935 16.2383C0.0258789 16.082 -0.00667318 15.9193 -0.00016276 15.75V9.40234L0.0681966 9.19726L0.243978 8.66992L0.478353 7.96679C0.562988 7.71289 0.641113 7.47526 0.712728 7.2539C0.784342 7.03255 0.849447 6.84049 0.90804 6.67773C0.966634 6.51497 0.999186 6.41732 1.0057 6.38476L0.361165 5.75H-0.00016276V4.5H0.888509L1.44515 5.0664L2.16781 2.88867C2.27197 2.56966 2.42171 2.27995 2.61702 2.01953C2.81234 1.75911 3.04346 1.5345 3.31038 1.3457C3.57731 1.1569 3.86051 1.01042 4.15999 0.90625C4.45947 0.802083 4.78499 0.75 5.13656 0.75H14.8631C15.2017 0.75 15.5239 0.802083 15.8299 0.90625C16.1359 1.01042 16.4224 1.15365 16.6893 1.33594C16.9562 1.51823 17.1841 1.74284 17.3729 2.00977C17.5617 2.27669 17.7147 2.56966 17.8319 2.88867L18.5545 5.0664L19.1112 4.5H19.9998V5.75H19.6385ZM5.13656 2C4.7264 2 4.36182 2.11719 4.04281 2.35156C3.7238 2.58594 3.49593 2.89518 3.35921 3.2793L2.52913 5.75H17.4705L16.6405 3.2793C16.5103 2.89518 16.2856 2.58594 15.9666 2.35156C15.6476 2.11719 15.2798 2 14.8631 2H5.13656ZM13.7498 14.0215L12.7342 12H7.26546L6.24984 14.0215V14.5H13.7498V14.0215ZM18.7498 14.5V9.59765L18.6912 9.42187C18.6522 9.30468 18.6034 9.15169 18.5448 8.96289C18.4862 8.77409 18.4178 8.57552 18.3397 8.36718C18.2616 8.15885 18.1932 7.95377 18.1346 7.75195C18.076 7.55013 18.0207 7.38411 17.9686 7.2539C17.9165 7.1237 17.8872 7.03906 17.8807 7H2.11898C2.10596 7.03255 2.07666 7.11719 2.03109 7.2539C1.98551 7.39062 1.93018 7.55338 1.86507 7.74218C1.79997 7.93099 1.73161 8.13607 1.65999 8.35742C1.58838 8.57877 1.52327 8.7806 1.46468 8.96289C1.40609 9.14518 1.354 9.29492 1.30843 9.41211C1.26286 9.52929 1.24333 9.59114 1.24984 9.59765V14.5H4.99984V13.7285L6.48421 10.75H13.5155L14.9998 13.7285V14.5H18.7498Z" fill="#919191"/>
</svg>
