<svg width="12" height="12" viewBox="0 0 12 12" fill="none" xmlns="http://www.w3.org/2000/svg">
<path d="M5.63877 0.327601C5.68152 -0.1092 6.31848 -0.1092 6.36123 0.327601C6.39886 0.712158 6.93145 0.779439 7.06354 0.416324C7.21358 0.00387675 7.83053 0.162282 7.7633 0.595991C7.70412 0.977827 8.20325 1.17544 8.42149 0.856586C8.66938 0.494409 9.22755 0.801266 9.05458 1.20463C8.9023 1.55975 9.3366 1.87529 9.62729 1.62072C9.95746 1.33157 10.4218 1.7676 10.1539 2.11528C9.91812 2.42137 10.2603 2.835 10.6052 2.66072C10.9969 2.46277 11.3382 3.00057 10.9923 3.27071C10.6877 3.50855 10.9163 3.99428 11.2937 3.91124C11.7223 3.81692 11.9191 4.4227 11.5169 4.59834C11.1628 4.75297 11.2634 5.28028 11.6496 5.29369C12.0882 5.30893 12.1282 5.94463 11.6949 6.01473C11.3135 6.07644 11.2798 6.6122 11.6505 6.72123C12.0715 6.84507 11.9522 7.47074 11.5151 7.43089C11.1303 7.3958 10.9644 7.90635 11.2964 8.10414C11.6734 8.3288 11.4022 8.90514 10.9888 8.75784C10.6248 8.62815 10.3371 9.08141 10.6095 9.35553C10.9188 9.6669 10.5128 10.1577 10.1489 9.9122C9.82864 9.69607 9.43732 10.0635 9.63291 10.3968C9.85506 10.7753 9.33976 11.1497 9.04842 10.8214C8.79194 10.5324 8.32152 10.7911 8.42809 11.1625C8.54914 11.5843 7.95691 11.8188 7.75637 11.4284C7.57981 11.0847 7.05985 11.2182 7.07071 11.6045C7.08304 12.0432 6.45111 12.123 6.35395 11.695C6.26841 11.3182 5.73159 11.3182 5.64605 11.695C5.54889 12.123 4.91696 12.0432 4.92929 11.6045C4.94015 11.2182 4.42019 11.0847 4.24363 11.4284C4.04309 11.8188 3.45086 11.5843 3.57191 11.1625C3.67848 10.7911 3.20806 10.5324 2.95158 10.8214C2.66024 11.1497 2.14494 10.7753 2.3671 10.3968C2.56268 10.0635 2.17136 9.69607 1.85106 9.9122C1.48725 10.1577 1.08124 9.6669 1.39055 9.35553C1.66287 9.08141 1.37522 8.62815 1.01124 8.75784C0.597807 8.90514 0.326604 8.3288 0.703632 8.10414C1.03556 7.90635 0.869677 7.3958 0.48488 7.43089C0.047805 7.47074 -0.0715493 6.84507 0.349504 6.72123C0.720198 6.6122 0.68649 6.07644 0.305055 6.01473C-0.1282 5.94463 -0.0882052 5.30893 0.350418 5.29369C0.73658 5.28028 0.837171 4.75297 0.483065 4.59834C0.0808532 4.4227 0.277684 3.81692 0.706317 3.91124C1.08368 3.99428 1.31225 3.50855 1.00772 3.27071C0.661828 3.00057 1.00313 2.46277 1.39484 2.66072C1.7397 2.835 2.08188 2.42137 1.84607 2.11528C1.57822 1.7676 2.04254 1.33157 2.37272 1.62072C2.6634 1.87529 3.0977 1.55975 2.94542 1.20463C2.77245 0.801266 3.33062 0.494409 3.57851 0.856586C3.79675 1.17544 4.29588 0.977827 4.2367 0.595992C4.16948 0.162282 4.78642 0.00387675 4.93646 0.416324C5.06855 0.779439 5.60114 0.712158 5.63877 0.327601Z" fill="#19B8DF"/>
<path d="M3.35355 5.64645C3.15829 5.45118 2.84171 5.45118 2.64645 5.64645C2.45118 5.84171 2.45118 6.15829 2.64645 6.35355L3.35355 5.64645ZM5 8L4.64645 8.35355C4.84171 8.54882 5.15829 8.54882 5.35355 8.35355L5 8ZM9.35355 4.35355C9.54882 4.15829 9.54882 3.84171 9.35355 3.64645C9.15829 3.45118 8.84171 3.45118 8.64645 3.64645L9.35355 4.35355ZM2.64645 6.35355L4.64645 8.35355L5.35355 7.64645L3.35355 5.64645L2.64645 6.35355ZM5.35355 8.35355L9.35355 4.35355L8.64645 3.64645L4.64645 7.64645L5.35355 8.35355Z" fill="white"/>
</svg>
