<svg width="18" height="18" viewBox="0 0 18 18" fill="none" xmlns="http://www.w3.org/2000/svg">
<path d="M17.6232 10.4611C17.6232 10.1737 17.3902 9.94062 17.1028 9.94062H16.0611V2.84436C16.0611 1.45044 14.927 0.316406 13.5331 0.316406C12.1392 0.316406 11.0052 1.45044 11.0052 2.84436V3.79316C11.0052 4.08059 11.2382 4.31363 11.5256 4.31363C11.8131 4.31363 12.0461 4.08059 12.0461 3.79316V2.84436C12.0461 2.02441 12.7132 1.35735 13.5331 1.35735C14.3531 1.35735 15.0201 2.02441 15.0201 2.84436V9.94058H1.14645C0.859022 9.94058 0.625977 10.1736 0.625977 10.4611C0.625977 12.81 2.11166 14.8183 4.19263 15.5962C3.79232 16.017 3.54474 16.5941 3.54474 17.2301C3.54474 17.5175 3.77778 17.7505 4.06521 17.7505C4.35263 17.7505 4.58568 17.5175 4.58568 17.2301C4.58568 16.5194 5.12794 15.9412 5.79453 15.9412C5.81901 15.9412 12.4302 15.9412 12.4547 15.9412C13.1213 15.9412 13.6636 16.5194 13.6636 17.2301C13.6636 17.5175 13.8967 17.7505 14.1841 17.7505C14.4715 17.7505 14.7045 17.5175 14.7045 17.2301C14.7045 16.5941 14.4569 16.0171 14.0567 15.5962C16.1376 14.8183 17.6232 12.81 17.6232 10.4611ZM12.1431 14.9003H6.10616C3.83434 14.9003 1.95567 13.1851 1.69726 10.9816H16.552C16.2936 13.1851 14.4148 14.9003 12.1431 14.9003Z" fill="#919191"/>
</svg>
