<svg width="24" height="24" viewBox="0 0 24 24" fill="none" xmlns="http://www.w3.org/2000/svg">
<path d="M22.875 20.25H19.875V13.5H22.125V14.625C22.125 14.7245 22.1645 14.8198 22.2348 14.8902C22.3052 14.9605 22.4005 15 22.5 15C22.5995 15 22.6948 14.9605 22.7652 14.8902C22.8355 14.8198 22.875 14.7245 22.875 14.625V13.125C22.875 13.0255 22.8355 12.9302 22.7652 12.8598C22.6948 12.7895 22.5995 12.75 22.5 12.75H17.625V3.75H18.375C18.4745 3.75 18.5698 3.71049 18.6402 3.64016C18.7105 3.56984 18.75 3.47446 18.75 3.375V1.875C18.75 1.77554 18.7105 1.68016 18.6402 1.60984C18.5698 1.53951 18.4745 1.5 18.375 1.5H5.625C5.52554 1.5 5.43016 1.53951 5.35984 1.60984C5.28951 1.68016 5.25 1.77554 5.25 1.875V3.375C5.25 3.47446 5.28951 3.56984 5.35984 3.64016C5.43016 3.71049 5.52554 3.75 5.625 3.75H6.375V12.75H4.99716L5.61056 10.6031C5.62653 10.5473 5.62931 10.4886 5.61871 10.4315C5.6081 10.3744 5.58438 10.3206 5.54943 10.2742C5.51447 10.2279 5.46924 10.1903 5.41728 10.1644C5.36532 10.1385 5.30805 10.125 5.25 10.125H3.9053L4.95267 9.07767C4.98749 9.04285 5.01512 9.00151 5.03396 8.95601C5.05281 8.91051 5.06251 8.86175 5.06251 8.8125C5.06251 8.76325 5.05281 8.71449 5.03396 8.66899C5.01512 8.62349 4.98749 8.58215 4.95267 8.54733C4.91785 8.51251 4.87651 8.48488 4.83101 8.46604C4.78551 8.44719 4.73675 8.43749 4.6875 8.43749C4.63825 8.43749 4.58949 8.44719 4.54399 8.46604C4.49849 8.48488 4.45715 8.51251 4.42233 8.54733L3.9375 9.0322L2.89017 7.98483C2.81984 7.9145 2.72446 7.87499 2.625 7.87499C2.52554 7.87499 2.43016 7.9145 2.35983 7.98483C2.2895 8.05516 2.24999 8.15054 2.24999 8.25C2.24999 8.34946 2.2895 8.44484 2.35983 8.51517L3.4072 9.5625L2.8447 10.125H1.875C1.81695 10.125 1.75968 10.1385 1.70772 10.1644C1.65576 10.1903 1.61053 10.2279 1.57557 10.2742C1.54062 10.3206 1.5169 10.3744 1.50629 10.4315C1.49568 10.4886 1.49847 10.5473 1.51444 10.6031L2.12784 12.75H1.5C1.40054 12.75 1.30516 12.7895 1.23483 12.8598C1.16451 12.9302 1.125 13.0255 1.125 13.125V14.625C1.125 14.7245 1.16451 14.8198 1.23483 14.8902C1.30516 14.9605 1.40054 15 1.5 15C1.59946 15 1.69484 14.9605 1.76516 14.8902C1.83549 14.8198 1.875 14.7245 1.875 14.625V13.5H4.125V20.25H1.125C1.02554 20.25 0.930161 20.2895 0.859835 20.3598C0.789509 20.4302 0.75 20.5255 0.75 20.625V22.125C0.75 22.2245 0.789509 22.3198 0.859835 22.3902C0.930161 22.4605 1.02554 22.5 1.125 22.5H22.875C22.9745 22.5 23.0698 22.4605 23.1402 22.3902C23.2105 22.3198 23.25 22.2245 23.25 22.125V20.625C23.25 20.5255 23.2105 20.4302 23.1402 20.3598C23.0698 20.2895 22.9745 20.25 22.875 20.25ZM19.125 13.5V20.25H16.875V13.5H19.125ZM12.375 12.75V8.625H16.875V12.75H12.375ZM16.125 13.5V20.25H13.875V13.5H16.125ZM7.125 12.75V8.625H11.625V12.75H7.125ZM10.125 13.5V20.25H7.875V13.5H10.125ZM7.125 7.875V3.75H11.625V7.875H7.125ZM10.875 13.5H13.125V20.25H10.875V13.5ZM12.375 7.875V3.75H16.875V7.875H12.375ZM6 3V2.25H18V3H6ZM4.875 13.5H7.125V20.25H4.875V13.5ZM2.90789 12.75L2.37216 10.875H4.75284L4.21711 12.75H2.90789ZM22.5 21.75H1.5V21H22.5V21.75Z" fill="#868686"/>
</svg>
