<svg width="48" height="48" viewBox="0 0 48 48" fill="none" xmlns="http://www.w3.org/2000/svg">
<g clip-path="url(#clip0)">
<path d="M42.4252 16.2318C42.4252 15.4477 41.7896 14.812 41.0056 14.812H6.995C6.21097 14.812 5.57526 15.4476 5.57526 16.2318C5.57526 23.4692 9.77037 29.7442 15.856 32.7558L13.2606 46.3129C13.1131 47.083 13.6179 47.8268 14.388 47.9743C14.4782 47.9916 14.5679 48 14.6565 48C15.324 48 15.9191 47.5268 16.0494 46.8468L17.2681 40.4806H30.7316L31.9511 46.847C32.0813 47.5269 32.6763 48 33.3439 48C33.4325 48 33.5224 47.9916 33.6125 47.9743C34.3826 47.8267 34.8873 47.083 34.7398 46.3128L32.1429 32.7567C38.2294 29.7452 42.4252 23.4697 42.4252 16.2318ZM17.8118 37.6412L18.5412 33.8312C20.2669 34.3675 22.1004 34.6567 24.0003 34.6567C25.8997 34.6567 27.7327 34.3677 29.458 33.8315L30.1879 37.6412H17.8118ZM24.0002 31.8174C15.8847 31.8174 9.19803 25.5828 8.47878 17.6515H39.5216C38.8023 25.5828 32.1157 31.8174 24.0002 31.8174Z" fill="#888888"/>
<path d="M18.5497 7.33113C18.8827 6.98876 19.6877 6.04985 19.9717 4.72911C20.2064 3.63833 20.1464 2.00314 18.5285 0.408645C17.9703 -0.14176 17.0714 -0.135385 16.5209 0.423083C15.9705 0.981363 15.977 1.88033 16.5353 2.43073C17.2943 3.17895 17.2758 3.76001 17.1958 4.1322C17.0596 4.76576 16.6041 5.25907 16.5142 5.35151C16.1812 5.69388 15.3763 6.63279 15.0922 7.95354C14.8576 9.04432 14.9176 10.6795 16.5354 12.274C16.812 12.5466 17.1721 12.6826 17.532 12.6826C17.8987 12.6826 18.2653 12.5414 18.5431 12.2595C19.0935 11.7012 19.087 10.8022 18.5286 10.2518C17.7696 9.5036 17.7882 8.92253 17.8682 8.55035C18.0044 7.91697 18.4598 7.42366 18.5497 7.33113Z" fill="#888888"/>
<path d="M25.0179 7.33113C25.3509 6.98876 26.1559 6.04985 26.4399 4.72911C26.6746 3.63833 26.6146 2.00314 24.9967 0.408645C24.4385 -0.14176 23.5395 -0.135385 22.9891 0.423083C22.4387 0.981363 22.4452 1.88033 23.0035 2.43073C23.7625 3.17895 23.744 3.76001 23.664 4.1322C23.5278 4.76576 23.0723 5.25907 22.9824 5.35151C22.6494 5.69388 21.8445 6.63279 21.5604 7.95354C21.3258 9.04432 21.3858 10.6795 23.0036 12.274C23.2801 12.5466 23.6402 12.6826 24.0002 12.6826C24.3668 12.6826 24.7335 12.5414 25.0113 12.2595C25.5617 11.7012 25.5552 10.8022 24.9968 10.2518C24.2378 9.5036 24.2564 8.92253 24.3364 8.55035C24.4726 7.91697 24.928 7.42366 25.0179 7.33113Z" fill="#888888"/>
<path d="M31.4854 7.33113C31.8184 6.98876 32.6234 6.04985 32.9074 4.72911C33.1421 3.63833 33.0821 2.00314 31.4642 0.408645C30.906 -0.14176 30.0071 -0.135385 29.4566 0.423083C28.9062 0.981363 28.9127 1.88033 29.471 2.43073C30.23 3.17895 30.2115 3.76001 30.1315 4.1322C29.9953 4.76576 29.5398 5.25907 29.4499 5.35151C29.1169 5.69388 28.312 6.63279 28.0279 7.95354C27.7933 9.04432 27.8533 10.6795 29.4711 12.274C29.7477 12.5466 30.1077 12.6826 30.4677 12.6826C30.8344 12.6826 31.201 12.5414 31.4788 12.2595C32.0292 11.7012 32.0227 10.8022 31.4643 10.2518C30.7053 9.5036 30.7239 8.92253 30.8039 8.55035C30.9401 7.91697 31.3955 7.42366 31.4854 7.33113Z" fill="#888888"/>
</g>
<defs>
<clipPath id="clip0">
<rect width="48" height="48" fill="white"/>
</clipPath>
</defs>
</svg>
