<svg width="48" height="48" viewBox="0 0 48 48" fill="none" xmlns="http://www.w3.org/2000/svg">
<g clip-path="url(#clip0)">
<path d="M47.6217 22.0036L37.9901 13.6446V1.23761C37.9901 0.63427 37.4965 0.140625 36.8931 0.140625H29.5433C28.94 0.140625 28.4463 0.63427 28.4463 1.23761V4.9235L25.1005 2.10424C24.6946 1.76417 24.0913 1.76417 23.6854 2.10424L0.385345 21.9927C-0.0534501 22.3656 -0.130239 23.0238 0.220797 23.4846L2.30508 26.2709C2.66708 26.7536 3.35819 26.8523 3.84086 26.4903C3.87377 26.4684 3.90668 26.4355 3.93959 26.4026L4.52099 25.8431V46.7627C4.52099 47.366 5.01464 47.8597 5.61798 47.8597H42.038C42.6414 47.8597 43.135 47.366 43.135 46.7627V25.7224L43.881 26.4026C44.3307 26.8085 45.0218 26.7865 45.4277 26.3367C45.4387 26.3258 45.4606 26.3038 45.4716 26.2929L47.7533 23.5285C48.1263 23.0787 48.0715 22.3986 47.6217 22.0036ZM44.5172 24.0002L42.7949 22.4095C42.3452 22.0036 41.6541 22.0256 41.2482 22.4753C41.0617 22.6728 40.963 22.947 40.963 23.2213V45.6657H6.72594V23.2652C6.72594 22.6618 6.2323 22.1682 5.62895 22.1682C5.34374 22.1682 5.06949 22.2779 4.87203 22.4753L3.32528 23.9563L2.60126 22.9909L24.3984 4.38598L28.8412 8.12671C29.302 8.52163 29.9931 8.45581 30.388 7.99507C30.5525 7.79761 30.6403 7.54531 30.6403 7.293V2.3346H35.7962V14.1382C35.7962 14.4563 35.9388 14.7525 36.1691 14.961L45.3729 22.958L44.5172 24.0002Z" fill="#888888"/>
<path d="M37.4637 29.9786L35.1819 28.9365L33.1415 25.6565C32.4285 24.5156 31.1889 23.8354 29.8615 23.8354H20.7894C19.5827 23.8354 18.4418 24.4059 17.7178 25.3603L15.0631 28.8377L10.6093 30.0554C9.22713 30.4393 8.27275 31.6899 8.26178 33.116V34.8712C8.26178 36.6264 9.69884 38.0963 11.4431 38.0963H11.4869C12.0354 39.5224 13.4725 40.6633 15.1509 40.6633C16.8293 40.6633 18.2663 39.5224 18.8148 38.0963H28.4574C29.0059 39.5224 30.4429 40.6633 32.1213 40.6633C33.7997 40.6633 35.2368 39.5224 35.7853 38.0963H36.1692C37.9244 38.0963 39.3066 36.6264 39.3066 34.8712V32.8637C39.3176 31.6241 38.5936 30.4942 37.4637 29.9786ZM15.1509 38.4144C14.2075 38.4144 13.4396 37.6465 13.4396 36.7031C13.4396 35.7597 14.2075 34.9918 15.1509 34.9918C16.0943 34.9918 16.8622 35.7597 16.8622 36.7031C16.8622 37.6575 16.0943 38.4144 15.1509 38.4144ZM32.1213 38.4144C31.1779 38.4144 30.41 37.6465 30.41 36.7031C30.41 35.7597 31.1779 34.9918 32.1213 34.9918C33.0647 34.9918 33.8326 35.7597 33.8326 36.7031C33.8216 37.6575 33.0647 38.4144 32.1213 38.4144ZM37.1126 34.8821C37.1126 35.4197 36.7067 35.9133 36.1692 35.9133H35.9279C35.4562 33.8071 33.3719 32.4907 31.2657 32.9624C29.7957 33.2915 28.6439 34.4433 28.3148 35.9133H18.9574C18.4967 33.8071 16.4234 32.4688 14.3172 32.9295C12.8362 33.2476 11.6844 34.3995 11.3443 35.8694C10.8397 35.8146 10.4558 35.3867 10.4558 34.8821V33.127C10.4558 32.6882 10.7519 32.2932 11.1798 32.1835L15.9846 30.8672C16.215 30.8013 16.4234 30.6697 16.566 30.4722L19.4511 26.6876C19.7692 26.2708 20.2628 26.0294 20.7784 26.0294H29.8505C30.4319 26.0294 30.9695 26.3256 31.2657 26.8193L33.5035 30.3845C33.6132 30.571 33.7778 30.7136 33.9752 30.8013L36.5422 31.9751C36.9042 32.1397 37.1236 32.4907 37.1126 32.8746V34.8821Z" fill="#888888"/>
</g>
<defs>
<clipPath id="clip0">
<rect width="48" height="48" fill="white"/>
</clipPath>
</defs>
</svg>
