<svg width="24" height="24" viewBox="0 0 24 24" fill="none" xmlns="http://www.w3.org/2000/svg">
<path d="M14.25 10.125H14.625V14.25C14.625 15.2839 15.4661 16.125 16.5 16.125H20.25C21.2839 16.125 22.125 15.2839 22.125 14.25V10.125H22.5C23.1202 10.125 23.625 9.62025 23.625 9C23.625 8.37975 23.1202 7.875 22.5 7.875H22.125V6.31088C22.125 5.52675 21.8197 4.7895 21.2651 4.23488C20.7105 3.68025 19.9736 3.375 19.1891 3.375H17.5605C16.7764 3.375 16.0391 3.68025 15.4845 4.23488C14.9299 4.7895 14.625 5.52638 14.625 6.31088V7.875H14.25C13.6298 7.875 13.125 8.37975 13.125 9C13.125 9.62025 13.6298 10.125 14.25 10.125ZM15.3994 6H16.125C16.9523 6 17.625 5.32725 17.625 4.5V4.125H19.125V4.5C19.125 5.32725 19.7977 6 20.625 6H21.3506C21.3653 6.10238 21.375 6.2055 21.375 6.31088V8.58337C20.6876 8.1225 19.8799 7.875 19.0339 7.875H17.7158C16.8698 7.875 16.062 8.1225 15.3746 8.58337V6.31088C15.375 6.2055 15.3847 6.10238 15.3994 6ZM15.375 9.54037C16.0159 8.95125 16.8401 8.625 17.7161 8.625H19.0342C19.9102 8.625 20.7345 8.95125 21.3754 9.54037V12.5842C20.7341 13.1737 19.9099 13.5 19.0339 13.5H17.7158C16.8398 13.5 16.0155 13.1737 15.3746 12.5846V9.54037H15.375ZM20.25 15.375H16.5C15.8798 15.375 15.375 14.8702 15.375 14.25V13.5416C16.0624 14.0021 16.8701 14.25 17.7161 14.25H19.0342C19.8802 14.25 20.688 14.0021 21.3754 13.5416V14.25C21.375 14.8702 20.8703 15.375 20.25 15.375ZM22.5 8.625C22.7066 8.625 22.875 8.79338 22.875 9C22.875 9.20662 22.7066 9.375 22.5 9.375H22.125V8.625H22.5ZM21.0997 5.25H20.625C20.2114 5.25 19.875 4.91363 19.875 4.5V4.23637C20.1953 4.34175 20.4892 4.51987 20.7349 4.76512C20.8807 4.911 21.0019 5.0745 21.0997 5.25ZM16.875 4.23637V4.5C16.875 4.91363 16.5386 5.25 16.125 5.25H15.6503C15.7481 5.0745 15.8693 4.911 16.0151 4.76512C16.2608 4.51987 16.5547 4.34175 16.875 4.23637ZM14.25 8.625H14.625V9.375H14.25C14.0434 9.375 13.875 9.20662 13.875 9C13.875 8.79338 14.0434 8.625 14.25 8.625Z" fill="#868686"/>
<path d="M1.5 10.125H1.875V14.25C1.875 15.2839 2.71613 16.125 3.75 16.125H7.5C8.53387 16.125 9.375 15.2839 9.375 14.25V10.125H9.75C10.3702 10.125 10.875 9.62025 10.875 9C10.875 8.37975 10.3702 7.875 9.75 7.875H9.375V6.31088C9.375 5.52675 9.06975 4.7895 8.51513 4.23488C7.9605 3.68025 7.22362 3.375 6.43913 3.375H4.8105C4.02638 3.375 3.28912 3.68025 2.7345 4.23488C2.17987 4.7895 1.875 5.52638 1.875 6.31088V7.875H1.5C0.87975 7.875 0.375 8.37975 0.375 9C0.375 9.62025 0.87975 10.125 1.5 10.125ZM2.64937 6H3.375C4.20225 6 4.875 5.32725 4.875 4.5V4.125H6.375V4.5C6.375 5.32725 7.04775 6 7.875 6H8.60063C8.61525 6.10238 8.625 6.2055 8.625 6.31088V8.58337C7.93762 8.1225 7.12988 7.875 6.28387 7.875H4.96575C4.11975 7.875 3.312 8.1225 2.62462 8.58337V6.31088C2.625 6.2055 2.63475 6.10238 2.64937 6ZM2.625 9.54037C3.26588 8.95125 4.09013 8.625 4.96613 8.625H6.28425C7.16025 8.625 7.9845 8.95125 8.62537 9.54037V12.5842C7.98412 13.1737 7.15987 13.5 6.28387 13.5H4.96575C4.09012 13.5 3.26588 13.1737 2.625 12.5846V9.54037ZM7.5 15.375H3.75C3.12975 15.375 2.625 14.8702 2.625 14.25V13.5416C3.31238 14.0021 4.12013 14.25 4.96613 14.25H6.28425C7.13025 14.25 7.938 14.0021 8.62537 13.5416V14.25C8.625 14.8702 8.12025 15.375 7.5 15.375ZM9.75 8.625C9.95662 8.625 10.125 8.79338 10.125 9C10.125 9.20662 9.95662 9.375 9.75 9.375H9.375V8.625H9.75ZM8.34975 5.25H7.875C7.46137 5.25 7.125 4.91363 7.125 4.5V4.23637C7.44525 4.34175 7.73925 4.51987 7.98487 4.76512C8.13075 4.911 8.25188 5.0745 8.34975 5.25ZM4.125 4.23637V4.5C4.125 4.91363 3.78863 5.25 3.375 5.25H2.90025C2.99813 5.0745 3.11925 4.911 3.26512 4.76512C3.51075 4.51987 3.80475 4.34175 4.125 4.23637ZM1.5 8.625H1.875V9.375H1.5C1.29338 9.375 1.125 9.20662 1.125 9C1.125 8.79338 1.29338 8.625 1.5 8.625Z" fill="#868686"/>
<path d="M1.5 2.625H9.75C9.957 2.625 10.125 2.457 10.125 2.25V0.75C10.125 0.543 9.957 0.375 9.75 0.375H1.5C1.293 0.375 1.125 0.543 1.125 0.75V2.25C1.125 2.457 1.293 2.625 1.5 2.625ZM1.875 1.125H9.375V1.875H1.875V1.125Z" fill="#868686"/>
<path d="M14.25 2.625H22.5C22.707 2.625 22.875 2.457 22.875 2.25V0.75C22.875 0.543 22.707 0.375 22.5 0.375H14.25C14.043 0.375 13.875 0.543 13.875 0.75V2.25C13.875 2.457 14.043 2.625 14.25 2.625ZM14.625 1.125H22.125V1.875H14.625V1.125Z" fill="#868686"/>
<path d="M0.375 22.875H23.625V23.625H0.375V22.875Z" fill="#868686"/>
<path d="M2.25 19.875H3.75V20.625H2.25V19.875Z" fill="#868686"/>
<path d="M5.25 19.875H6.75V20.625H5.25V19.875Z" fill="#868686"/>
<path d="M8.25 19.875H9.75V20.625H8.25V19.875Z" fill="#868686"/>
<path d="M11.25 19.875H12.75V20.625H11.25V19.875Z" fill="#868686"/>
<path d="M14.25 19.875H15.75V20.625H14.25V19.875Z" fill="#868686"/>
<path d="M17.25 19.875H18.75V20.625H17.25V19.875Z" fill="#868686"/>
<path d="M20.25 19.875H21.75V20.625H20.25V19.875Z" fill="#868686"/>
<path d="M12.375 0.375H11.625V16.875H0.375V17.625H23.625V16.875H12.375V0.375Z" fill="#868686"/>
</svg>
