<svg width="24" height="24" viewBox="0 0 24 24" fill="none" xmlns="http://www.w3.org/2000/svg">
<path d="M19.2 14.7625L15.375 13.4875V12.325C15.8625 11.725 16.2 11.05 16.3875 10.3L17.55 9.4375C17.85 9.2125 18 8.875 18 8.5375V8.1625C18 7.525 17.5125 7.0375 16.875 7.0375H16.5V4.825L16.9875 3.0625C17.175 2.4625 16.8 1.825 16.2 1.675C16.1625 1.675 16.125 1.6375 16.05 1.6375L12 1L7.9125 1.6375C7.3125 1.75 6.8625 2.3125 6.975 2.9125C6.975 2.95 6.975 2.9875 7.0125 3.0625L7.5 4.825V7H7.125C6.4875 7 6 7.4875 6 8.125V8.5C6 8.8375 6.15 9.175 6.45 9.4L7.6125 10.2625C7.8 11.0125 8.1375 11.725 8.625 12.2875V13.45L4.8 14.725C3.7125 15.1 3 16.075 3 17.2V23.5H21V17.2375C21 16.1125 20.2875 15.1 19.2 14.7625ZM9.375 13.0375C9.4125 13.075 9.45 13.1125 9.525 13.15L9.825 13.375C10.35 13.75 10.9875 14.0125 11.6625 14.0875V15.8125L9.4125 14.6875V13.0375H9.375ZM12.375 14.05C13.05 13.975 13.65 13.75 14.2125 13.3375L14.5125 13.1125C14.55 13.075 14.5875 13.0375 14.6625 13V14.6125L12.4125 15.7375L12.375 14.05ZM15.75 5.125V5.875H8.25V5.125H15.75ZM15.375 6.625C13.725 8.5 10.8375 8.65 9 6.9625C8.8875 6.85 8.775 6.7375 8.6625 6.625H15.375ZM16.875 7.75C17.1 7.75 17.25 7.9 17.25 8.125V8.5C17.25 8.6125 17.2125 8.725 17.1 8.8L16.5 9.25V9.2125V7.75H16.875ZM7.7625 2.5375C7.8375 2.4625 7.9125 2.3875 8.025 2.3875L12 1.75L15.975 2.35C16.1625 2.3875 16.3125 2.575 16.275 2.7625V2.8L15.825 4.375H8.175L7.725 2.8375C7.6875 2.725 7.6875 2.6125 7.7625 2.5375ZM6.9 8.8C6.7875 8.725 6.75 8.6125 6.75 8.5V8.125C6.75 7.9 6.9 7.75 7.125 7.75H7.5V9.2125V9.25L6.9 8.8ZM8.25 7.3C10.275 9.3625 13.6125 9.4 15.675 7.375C15.7125 7.3375 15.7125 7.3375 15.75 7.3V9.2125C15.75 10.525 15.1125 11.7625 14.0625 12.55L13.7625 12.775C12.7125 13.525 11.2875 13.525 10.2375 12.775L9.9375 12.55C8.8875 11.7625 8.25 10.525 8.25 9.2125V7.3ZM3.75 17.2375C3.75 16.4125 4.275 15.7 5.025 15.475L8.625 14.275V15.1L11.25 16.4125L10.5 16.9V22.75H7.5V19.375H6.75V22.75H3.75V17.2375ZM20.25 22.75H17.25V19.375H16.5V22.75H11.25V17.3125L12.1875 16.675L15.375 15.1V14.275L18.975 15.475C19.725 15.7375 20.25 16.45 20.25 17.2375V22.75Z" fill="#868686"/>
<path d="M12 19.5H12.75V20.25H12V19.5Z" fill="#868686"/>
<path d="M12 21H12.75V21.75H12V21Z" fill="#868686"/>
<path d="M12 18H12.75V18.75H12V18Z" fill="#868686"/>
<path d="M13.5 17.625H16.5V18.375H13.5V17.625Z" fill="#868686"/>
</svg>
