<svg width="24" height="24" viewBox="0 0 24 24" fill="none" xmlns="http://www.w3.org/2000/svg">
<path d="M18.9713 2H5.02937C4.09132 2 3.32812 2.7632 3.32812 3.70124V20.2988C3.32812 21.2368 4.09132 22 5.02937 22H18.9713C19.9093 22 20.6725 21.2368 20.6725 20.2988V3.70124C20.6725 2.7632 19.9093 2 18.9713 2ZM19.9256 20.2988C19.9256 20.825 19.4975 21.2531 18.9713 21.2531H5.02937C4.5031 21.2531 4.07501 20.825 4.07501 20.2988V6.52282H18.4734C18.6796 6.52282 18.8468 6.35564 18.8468 6.14938C18.8468 5.94311 18.6796 5.77593 18.4734 5.77593H4.07501V3.70124C4.07501 3.17502 4.5031 2.74689 5.02937 2.74689H18.9713C19.4975 2.74689 19.9256 3.17502 19.9256 3.70124V20.2988ZM13.4526 4.32365C13.4526 4.52992 13.2854 4.6971 13.0792 4.6971H10.9215C10.7152 4.6971 10.548 4.52992 10.548 4.32365C10.548 4.11739 10.7152 3.95021 10.9215 3.95021H13.0792C13.2854 3.95021 13.4526 4.11739 13.4526 4.32365ZM16.3987 4.32365C16.3987 4.52992 16.2315 4.6971 16.0252 4.6971H15.4443C15.238 4.6971 15.0709 4.52992 15.0709 4.32365C15.0709 4.11739 15.238 3.95021 15.4443 3.95021H16.0252C16.2315 3.95021 16.3987 4.11739 16.3987 4.32365ZM8.92979 4.32365C8.92979 4.52992 8.76261 4.6971 8.55634 4.6971H7.97543C7.76916 4.6971 7.60198 4.52992 7.60198 4.32365C7.60198 4.11739 7.76916 3.95021 7.97543 3.95021H8.55634C8.76261 3.95021 8.92979 4.11739 8.92979 4.32365ZM15.6518 16.1494C15.6518 17.7025 14.6668 19.0887 13.2007 19.5988C13.006 19.6666 12.7931 19.5637 12.7253 19.3689C12.6575 19.1741 12.7605 18.9612 12.9553 18.8934C14.1214 18.4877 14.9049 17.3849 14.9049 16.1494C14.9049 14.9139 14.1214 13.8111 12.9553 13.4054C12.7605 13.3376 12.6575 13.1247 12.7253 12.9299C12.7931 12.7351 13.0057 12.6321 13.2007 12.7C14.6668 13.2101 15.6518 14.5963 15.6518 16.1494ZM9.09576 12.4979C7.08236 12.4979 5.44431 14.136 5.44431 16.1494C5.44431 18.1628 7.08236 19.8008 9.09576 19.8008C11.1092 19.8008 12.7472 18.1628 12.7472 16.1494C12.7472 14.136 11.1092 12.4979 9.09576 12.4979ZM9.09576 19.0539C7.49418 19.0539 6.1912 17.751 6.1912 16.1494C6.1912 14.5478 7.49418 13.2448 9.09576 13.2448C10.6973 13.2448 12.0003 14.5478 12.0003 16.1494C12.0003 17.751 10.6973 19.0539 9.09576 19.0539ZM18.5563 16.1494C18.5563 17.7025 17.5714 19.0887 16.1053 19.5988C15.9105 19.6666 15.6977 19.5637 15.6299 19.3689C15.5621 19.1741 15.6651 18.9612 15.8598 18.8934C17.026 18.4877 17.8095 17.3849 17.8095 16.1494C17.8095 14.9139 17.026 13.8111 15.8598 13.4054C15.6651 13.3376 15.5621 13.1247 15.6299 12.9299C15.6977 12.7351 15.9103 12.6321 16.1053 12.7C17.5714 13.2101 18.5563 14.5963 18.5563 16.1494ZM11.6269 10.3402V8.34855C11.6269 8.14228 11.7941 7.9751 12.0003 7.9751C12.2066 7.9751 12.3738 8.14228 12.3738 8.34855V10.3402C12.3738 10.5465 12.2066 10.7137 12.0003 10.7137C11.7941 10.7137 11.6269 10.5465 11.6269 10.3402ZM8.598 9.42199L9.33692 7.99158C9.43153 7.80834 9.65676 7.73643 9.84012 7.83116C10.0234 7.92581 10.0951 8.15108 10.0005 8.33432L9.26157 9.76473C9.16692 9.94801 8.94161 10.0198 8.75837 9.92515C8.57514 9.8305 8.50335 9.60523 8.598 9.42199ZM13.9587 8.33432C13.864 8.15108 13.9358 7.92581 14.119 7.83116C14.3024 7.73647 14.5276 7.8083 14.6222 7.99158L15.3612 9.42199C15.49 9.67149 15.3071 9.96689 15.0297 9.96689C14.8944 9.96689 14.7639 9.8932 14.6976 9.76473L13.9587 8.33432Z" fill="#868686"/>
</svg>
