<svg width="16" height="17" viewBox="0 0 16 17" fill="none" xmlns="http://www.w3.org/2000/svg">
<path d="M9.33268 1.8335H3.99935C3.64573 1.8335 3.30659 1.97397 3.05654 2.22402C2.80649 2.47407 2.66602 2.81321 2.66602 3.16683V13.8335C2.66602 14.1871 2.80649 14.5263 3.05654 14.7763C3.30659 15.0264 3.64573 15.1668 3.99935 15.1668H11.9993C12.353 15.1668 12.6921 15.0264 12.9422 14.7763C13.1922 14.5263 13.3327 14.1871 13.3327 13.8335V5.8335L9.33268 1.8335Z" stroke="#34C0E3" stroke-width="1.33333" stroke-linecap="round" stroke-linejoin="round"/>
<path d="M9.33398 1.8335V5.8335H13.334" stroke="#34C0E3" stroke-width="1.33333" stroke-linecap="round" stroke-linejoin="round"/>
<path d="M10.6673 9.1665H5.33398" stroke="#34C0E3" stroke-width="1.33333" stroke-linecap="round" stroke-linejoin="round"/>
<path d="M10.6673 11.8335H5.33398" stroke="#34C0E3" stroke-width="1.33333" stroke-linecap="round" stroke-linejoin="round"/>
<path d="M6.66732 6.5H6.00065H5.33398" stroke="#34C0E3" stroke-width="1.33333" stroke-linecap="round" stroke-linejoin="round"/>
</svg>
