<svg width="24" height="24" viewBox="0 0 24 24" fill="none" xmlns="http://www.w3.org/2000/svg">
<rect x="1.28205" y="1.28205" width="21.4359" height="21.4359" rx="0.846154" stroke="#868686" stroke-width="0.564103"/>
<rect x="2.40998" y="2.41023" width="9.02564" height="19.1795" rx="0.282051" stroke="#868686" stroke-width="0.564103"/>
<path d="M9.37845 7.96873C9.4886 7.85858 9.4886 7.67999 9.37845 7.56985C9.2683 7.4597 9.08972 7.4597 8.97957 7.56985L9.37845 7.96873ZM4.7488 11.8006C4.63865 11.9108 4.63865 12.0893 4.7488 12.1995C4.85895 12.3096 5.03753 12.3096 5.14768 12.1995L4.7488 11.8006ZM8.97957 7.56985L4.7488 11.8006L5.14768 12.1995L9.37845 7.96873L8.97957 7.56985Z" fill="#868686"/>
<path d="M9.37845 13.0456C9.4886 12.9355 9.4886 12.7569 9.37845 12.6468C9.2683 12.5366 9.08972 12.5366 8.97957 12.6468L9.37845 13.0456ZM4.7488 16.8775C4.63865 16.9877 4.63865 17.1663 4.7488 17.2764C4.85895 17.3865 5.03753 17.3865 5.14768 17.2764L4.7488 16.8775ZM8.97957 12.6468L4.7488 16.8775L5.14768 17.2764L9.37845 13.0456L8.97957 12.6468Z" fill="#868686"/>
<path d="M10.2249 9.66111C10.335 9.55096 10.335 9.37238 10.2249 9.26223C10.1147 9.15208 9.93615 9.15208 9.826 9.26223L10.2249 9.66111ZM3.62087 15.4674C3.51072 15.5775 3.51072 15.7561 3.62087 15.8662C3.73102 15.9764 3.90961 15.9764 4.01975 15.8662L3.62087 15.4674ZM9.826 9.26223L3.62087 15.4674L4.01975 15.8662L10.2249 9.66111L9.826 9.26223Z" fill="#868686"/>
<path d="M19.5318 7.96873C19.6419 7.85858 19.6419 7.67999 19.5318 7.56985C19.4216 7.4597 19.243 7.4597 19.1329 7.56985L19.5318 7.96873ZM14.9021 11.8006C14.792 11.9108 14.792 12.0893 14.9021 12.1995C15.0123 12.3096 15.1909 12.3096 15.301 12.1995L14.9021 11.8006ZM19.1329 7.56985L14.9021 11.8006L15.301 12.1995L19.5318 7.96873L19.1329 7.56985Z" fill="#868686"/>
<path d="M19.5318 13.0456C19.6419 12.9355 19.6419 12.7569 19.5318 12.6468C19.4216 12.5366 19.243 12.5366 19.1329 12.6468L19.5318 13.0456ZM14.9021 16.8775C14.792 16.9877 14.792 17.1663 14.9021 17.2764C15.0123 17.3865 15.1909 17.3865 15.301 17.2764L14.9021 16.8775ZM19.1329 12.6468L14.9021 16.8775L15.301 17.2764L19.5318 13.0456L19.1329 12.6468Z" fill="#868686"/>
<path d="M20.3782 9.66111C20.4883 9.55096 20.4883 9.37238 20.3782 9.26223C20.2681 9.15208 20.0895 9.15208 19.9793 9.26223L20.3782 9.66111ZM13.7742 15.4674C13.664 15.5775 13.664 15.7561 13.7742 15.8662C13.8843 15.9764 14.0629 15.9764 14.1731 15.8662L13.7742 15.4674ZM19.9793 9.26223L13.7742 15.4674L14.1731 15.8662L20.3782 9.66111L19.9793 9.26223Z" fill="#868686"/>
<rect x="12.5643" y="2.41023" width="9.02564" height="19.1795" rx="0.282051" stroke="#868686" stroke-width="0.564103"/>
</svg>
