<svg width="24" height="24" viewBox="0 0 24 24" fill="none" xmlns="http://www.w3.org/2000/svg">
<g clip-path="url(#clip0)">
<path d="M6.117 9.41967H13.4982C13.8598 9.41967 14.154 9.12548 14.154 8.76384V1.38267C14.154 1.02103 13.8598 0.726797 13.4982 0.726797H6.117C5.75536 0.726797 5.46117 1.02103 5.46117 1.38267V1.536H4.20169V1.24978C4.20169 0.560625 3.64106 0 2.95191 0C2.26275 0 1.70213 0.560625 1.70213 1.24978V14.1718C1.70213 14.366 1.85953 14.5234 2.05369 14.5234C2.24784 14.5234 2.40525 14.366 2.40525 14.1718V1.24978C2.40525 0.948328 2.65045 0.703125 2.95191 0.703125C3.25336 0.703125 3.49856 0.948328 3.49856 1.24978V1.88756V3.58172V6.56475V8.25891V21.3011H2.40525V15.7756C2.40525 15.5815 2.24784 15.4241 2.05369 15.4241C1.85953 15.4241 1.70213 15.5815 1.70213 15.7756V21.3011H1.34812C0.604734 21.3011 0 21.9053 0 22.6479V23.4412C0 23.7471 0.248906 23.996 0.554859 23.996H5.34895C5.65561 23.996 5.90512 23.7471 5.90512 23.4412V22.6479C5.90512 21.9053 5.30039 21.3011 4.557 21.3011H4.20164V8.61047H5.46108V8.7638C5.46112 9.12548 5.75536 9.41967 6.117 9.41967ZM5.20205 22.6479V23.2929H0.703125V22.6479C0.703125 22.293 0.992484 22.0042 1.34812 22.0042H2.05369H3.85013H4.55705C4.91269 22.0042 5.20205 22.293 5.20205 22.6479ZM4.20169 3.93333H5.46112V6.21323H4.20169V3.93333ZM6.16425 1.42992H13.4509V8.71655H6.16425V8.25891V6.56475V3.58177V1.88761V1.42992ZM5.46112 2.23917V3.2302H4.20169V2.23917H5.46112ZM4.20169 7.90734V6.91631H5.46112V7.90734H4.20169Z" fill="#868686"/>
<path d="M24 14.8135C24 14.0203 23.3583 13.375 22.5695 13.375H21.2254L20.7652 12.404C20.4873 11.8179 20.2773 11.418 19.9042 11.2088C19.5598 11.0156 19.1667 11.0169 18.4514 11.019L12.5545 11.0192L12.5073 11.019C11.7931 11.0167 11.3998 11.0156 11.0555 11.2088C10.6826 11.4181 10.4726 11.8179 10.1948 12.404L9.73454 13.375H8.39049C7.60168 13.375 6.95996 14.0203 6.95996 14.8135C6.95996 15.6001 7.59118 16.2409 8.37099 16.2515L7.96398 17.1102C7.73715 17.5874 7.7214 17.6533 7.7236 18.1172C7.72379 18.1579 7.72398 21.3151 7.72398 21.3151C7.72398 21.5808 7.72435 21.9899 8.10268 22.1408V23.1209C8.10268 23.6056 8.49704 23.9999 8.98173 23.9999H10.6121C11.0961 23.9999 11.4898 23.6055 11.4898 23.1209V22.1994H14.69C14.8842 22.1994 15.0416 22.042 15.0416 21.8479C15.0416 21.6537 14.8842 21.4963 14.69 21.4963H8.45424C8.44566 21.4963 8.43779 21.4962 8.43057 21.496C8.4271 21.4372 8.42687 18.1556 8.42668 18.1139C8.42513 17.7778 8.42513 17.7778 8.59918 17.4117L9.14888 16.252H21.811L22.3609 17.412C22.5338 17.7756 22.5338 17.7756 22.532 18.1078C22.5317 18.1512 22.5315 21.4372 22.5281 21.4961C22.5213 21.4963 16.2898 21.4964 16.2898 21.4964C16.0956 21.4964 15.9383 21.6538 15.9383 21.848C15.9383 22.0421 16.0956 22.1995 16.2898 22.1995H19.4687V23.1209C19.4687 23.6056 19.8631 24 20.3478 24H21.9781C22.4629 24 22.8572 23.6056 22.8572 23.1209V22.1406C23.2343 21.9895 23.2346 21.5806 23.2346 21.3151C23.2346 21.3151 23.2349 18.1537 23.2351 18.1114C23.2375 17.6555 23.2196 17.5807 22.9961 17.1105L22.5889 16.2515C23.3687 16.2409 24 15.6001 24 14.8135ZM7.66309 14.8135C7.66309 14.408 7.98938 14.0781 8.39049 14.0781H9.40126L8.70413 15.5488H8.39054C7.98938 15.5488 7.66309 15.219 7.66309 14.8135ZM10.7867 22.1994V23.1208C10.7867 23.2162 10.7068 23.2967 10.6121 23.2967H8.98177C8.88638 23.2967 8.80585 23.2162 8.80585 23.1208V22.1994H10.7867ZM10.8301 12.7052C11.0768 12.1849 11.2249 11.92 11.3996 11.822C11.5826 11.7194 11.9295 11.7203 12.5051 11.7222L18.4063 11.7223L18.4536 11.7222C19.0297 11.7203 19.3771 11.7193 19.5603 11.8221C19.7351 11.9201 19.8832 12.1849 20.1298 12.7052L21.4778 15.5489H9.48221L10.8301 12.7052ZM22.1542 23.1209C22.1542 23.2162 22.0736 23.2968 21.9782 23.2968H20.3478C20.2525 23.2968 20.1719 23.2162 20.1719 23.1209V22.1994H22.1542V23.1209ZM22.5695 15.5488H22.2559L21.5587 14.0781H22.5695C22.9706 14.0781 23.2969 14.408 23.2969 14.8135C23.2969 15.219 22.9706 15.5488 22.5695 15.5488Z" fill="#868686"/>
<path d="M13.6973 18.7236H17.2623C17.4565 18.7236 17.6139 18.5662 17.6139 18.3721C17.6139 18.1779 17.4565 18.0205 17.2623 18.0205H13.6973C13.5031 18.0205 13.3457 18.1779 13.3457 18.3721C13.3457 18.5662 13.5031 18.7236 13.6973 18.7236Z" fill="#868686"/>
<path d="M13.6973 20.3127H17.2623C17.4565 20.3127 17.6139 20.1553 17.6139 19.9612C17.6139 19.767 17.4565 19.6096 17.2623 19.6096H13.6973C13.5031 19.6096 13.3457 19.767 13.3457 19.9612C13.3457 20.1553 13.5031 20.3127 13.6973 20.3127Z" fill="#868686"/>
<path d="M21.3814 18.8356C21.3814 18.0212 20.7194 17.3586 19.9057 17.3586C19.0913 17.3586 18.4287 18.0212 18.4287 18.8356C18.4287 19.65 19.0913 20.3127 19.9057 20.3127C20.7194 20.3126 21.3814 19.65 21.3814 18.8356ZM19.1318 18.8356C19.1318 18.4089 19.479 18.0618 19.9057 18.0618C20.3317 18.0618 20.6782 18.4089 20.6782 18.8356C20.6782 19.2624 20.3316 19.6095 19.9057 19.6095C19.479 19.6095 19.1318 19.2623 19.1318 18.8356Z" fill="#868686"/>
<path d="M9.5791 18.8356C9.5791 19.6501 10.2411 20.3127 11.0548 20.3127C11.8692 20.3127 12.5318 19.6501 12.5318 18.8356C12.5318 18.0212 11.8692 17.3586 11.0548 17.3586C10.2411 17.3586 9.5791 18.0212 9.5791 18.8356ZM11.8287 18.8356C11.8287 19.2624 11.4815 19.6095 11.0548 19.6095C10.6288 19.6095 10.2823 19.2624 10.2823 18.8356C10.2823 18.4089 10.6289 18.0618 11.0548 18.0618C11.4815 18.0617 11.8287 18.4089 11.8287 18.8356Z" fill="#868686"/>
<path d="M9.90566 2.13086H8.46289C8.27159 2.13086 8.11133 2.29108 8.11133 2.48242V7.66403C8.11133 7.85819 8.26873 8.01559 8.46289 8.01559C8.65705 8.01559 8.81445 7.85819 8.81445 7.66403V5.76297C9.15233 5.76109 9.65548 5.75852 9.90566 5.75852C10.9216 5.75852 11.7481 4.94486 11.7481 3.94469C11.7481 2.94452 10.9216 2.13086 9.90566 2.13086ZM9.90566 5.05539C9.65698 5.05539 9.161 5.05792 8.82247 5.0598C8.82055 4.71273 8.81802 4.19833 8.81802 3.94469C8.81802 3.73122 8.81656 3.19464 8.81548 2.83398H9.90561C10.5232 2.83398 11.045 3.34262 11.045 3.94469C11.045 4.54675 10.5232 5.05539 9.90566 5.05539Z" fill="#868686"/>
</g>
<defs>
<clipPath id="clip0">
<rect width="24" height="24" fill="white"/>
</clipPath>
</defs>
</svg>
