<svg width="24" height="24" viewBox="0 0 24 24" fill="none" xmlns="http://www.w3.org/2000/svg">
<path d="M17.626 4.5H4.12598C3.9186 4.5 3.75098 4.66763 3.75098 4.875V23.625C3.75098 23.8324 3.9186 24 4.12598 24C4.33335 24 4.50098 23.8324 4.50098 23.625V5.25H17.251V23.625C17.251 23.8324 17.4186 24 17.626 24C17.8334 24 18.001 23.8324 18.001 23.625V4.875C18.001 4.66763 17.8334 4.5 17.626 4.5Z" fill="#868686"/>
<path d="M16.501 5.625H5.25098C5.0436 5.625 4.87598 5.79263 4.87598 6V23.625C4.87598 23.8324 5.0436 24 5.25098 24C5.45835 24 5.62598 23.8324 5.62598 23.625V6.375H16.126V23.625C16.126 23.8324 16.2936 24 16.501 24C16.7084 24 16.876 23.8324 16.876 23.625V6C16.876 5.79263 16.7084 5.625 16.501 5.625Z" fill="#868686"/>
<path d="M20.1412 12.11C19.9946 11.9633 19.7576 11.9633 19.6109 12.11L18.8609 12.86C18.7143 13.0066 18.7143 13.2436 18.8609 13.3902C18.9341 13.4633 19.0301 13.5001 19.1261 13.5001C19.2221 13.5001 19.3181 13.4633 19.3912 13.3902L20.1412 12.6402C20.2878 12.4936 20.2878 12.2566 20.1412 12.11Z" fill="#868686"/>
<path d="M20.8912 12.86L20.1412 12.11C19.9946 11.9633 19.7576 11.9633 19.6109 12.11C19.4643 12.2566 19.4643 12.4936 19.6109 12.6402L20.3609 13.3902C20.4341 13.4633 20.5301 13.5001 20.6261 13.5001C20.7221 13.5001 20.8181 13.4633 20.8912 13.3902C21.0378 13.2436 21.0378 13.0066 20.8912 12.86Z" fill="#868686"/>
<path d="M20.8912 15.11C20.7446 14.9633 20.5076 14.9633 20.3609 15.11L19.6109 15.86C19.4643 16.0066 19.4643 16.2436 19.6109 16.3902C19.6841 16.4633 19.7801 16.5001 19.8761 16.5001C19.9721 16.5001 20.0681 16.4633 20.1412 16.3902L20.8912 15.6402C21.0378 15.4936 21.0378 15.2566 20.8912 15.11Z" fill="#868686"/>
<path d="M20.1412 15.86L19.3912 15.11C19.2446 14.9633 19.0076 14.9633 18.8609 15.11C18.7143 15.2566 18.7143 15.4936 18.8609 15.6402L19.6109 16.3902C19.6841 16.4633 19.7801 16.5001 19.8761 16.5001C19.9721 16.5001 20.0681 16.4633 20.1412 16.3902C20.2878 16.2436 20.2878 16.0066 20.1412 15.86Z" fill="#868686"/>
<path d="M10.876 5.625C10.6686 5.625 10.501 5.79263 10.501 6V23.625C10.501 23.8324 10.6686 24 10.876 24C11.0834 24 11.251 23.8324 11.251 23.625V6C11.251 5.79263 11.0834 5.625 10.876 5.625Z" fill="#868686"/>
<path d="M18.376 23.25H3.37598C3.1686 23.25 3.00098 23.4176 3.00098 23.625C3.00098 23.8324 3.1686 24 3.37598 24H18.376C18.5834 24 18.751 23.8324 18.751 23.625C18.751 23.4176 18.5834 23.25 18.376 23.25Z" fill="#868686"/>
<path d="M10.876 0C9.01485 0 7.50098 1.51388 7.50098 3.375C7.50098 3.58238 7.6686 3.75 7.87598 3.75C8.08335 3.75 8.25098 3.58238 8.25098 3.375C8.25098 1.92788 9.42885 0.75 10.876 0.75C12.3231 0.75 13.501 1.92788 13.501 3.375C13.501 3.58238 13.6686 3.75 13.876 3.75C14.0834 3.75 14.251 3.58238 14.251 3.375C14.251 1.51388 12.7371 0 10.876 0Z" fill="#868686"/>
<path d="M13.876 3H7.87598C7.6686 3 7.50098 3.16763 7.50098 3.375C7.50098 3.58237 7.6686 3.75 7.87598 3.75H13.876C14.0834 3.75 14.251 3.58237 14.251 3.375C14.251 3.16763 14.0834 3 13.876 3Z" fill="#868686"/>
<path d="M10.876 1.5C10.6686 1.5 10.501 1.66763 10.501 1.875V3.375C10.501 3.58238 10.6686 3.75 10.876 3.75C11.0834 3.75 11.251 3.58238 11.251 3.375V1.875C11.251 1.66763 11.0834 1.5 10.876 1.5Z" fill="#868686"/>
</svg>
