<svg width="36" height="36" viewBox="0 0 36 36" fill="none" xmlns="http://www.w3.org/2000/svg">
<path d="M28.9605 15.2592C30.309 14.3491 31.1974 12.8072 31.1974 11.0616C31.1974 8.27073 28.9268 6.00013 26.1359 6.00013C23.345 6.00013 21.0744 8.27073 21.0744 11.0616C21.0744 12.8064 21.962 14.3477 23.3095 15.258C22.3279 15.5903 21.4088 16.0963 20.5929 16.7598C19.9025 16.0958 18.9759 15.7133 18.0002 15.7133C17.0245 15.7133 16.0979 16.0959 15.4079 16.7598C14.5917 16.0963 13.6725 15.5903 12.6908 15.2579C14.0382 14.3476 14.9258 12.8063 14.9258 11.0615C14.9258 8.2706 12.6552 6 9.86432 6C7.07373 6 4.80347 8.2706 4.80347 11.0615C4.80347 12.807 5.69174 14.3489 7.03999 15.259C3.57423 16.4367 1.07261 19.7196 1.06514 23.5769C1.06494 23.5828 1.06421 23.5884 1.06421 23.5942C1.06421 24.6139 1.6436 26.1187 4.40402 27.4974C6.37096 28.4798 9.07395 29.2183 12.2209 29.6329C14.0667 29.8763 16.0112 29.9999 18.0002 29.9999C19.9896 29.9999 21.9342 29.8764 23.7801 29.6329C26.9267 29.2183 29.6295 28.4798 31.5964 27.4974C34.3566 26.1186 34.936 24.6139 34.936 23.5942C34.936 19.7294 32.4316 16.4386 28.9605 15.2592ZM22.4028 11.0616C22.4028 9.00314 24.0775 7.32847 26.1359 7.32847C28.1944 7.32847 29.8691 9.00321 29.8691 11.0616C29.8691 13.1198 28.1944 14.7942 26.1359 14.7942C24.0775 14.7942 22.4028 13.1198 22.4028 11.0616ZM16.0185 18.0793C16.4697 17.4296 17.2104 17.0417 18.0001 17.0417C18.7902 17.0417 19.5311 17.4296 19.9823 18.0793C19.9822 18.0791 19.9824 18.0795 19.9823 18.0793C20.2639 18.4841 20.4129 18.9599 20.4129 19.4545C20.4129 20.785 19.3305 21.8673 18 21.8673C16.6699 21.8673 15.5878 20.7849 15.5878 19.4544C15.5878 18.9591 15.7365 18.4839 16.0185 18.0793ZM6.13168 11.0616C6.13168 9.00314 7.80608 7.32847 9.86418 7.32847C11.9227 7.32847 13.5974 9.00321 13.5974 11.0616C13.5974 13.1198 11.9226 14.7942 9.86418 14.7942C7.80608 14.7942 6.13168 13.1198 6.13168 11.0616ZM11.6438 28.2093C8.96546 27.8014 6.67911 27.1489 4.99763 26.3091C3.32257 25.4726 2.39824 24.5114 2.39288 23.6021C2.39288 23.5995 2.39328 23.5969 2.39328 23.5943C2.39321 19.4743 5.74473 16.1225 9.86425 16.1225C11.6168 16.1225 13.2889 16.728 14.627 17.8369C14.3857 18.3383 14.2596 18.888 14.2596 19.4546C14.2596 20.6108 14.787 21.646 15.6135 22.3329C13.292 23.2767 11.6498 25.5543 11.6438 28.2093ZM23.0291 28.3871C21.4136 28.5755 19.7252 28.6717 18.0001 28.6717C16.2754 28.6717 14.5872 28.5755 12.9718 28.3871V28.224C12.9718 25.4513 15.2274 23.1957 18.0001 23.1957C20.7731 23.1957 23.0291 25.4513 23.0291 28.224V28.3871ZM31.0027 26.309C29.3214 27.1489 27.0353 27.8014 24.3573 28.2092C24.3512 25.5543 22.7089 23.2768 20.3872 22.3328C21.2139 21.646 21.7414 20.6107 21.7414 19.4544C21.7414 18.8885 21.6153 18.3387 21.3738 17.8369C22.7112 16.7278 24.3831 16.1224 26.1361 16.1224C30.2559 16.1224 33.6077 19.4743 33.6077 23.5941C33.6077 24.5059 32.6826 25.47 31.0027 26.309Z" fill="#888888"/>
<path d="M19.9823 18.0793C19.5311 17.4296 18.7902 17.0417 18.0001 17.0417C17.2104 17.0417 16.4697 17.4296 16.0185 18.0793C15.7365 18.4839 15.5878 18.9591 15.5878 19.4544C15.5878 20.7849 16.6699 21.8673 18 21.8673C19.3305 21.8673 20.4129 20.785 20.4129 19.4545C20.4129 18.9599 20.2639 18.4841 19.9823 18.0793ZM19.9823 18.0793C19.9824 18.0795 19.9822 18.0791 19.9823 18.0793ZM28.9605 15.2592C30.309 14.3491 31.1974 12.8072 31.1974 11.0616C31.1974 8.27073 28.9268 6.00013 26.1359 6.00013C23.345 6.00013 21.0744 8.27073 21.0744 11.0616C21.0744 12.8064 21.962 14.3477 23.3095 15.258C22.3279 15.5903 21.4088 16.0963 20.5929 16.7598C19.9025 16.0958 18.9759 15.7133 18.0002 15.7133C17.0245 15.7133 16.0979 16.0959 15.4079 16.7598C14.5917 16.0963 13.6725 15.5903 12.6908 15.2579C14.0382 14.3476 14.9258 12.8063 14.9258 11.0615C14.9258 8.2706 12.6552 6 9.86432 6C7.07373 6 4.80347 8.2706 4.80347 11.0615C4.80347 12.807 5.69174 14.3489 7.03999 15.259C3.57423 16.4367 1.07261 19.7196 1.06514 23.5769C1.06494 23.5828 1.06421 23.5884 1.06421 23.5942C1.06421 24.6139 1.6436 26.1187 4.40402 27.4974C6.37096 28.4798 9.07395 29.2183 12.2209 29.6329C14.0667 29.8763 16.0112 29.9999 18.0002 29.9999C19.9896 29.9999 21.9342 29.8764 23.7801 29.6329C26.9267 29.2183 29.6295 28.4798 31.5964 27.4974C34.3566 26.1186 34.936 24.6139 34.936 23.5942C34.936 19.7294 32.4316 16.4386 28.9605 15.2592ZM22.4028 11.0616C22.4028 9.00314 24.0775 7.32847 26.1359 7.32847C28.1944 7.32847 29.8691 9.00321 29.8691 11.0616C29.8691 13.1198 28.1944 14.7942 26.1359 14.7942C24.0775 14.7942 22.4028 13.1198 22.4028 11.0616ZM6.13168 11.0616C6.13168 9.00314 7.80608 7.32847 9.86418 7.32847C11.9227 7.32847 13.5974 9.00321 13.5974 11.0616C13.5974 13.1198 11.9226 14.7942 9.86418 14.7942C7.80608 14.7942 6.13168 13.1198 6.13168 11.0616ZM11.6438 28.2093C8.96546 27.8014 6.67911 27.1489 4.99763 26.3091C3.32257 25.4726 2.39824 24.5114 2.39288 23.6021C2.39288 23.5995 2.39328 23.5969 2.39328 23.5943C2.39321 19.4743 5.74473 16.1225 9.86425 16.1225C11.6168 16.1225 13.2889 16.728 14.627 17.8369C14.3857 18.3383 14.2596 18.888 14.2596 19.4546C14.2596 20.6108 14.787 21.646 15.6135 22.3329C13.292 23.2767 11.6498 25.5543 11.6438 28.2093ZM23.0291 28.387C21.4136 28.5755 19.7252 28.6717 18.0001 28.6717C16.2754 28.6717 14.5872 28.5755 12.9718 28.387V28.224C12.9718 25.4513 15.2274 23.1957 18.0001 23.1957C20.7731 23.1957 23.0291 25.4513 23.0291 28.224V28.387ZM31.0027 26.309C29.3214 27.1489 27.0353 27.8014 24.3573 28.2092C24.3512 25.5543 22.7089 23.2768 20.3872 22.3328C21.2139 21.646 21.7414 20.6107 21.7414 19.4544C21.7414 18.8885 21.6153 18.3387 21.3738 17.8369C22.7112 16.7278 24.3831 16.1224 26.1361 16.1224C30.2559 16.1224 33.6077 19.4743 33.6077 23.5941C33.6077 24.5059 32.6826 25.47 31.0027 26.309Z" stroke="#888888" stroke-width="0.211698"/>
</svg>
