<svg width="24" height="24" viewBox="0 0 24 24" fill="none" xmlns="http://www.w3.org/2000/svg">
<path d="M23.5933 20.6731H18.4734V18.2454C19.5915 18.095 20.5824 17.3967 21.1585 16.3382C21.9241 16.1632 22.6195 15.72 23.1339 15.075C23.6924 14.3748 24 13.48 24 12.5553C24 11.1486 23.2797 9.84669 22.1464 9.17042C22.0283 6.82466 20.2201 4.95426 18.0177 4.95426C17.3245 4.95426 16.6386 5.14293 16.0342 5.49988C15.8461 5.61093 15.7837 5.85337 15.8947 6.04138C16.0058 6.22949 16.2483 6.29188 16.4363 6.18084C16.919 5.89574 17.4658 5.74509 18.0177 5.74509C19.8582 5.74509 21.3583 7.38819 21.3617 9.40784C21.362 9.55667 21.4458 9.69275 21.5786 9.75997C22.5691 10.2613 23.2091 11.3585 23.2091 12.5553C23.2091 14.0657 22.1863 15.3734 20.8298 15.5971C20.7028 15.6181 20.5939 15.6995 20.538 15.8155C20.1138 16.6953 19.3473 17.29 18.4734 17.4448V13.9459L20.4195 12.1563C20.5802 12.0085 20.5907 11.7583 20.4429 11.5976C20.295 11.4369 20.0449 11.4263 19.8842 11.5742L18.4734 12.8715V10.2319C18.4734 10.0135 18.2964 9.83642 18.078 9.83642C17.8596 9.83642 17.6826 10.0135 17.6826 10.2319V15.0178L16.2718 13.7205C16.1111 13.5726 15.8609 13.5832 15.7131 13.7439C15.5653 13.9046 15.5758 14.1548 15.7365 14.3026L17.6826 16.0922V17.4633C16.7502 17.3432 15.9279 16.7262 15.4866 15.7927C15.4339 15.6811 15.332 15.6005 15.2113 15.5749C13.8992 15.2961 12.9469 14.0262 12.9469 12.5553C12.9469 11.3954 13.5318 10.3456 14.4733 9.8158C14.5993 9.74488 14.6766 9.61086 14.6748 9.46634C14.6747 9.45538 14.6743 9.4445 14.674 9.43367C14.6737 9.42739 14.6735 9.42116 14.6735 9.41492C14.6735 8.59119 14.9166 7.81288 15.3765 7.16422C15.5028 6.98605 15.4608 6.73921 15.2826 6.61297C15.1045 6.4866 14.8576 6.52874 14.7314 6.70682C14.2075 7.44575 13.9166 8.32114 13.8855 9.248C12.8131 9.94733 12.1561 11.1929 12.1561 12.5553C12.1561 14.3274 13.2811 15.871 14.8579 16.3026C15.4514 17.4203 16.5011 18.1436 17.6827 18.2594V20.6731H17.4323C17.374 19.6382 16.6666 18.738 15.6815 18.434C15.3724 17.7764 14.7721 17.2996 14.0661 17.145C13.8346 16.0929 12.8875 15.3083 11.7838 15.3083C10.9328 15.3083 10.1611 15.7657 9.7497 16.4938C8.93956 16.5246 8.21117 16.9574 7.79277 17.6279C7.532 16.9105 6.86403 16.3882 6.08197 16.332V15.2924C7.14945 15.144 8.09469 14.4763 8.64697 13.4662C9.38061 13.2967 10.0469 12.8711 10.5402 12.2527C11.0772 11.5795 11.373 10.719 11.373 9.82986C11.373 8.48042 10.6835 7.23107 9.59797 6.57937C9.48017 4.32885 7.74341 2.53589 5.62869 2.53589C4.81752 2.53589 4.03729 2.7975 3.37227 3.29254C3.19715 3.4229 3.16082 3.67068 3.29118 3.84585C3.42154 4.02098 3.66927 4.05731 3.84449 3.92695C4.37193 3.53423 4.9889 3.32672 5.62869 3.32672C7.38139 3.32672 8.81005 4.89224 8.81337 6.81655C8.81365 6.96538 8.89742 7.10146 9.03022 7.16868C9.97297 7.64582 10.5821 8.69042 10.5821 9.82986C10.5821 11.2677 9.60884 12.5126 8.31823 12.7255C8.19125 12.7465 8.08236 12.8279 8.02644 12.9439C7.62589 13.7745 6.905 14.3383 6.08188 14.4911V11.1687L7.93963 9.46039C8.10036 9.31255 8.11081 9.06242 7.96302 8.90169C7.81522 8.74091 7.56505 8.73041 7.40431 8.8783L6.08188 10.0943V7.60555C6.08188 7.38716 5.90483 7.21011 5.68644 7.21011C5.46805 7.21011 5.29101 7.38716 5.29101 7.60555V12.1492L3.96862 10.9332C3.80784 10.7853 3.55771 10.7958 3.40992 10.9565C3.26207 11.1173 3.27257 11.3674 3.43331 11.5152L5.29096 13.2235V14.5097C4.41177 14.3894 3.63759 13.8043 3.22063 12.9222C3.1679 12.8106 3.06604 12.7301 2.94534 12.7045C1.69692 12.4391 0.79078 11.2302 0.79078 9.82986C0.79078 8.72544 1.34742 7.72607 2.24353 7.22179C2.36943 7.15091 2.44668 7.01713 2.445 6.87266C2.4449 6.86197 2.44457 6.85129 2.4442 6.84065C2.44406 6.83488 2.44378 6.82916 2.44378 6.8233C2.44378 6.33421 2.53392 5.86124 2.71167 5.41757C2.76454 5.28576 2.82543 5.15629 2.89279 5.03263C2.99723 4.84082 2.92645 4.60073 2.73464 4.49629C2.54282 4.39176 2.30268 4.46259 2.19829 4.6544C2.11621 4.80515 2.04196 4.96293 1.97765 5.12343C1.78284 5.60957 1.67489 6.12369 1.656 6.65413C0.628921 7.32758 0 8.52289 0 9.82986C0 11.5313 1.07897 13.0139 2.592 13.4317C3.16096 14.4984 4.16263 15.1904 5.29101 15.3063V16.4373C4.85826 16.5885 4.4879 16.8875 4.24963 17.2891C3.28935 17.3437 2.51343 18.0529 2.36306 18.9882C1.65482 19.3028 1.12828 19.9266 0.934404 20.673H0.395437C0.177047 20.673 0 20.8501 0 21.0684C0 21.2868 0.177047 21.4639 0.395437 21.4639H1.26169H10.1883H17.0247H23.5933C23.8117 21.4639 23.9887 21.2868 23.9887 21.0684C23.9887 20.8501 23.8116 20.6731 23.5933 20.6731ZM1.76376 20.6731C1.95239 20.1924 2.34918 19.8095 2.85468 19.6457C3.01373 19.5942 3.12318 19.4483 3.1281 19.2812C3.14803 18.6057 3.69313 18.0766 4.36912 18.0766C4.39621 18.0766 4.42584 18.0778 4.46226 18.0805C4.63166 18.0927 4.79015 17.996 4.85591 17.8393C5.04023 17.4009 5.46655 17.1175 5.94205 17.1175C6.55264 17.1175 7.06808 17.5938 7.11552 18.202C7.13071 18.3961 7.28488 18.5503 7.47903 18.5655C7.58684 18.5739 7.69109 18.5975 7.78981 18.6336C7.79024 18.6338 7.79061 18.634 7.79103 18.6341C7.80936 18.6409 7.82741 18.6482 7.84531 18.6557C7.84916 18.6574 7.85305 18.659 7.85689 18.6607C7.87363 18.668 7.89017 18.6756 7.90644 18.6836C7.91197 18.6864 7.91741 18.6893 7.92289 18.6921C7.94544 18.7036 7.96752 18.7159 7.98917 18.7288C8.00099 18.7359 8.01289 18.7427 8.02442 18.7502C8.03319 18.7558 8.04163 18.7619 8.05016 18.7676C8.06314 18.7765 8.07603 18.7855 8.08869 18.7949C8.09586 18.8002 8.10294 18.8056 8.10992 18.811C8.1252 18.823 8.1403 18.8352 8.15497 18.8479C8.15905 18.8514 8.16313 18.8547 8.16716 18.8582C8.20611 18.8927 8.24281 18.9299 8.27698 18.9694C8.28012 18.973 8.28322 18.9767 8.28631 18.9804C8.3007 18.9974 8.31458 19.0149 8.32803 19.0328C8.33061 19.0362 8.33328 19.0396 8.33581 19.043C8.36652 19.0848 8.3945 19.1289 8.41962 19.1749C8.42295 19.181 8.42609 19.1872 8.42937 19.1934C8.43828 19.2104 8.44676 19.2278 8.45487 19.2453C8.45811 19.2523 8.46134 19.2592 8.46444 19.2662C8.47442 19.289 8.48389 19.3121 8.49247 19.3356C8.4928 19.3364 8.49308 19.3372 8.49341 19.338C8.53976 19.4661 8.6488 19.5613 8.78192 19.59C8.81726 19.5976 8.8519 19.6068 8.88598 19.6173C8.89709 19.6207 8.90787 19.6249 8.91889 19.6286C8.94158 19.6362 8.96417 19.6439 8.98625 19.6527C8.999 19.6578 9.01142 19.6636 9.02394 19.6691C9.04367 19.6777 9.06331 19.6865 9.08253 19.696C9.09547 19.7025 9.10803 19.7094 9.12069 19.7162C9.13887 19.726 9.15687 19.7362 9.17445 19.7468C9.18697 19.7544 9.1993 19.7622 9.21153 19.7702C9.22859 19.7813 9.24542 19.7928 9.26192 19.8047C9.27369 19.8132 9.28531 19.8217 9.29675 19.8306C9.31311 19.8432 9.32895 19.8564 9.34465 19.8698C9.35529 19.8788 9.36608 19.8878 9.37644 19.8972C9.39251 19.9118 9.40789 19.927 9.42322 19.9424C9.43226 19.9514 9.44164 19.9603 9.4504 19.9697C9.46765 19.988 9.48397 20.0071 9.50014 20.0263C9.50614 20.0335 9.51251 20.0402 9.51837 20.0475C9.53994 20.0744 9.56051 20.1021 9.57992 20.1306C9.584 20.1366 9.58751 20.1429 9.59145 20.1489C9.6064 20.1717 9.62098 20.1947 9.63453 20.2184C9.64062 20.2292 9.64611 20.2403 9.65192 20.2512C9.66242 20.2708 9.67273 20.2905 9.68225 20.3106C9.68815 20.3231 9.6934 20.3359 9.69889 20.3485C9.70723 20.3678 9.71529 20.3871 9.7227 20.4068C9.72776 20.4203 9.7324 20.4339 9.73704 20.4476C9.74365 20.4671 9.74984 20.4867 9.75556 20.5066C9.75959 20.5207 9.76334 20.5348 9.76695 20.549C9.77197 20.5692 9.77637 20.5895 9.78045 20.6099C9.78331 20.6242 9.78607 20.6384 9.78847 20.6529C9.78959 20.6596 9.79015 20.6664 9.79114 20.6731H1.76376ZM10.5885 20.6732V20.6731C10.5882 20.6694 10.5874 20.6656 10.5871 20.6619C10.5825 20.6147 10.5767 20.5678 10.5689 20.5215C10.5685 20.5187 10.5679 20.516 10.5674 20.5133C10.5593 20.466 10.5497 20.4192 10.5385 20.3729C10.538 20.3709 10.5376 20.3688 10.5371 20.3669C10.5258 20.321 10.5127 20.2758 10.4985 20.2311C10.4969 20.2263 10.4955 20.2214 10.4939 20.2166C10.4799 20.1736 10.4642 20.1312 10.4474 20.0893C10.4449 20.0832 10.4426 20.0771 10.4401 20.0711C10.4232 20.0301 10.405 19.9898 10.3856 19.9501C10.3826 19.9438 10.3795 19.9376 10.3764 19.9314C10.3566 19.8919 10.3357 19.8531 10.3136 19.815C10.3102 19.8092 10.3068 19.8036 10.3034 19.7978C10.2806 19.7594 10.2567 19.7217 10.2316 19.6849C10.2285 19.6804 10.2253 19.6761 10.2222 19.6717C10.196 19.6339 10.1688 19.5968 10.1402 19.5609C10.1384 19.5586 10.1365 19.5564 10.1347 19.5542C10.1048 19.5168 10.0737 19.4805 10.0414 19.4453C10.041 19.4449 10.0407 19.4445 10.0403 19.4441C10.0083 19.4093 9.97484 19.3757 9.94048 19.3431C9.93748 19.3402 9.93457 19.3373 9.93157 19.3344C9.89853 19.3035 9.86431 19.2737 9.82925 19.2448C9.82456 19.2409 9.81992 19.237 9.81518 19.2331C9.78068 19.2052 9.74525 19.1784 9.70892 19.1527C9.70329 19.1487 9.69767 19.1447 9.69204 19.1408C9.65576 19.1156 9.61859 19.0915 9.58062 19.0686C9.57467 19.065 9.56867 19.0614 9.56272 19.0579C9.52423 19.0352 9.48504 19.0136 9.44506 18.9933C9.43958 18.9905 9.434 18.9879 9.42847 18.9852C9.38722 18.9648 9.34531 18.9454 9.30251 18.9277C9.29872 18.9261 9.29487 18.9248 9.29108 18.9232C9.24622 18.905 9.2007 18.888 9.15429 18.8728C9.15415 18.8728 9.15397 18.8727 9.15378 18.8726C9.15176 18.8685 9.14947 18.8647 9.14745 18.8607C9.13147 18.8287 9.11473 18.7972 9.09711 18.7663C9.08811 18.7505 9.0785 18.7351 9.06912 18.7195C9.05773 18.7008 9.04625 18.6821 9.0343 18.6638C9.02281 18.6461 9.011 18.6288 8.99891 18.6115C8.98841 18.5966 8.97762 18.5819 8.96675 18.5672C8.95306 18.5487 8.93933 18.5303 8.92498 18.5123C8.91654 18.5017 8.90769 18.4916 8.89906 18.4813C8.86573 18.4412 8.8309 18.4025 8.79448 18.3652C8.7882 18.3588 8.7822 18.3521 8.77587 18.3458C8.75778 18.3278 8.73908 18.3106 8.72033 18.2933C8.7095 18.2833 8.69872 18.2733 8.68766 18.2636C8.66975 18.2478 8.65156 18.2324 8.633 18.2172C8.6195 18.2061 8.60577 18.1955 8.59198 18.1847C8.57478 18.1715 8.55772 18.1581 8.54005 18.1453C8.5152 18.1273 8.4898 18.1102 8.46411 18.0933C8.45726 18.0888 8.45075 18.0839 8.44381 18.0795C8.732 17.5926 9.25953 17.2831 9.84237 17.2831C9.87804 17.2831 9.91676 17.2847 9.9642 17.2882C10.1334 17.3008 10.292 17.2037 10.3578 17.047C10.5997 16.4713 11.1595 16.0993 11.7838 16.0993C12.5855 16.0993 13.2623 16.7248 13.3245 17.5233C13.3397 17.7174 13.4939 17.8716 13.688 17.8868C14.2912 17.9338 14.814 18.332 15.0201 18.9013C15.0664 19.0293 15.1755 19.1245 15.3086 19.1532C16.0382 19.3104 16.5794 19.9378 16.6402 20.6733H10.5885V20.6732Z" fill="#868686"/>
</svg>
