<svg width="24" height="24" viewBox="0 0 24 24" fill="none" xmlns="http://www.w3.org/2000/svg">
<path d="M1.375 20.7399V5.31758C1.375 4.29138 2.2069 3.45947 3.23311 3.45947C3.28442 3.45947 3.32601 3.50107 3.32601 3.55238V19.3463H21.4426C21.7504 19.3463 22 19.5959 22 19.9037V20.7399C22 21.0477 21.7504 21.2973 21.4426 21.2973H1.93243C1.62457 21.2973 1.375 21.0477 1.375 20.7399Z" stroke="#868686" stroke-width="0.6875"/>
<path d="M4.16216 19.3462H1.375" stroke="#868686" stroke-width="0.6875"/>
<path d="M3.04688 3.45947H9.17863C9.79436 3.45947 10.2935 3.95861 10.2935 4.57434V19.625" stroke="#868686" stroke-width="0.6875"/>
<path d="M10.2942 5.13184H5.83478C5.52691 5.13184 5.27734 5.38141 5.27734 5.68927V12.3785C5.27734 12.6863 5.52691 12.9359 5.83478 12.9359H10.2942" stroke="#868686" stroke-width="0.6875"/>
<path d="M8.06348 12.9358V12.9358C8.06348 11.7043 9.06176 10.7061 10.2932 10.7061V10.7061" stroke="#868686" stroke-width="0.6875"/>
<path d="M11.9658 19.3462V12.3783C11.9658 11.7626 12.465 11.2634 13.0807 11.2634V11.2634C13.6964 11.2634 14.1955 11.7626 14.1955 12.3783V19.3462" stroke="#868686" stroke-width="0.6875"/>
<path d="M11.9658 16.8379H14.1955" stroke="#868686" stroke-width="0.6875"/>
<path d="M14.1953 12.3784H20.8845C21.1924 12.3784 21.4419 12.628 21.4419 12.9359V12.9359C21.4419 13.2437 21.1924 13.4933 20.8845 13.4933H14.1953" stroke="#868686" stroke-width="0.6875"/>
<path d="M12.8018 12.592C12.6119 12.592 12.458 12.7459 12.458 12.9358C12.458 13.1256 12.6119 13.2795 12.8018 13.2795V12.592ZM12.8018 13.2795H14.1953V12.592H12.8018V13.2795Z" fill="#868686"/>
</svg>
