<svg width="48" height="48" viewBox="0 0 48 48" fill="none" xmlns="http://www.w3.org/2000/svg">
<path d="M44.8696 14.6085H42.7826C42.4153 14.6085 42.0668 14.6837 41.7391 14.8005V11.4781C41.7391 9.75218 40.3346 8.34766 38.6087 8.34766H36.5217C34.7958 8.34766 33.3913 9.75218 33.3913 11.4781V18.7824H14.6087V11.4781C14.6087 9.75218 13.2042 8.34766 11.4783 8.34766H9.3913C7.66539 8.34766 6.26087 9.75218 6.26087 11.4781V14.8005C5.93322 14.6837 5.5847 14.6085 5.21739 14.6085H3.13043C1.40452 14.6085 0 16.013 0 17.739V30.2607C0 31.9866 1.40452 33.3911 3.13043 33.3911H5.21739C5.5847 33.3911 5.93322 33.316 6.26087 33.1991V36.5216C6.26087 38.2475 7.66539 39.652 9.3913 39.652H11.4783C13.2042 39.652 14.6087 38.2475 14.6087 36.5216V29.2172H33.3913V36.5216C33.3913 38.2475 34.7958 39.652 36.5217 39.652H38.6087C40.3346 39.652 41.7391 38.2475 41.7391 36.5216V33.1991C42.0668 33.316 42.4153 33.3911 42.7826 33.3911H44.8696C46.5955 33.3911 48 31.9866 48 30.2607V17.739C48 16.013 46.5955 14.6085 44.8696 14.6085ZM6.26087 30.2607C6.26087 30.8357 5.79235 31.3042 5.21739 31.3042H3.13043C2.55548 31.3042 2.08696 30.8357 2.08696 30.2607V17.739C2.08696 17.164 2.55548 16.6955 3.13043 16.6955H5.21739C5.79235 16.6955 6.26087 17.164 6.26087 17.739V30.2607ZM12.5217 36.5216C12.5217 37.0965 12.0532 37.565 11.4783 37.565H9.3913C8.81635 37.565 8.34783 37.0965 8.34783 36.5216V30.2607V17.739V11.4781C8.34783 10.9031 8.81635 10.4346 9.3913 10.4346H11.4783C12.0532 10.4346 12.5217 10.9031 12.5217 11.4781V36.5216ZM33.3913 27.1303H14.6087V20.8694H33.3913V27.1303ZM39.6522 17.739V30.2607V36.5216C39.6522 37.0965 39.1837 37.565 38.6087 37.565H36.5217C35.9468 37.565 35.4783 37.0965 35.4783 36.5216V11.4781C35.4783 10.9031 35.9468 10.4346 36.5217 10.4346H38.6087C39.1837 10.4346 39.6522 10.9031 39.6522 11.4781V17.739ZM45.913 30.2607C45.913 30.8357 45.4445 31.3042 44.8696 31.3042H42.7826C42.2077 31.3042 41.7391 30.8357 41.7391 30.2607V17.739C41.7391 17.164 42.2077 16.6955 42.7826 16.6955H44.8696C45.4445 16.6955 45.913 17.164 45.913 17.739V30.2607Z" fill="#888888"/>
</svg>
