<svg width="24" height="24" viewBox="0 0 24 24" fill="none" xmlns="http://www.w3.org/2000/svg">
<g clip-path="url(#clip0)">
<path d="M8.49241 3.33653C8.0814 2.50551 7.7574 1.84948 8.47239 0.776491C8.6254 0.546471 8.5624 0.236479 8.33341 0.0834758C8.10639 -0.0685433 7.79438 -0.00751069 7.64039 0.222463C6.60439 1.77448 7.15438 2.88652 7.59638 3.77956C8.0094 4.61559 8.30838 5.21959 7.64039 6.2226C7.48641 6.45262 7.54941 6.76261 7.7784 6.91561C7.86338 6.97262 7.96042 6.99962 8.05642 6.99962C8.21744 6.99962 8.37541 6.92161 8.47141 6.77663C9.46045 5.29459 8.92442 4.20857 8.49241 3.33653Z" fill="#868686"/>
<path d="M12.4761 3.33653C12.0641 2.50551 11.7401 1.84948 12.4551 0.776491C12.6081 0.546471 12.5451 0.236479 12.3161 0.0834758C12.0891 -0.0685433 11.7761 -0.00751069 11.6231 0.222463C10.5881 1.77551 11.138 2.88751 11.5791 3.78054C11.9921 4.61658 12.2911 5.22058 11.6231 6.2226C11.4701 6.45262 11.5331 6.76261 11.7621 6.91561C11.847 6.97262 11.943 6.99962 12.0391 6.99962C12.2001 6.99962 12.358 6.92161 12.4551 6.77663C13.4441 5.29459 12.9081 4.20857 12.4761 3.33653Z" fill="#868686"/>
<path d="M16.4595 3.33653C16.0475 2.50551 15.7235 1.84948 16.4385 0.776491C16.5915 0.546471 16.5285 0.236479 16.2995 0.0834758C16.0725 -0.0685433 15.7595 -0.00751069 15.6065 0.222463C14.5714 1.77551 15.1214 2.88751 15.5625 3.78054C15.9755 4.61658 16.2745 5.22058 15.6065 6.2226C15.4535 6.45262 15.5165 6.76261 15.7455 6.91561C15.8304 6.97262 15.9264 6.99962 16.0225 6.99962C16.1845 6.99962 16.3425 6.92161 16.4385 6.77663C17.4275 5.29459 16.8915 4.20857 16.4595 3.33653Z" fill="#868686"/>
<path d="M1 10.4996C1 9.12154 2.12099 7.99951 3.50004 7.99951H17.5C17.7761 7.99951 18 8.22338 18 8.49954C18 8.7757 17.7761 8.99956 17.5 8.99956H3.50004C2.673 8.99956 2.00001 9.67256 2.00001 10.4996V19.4998C2.00001 20.3268 2.673 20.9998 3.50004 20.9998H20.5004C21.3275 20.9998 22.0005 20.3268 22.0005 19.4998L22 12.4999C22 12.2238 22.2239 11.9999 22.5 11.9999C22.7761 11.9999 23 12.2237 23 12.4999L23.0005 19.4997C23.0005 20.8778 21.8795 21.9998 20.5004 21.9998H3.50004C2.12104 21.9998 1 20.8778 1 19.4997V10.4996Z" fill="#868686"/>
<path d="M4.501 9.99976C4.225 9.99976 4.00098 10.2238 4.00098 10.4998V19.5C4.00098 19.776 4.225 20 4.501 20C4.77701 20 5.00103 19.776 5.00103 19.5V10.4998C5.00103 10.2238 4.77701 9.99976 4.501 9.99976Z" fill="#868686"/>
<path d="M7.501 9.99976C7.225 9.99976 7.00098 10.2238 7.00098 10.4998V19.5C7.00098 19.776 7.225 20 7.501 20C7.77701 20 8.00103 19.776 8.00103 19.5V10.4998C8.00103 10.2238 7.77701 9.99976 7.501 9.99976Z" fill="#868686"/>
<path d="M10.501 9.99976C10.225 9.99976 10.001 10.2238 10.001 10.4998V19.5C10.001 19.776 10.225 20 10.501 20C10.777 20 11.001 19.776 11.001 19.5V10.4998C11.001 10.2238 10.777 9.99976 10.501 9.99976Z" fill="#868686"/>
<path d="M13.501 9.99976C13.225 9.99976 13.001 10.2238 13.001 10.4998V19.5C13.001 19.776 13.225 20 13.501 20C13.777 20 14.001 19.776 14.001 19.5V10.4998C14.001 10.2238 13.777 9.99976 13.501 9.99976Z" fill="#868686"/>
<path d="M16.5 11C16.224 11 16 11.2016 16 11.45V19.5499C16 19.7983 16.224 19.9999 16.5 19.9999C16.776 19.9999 17.0001 19.7983 17.0001 19.5499V11.45C17.0001 11.2016 16.776 11 16.5 11Z" fill="#868686"/>
<path d="M19.5 14C19.224 14 19 14.1344 19 14.3V19.6999C19 19.8655 19.224 20 19.5 20C19.776 20 20.0001 19.8655 20.0001 19.6999V14.3C20.0001 14.1344 19.776 14 19.5 14Z" fill="#868686"/>
<path d="M5.501 21C5.225 21 5.00098 21.224 5.00098 21.5V23.5001C5.00098 23.7761 5.225 24.0001 5.501 24.0001C5.77701 24.0001 6.00103 23.7761 6.00103 23.5001V21.5C6.00098 21.224 5.77701 21 5.501 21Z" fill="#868686"/>
<path d="M18.5 21C18.224 21 18 21.224 18 21.5V23.5001C18 23.7761 18.224 24.0001 18.5 24.0001C18.776 24.0001 19.0001 23.7761 19.0001 23.5001V21.5C19.0001 21.224 18.776 21 18.5 21Z" fill="#868686"/>
<circle cx="20.5" cy="9.5" r="3.1" stroke="#868686" stroke-width="0.8"/>
<path d="M20 9.66667L20.6667 8L21.4632 9.39402C21.7761 9.94146 21.6627 10.6332 21.1914 11.0521L20.9451 11.271C20.6913 11.4966 20.3087 11.4966 20.0549 11.271L19.5728 10.8425C19.2348 10.5421 19.1405 10.0523 19.3427 9.64786L19.6667 9L20 9.66667Z" stroke="#868686" stroke-width="0.6"/>
</g>
<defs>
<clipPath id="clip0">
<rect width="24" height="24" fill="white"/>
</clipPath>
</defs>
</svg>
