<svg width="36" height="36" viewBox="0 0 36 36" fill="none" xmlns="http://www.w3.org/2000/svg">
<g clip-path="url(#clip0)">
<path fill-rule="evenodd" clip-rule="evenodd" d="M32.3541 13.3222L35.3954 16.0933C35.9634 16.6108 36.151 17.4082 35.8736 18.1247C35.596 18.841 34.9203 19.304 34.152 19.304H31.5718V34.05C31.5718 34.6347 31.0978 35.1087 30.5132 35.1087H21.6602C21.0755 35.1087 20.6016 34.6346 20.6016 34.05V25.0966H15.3984V34.0499C15.3984 34.6346 14.9243 35.1086 14.3397 35.1086H5.4864C4.90168 35.1086 4.42771 34.6345 4.42771 34.0499V19.3039H1.84801C1.07971 19.3039 0.404005 18.841 0.126481 18.1246C-0.150972 17.4082 0.0366924 16.6108 0.604536 16.0933L3.49048 13.4637C4.03691 13.9548 4.67401 14.3471 5.37362 14.6123L2.54847 17.1866H5.48633C6.07105 17.1866 6.54503 17.6606 6.54503 18.2453V32.9913H13.281V24.0379C13.281 23.4532 13.755 22.9792 14.3397 22.9792H21.6603C22.245 22.9792 22.719 23.4532 22.719 24.0379V32.9913H29.4545V18.2453C29.4545 17.6605 29.9285 17.1866 30.5132 17.1866H33.4515L30.5826 14.5723C30.3623 14.3717 30.2369 14.0877 30.2369 13.7898V5.19223H25.0336V7.11929C25.0336 7.53849 24.7862 7.91832 24.4027 8.08777C24.0193 8.25702 23.5719 8.18424 23.262 7.90187L18.0001 3.10719L13.2852 7.40331C13.0856 6.67851 12.7535 6.00865 12.3165 5.42144L16.7566 1.3756C17.4653 0.729641 18.5344 0.72957 19.2433 1.37567L22.9162 4.72234V4.13354C22.9162 3.54882 23.3902 3.07484 23.9749 3.07484H31.2955C31.8802 3.07484 32.3541 3.54889 32.3541 4.13354V13.3222Z" fill="#888888"/>
<circle cx="7.5" cy="9" r="6" stroke="#888888" stroke-width="0.9"/>
<path d="M5.25 8.86508C5.25 8.76043 5.28387 8.67117 5.35161 8.5973C5.41935 8.52035 5.51935 8.48187 5.65161 8.48187H6.17419V7.39227C6.17419 7.10294 6.21935 6.829 6.30968 6.57045C6.4 6.30882 6.5371 6.08105 6.72097 5.88714C6.90484 5.69015 7.13548 5.53471 7.4129 5.42083C7.69032 5.30694 8.01613 5.25 8.39032 5.25C8.64839 5.25 8.87903 5.28232 9.08226 5.34696C9.28871 5.40852 9.47097 5.49316 9.62903 5.60089C9.79032 5.70862 9.92903 5.83635 10.0452 5.9841C10.1645 6.12876 10.2661 6.28574 10.35 6.45503L9.87097 6.7459C9.76774 6.79514 9.67581 6.81977 9.59516 6.81977C9.47581 6.81977 9.36935 6.76898 9.27581 6.66741C9.21452 6.59969 9.15323 6.53813 9.09194 6.48273C9.03387 6.42425 8.96935 6.375 8.89839 6.33499C8.83065 6.29497 8.75484 6.26419 8.67097 6.24265C8.59032 6.2211 8.49677 6.21033 8.39032 6.21033C8.05806 6.21033 7.80968 6.31498 7.64516 6.52428C7.48065 6.73051 7.39839 7.0183 7.39839 7.38765V8.48187H9.37742V8.93434C9.37742 9.00821 9.34516 9.07592 9.28064 9.13748C9.21935 9.19904 9.13871 9.22982 9.03871 9.22982H7.39839V10.1255C7.39839 10.3287 7.35806 10.5103 7.27742 10.6703C7.2 10.8273 7.09194 10.9735 6.95323 11.1089C7.19194 11.0566 7.42903 11.0304 7.66452 11.0304H10.5V11.5106C10.5 11.566 10.4871 11.6229 10.4613 11.6814C10.4387 11.7399 10.4048 11.7938 10.3597 11.843C10.3145 11.8892 10.2597 11.9277 10.1952 11.9584C10.1339 11.9861 10.0645 12 9.9871 12H5.34677V11.2844C5.45645 11.2597 5.56129 11.2259 5.66129 11.1828C5.76129 11.1366 5.84839 11.0797 5.92258 11.012C6 10.9412 6.06129 10.8596 6.10645 10.7673C6.15161 10.6719 6.17419 10.561 6.17419 10.4348V9.22982H5.25V8.86508Z" fill="#888888"/>
</g>
<defs>
<clipPath id="clip0">
<rect width="36" height="36" fill="white"/>
</clipPath>
</defs>
</svg>
