<svg width="48" height="48" viewBox="0 0 48 48" fill="none" xmlns="http://www.w3.org/2000/svg">
<path d="M47.0624 22.4012C47.0624 20.7548 45.723 19.4155 44.0766 19.4155H28.1433C27.6256 19.4155 27.2058 19.8353 27.2058 20.353C27.2058 20.8707 27.6256 21.2905 28.1433 21.2905H44.0767C44.6892 21.2905 45.1875 21.7887 45.1875 22.4013C45.1875 23.0137 44.6892 23.5119 44.0767 23.5119H3.92331C3.31084 23.5119 2.81256 23.0137 2.81256 22.4012C2.81256 21.7888 3.31084 21.2905 3.92331 21.2905H19.8945C20.4122 21.2905 20.832 20.8707 20.832 20.353C20.832 19.8353 20.4122 19.4155 19.8945 19.4155H3.92331C2.27697 19.4155 0.937561 20.7549 0.937561 22.4013C0.937561 23.8602 1.98972 25.0773 3.37497 25.3356V44.183C3.37497 46.2876 5.08731 47.9999 7.19209 47.9999H40.9017C43.0065 47.9999 44.7187 46.2876 44.7187 44.183V25.3166C46.0574 25.022 47.0624 23.827 47.0624 22.4012ZM34.95 25.3868V32.3322H28.9312V25.3868H34.95ZM5.24997 37.5221V34.2073H42.8437V37.5221H5.24997ZM27.0562 25.3868V32.3322H21.0375V25.3868H27.0562ZM19.1625 25.3868V32.3322H13.1437V25.3868H19.1625ZM11.2687 25.3868V32.3322H5.24997V25.3868H11.2687ZM42.8437 32.3322H36.825V25.3868H42.8437V32.3322ZM5.24997 44.183V39.3975H11.2687V46.1249H7.19209C6.12119 46.1249 5.24997 45.2537 5.24997 44.183ZM13.1437 39.3975H19.1625V46.1249H13.1437V39.3975ZM21.0375 39.3975H27.0562V46.1249H21.0375V39.3975ZM28.9312 39.3975H34.95V46.1249H28.9312V39.3975ZM42.8437 44.183C42.8437 45.2538 41.9725 46.125 40.9017 46.125H36.825V39.3975H42.8437V44.183Z" fill="#888888"/>
<path d="M13.971 11.0097C14.3785 12.2985 14.0195 13.5612 12.904 14.7625C12.5517 15.142 12.5737 15.7352 12.953 16.0875C13.3274 16.435 13.9304 16.4126 14.278 16.0385C16.3133 13.8465 16.1915 11.74 15.731 10.359C15.2466 8.90635 14.2815 7.96753 14.2406 7.92825C13.8672 7.56956 13.2721 7.57978 12.9134 7.9531C12.5546 8.32641 12.5648 8.91835 12.9381 9.27704C12.9451 9.28397 13.6449 9.97847 13.971 11.0097Z" fill="#888888"/>
<path d="M23.2877 13.235C23.6559 13.5888 24.2594 13.5768 24.6132 13.2086C24.972 12.8352 24.9602 12.2418 24.5868 11.8829C24.5801 11.8766 23.9103 11.2138 23.5759 10.2111C23.1393 8.90196 23.492 7.61984 24.6242 6.40062C24.9765 6.02122 24.9545 5.42797 24.5752 5.07565C24.1958 4.72334 23.6026 4.74546 23.2502 5.12468C21.2149 7.31665 21.3366 9.42312 21.7972 10.8042C22.2818 12.257 23.2469 13.1957 23.2877 13.235Z" fill="#888888"/>
<path d="M35.214 17.2086C35.4423 17.2086 35.6712 17.1256 35.8517 16.9581C36.2311 16.6058 36.2531 16.0126 35.9007 15.6331C34.6084 14.2413 34.1953 12.7746 34.6731 11.2736C35.0518 10.0836 35.8581 9.28532 35.8632 9.28025C35.8761 9.26788 35.8886 9.25513 35.9007 9.24219C38.1567 6.81257 38.0232 4.48213 37.5139 2.95494C36.9767 1.34394 35.9084 0.304911 35.8632 0.261505C35.4898 -0.0972766 34.8963 -0.0853704 34.5377 0.287942C34.1789 0.661255 34.1907 1.25469 34.5642 1.61357C34.6904 1.73488 37.618 4.62041 34.5397 7.95238C34.3703 8.12179 33.4127 9.12482 32.9135 10.6218C32.4042 12.149 32.2707 14.4794 34.5267 16.9091C34.7115 17.108 34.9624 17.2086 35.214 17.2086Z" fill="#888888"/>
<path d="M24.7098 19.6902C24.3495 19.3299 23.7444 19.3297 23.3841 19.6902C23.0232 20.0512 23.0231 20.6548 23.3841 21.0159C23.7447 21.3765 24.3492 21.3765 24.7098 21.0159C25.0707 20.655 25.07 20.0511 24.7098 19.6902Z" fill="#888888"/>
</svg>
