<svg width="24" height="24" viewBox="0 0 24 24" fill="none" xmlns="http://www.w3.org/2000/svg">
<path d="M11.1165 2.93309C11.2618 2.84923 11.4836 2.79297 11.7326 2.79297C11.9815 2.79297 12.2033 2.84923 12.3486 2.93309L21.3486 8.12924C21.3943 8.15566 21.4229 8.17921 21.44 8.19622C21.4229 8.21323 21.3943 8.23679 21.3486 8.26322L12.3486 13.4594C12.2033 13.5432 11.9815 13.5995 11.7326 13.5995C11.4836 13.5995 11.2618 13.5432 11.1165 13.4594L2.11653 8.26322L1.86653 8.69623L2.11653 8.26322C2.07077 8.23679 2.04217 8.21324 2.02511 8.19623C2.04217 8.17922 2.07077 8.15566 2.11653 8.12924L11.1165 2.93309Z" stroke="#868686"/>
<path d="M3.84853 13.8407C3.69383 13.7514 3.50323 13.7514 3.34853 13.8407L1.86653 14.6963C1.38824 14.9725 1.38824 15.4202 1.86653 15.6963L10.8665 20.8925C11.3448 21.1686 12.1203 21.1686 12.5986 20.8925L21.5986 15.6963C22.0769 15.4202 22.0769 14.9725 21.5986 14.6963L20.1165 13.8406C19.9618 13.7513 19.7712 13.7513 19.6165 13.8406C19.2831 14.0331 19.2831 14.5142 19.6165 14.7067L20.4646 15.1963L12.0986 20.0265C12.0472 20.0561 11.917 20.0996 11.7326 20.0996C11.5481 20.0996 11.4179 20.0561 11.3665 20.0265L3.00051 15.1963L3.84853 14.7067C4.18186 14.5143 4.18186 14.0332 3.84853 13.8407Z" fill="#868686"/>
<path d="M3.84853 10.1444C3.69383 10.0551 3.50323 10.0551 3.34853 10.1444L1.86653 11C1.38824 11.2762 1.38824 11.7239 1.86653 12L10.8665 17.1962C11.3448 17.4723 12.1203 17.4723 12.5986 17.1962L21.5986 12C22.0769 11.7239 22.0769 11.2762 21.5986 11L20.1165 10.1443C19.9618 10.055 19.7712 10.055 19.6165 10.1443C19.2831 10.3368 19.2831 10.8179 19.6165 11.0104L20.4646 11.5L12.0986 16.3302C12.0472 16.3598 11.917 16.4033 11.7326 16.4033C11.5481 16.4033 11.4179 16.3598 11.3665 16.3302L3.00051 11.5L3.84853 11.0104C4.18186 10.818 4.18186 10.3369 3.84853 10.1444Z" fill="#868686"/>
</svg>
