<svg width="24" height="24" viewBox="0 0 24 24" fill="none" xmlns="http://www.w3.org/2000/svg">
<path d="M18.9999 2.35C19.1932 2.35 19.3499 2.1933 19.3499 2C19.3499 1.8067 19.1932 1.65 18.9999 1.65V2.35ZM7.8793 17V4.64706H7.1793V17H7.8793ZM10.1764 2.35H18.9999V1.65H10.1764V2.35ZM7.8793 4.64706C7.8793 3.37843 8.90773 2.35 10.1764 2.35V1.65C8.52113 1.65 7.1793 2.99183 7.1793 4.64706H7.8793Z" fill="#868686"/>
<path d="M4 22.3853C3.8067 22.3853 3.65 22.542 3.65 22.7353C3.65 22.9286 3.8067 23.0853 4 23.0853V22.3853ZM11.5 23.0853C11.6933 23.0853 11.85 22.9286 11.85 22.7353C11.85 22.542 11.6933 22.3853 11.5 22.3853V23.0853ZM6.55588 22.7353V17.8824H5.85588V22.7353H6.55588ZM7.08824 17.35H7.97059V16.65H7.08824V17.35ZM8.50294 17.8824V22.7353H9.20294V17.8824H8.50294ZM4 23.0853H6.20588V22.3853H4V23.0853ZM6.20588 23.0853H8.85294V22.3853H6.20588V23.0853ZM8.85294 23.0853H11.5V22.3853H8.85294V23.0853ZM7.97059 17.35C8.2646 17.35 8.50294 17.5883 8.50294 17.8824H9.20294C9.20294 17.2017 8.6512 16.65 7.97059 16.65V17.35ZM6.55588 17.8824C6.55588 17.5883 6.79422 17.35 7.08824 17.35V16.65C6.40763 16.65 5.85588 17.2017 5.85588 17.8824H6.55588Z" fill="#868686"/>
<path d="M11.0586 5.52957C11.0586 5.04226 11.4536 4.64722 11.9409 4.64722H18.1174C18.6047 4.64722 18.9998 5.04226 18.9998 5.52957V11.706C18.9998 12.1934 18.6047 12.5884 18.1174 12.5884H11.9409C11.4536 12.5884 11.0586 12.1934 11.0586 11.706V5.52957Z" stroke="#868686" stroke-width="0.7"/>
<path d="M15.0293 4.64706V2" stroke="#868686" stroke-width="0.7"/>
<path d="M15.0425 8.68227C15.2084 8.68227 15.3538 8.66076 15.4787 8.61775C15.6057 8.57474 15.7112 8.51432 15.7952 8.43648C15.8812 8.35661 15.9457 8.26239 15.9887 8.15384C16.0318 8.04324 16.0533 7.92137 16.0533 7.78824C16.0533 7.51993 15.9693 7.30897 15.8013 7.15535C15.6354 7.00174 15.3825 6.92493 15.0425 6.92493H14.6252C14.479 6.92493 14.3604 7.04345 14.3604 7.18964V8.41756C14.3604 8.56375 14.479 8.68227 14.6252 8.68227H15.0425ZM15.0425 6.41187C15.3251 6.41187 15.5709 6.44464 15.7798 6.51018C15.9887 6.57572 16.1618 6.66891 16.299 6.78975C16.4363 6.90855 16.5377 7.05294 16.6032 7.22294C16.6708 7.39294 16.7046 7.58137 16.7046 7.78824C16.7046 7.9951 16.6687 8.18558 16.5971 8.35968C16.5254 8.53172 16.4199 8.68022 16.2806 8.80516C16.1413 8.93009 15.9672 9.02738 15.7583 9.09702C15.5515 9.16461 15.3128 9.1984 15.0425 9.1984H14.5369C14.4395 9.1984 14.3604 9.27741 14.3604 9.37488V10.6472C14.3604 10.7446 14.2814 10.8236 14.184 10.8236H13.8825C13.7851 10.8236 13.7061 10.7446 13.7061 10.6472V6.58834C13.7061 6.49087 13.7851 6.41187 13.8825 6.41187H15.0425Z" fill="#868686"/>
<path d="M11.8536 4.64645C11.6583 4.45118 11.3417 4.45118 11.1464 4.64645C10.9512 4.84171 10.9512 5.15829 11.1464 5.35355L11.8536 4.64645ZM18.1464 12.3536C18.3417 12.5488 18.6583 12.5488 18.8536 12.3536C19.0488 12.1583 19.0488 11.8417 18.8536 11.6464L18.1464 12.3536ZM11.1464 5.35355L18.1464 12.3536L18.8536 11.6464L11.8536 4.64645L11.1464 5.35355Z" fill="#868686"/>
</svg>
