<svg width="24" height="24" viewBox="0 0 24 24" fill="none" xmlns="http://www.w3.org/2000/svg">
<path d="M22.7812 22.4531H22.3721L20.4 2.20313C20.3662 1.84338 20.1991 1.50926 19.9316 1.2664C19.664 1.02355 19.3153 0.889517 18.954 0.890632H5.04562C4.68429 0.889517 4.3356 1.02355 4.06804 1.2664C3.80049 1.50926 3.63341 1.84338 3.59963 2.20313L1.62788 22.4531H1.21875C1.13173 22.4531 1.04827 22.4877 0.986731 22.5492C0.925195 22.6108 0.890625 22.6942 0.890625 22.7813C0.890625 22.8683 0.925195 22.9517 0.986731 23.0133C1.04827 23.0748 1.13173 23.1094 1.21875 23.1094H4.53562C4.62265 23.1094 4.70611 23.0748 4.76764 23.0133C4.82918 22.9517 4.86375 22.8683 4.86375 22.7813C4.86375 22.6942 4.82918 22.6108 4.76764 22.5492C4.70611 22.4877 4.62265 22.4531 4.53562 22.4531H3.41963L5.34375 2.67188H6.81525V3.09376C6.8153 3.18077 6.84989 3.2642 6.91141 3.32572C6.97293 3.38725 7.05637 3.42183 7.14337 3.42188H7.37775V18.0109H6.5625C6.47548 18.0109 6.39202 18.0455 6.33048 18.107C6.26894 18.1685 6.23438 18.252 6.23438 18.339V19.464C6.23442 19.551 6.26901 19.6344 6.33054 19.696C6.39206 19.7575 6.47549 19.7921 6.5625 19.7921H17.4375C17.5245 19.7921 17.6079 19.7575 17.6695 19.696C17.731 19.6344 17.7656 19.551 17.7656 19.464V18.339C17.7656 18.252 17.7311 18.1685 17.6695 18.107C17.608 18.0455 17.5245 18.0109 17.4375 18.0109H16.6226V3.42188H16.8563C16.9433 3.42183 17.0267 3.38725 17.0882 3.32572C17.1497 3.2642 17.1843 3.18077 17.1844 3.09376V2.67188H18.6562L20.58 22.4531H19.4644C19.3773 22.4531 19.2939 22.4877 19.2324 22.5492C19.1708 22.6108 19.1362 22.6942 19.1362 22.7813C19.1362 22.8683 19.1708 22.9517 19.2324 23.0133C19.2939 23.0748 19.3773 23.1094 19.4644 23.1094H22.7812C22.8683 23.1094 22.9517 23.0748 23.0133 23.0133C23.0748 22.9517 23.1094 22.8683 23.1094 22.7813C23.1094 22.6942 23.0748 22.6108 23.0133 22.5492C22.9517 22.4877 22.8683 22.4531 22.7812 22.4531ZM16.5289 1.54688V2.33644V2.34376C16.5289 2.34376 16.5289 2.34863 16.5289 2.35107V2.76563H14.9351V1.54688H16.5289ZM9.15862 18.0109V3.42188H9.39375C9.48077 3.42188 9.56423 3.38731 9.62577 3.32578C9.6873 3.26424 9.72187 3.18078 9.72187 3.09376V2.67188H14.2789V3.09376C14.2789 3.18077 14.3135 3.2642 14.375 3.32572C14.4366 3.38725 14.52 3.42183 14.607 3.42188H14.8414V18.0109H9.15862ZM14.2789 2.01563H9.72112V1.54688H14.2789V2.01563ZM9.06487 1.54688V2.76563H7.47113V2.35107C7.47113 2.34863 7.47113 2.34619 7.47113 2.34376C7.47113 2.34132 7.47113 2.33888 7.47113 2.33644V1.54688H9.06487ZM5.04562 2.01563C4.96408 2.01562 4.88546 2.04598 4.82507 2.10078C4.76469 2.15558 4.72687 2.23091 4.719 2.31207L2.76038 22.4531H2.2875L4.25287 2.26688C4.27136 2.0696 4.36293 1.88635 4.50961 1.75313C4.65629 1.61991 4.84748 1.54635 5.04562 1.54688H6.81488V2.01563H5.04562ZM8.03363 3.42188H8.50238V18.0109H8.03363V3.42188ZM17.1086 19.1359H6.89062V18.6671H17.1094L17.1086 19.1359ZM15.9649 18.0109H15.4961V3.42188H15.9649V18.0109ZM21.2381 22.4531L19.281 2.31207C19.2731 2.23091 19.2353 2.15558 19.1749 2.10078C19.1145 2.04598 19.0359 2.01562 18.9544 2.01563H17.1851V1.54688H18.9544C19.1525 1.54634 19.3437 1.61988 19.4903 1.75306C19.637 1.88624 19.7286 2.06944 19.7471 2.26669L21.7125 22.4531H21.2381Z" fill="#5F5F5F"/>
</svg>
