<svg width="24" height="24" viewBox="0 0 24 24" fill="none" xmlns="http://www.w3.org/2000/svg">
<path d="M13.1962 5.82324H8.90527V18.1767H10.3115V14.2607H13.1962C15.4826 14.2607 17.3428 12.4006 17.3428 10.1142V9.96971C17.3428 7.68338 15.4826 5.82324 13.1962 5.82324ZM15.9365 10.1142C15.9365 11.6252 14.7072 12.8545 13.1962 12.8545H10.3115V7.22949H13.1962C14.7072 7.22949 15.9365 8.45879 15.9365 9.96976V10.1142Z" fill="#868686"/>
<path d="M20.4853 3.51469C18.2188 1.24819 15.2053 0 12 0C8.79469 0 5.78123 1.24819 3.51469 3.51469C1.24823 5.78123 0 8.79473 0 12C0 15.2053 1.24823 18.2188 3.51473 20.4853C5.78123 22.7518 8.79469 24 12 24C15.2053 24 18.2188 22.7518 20.4853 20.4853C22.7518 18.2188 24 15.2053 24 12C24 8.79473 22.7518 5.78123 20.4853 3.51469ZM19.491 19.491C17.49 21.4918 14.8297 22.5938 12 22.5938C9.1703 22.5938 6.51 21.4918 4.50909 19.4909C2.50819 17.49 1.40625 14.8297 1.40625 12C1.40625 9.17034 2.50819 6.51 4.50909 4.50905C6.51 2.50819 9.1703 1.40625 12 1.40625C14.8297 1.40625 17.49 2.50819 19.491 4.50905C21.4918 6.51 22.5938 9.17034 22.5938 12C22.5938 14.8297 21.4918 17.49 19.491 19.491Z" fill="#868686"/>
</svg>
