<svg width="36" height="36" viewBox="0 0 36 36" fill="none" xmlns="http://www.w3.org/2000/svg">
<g clip-path="url(#clip0)">
<path d="M24.0739 19.0796C22.454 16.5524 19.695 15.0435 16.6936 15.0435C13.6924 15.0435 10.9332 16.5524 9.31352 19.0796L5.41008 25.169C4.76243 26.1795 4.4636 27.3465 4.54573 28.5437C4.62785 29.7412 5.08351 30.8564 5.86326 31.769C6.64357 32.6815 7.67463 33.3049 8.84495 33.5724C10.0153 33.8397 11.215 33.7257 12.3142 33.2426L12.3858 33.2107C15.1519 32.0184 18.3135 32.0291 21.0727 33.2426C21.7844 33.5554 22.5383 33.7136 23.2991 33.7136C23.7127 33.7136 24.1289 33.6667 24.5411 33.5727C25.7114 33.3055 26.7425 32.682 27.5231 31.7696C28.3031 30.8572 28.759 29.7418 28.8414 28.5443C28.9238 27.3465 28.625 26.1795 27.9774 25.1687L24.0739 19.0796ZM25.9194 30.3979C24.9265 31.5587 23.3203 31.9256 21.9223 31.3109C20.2606 30.58 18.4769 30.2148 16.6928 30.2148C14.9102 30.2148 13.1269 30.5798 11.4663 31.3098L11.419 31.3307C10.0318 31.9174 8.44917 31.5457 7.46727 30.3979C6.47548 29.237 6.36259 27.5934 7.18657 26.3077L11.0903 20.2183C12.3202 18.2995 14.4147 17.1539 16.6936 17.1539C18.9724 17.1539 21.0672 18.2995 22.2974 20.2183L26.2006 26.3075C27.0249 27.5937 26.9117 29.2375 25.9194 30.3979Z" fill="#888888"/>
<path d="M6.46136 19.0715C7.62262 18.6255 8.50482 17.6897 8.94565 16.4365C9.36478 15.2439 9.33044 13.8975 8.84842 12.6451C8.36612 11.3934 7.48886 10.3717 6.37842 9.76774C5.21139 9.13356 3.92956 9.03028 2.77023 9.47715C0.437835 10.3739 -0.632508 13.2562 0.384551 15.9036C1.19699 18.0108 3.09186 19.341 5.0076 19.341C5.49676 19.341 5.9873 19.2542 6.46136 19.0715ZM2.35385 15.1456C1.75455 13.5855 2.28107 11.926 3.52829 11.4465C3.75351 11.3597 3.99164 11.3165 4.23471 11.3165C4.60989 11.3165 4.99744 11.419 5.37042 11.622C6.04114 11.9864 6.57699 12.6193 6.87912 13.4034C7.18097 14.1881 7.20788 15.0165 6.95465 15.7364C6.72256 16.3961 6.27844 16.8811 5.70441 17.1017L5.70331 17.1022C4.45773 17.5823 2.95508 16.7043 2.35385 15.1456Z" fill="#888888"/>
<path d="M14.0353 14.3006C16.9511 14.3006 19.3233 11.598 19.3233 8.276C19.3233 4.95319 16.9511 2.25 14.0353 2.25C11.1198 2.25 8.74786 4.95319 8.74786 8.276C8.74786 11.598 11.1198 14.3006 14.0353 14.3006ZM14.0353 4.3602C15.7874 4.3602 17.2131 6.11691 17.2131 8.276C17.2131 10.4343 15.7874 12.1904 14.0353 12.1904C12.2833 12.1904 10.8581 10.4343 10.8581 8.276C10.8581 6.11691 12.2833 4.3602 14.0353 4.3602Z" fill="#888888"/>
<path d="M23.1676 15.781H23.1678C23.6164 15.9298 24.0739 16.001 24.5296 16.001C26.656 16.001 28.7283 14.4533 29.519 12.0747C29.9744 10.7056 29.9445 9.25784 29.4347 7.99853C28.9013 6.68045 27.9128 5.72354 26.6511 5.30386C25.3893 4.88473 24.024 5.05942 22.8075 5.79605C21.6454 6.5 20.755 7.64148 20.3004 9.01065C19.3405 11.899 20.6267 14.9361 23.1676 15.781ZM22.3029 9.67614C22.5999 8.78213 23.1673 8.0455 23.9009 7.6011C24.5796 7.18994 25.3201 7.08529 25.9856 7.30639C26.6508 7.52777 27.1809 8.05456 27.4786 8.7901C27.8002 9.58496 27.814 10.515 27.5165 11.409C26.9235 13.1931 25.2712 14.2561 23.8333 13.7784C22.3966 13.3005 21.71 11.4603 22.3029 9.67614Z" fill="#888888"/>
<path d="M34.3038 15.0778L34.303 15.0769C32.2922 13.5916 29.285 14.2354 27.5989 16.5128C25.9144 18.7914 26.1778 21.8547 28.1855 23.3411C28.9178 23.8835 29.783 24.1428 30.6684 24.1428C32.2117 24.1428 33.8174 23.3551 34.8905 21.9066C36.575 19.628 36.3118 16.5648 34.3038 15.0778ZM33.1945 20.6511C32.1988 21.995 30.5155 22.4408 29.4413 21.6451C28.3679 20.8505 28.3025 19.1108 29.2954 17.7678C29.9554 16.8762 30.9195 16.3802 31.808 16.3802C32.2573 16.3802 32.6875 16.5071 33.0489 16.7743C34.1214 17.5697 34.1865 19.3089 33.1945 20.6511Z" fill="#888888"/>
</g>
<defs>
<clipPath id="clip0">
<rect width="36" height="36" fill="white"/>
</clipPath>
</defs>
</svg>
