<svg width="48" height="48" viewBox="0 0 48 48" fill="none" xmlns="http://www.w3.org/2000/svg">
<g clip-path="url(#clip0)">
<path d="M40.208 6.69873C36.5155 3.60321 31.6712 1.83364 26.495 1.67212V0.777536C26.495 0.348025 26.147 0 25.7174 0C25.2879 0 24.9399 0.348025 24.9399 0.777536V1.67212C19.7636 1.83353 14.9194 3.60321 11.2269 6.69873C7.31027 9.98201 5.15338 14.3591 5.15338 19.0237C5.15338 19.3317 5.33522 19.6107 5.617 19.735C5.89878 19.8594 6.22752 19.8055 6.45498 19.5982C7.67955 18.4811 10.0061 17.787 12.5264 17.787C15.0466 17.787 17.3732 18.481 18.5978 19.5982C18.8946 19.8688 19.349 19.8688 19.6458 19.5982C20.7433 18.597 22.7259 17.9362 24.9397 17.8096V38.1511H22.3038L19.86 34.7299H21.5704C21.9999 34.7299 22.3479 34.3819 22.3479 33.9524C22.3479 33.5229 21.9999 33.1749 21.5704 33.1749H10.147L6.1365 27.5601C5.75841 27.0307 5.19661 26.6801 4.55447 26.5731C3.91233 26.4656 3.26677 26.6154 2.73784 26.9939C1.64473 27.7746 1.39073 29.2992 2.17158 30.3924L10.4654 42.0038C10.566 42.1445 10.6809 42.2718 10.8065 42.3862L10.0218 47.0945C9.95119 47.5181 10.2374 47.9187 10.6609 47.9894C10.7043 47.9966 10.7473 48.0001 10.7897 48.0001C11.163 48.0001 11.4923 47.7306 11.5558 47.3503L12.278 43.0172C12.3343 43.0212 12.3909 43.0238 12.4477 43.0238H24.9399V47.2225C24.9399 47.652 25.2879 48 25.7174 48C26.147 48 26.495 47.652 26.495 47.2225V43.0237H41.6462L42.3673 47.3502C42.4307 47.7304 42.7601 48 43.1334 48C43.1758 48 43.2189 47.9966 43.2622 47.9893C43.6857 47.9186 43.9719 47.518 43.9013 47.0944L43.2225 43.0214C44.5252 42.9748 45.5708 41.9012 45.5708 40.5873C45.5708 39.2439 44.4779 38.151 43.1346 38.151H26.495V17.8096C28.7088 17.9361 30.6914 18.597 31.7889 19.5982C32.0857 19.8688 32.5401 19.8688 32.8369 19.5982C34.0616 18.4811 36.388 17.787 38.9083 17.787C41.4285 17.787 43.7551 18.481 44.9797 19.5982C45.1258 19.7314 45.3136 19.8013 45.504 19.8013C45.6099 19.8013 45.7169 19.7796 45.8177 19.735C46.0995 19.6107 46.2813 19.3316 46.2813 19.0237C46.2814 14.3591 44.1246 9.98201 40.208 6.69873ZM17.9492 34.7299L20.393 38.1511H13.7014L11.2578 34.7299H17.9492ZM44.0157 40.5874C44.0157 41.0733 43.6204 41.4686 43.1345 41.4686H12.4477C12.1639 41.4686 11.8958 41.3306 11.7306 41.0996L3.43689 29.4884C3.30015 29.2968 3.24604 29.0634 3.2847 28.8312C3.32337 28.5991 3.45016 28.3959 3.64206 28.2589C3.7928 28.151 3.96977 28.0947 4.15171 28.0947C4.20054 28.0947 4.24958 28.0987 4.29872 28.1068C4.53094 28.1456 4.73424 28.2724 4.87109 28.4638L12.6687 39.3805C12.8146 39.5849 13.0504 39.7062 13.3014 39.7062H21.903C21.9036 39.7062 21.9041 39.7063 21.9047 39.7063C21.9051 39.7063 21.9057 39.7062 21.9061 39.7062H43.1346C43.6203 39.7062 44.0157 40.1015 44.0157 40.5874ZM29.6592 7.55309C30.7377 10.2485 31.3838 13.7494 31.5114 17.5285C29.9812 16.7034 27.9281 16.2319 25.7173 16.2319C23.5065 16.2319 21.4534 16.7034 19.9233 17.5285C20.0509 13.7494 20.697 10.2487 21.7754 7.55309C22.879 4.79543 24.3157 3.21382 25.7174 3.21382C27.1191 3.21382 28.5559 4.79543 29.6592 7.55309ZM6.79709 17.4913C7.61797 10.4221 14.0604 4.70088 22.35 3.46335C21.5975 4.33761 20.9156 5.51657 20.3318 6.97554C19.1809 9.85211 18.4947 13.5669 18.3667 17.5534C16.8318 16.713 14.7596 16.2321 12.5265 16.2321C10.3476 16.2319 8.32003 16.6885 6.79709 17.4913ZM38.9084 16.2319C36.6753 16.2319 34.6031 16.7129 33.0682 17.5533C32.9401 13.5668 32.2539 9.852 31.1031 6.97543C30.5193 5.51646 29.8374 4.33761 29.0849 3.46325C37.3745 4.70088 43.8169 10.4221 44.6378 17.4912C43.1148 16.6885 41.0873 16.2319 38.9084 16.2319Z" fill="#888888"/>
</g>
<defs>
<clipPath id="clip0">
<rect width="48" height="48" fill="white"/>
</clipPath>
</defs>
</svg>
