<svg width="48" height="48" viewBox="0 0 48 48" fill="none" xmlns="http://www.w3.org/2000/svg">
<g clip-path="url(#clip0)">
<path d="M45.7602 45.1444C45.1046 44.7221 44.5491 44.0888 43.9713 43.4221C42.7713 42.0555 41.2824 40.3555 38.438 40.3555C35.5713 40.3555 34.0824 42.0666 32.8824 43.4555C31.7491 44.7555 30.8491 45.7888 29.0046 45.7888C27.1602 45.7888 26.2602 44.7555 25.1268 43.4555C23.9268 42.0777 22.438 40.3555 19.5713 40.3555C16.7046 40.3555 15.2157 42.0666 14.0157 43.4555C12.8824 44.7555 11.9824 45.7888 10.138 45.7888C8.29351 45.7888 7.40462 44.7666 6.27129 43.4666C5.46018 42.5332 4.61573 41.5666 3.34907 40.9555C2.79351 40.6888 2.12685 40.9221 1.87129 41.4777C1.60462 42.0332 1.83796 42.6999 2.39351 42.9555C3.24907 43.3666 3.90462 44.1221 4.60462 44.9221C5.80462 46.2999 7.29351 47.9999 10.1491 47.9999C13.0157 47.9999 14.5046 46.2888 15.7046 44.8999C16.838 43.5999 17.738 42.5666 19.5824 42.5666C21.4268 42.5666 22.3268 43.5999 23.4602 44.8999C24.6602 46.2777 26.1491 47.9999 29.0157 47.9999C31.8824 47.9999 33.3713 46.2888 34.5713 44.8999C35.7046 43.5999 36.6046 42.5666 38.4491 42.5666C40.2935 42.5666 41.1824 43.5888 42.3157 44.8777C42.9713 45.6332 43.6602 46.411 44.5713 46.9999C45.0824 47.3332 45.7713 47.1777 46.1046 46.6666C46.4268 46.1666 46.2713 45.4777 45.7602 45.1444Z" fill="#888888"/>
<path d="M45.7598 35.9222C45.1043 35.5 44.5487 34.8667 43.9709 34.2C42.7709 32.8333 41.282 31.1333 38.4376 31.1333C35.5709 31.1333 34.0487 32.8444 32.8487 34.2333C32.1376 35.0556 31.5487 35.7667 30.6598 36.1778V3.28889C30.6598 3.27778 30.682 3.25556 30.682 3.24444C30.682 3.23333 30.6932 3.21111 30.6932 3.2C30.6932 1.43333 29.2598 0 27.4932 0C25.7265 0 24.2932 1.43333 24.2932 3.2C24.2932 3.81111 24.7932 4.31111 25.4043 4.31111C26.0154 4.31111 26.5154 3.81111 26.5154 3.2C26.5154 2.65556 26.9598 2.22222 27.4932 2.22222C28.0265 2.22222 28.4709 2.66667 28.4709 3.2C28.4709 3.21111 28.4487 3.23333 28.4487 3.24444C28.4487 3.25556 28.4265 3.27778 28.4265 3.28889V8.33333H14.5487V3.28889C14.5487 3.27778 14.5376 3.25556 14.5376 3.24444C14.5376 3.23333 14.5376 3.21111 14.5376 3.2C14.5376 1.43333 13.0932 0 11.3376 0C9.58204 0 8.1376 1.43333 8.1376 3.2C8.1376 3.81111 8.6376 4.31111 9.24871 4.31111C9.85982 4.31111 10.3598 3.81111 10.3598 3.2C10.3598 2.65556 10.8043 2.22222 11.3376 2.22222C11.882 2.22222 12.3154 2.66667 12.3154 3.2C12.3154 3.21111 12.3265 3.23333 12.3265 3.24444C12.3265 3.25556 12.3376 3.27778 12.3376 3.28889V35.8889C11.6709 36.3 11.0487 36.5556 10.1265 36.5556C8.28204 36.5556 7.38204 35.5333 6.24871 34.2333C5.4376 33.3 4.59315 32.3333 3.32649 31.7222C2.77093 31.4556 2.10426 31.6889 1.8376 32.2444C1.57093 32.8 1.80426 33.4667 2.35982 33.7222C3.21538 34.1333 3.87093 34.8889 4.57093 35.6889C5.75982 37.0778 7.24871 38.7778 10.1043 38.7778C12.9709 38.7778 14.4598 37.0667 15.6598 35.6778C16.7932 34.3778 17.6932 33.3444 19.5376 33.3444C21.382 33.3444 22.282 34.3778 23.4154 35.6778C24.6154 37.0556 26.1043 38.7778 28.9709 38.7778C31.8376 38.7778 33.3265 37.0667 34.5265 35.6778C35.6598 34.3778 36.5598 33.3444 38.4043 33.3444C40.2487 33.3444 41.1376 34.3667 42.2709 35.6556C42.9265 36.4111 43.6154 37.1889 44.5265 37.7778C45.0376 38.1111 45.7265 37.9556 46.0598 37.4444C46.4265 36.9444 46.2709 36.2556 45.7598 35.9222ZM14.5487 18.7778H28.4376V24.7778H14.5487V18.7778ZM28.4376 10.5556V16.5556H14.5487V10.5556H28.4376ZM25.082 34.2333C23.882 32.8556 22.4154 31.1333 19.5487 31.1333C17.0932 31.1333 15.6598 32.3889 14.5487 33.6222V27H28.4376V36.5333C26.9932 36.3556 26.1043 35.4111 25.082 34.2333Z" fill="#888888"/>
</g>
<defs>
<clipPath id="clip0">
<rect width="48" height="48" fill="white"/>
</clipPath>
</defs>
</svg>
