<svg width="24" height="24" viewBox="0 0 24 24" fill="none" xmlns="http://www.w3.org/2000/svg">
<g clip-path="url(#clip0)">
<path d="M7.63678 0.0189581C7.37114 -0.0560874 7.09496 0.0983629 7.01978 0.363952L0.519935 23.3635C0.444889 23.6292 0.599339 23.9054 0.864928 23.9806C0.909177 23.9932 0.954926 23.9998 1.00091 24C1.22478 23.9999 1.42123 23.851 1.48188 23.6356L7.98177 0.635962C8.05682 0.370327 7.90237 0.0941442 7.63678 0.0189581Z" fill="#868686"/>
<path d="M23.4804 23.364L16.9805 0.364458C16.9054 0.0986823 16.629 -0.0559085 16.3632 0.0192307C16.0975 0.094323 15.9429 0.370693 16.018 0.636469L22.5179 23.636C22.5788 23.8514 22.7755 24.0001 22.9994 24C23.0454 23.9998 23.0911 23.9934 23.1354 23.981C23.401 23.9058 23.5554 23.6297 23.4804 23.364Z" fill="#868686"/>
<path d="M12 19C11.7239 19 11.5 19.2239 11.5 19.5V23.4999C11.5 23.7761 11.7239 23.9999 12 23.9999C12.2761 23.9999 12.5 23.7761 12.5 23.4999V19.5C12.5 19.2239 12.2761 19 12 19Z" fill="#868686"/>
<path d="M12 11.0002C11.7239 11.0002 11.5 11.2241 11.5 11.5003V15.5002C11.5 15.7763 11.7239 16.0002 12 16.0002C12.2761 16.0002 12.5 15.7763 12.5 15.5002V11.5003C12.5 11.2241 12.2761 11.0002 12 11.0002Z" fill="#868686"/>
<path d="M12 4.00024C11.7239 4.00024 11.5 4.22411 11.5 4.50025V7.50019C11.5 7.77633 11.7239 8.0002 12 8.0002C12.2761 8.0002 12.5 7.77633 12.5 7.50019V4.50025C12.5 4.22411 12.2761 4.00024 12 4.00024Z" fill="#868686"/>
<path d="M12 0.000488281C11.7239 0.000488281 11.5 0.224359 11.5 0.500494V1.50046C11.5 1.77659 11.7239 2.00046 12 2.00046C12.2761 2.00046 12.5 1.77659 12.5 1.50046V0.500447C12.5 0.224312 12.2761 0.000488281 12 0.000488281Z" fill="#868686"/>
</g>
<defs>
<clipPath id="clip0">
<rect width="24" height="24" fill="white"/>
</clipPath>
</defs>
</svg>
