<svg width="48" height="48" viewBox="0 0 48 48" fill="none" xmlns="http://www.w3.org/2000/svg">
<g clip-path="url(#clip0)">
<path d="M47.4957 22.1138L20.3758 6.60298C18.284 5.40468 15.4208 6.0507 14.0419 8.02413L8.78806 15.5348C8.27244 16.2727 8 17.1378 8 18.038C8 19.5931 8.83596 21.0416 10.1806 21.8176L15.9003 25.1207L14.867 26.4995C14.3074 27.2453 13.9999 28.1699 13.9999 29.1024C13.9999 30.0614 14.351 30.9634 14.9167 31.7091L13.3944 33.9997H5.99995V30.9899C5.99995 30.4367 5.55268 29.9998 4.99993 29.9998H1.00002C0.447278 29.9998 0 30.4367 0 30.9899V40.9988C0 41.5521 0.447278 41.9997 1.00002 41.9997H5.00002C5.55277 41.9997 6.00005 41.5521 6.00005 40.9988V39.9998H13.3945C15.4053 39.9998 17.2714 39.0009 18.3867 37.3267L20.0258 34.8658C20.3414 34.9343 20.6598 34.9964 20.9852 34.9964C22.577 34.9964 24.075 34.148 24.8934 32.7816L25.9922 30.9487L34.5027 35.8635C34.656 35.9525 34.8289 35.9974 35.0027 35.9974C35.0993 35.9974 35.1961 35.9837 35.2908 35.9554C35.5545 35.8753 35.7742 35.6905 35.8973 35.4442L36.6376 33.9602C36.7591 33.9694 36.876 33.9957 36.9997 33.9957C40.8591 33.9957 43.9997 30.8523 43.9997 26.9894C43.9997 26.5652 43.9371 26.128 43.844 25.6811L47.447 23.8783C47.7771 23.7131 47.9889 23.3798 47.9997 23.0103C48.0094 22.6416 47.8161 22.2966 47.4957 22.1138ZM4 39.9998H1.99995V31.9998H3.99991V39.9998H4ZM16.7225 36.2215C15.9794 37.3367 14.7352 38.0027 13.3944 38.0027H5.99995V36.0028H13.3944C14.0663 36.0028 14.6884 35.6698 15.0585 35.1121L16.4432 33.0343L18.1605 34.0644L16.7225 36.2215ZM23.1786 31.7605C22.4794 32.9236 20.8339 33.3376 19.6698 32.6374L17.1337 31.116C16.4345 30.697 15.9999 29.9295 15.9999 29.1141C15.9999 28.6121 16.1659 28.1151 16.4667 27.7127L17.6445 26.1423L24.2595 29.9589L23.1786 31.7605ZM34.5827 33.6062L11.1796 20.1033C10.4521 19.6834 9.99995 18.9003 9.99995 18.0594C9.99995 17.5721 10.1474 17.1043 10.4267 16.7049L12.9374 13.119L37.6841 27.3955L34.5827 33.6062ZM37.6516 31.9368L39.7448 27.7448L41.9662 26.6343C41.9774 26.757 41.9997 26.884 41.9997 27.0027C41.9997 29.5363 40.0982 31.6133 37.6516 31.9368ZM39.0336 25.8647L14.089 11.4742L15.6806 9.20115C16.207 8.44918 17.0683 7.99994 17.9863 7.99994C18.4755 7.99994 18.9589 8.12791 19.3837 8.371L44.8815 22.9412L39.0336 25.8647Z" fill="#888888"/>
<path d="M33 30.0001C33.5523 30.0001 34 29.5523 34 29C34 28.4477 33.5523 28 33 28C32.4477 28 31.9999 28.4477 31.9999 29C31.9999 29.5523 32.4477 30.0001 33 30.0001Z" fill="#888888"/>
</g>
<defs>
<clipPath id="clip0">
<rect width="48" height="48" fill="white"/>
</clipPath>
</defs>
</svg>
