<svg width="24" height="24" viewBox="0 0 24 24" fill="none" xmlns="http://www.w3.org/2000/svg">
<path d="M23.25 9.375H6.75V7.5C6.75 7.40054 6.71049 7.30516 6.64017 7.23483C6.56984 7.16451 6.47446 7.125 6.375 7.125H1.875C1.77554 7.125 1.68016 7.16451 1.60984 7.23483C1.53951 7.30516 1.5 7.40054 1.5 7.5V14.625H0.75C0.650544 14.625 0.555161 14.6645 0.484835 14.7348C0.414509 14.8052 0.375 14.9005 0.375 15V16.5C0.375 16.5995 0.414509 16.6948 0.484835 16.7652C0.555161 16.8355 0.650544 16.875 0.75 16.875H7.5C7.59946 16.875 7.69484 16.8355 7.76517 16.7652C7.83549 16.6948 7.875 16.5995 7.875 16.5V15C7.875 14.9005 7.83549 14.8052 7.76517 14.7348C7.69484 14.6645 7.59946 14.625 7.5 14.625H6.75V11.625H19.5V16.5C19.5 16.5995 19.5395 16.6948 19.6098 16.7652C19.6802 16.8355 19.7755 16.875 19.875 16.875H21C21.0995 16.875 21.1948 16.8355 21.2652 16.7652C21.3355 16.6948 21.375 16.5995 21.375 16.5V11.625H23.25C23.3495 11.625 23.4448 11.5855 23.5152 11.5152C23.5855 11.4448 23.625 11.3495 23.625 11.25V9.75C23.625 9.65054 23.5855 9.55516 23.5152 9.48483C23.4448 9.41451 23.3495 9.375 23.25 9.375ZM2.25 7.875H6V9.375H5.11547C4.89897 9.18406 4.63197 9.05965 4.34651 9.0167C4.06105 8.97374 3.76926 9.01407 3.50616 9.13284C3.24305 9.25161 3.0198 9.44378 2.86321 9.68629C2.70661 9.92879 2.62331 10.2113 2.62331 10.5C2.62331 10.7887 2.70661 11.0712 2.86321 11.3137C3.0198 11.5562 3.24305 11.7484 3.50616 11.8672C3.76926 11.9859 4.06105 12.0263 4.34651 11.9833C4.63197 11.9403 4.89897 11.8159 5.11547 11.625H6V14.625H2.25V7.875ZM4.875 10.5C4.875 10.6483 4.83101 10.7933 4.7486 10.9167C4.66619 11.04 4.54906 11.1361 4.41201 11.1929C4.27497 11.2497 4.12417 11.2645 3.97868 11.2356C3.8332 11.2067 3.69956 11.1352 3.59467 11.0303C3.48978 10.9254 3.41835 10.7918 3.38941 10.6463C3.36047 10.5008 3.37532 10.35 3.43209 10.213C3.48886 10.0759 3.58499 9.95881 3.70832 9.8764C3.83166 9.79399 3.97666 9.75 4.125 9.75C4.32383 9.75026 4.51445 9.82936 4.65504 9.96996C4.79564 10.1106 4.87474 10.3012 4.875 10.5ZM7.125 15.375V16.125H1.125V15.375H7.125ZM20.625 16.125H20.25V11.625H20.625V16.125ZM22.875 10.875H5.57766C5.64078 10.629 5.64078 10.371 5.57766 10.125H22.875V10.875Z" fill="#868686"/>
</svg>
