<svg width="36" height="36" viewBox="0 0 36 36" fill="none" xmlns="http://www.w3.org/2000/svg">
<g clip-path="url(#clip0)">
<path d="M29.6719 20.1094C29.6719 20.6918 30.1441 21.1641 30.7266 21.1641C31.309 21.1641 31.7812 20.6918 31.7812 20.1094C31.7812 15.3633 29.3158 13.5142 27.1406 11.8828C25.1033 10.3548 23.3438 9.03516 23.3438 5.34375C23.3438 4.76128 22.8715 4.28906 22.2891 4.28906C21.7066 4.28906 21.2344 4.76128 21.2344 5.34375C21.2344 10.0898 23.6998 11.9389 25.875 13.5703C27.9124 15.0983 29.6719 16.418 29.6719 20.1094Z" fill="#888888"/>
<path d="M31.7812 5.34375C31.7812 4.76128 31.309 4.28906 30.7266 4.28906C30.1441 4.28906 29.6719 4.76128 29.6719 5.34375C29.6719 9.88186 30.8866 11.704 31.9584 13.3116C32.952 14.8021 33.8906 16.21 33.8906 20.1094C33.8906 20.6918 34.3628 21.1641 34.9453 21.1641C35.5278 21.1641 36 20.6918 36 20.1094C36 15.5713 34.7853 13.7491 33.7135 12.1416C32.7199 10.651 31.7812 9.24314 31.7812 5.34375Z" fill="#888888"/>
<path d="M34.9453 23.2734H1.05469C0.472219 23.2734 0 23.7457 0 24.3281V30.6562C0 31.2387 0.472219 31.7109 1.05469 31.7109H34.9453C35.5278 31.7109 36 31.2387 36 30.6562V24.3281C36 23.7457 35.5278 23.2734 34.9453 23.2734ZM29.6719 25.3828V29.6016H14.8359V25.3828H29.6719ZM2.10938 25.3828H12.7266V29.6016H2.10938V25.3828ZM33.8906 29.6016H31.7812V25.3828H33.8906V29.6016Z" fill="#888888"/>
</g>
<defs>
<clipPath id="clip0">
<rect width="36" height="36" fill="white"/>
</clipPath>
</defs>
</svg>
