<svg width="24" height="24" viewBox="0 0 24 24" fill="none" xmlns="http://www.w3.org/2000/svg">
<path d="M18.7986 2C17.0313 2 15.5986 3.4327 15.5986 5.2C15.6006 6.9665 17.0321 8.398 18.7986 8.4C20.5659 8.4 21.9986 6.9673 21.9986 5.2C21.9986 3.4327 20.5659 2 18.7986 2ZM18.7986 7.6C17.4731 7.6 16.3986 6.5255 16.3986 5.2C16.3999 3.87505 17.4737 2.8013 18.7986 2.8C20.1241 2.8 21.1986 3.8745 21.1986 5.2C21.1986 6.5255 20.1241 7.6 18.7986 7.6Z" fill="#868686"/>
<path d="M19.1984 0H18.3984V1.2H19.1984V0Z" fill="#868686"/>
<path d="M19.1984 9.19995H18.3984V10.4H19.1984V9.19995Z" fill="#868686"/>
<path d="M14.7986 4.80005H13.5986V5.60005H14.7986V4.80005Z" fill="#868686"/>
<path d="M23.9988 4.80005H22.7988V5.60005H23.9988V4.80005Z" fill="#868686"/>
<path d="M15.4036 1.24023L14.8379 1.80591L15.6864 2.65443L16.2521 2.08875L15.4036 1.24023Z" fill="#868686"/>
<path d="M21.9104 7.74487L21.3447 8.31055L22.1932 9.15907L22.7589 8.59339L21.9104 7.74487Z" fill="#868686"/>
<path d="M15.6874 7.74474L14.8389 8.59326L15.4045 9.15894L16.2531 8.31042L15.6874 7.74474Z" fill="#868686"/>
<path d="M22.1932 1.24035L21.3447 2.08887L21.9104 2.65455L22.7589 1.80603L22.1932 1.24035Z" fill="#868686"/>
<path d="M21.5502 23.4085L11.9502 5.8085C11.8801 5.68 11.7454 5.60005 11.599 5.6001H0.398977C0.368927 5.60075 0.339027 5.6046 0.309777 5.6117C0.306577 5.6117 0.303377 5.6117 0.300177 5.6117C0.261177 5.62215 0.224077 5.6386 0.190177 5.6605C0.180177 5.6671 0.170527 5.67435 0.161377 5.6821C0.128377 5.70715 0.0992267 5.7369 0.0749767 5.7705C0.0693767 5.7789 0.0617767 5.7857 0.0565767 5.7945C0.0480767 5.8107 0.0408267 5.82755 0.0349767 5.8449C0.0297267 5.8553 0.0250767 5.866 0.0209767 5.8769C0.00822667 5.91565 0.00147668 5.9561 0.000976676 5.9969V8.8001C0.000926676 8.86655 0.0174267 8.932 0.0489767 8.9905L8.04698 23.7905C8.11693 23.9197 8.25208 24.0002 8.39898 24.0001H21.199C21.4199 24.0001 21.599 23.8211 21.599 23.6001C21.5991 23.5332 21.5823 23.4673 21.5502 23.4085ZM18.125 18.8001H15.4366L13.473 15.2001H16.1614L18.125 18.8001ZM8.52498 14.4001H5.43658L3.47298 10.8001H6.56138L8.52498 14.4001ZM7.47298 10.8001H10.1614L12.125 14.4001H9.43658L7.47298 10.8001ZM8.96138 15.2001L10.925 18.8001H7.83658L5.87298 15.2001H8.96138ZM9.87298 15.2001H12.5614L14.525 18.8001H11.8366L9.87298 15.2001ZM15.725 14.4001H13.0366L11.073 10.8001H13.7614L15.725 14.4001ZM11.3614 6.4001L13.325 10.0001H10.6366L8.67298 6.4001H11.3614ZM7.76138 6.4001L9.72498 10.0001H7.03658L5.07298 6.4001H7.76138ZM4.16138 6.4001L6.12498 10.0001H3.03658L1.07298 6.4001H4.16138ZM8.63898 23.2001L0.798977 8.6989V7.5689L9.32498 23.2001H8.63898ZM10.2366 23.2001L8.27298 19.6001H11.3614L13.325 23.2001H10.2366ZM14.2366 23.2001L12.273 19.6001H14.9614L16.925 23.2001H14.2366ZM17.8366 23.2001L15.873 19.6001H18.5614L20.525 23.2001H17.8366Z" fill="#868686"/>
</svg>
