<svg width="36" height="36" viewBox="0 0 36 36" fill="none" xmlns="http://www.w3.org/2000/svg">
<path d="M33.8906 25.6529V11.0822L35.3143 10.5506C35.7266 10.3965 36 10.0027 36 9.5625C36 9.12234 35.7266 8.72845 35.3143 8.57447L18.369 2.24634C18.1311 2.15747 17.869 2.15747 17.6311 2.24634L0.685758 8.57447C0.273375 8.72845 0 9.12234 0 9.5625C0 10.0027 0.273375 10.3965 0.685688 10.5505L7.70766 13.1728C6.04526 17.8635 6.46467 20.3309 6.39844 21.1641C6.39844 21.514 6.57204 21.8412 6.8618 22.0374C7.15162 22.2337 7.51978 22.2732 7.84477 22.1433C7.8693 22.1335 10.3208 21.1641 12.7266 21.1641C14.952 21.1641 17.3188 23.0246 17.3411 23.0423C17.7263 23.3504 18.2737 23.3504 18.6588 23.0423C19.3119 22.5199 21.414 21.1641 23.2734 21.1641C25.6659 21.1641 28.1315 22.1339 28.1552 22.1433C28.4801 22.2732 28.8484 22.2336 29.1381 22.0374C29.428 21.8412 29.6016 21.514 29.6016 21.1641C29.5403 20.3941 29.946 17.8388 28.2923 13.1728L31.7812 11.8699V25.6529C31.239 25.9459 30.766 26.4715 30.401 27.2014C29.9308 28.1419 29.6719 29.3688 29.6719 30.6562V32.7656C29.6719 33.3481 30.1441 33.8203 30.7266 33.8203H34.9453C35.5278 33.8203 36 33.3481 36 32.7656V30.6562C36 29.3688 35.741 28.1419 35.2709 27.2014C34.9059 26.4715 34.4329 25.9459 33.8906 25.6529ZM18 4.36022L31.9306 9.5625C30.4935 10.0992 19.3908 14.2455 18 14.7648C16.6092 14.2455 5.50652 10.0992 4.06941 9.5625L18 4.36022ZM27.4835 19.7032C26.4019 19.3956 24.8479 19.0547 23.2734 19.0547C21.116 19.0547 19.0285 20.2371 18 20.9222C16.9715 20.2371 14.8839 19.0547 12.7266 19.0547C11.1521 19.0547 9.59808 19.3956 8.51646 19.7032C8.57714 17.5589 8.95795 15.9619 9.68386 13.9108L17.6311 16.8787C17.8689 16.9675 18.1311 16.9675 18.369 16.8787L26.3162 13.9108C27.042 15.9619 27.4228 17.559 27.4835 19.7032ZM33.8906 31.7109H31.7812V30.6562C31.7812 29.7039 31.9659 28.7885 32.2877 28.1448C32.5573 27.6057 32.7994 27.4922 32.8359 27.4922C32.8725 27.4922 33.1146 27.6057 33.3842 28.1448C33.706 28.7885 33.8906 29.7039 33.8906 30.6562V31.7109Z" fill="#888888"/>
</svg>
