<svg width="24" height="24" viewBox="0 0 24 24" fill="none" xmlns="http://www.w3.org/2000/svg">
<path d="M21.5994 1.8355V0.800482C21.599 0.358838 21.2411 0.000957018 20.7994 0.000488281H1.59994C1.1583 0.000910145 0.800416 0.358838 0.799947 0.800482V12.0002H0.399973C0.179058 12.0002 0 12.1792 0 12.4001C0 12.6211 0.179058 12.8001 0.399973 12.8001H0.799947V23.1998C0.800369 23.6415 1.1583 23.9994 1.59994 23.9998H20.7994C21.2411 23.9994 21.5989 23.6415 21.5994 23.1998V12.8002H21.9994C22.2203 12.8002 22.3994 12.6211 22.3994 12.4002C22.3994 12.1793 22.2203 12.0002 21.9994 12.0002H21.5994V8.72894C21.6183 8.72167 21.6381 8.71886 21.657 8.71122C22.1315 8.52687 22.5622 8.24548 22.9216 7.88507C23.2815 7.52878 23.562 7.1004 23.7446 6.62806C23.8092 6.4707 23.8597 6.30796 23.8956 6.14174C24.3359 4.33134 23.348 2.4787 21.5994 1.8355ZM18.3995 0.800482H20.7994V1.6384C19.965 1.52838 19.118 1.70744 18.3995 2.14576V0.800482ZM4.79987 0.800482H17.5995V2.8086C16.7163 3.78034 16.4176 5.14896 16.8156 6.40034H4.79987V0.800482ZM4.79987 7.20029H10.7997V12.0002H4.79987V7.20029ZM4.79987 12.8002H10.7997V17.6H4.79987V12.8002ZM3.99988 23.1998H1.59994V12.8002H3.99988V23.1998ZM3.99988 12.0002H1.59994V0.800482H3.99988V12.0002ZM17.5995 23.1998H4.79987V18.4H17.5995V23.1998ZM17.5995 17.6H11.5997V12.8002H17.5995V17.6ZM17.5995 12.0002H11.5997V7.20029H17.1816C17.303 7.39833 17.4429 7.58442 17.5995 7.75598V12.0002ZM20.7994 23.1998H18.3995V12.8002H20.7994V23.1998ZM20.7994 12.0002H18.3995V8.42088C19.1132 8.87129 19.9645 9.05124 20.7994 8.92815V12.0002ZM21.7382 7.78551C21.4583 7.24417 20.9083 6.8958 20.2993 6.8741C19.5433 6.84452 18.937 6.23886 18.9066 5.48293C18.8908 5.05019 19.0544 4.63011 19.3587 4.32201C19.6643 4.01489 20.0852 3.85074 20.518 3.86987C21.2749 3.89959 21.8814 4.50655 21.9107 5.26338C21.9326 5.87259 22.2815 6.42261 22.8233 6.70207C22.5691 7.15698 22.1934 7.53206 21.7382 7.78551ZM23.1186 5.94947C22.876 5.79305 22.724 5.5291 22.7103 5.24078C22.6644 4.06224 21.72 3.11712 20.5415 3.07034C19.8888 3.04578 19.2554 3.29416 18.7935 3.75587C18.3315 4.21758 18.0828 4.85079 18.1069 5.50346C18.1532 6.68215 19.0979 7.62717 20.2766 7.67372C20.5651 7.68717 20.8293 7.83918 20.986 8.0818C20.0155 8.32043 18.9909 8.03268 18.2866 7.32366L18.2763 7.31335C17.1586 6.18576 17.1639 4.36645 18.2881 3.24542C19.4123 2.12438 21.2316 2.12424 22.356 3.24513C23.0678 3.94993 23.3573 4.97665 23.1186 5.94947Z" fill="#868686"/>
</svg>
