<svg width="24" height="24" viewBox="0 0 24 24" fill="none" xmlns="http://www.w3.org/2000/svg">
<path d="M18.919 23.3417H4.27121C3.87724 23.3412 3.49956 23.1844 3.22098 22.9059C2.9424 22.6273 2.78567 22.2496 2.78516 21.8556V6.07207C2.78559 5.67805 2.94228 5.30028 3.22087 5.02163C3.49945 4.74298 3.87719 4.58621 4.27121 4.58569H18.919C19.3131 4.58612 19.6909 4.74286 19.9695 5.02152C20.2482 5.30017 20.4049 5.67799 20.4054 6.07207V21.8556C20.4049 22.2497 20.2481 22.6274 19.9694 22.906C19.6908 23.1846 19.313 23.3413 18.919 23.3417ZM4.27121 5.23434C4.04914 5.2346 3.83624 5.32295 3.67925 5.48001C3.52225 5.63707 3.43398 5.85 3.4338 6.07207V21.8556C3.43406 22.0777 3.52237 22.2905 3.67936 22.4475C3.83635 22.6045 4.0492 22.6928 4.27121 22.693H18.919C19.1411 22.6929 19.354 22.6046 19.5111 22.4476C19.6681 22.2906 19.7565 22.0777 19.7567 21.8556V6.07207C19.7565 5.84997 19.6681 5.63704 19.5111 5.47999C19.354 5.32294 19.1411 5.2346 18.919 5.23434H4.27121Z" fill="#868686"/>
<path d="M20.081 9.68246H3.10948C3.02346 9.68246 2.94097 9.64829 2.88015 9.58747C2.81933 9.52664 2.78516 9.44415 2.78516 9.35813V6.26634C2.78567 5.82077 2.9629 5.39359 3.27798 5.07851C3.59305 4.76344 4.02023 4.58621 4.46581 4.58569H18.7247C19.1703 4.58621 19.5975 4.76344 19.9126 5.07851C20.2276 5.39359 20.4049 5.82077 20.4054 6.26634V9.35813C20.4054 9.44415 20.3712 9.52664 20.3104 9.58747C20.2496 9.64829 20.1671 9.68246 20.081 9.68246ZM3.4338 9.03381H19.7567V6.26634C19.7564 5.99275 19.6475 5.73045 19.4541 5.53699C19.2606 5.34352 18.9983 5.23469 18.7247 5.23434H4.46581C4.19221 5.23469 3.92991 5.34352 3.73645 5.53699C3.54299 5.73045 3.43415 5.99275 3.4338 6.26634V9.03381Z" fill="#868686"/>
<path d="M11.5949 21.0241C10.6104 21.0241 9.648 20.7321 8.82941 20.1851C8.01082 19.6382 7.37281 18.8607 6.99607 17.9511C6.61932 17.0416 6.52077 16.0407 6.71286 15.0751C6.90495 14.1095 7.37907 13.2226 8.07525 12.5264C8.77143 11.8303 9.6584 11.3562 10.624 11.1642C11.5896 10.9722 12.5905 11.0708 13.5 11.4476C14.4096 11.8244 15.187 12.4625 15.7339 13.2811C16.2808 14.0997 16.5727 15.0621 16.5726 16.0467C16.5711 17.3663 16.0462 18.6315 15.113 19.5646C14.1798 20.4977 12.9146 21.0226 11.5949 21.0241ZM11.5949 11.7176C10.7387 11.7176 9.90172 11.9715 9.18981 12.4472C8.4779 12.9228 7.92303 13.599 7.59537 14.39C7.26771 15.181 7.18198 16.0515 7.34902 16.8912C7.51606 17.731 7.92836 18.5023 8.5338 19.1078C9.13923 19.7132 9.9106 20.1255 10.7504 20.2925C11.5901 20.4596 12.4606 20.3739 13.2516 20.0462C14.0426 19.7185 14.7187 19.1637 15.1944 18.4518C15.6701 17.7398 15.924 16.9029 15.924 16.0467C15.9227 14.8989 15.4662 13.7985 14.6546 12.987C13.843 12.1754 12.7427 11.7189 11.5949 11.7176Z" fill="#868686"/>
<path d="M11.5943 19.5144C10.9084 19.5144 10.2378 19.3111 9.66746 18.9301C9.0971 18.549 8.65255 18.0074 8.39003 17.3737C8.1275 16.74 8.0588 16.0426 8.1926 15.3699C8.3264 14.6971 8.6567 14.0792 9.14173 13.5941C9.62676 13.1091 10.2447 12.7788 10.9175 12.645C11.5902 12.5112 12.2876 12.5799 12.9213 12.8424C13.555 13.1049 14.0966 13.5495 14.4777 14.1199C14.8587 14.6902 15.062 15.3608 15.062 16.0467C15.0613 16.9662 14.6957 17.8478 14.0456 18.498C13.3954 19.1481 12.5138 19.5137 11.5943 19.5144ZM11.5943 13.2273C11.0367 13.2273 10.4915 13.3926 10.0279 13.7023C9.56418 14.0121 9.20277 14.4524 8.98933 14.9676C8.77589 15.4827 8.72001 16.0496 8.82876 16.5965C8.93751 17.1435 9.206 17.6458 9.60028 18.0402C9.99456 18.4345 10.4969 18.7031 11.0438 18.8119C11.5907 18.9207 12.1576 18.8649 12.6728 18.6515C13.188 18.4381 13.6284 18.0767 13.9382 17.6131C14.248 17.1494 14.4133 16.6043 14.4133 16.0467C14.4127 15.2992 14.1155 14.5825 13.587 14.0539C13.0585 13.5253 12.3418 13.228 11.5943 13.2273Z" fill="#868686"/>
<path d="M8.50884 16.5117C8.45248 16.5117 8.3971 16.497 8.34815 16.469C8.2992 16.4411 8.25838 16.4009 8.2297 16.3524C8.20102 16.3039 8.18548 16.2487 8.18461 16.1924C8.18374 16.136 8.19757 16.0804 8.22473 16.031C8.38137 15.7536 8.60937 15.5231 8.88509 15.3634C9.16081 15.2037 9.47422 15.1207 9.79284 15.1229C10.1714 15.1493 10.5421 15.2446 10.8865 15.4041C10.9996 15.4489 11.1135 15.4936 11.2273 15.5338C11.762 15.7112 12.331 15.7601 12.8882 15.6766C13.4454 15.5931 13.975 15.3795 14.4342 15.0532C14.5041 15.0059 14.5896 14.9876 14.6727 15.0023C14.7557 15.0169 14.8298 15.0634 14.8792 15.1318C14.9286 15.2002 14.9494 15.2852 14.9371 15.3687C14.9249 15.4521 14.8806 15.5276 14.8137 15.5789C14.2704 15.9652 13.6437 16.2181 12.9844 16.3169C12.3251 16.4157 11.6518 16.3578 11.0191 16.1478C10.8952 16.1056 10.7723 16.0573 10.6494 16.009C10.376 15.8805 10.0823 15.8006 9.78148 15.7729C9.5805 15.7695 9.38239 15.8209 9.20844 15.9216C9.0345 16.0224 8.8913 16.1686 8.79424 16.3447C8.76603 16.3955 8.72464 16.4379 8.67443 16.4673C8.62421 16.4967 8.56702 16.512 8.50884 16.5117Z" fill="#868686"/>
<path d="M13.287 8.21575H9.90329C9.76087 8.21549 9.62436 8.15878 9.52369 8.05804C9.42301 7.9573 9.36638 7.82076 9.36621 7.67834V6.61358C9.36638 6.47116 9.42301 6.33462 9.52369 6.23388C9.62436 6.13314 9.76087 6.07643 9.90329 6.07617H13.287C13.4294 6.07643 13.5659 6.13314 13.6666 6.23388C13.7672 6.33462 13.8239 6.47116 13.824 6.61358V7.67834C13.8239 7.82076 13.7672 7.9573 13.6666 8.05804C13.5659 8.15878 13.4294 8.21549 13.287 8.21575ZM10.0149 7.5671H13.1754V6.72385H10.0149V7.5671Z" fill="#868686"/>
<path d="M6.12058 8.07182C5.91871 8.07188 5.72134 8.01207 5.55345 7.89996C5.38557 7.78785 5.2547 7.62847 5.1774 7.44198C5.10009 7.25548 5.07984 7.05025 5.11918 6.85225C5.15853 6.65424 5.25571 6.47235 5.39844 6.32957C5.54116 6.1868 5.72303 6.08956 5.92102 6.05015C6.11902 6.01075 6.32425 6.03094 6.51077 6.10818C6.69729 6.18542 6.85671 6.31624 6.96888 6.48409C7.08104 6.65194 7.14091 6.84929 7.14091 7.05117C7.14057 7.3217 7.03297 7.58106 6.8417 7.77238C6.65044 7.96371 6.39112 8.07139 6.12058 8.07182ZM6.12058 6.67949C6.04698 6.67943 5.97502 6.7012 5.91379 6.74205C5.85257 6.7829 5.80484 6.841 5.77664 6.90898C5.74844 6.97697 5.74105 7.05179 5.75539 7.12398C5.76974 7.19618 5.80517 7.26249 5.85722 7.31453C5.90926 7.36658 5.97557 7.40202 6.04777 7.41636C6.11996 7.4307 6.19478 7.42331 6.26277 7.39511C6.33076 7.36692 6.38885 7.31919 6.4297 7.25796C6.47055 7.19674 6.49233 7.12477 6.49226 7.05117C6.49175 6.9529 6.45237 6.85883 6.38273 6.78949C6.3131 6.72016 6.21885 6.6812 6.12058 6.68111V6.67949Z" fill="#868686"/>
<path d="M17.0688 8.07182C16.8669 8.07188 16.6696 8.01207 16.5017 7.89996C16.3338 7.78785 16.2029 7.62847 16.1256 7.44198C16.0483 7.25548 16.0281 7.05025 16.0674 6.85225C16.1068 6.65424 16.204 6.47235 16.3467 6.32957C16.4894 6.1868 16.6713 6.08956 16.8693 6.05015C17.0673 6.01075 17.2725 6.03094 17.459 6.10818C17.6455 6.18542 17.805 6.31624 17.9171 6.48409C18.0293 6.65194 18.0891 6.84929 18.0891 7.05117C18.0888 7.3217 17.9812 7.58106 17.7899 7.77238C17.5987 7.96371 17.3394 8.07139 17.0688 8.07182ZM17.0688 6.67949C16.9952 6.67943 16.9233 6.7012 16.862 6.74205C16.8008 6.7829 16.7531 6.841 16.7249 6.90898C16.6967 6.97697 16.6893 7.05179 16.7036 7.12398C16.718 7.19618 16.7534 7.26249 16.8055 7.31453C16.8575 7.36658 16.9238 7.40202 16.996 7.41636C17.0682 7.4307 17.143 7.42331 17.211 7.39511C17.279 7.36692 17.3371 7.31919 17.3779 7.25796C17.4188 7.19674 17.4406 7.12477 17.4405 7.05117C17.44 6.9529 17.4006 6.85883 17.331 6.78949C17.2613 6.72016 17.1671 6.6812 17.0688 6.68111V6.67949Z" fill="#868686"/>
<path d="M23.4446 4.46724C23.3659 4.4671 23.2899 4.43833 23.2308 4.38629C23.1717 4.33426 23.1336 4.26251 23.1235 4.18443C23.009 3.31062 22.5526 2.51787 21.8545 1.98005C21.1563 1.44223 20.2734 1.20323 19.3993 1.31546C19.314 1.32651 19.2277 1.30322 19.1596 1.25069C19.0914 1.19817 19.0469 1.12073 19.0359 1.0354C19.0248 0.950076 19.0481 0.863852 19.1007 0.7957C19.1532 0.727548 19.2306 0.683052 19.3159 0.671999C20.3606 0.537977 21.4158 0.823748 22.2501 1.46664C23.0844 2.10953 23.6297 3.05705 23.7663 4.1014C23.7774 4.18664 23.7541 4.27277 23.7017 4.34087C23.6493 4.40898 23.572 4.4535 23.4868 4.46465C23.4728 4.46631 23.4587 4.46718 23.4446 4.46724Z" fill="#868686"/>
<path d="M21.8597 5.23069C21.7809 5.23064 21.7049 5.20195 21.6458 5.14997C21.5866 5.09799 21.5484 5.02628 21.5382 4.9482C21.4622 4.36838 21.1594 3.84236 20.6961 3.48548C20.2328 3.12861 19.6469 2.96999 19.0669 3.04442C19.0246 3.05002 18.9816 3.04723 18.9403 3.03621C18.8991 3.02519 18.8604 3.00616 18.8266 2.9802C18.7581 2.92777 18.7133 2.85031 18.702 2.76485C18.6907 2.67939 18.7138 2.59294 18.7662 2.52452C18.8187 2.45609 18.8961 2.4113 18.9816 2.39999C19.7324 2.3036 20.4908 2.50898 21.0904 2.97108C21.69 3.43318 22.0817 4.11425 22.1798 4.86485C22.1908 4.95013 22.1675 5.03631 22.115 5.10442C22.0625 5.17254 21.9851 5.21703 21.8999 5.2281C21.8865 5.22985 21.8731 5.23071 21.8597 5.23069Z" fill="#868686"/>
</svg>
