<svg width="24" height="24" viewBox="0 0 24 24" fill="none" xmlns="http://www.w3.org/2000/svg">
<path d="M22.3594 4.60938V4.64181C19.4999 4.85064 16.8414 6.06297 14.796 8.1085C13.5328 9.37159 12.5876 10.8686 12 12.5023C11.4124 10.8686 10.4672 9.37164 9.20405 8.1085C7.15856 6.06297 4.50009 4.85059 1.64062 4.64181V4.60938H0.234375V16.5625H1.64062V6.05313C4.12402 6.259 6.42998 7.32316 8.20969 9.10281C10.2005 11.0937 11.2969 13.7429 11.2969 16.5625H12.7031C12.7031 13.7429 13.7995 11.0937 15.7903 9.10281C17.57 7.32316 19.876 6.259 22.3594 6.05313V16.5625H23.7656V4.60938H22.3594Z" fill="#5F5F5F"/>
<path d="M0.9375 19.3906C1.45527 19.3906 1.875 18.9709 1.875 18.4531C1.875 17.9354 1.45527 17.5156 0.9375 17.5156C0.419733 17.5156 0 17.9354 0 18.4531C0 18.9709 0.419733 19.3906 0.9375 19.3906Z" fill="#5F5F5F"/>
<path d="M23.0625 19.3906C23.5803 19.3906 24 18.9709 24 18.4531C24 17.9354 23.5803 17.5156 23.0625 17.5156C22.5447 17.5156 22.125 17.9354 22.125 18.4531C22.125 18.9709 22.5447 19.3906 23.0625 19.3906Z" fill="#5F5F5F"/>
</svg>
