<svg width="73" height="50" viewBox="0 0 73 50" fill="none" xmlns="http://www.w3.org/2000/svg">
<path d="M27.6665 12.8335V22.1668C27.6665 22.7857 27.9123 23.3792 28.3499 23.8167C28.7875 24.2543 29.381 24.5002 29.9998 24.5002H43.9998C44.6187 24.5002 45.2122 24.2543 45.6498 23.8167C46.0873 23.3792 46.3332 22.7857 46.3332 22.1668V12.8335" stroke="#B7B7B7" stroke-width="2.26179" stroke-linecap="round" stroke-linejoin="round"/>
<path d="M41.6668 8.16691L37.0002 3.50024L32.3335 8.16691" stroke="#B7B7B7" stroke-width="2.26179" stroke-linecap="round" stroke-linejoin="round"/>
<path d="M37 3.50024V18.6669" stroke="#B7B7B7" stroke-width="2.26179" stroke-linecap="round" stroke-linejoin="round"/>
<path d="M8.66625 44.844C8.75025 44.844 8.82258 44.8767 8.88325 44.942L9.47125 45.586C9.06058 46.0713 8.55892 46.447 7.96625 46.713C7.37825 46.979 6.66892 47.112 5.83825 47.112C5.11025 47.112 4.44992 46.986 3.85725 46.734C3.26925 46.482 2.76525 46.1297 2.34525 45.677C1.92992 45.2243 1.60792 44.683 1.37925 44.053C1.15058 43.423 1.03625 42.73 1.03625 41.974C1.03625 41.218 1.15525 40.525 1.39325 39.895C1.63592 39.265 1.97425 38.7237 2.40825 38.271C2.84225 37.8183 3.36025 37.466 3.96225 37.214C4.56892 36.962 5.23858 36.836 5.97125 36.836C6.68525 36.836 7.31992 36.9527 7.87525 37.186C8.43058 37.4193 8.91358 37.7297 9.32425 38.117L8.83425 38.81C8.80158 38.8613 8.75958 38.9033 8.70825 38.936C8.66158 38.9687 8.59858 38.985 8.51925 38.985C8.43058 38.985 8.32558 38.9407 8.20425 38.852C8.08758 38.7633 7.93125 38.6653 7.73525 38.558C7.54392 38.446 7.30592 38.3457 7.02125 38.257C6.73658 38.1683 6.38192 38.124 5.95725 38.124C5.45792 38.124 5.00058 38.2127 4.58525 38.39C4.16992 38.5627 3.81058 38.8147 3.50725 39.146C3.20858 39.4727 2.97525 39.8763 2.80725 40.357C2.64392 40.833 2.56225 41.372 2.56225 41.974C2.56225 42.5853 2.64858 43.129 2.82125 43.605C2.99392 44.081 3.23192 44.4847 3.53525 44.816C3.83858 45.1473 4.19558 45.3993 4.60625 45.572C5.01692 45.7447 5.46025 45.831 5.93625 45.831C6.22558 45.831 6.48458 45.8147 6.71325 45.782C6.94658 45.7447 7.15892 45.691 7.35025 45.621C7.54625 45.551 7.73058 45.4623 7.90325 45.355C8.07592 45.243 8.24625 45.11 8.41425 44.956C8.45158 44.9233 8.49125 44.8977 8.53325 44.879C8.57525 44.8557 8.61958 44.844 8.66625 44.844ZM12.0545 40.791C12.3531 40.4877 12.6821 40.2427 13.0415 40.056C13.4055 39.8693 13.8231 39.776 14.2945 39.776C14.6865 39.776 15.0295 39.8413 15.3235 39.972C15.6221 40.1027 15.8718 40.287 16.0725 40.525C16.2731 40.7583 16.4248 41.0407 16.5275 41.372C16.6301 41.7033 16.6815 42.0697 16.6815 42.471V47H15.3095V42.471C15.3095 41.9623 15.1928 41.568 14.9595 41.288C14.7261 41.0033 14.3691 40.861 13.8885 40.861C13.5385 40.861 13.2095 40.945 12.9015 41.113C12.5981 41.2763 12.3158 41.5003 12.0545 41.785V47H10.6895V36.668H12.0545V40.791ZM21.5545 39.776C22.0771 39.776 22.5485 39.8623 22.9685 40.035C23.3931 40.203 23.7525 40.448 24.0465 40.77C24.3451 41.0873 24.5738 41.4723 24.7325 41.925C24.8911 42.373 24.9705 42.877 24.9705 43.437C24.9705 43.997 24.8911 44.5033 24.7325 44.956C24.5738 45.4087 24.3451 45.7937 24.0465 46.111C23.7525 46.4283 23.3931 46.6733 22.9685 46.846C22.5485 47.014 22.0771 47.098 21.5545 47.098C21.0271 47.098 20.5511 47.014 20.1265 46.846C19.7065 46.6733 19.3471 46.4283 19.0485 46.111C18.7498 45.7937 18.5188 45.4087 18.3555 44.956C18.1968 44.5033 18.1175 43.997 18.1175 43.437C18.1175 42.877 18.1968 42.373 18.3555 41.925C18.5188 41.4723 18.7498 41.0873 19.0485 40.77C19.3471 40.448 19.7065 40.203 20.1265 40.035C20.5511 39.8623 21.0271 39.776 21.5545 39.776ZM21.5545 46.034C22.2265 46.034 22.7281 45.8077 23.0595 45.355C23.3908 44.9023 23.5565 44.2653 23.5565 43.444C23.5565 42.6227 23.3908 41.9857 23.0595 41.533C22.7281 41.0757 22.2265 40.847 21.5545 40.847C20.8731 40.847 20.3645 41.0757 20.0285 41.533C19.6971 41.9857 19.5315 42.6227 19.5315 43.444C19.5315 44.2653 19.6971 44.9023 20.0285 45.355C20.3645 45.8077 20.8731 46.034 21.5545 46.034ZM29.5252 39.776C30.0478 39.776 30.5192 39.8623 30.9392 40.035C31.3638 40.203 31.7232 40.448 32.0172 40.77C32.3158 41.0873 32.5445 41.4723 32.7032 41.925C32.8618 42.373 32.9412 42.877 32.9412 43.437C32.9412 43.997 32.8618 44.5033 32.7032 44.956C32.5445 45.4087 32.3158 45.7937 32.0172 46.111C31.7232 46.4283 31.3638 46.6733 30.9392 46.846C30.5192 47.014 30.0478 47.098 29.5252 47.098C28.9978 47.098 28.5218 47.014 28.0972 46.846C27.6772 46.6733 27.3178 46.4283 27.0192 46.111C26.7205 45.7937 26.4895 45.4087 26.3262 44.956C26.1675 44.5033 26.0882 43.997 26.0882 43.437C26.0882 42.877 26.1675 42.373 26.3262 41.925C26.4895 41.4723 26.7205 41.0873 27.0192 40.77C27.3178 40.448 27.6772 40.203 28.0972 40.035C28.5218 39.8623 28.9978 39.776 29.5252 39.776ZM29.5252 46.034C30.1972 46.034 30.6988 45.8077 31.0302 45.355C31.3615 44.9023 31.5272 44.2653 31.5272 43.444C31.5272 42.6227 31.3615 41.9857 31.0302 41.533C30.6988 41.0757 30.1972 40.847 29.5252 40.847C28.8438 40.847 28.3352 41.0757 27.9992 41.533C27.6678 41.9857 27.5022 42.6227 27.5022 43.444C27.5022 44.2653 27.6678 44.9023 27.9992 45.355C28.3352 45.8077 28.8438 46.034 29.5252 46.034ZM38.6579 41.113C38.6205 41.1737 38.5809 41.218 38.5389 41.246C38.4969 41.2693 38.4432 41.281 38.3779 41.281C38.3032 41.281 38.2192 41.2553 38.1259 41.204C38.0372 41.1527 37.9275 41.0967 37.7969 41.036C37.6709 40.9753 37.5215 40.9193 37.3489 40.868C37.1762 40.8167 36.9709 40.791 36.7329 40.791C36.5369 40.791 36.3572 40.8167 36.1939 40.868C36.0352 40.9147 35.8999 40.9823 35.7879 41.071C35.6759 41.155 35.5895 41.2577 35.5289 41.379C35.4682 41.4957 35.4379 41.6217 35.4379 41.757C35.4379 41.9343 35.4892 42.0813 35.5919 42.198C35.6992 42.3147 35.8369 42.415 36.0049 42.499C36.1775 42.583 36.3712 42.66 36.5859 42.73C36.8052 42.7953 37.0269 42.8653 37.2509 42.94C37.4795 43.0147 37.7012 43.101 37.9159 43.199C38.1352 43.2923 38.3289 43.4113 38.4969 43.556C38.6695 43.696 38.8072 43.8663 38.9099 44.067C39.0172 44.2677 39.0709 44.5127 39.0709 44.802C39.0709 45.1333 39.0102 45.4413 38.8889 45.726C38.7722 46.006 38.5972 46.2487 38.3639 46.454C38.1352 46.6593 37.8505 46.8203 37.5099 46.937C37.1692 47.0537 36.7795 47.112 36.3409 47.112C35.8509 47.112 35.3982 47.0303 34.9829 46.867C34.5675 46.7037 34.2199 46.496 33.9399 46.244L34.2619 45.719C34.2992 45.6537 34.3459 45.6047 34.4019 45.572C34.4579 45.5347 34.5325 45.516 34.6259 45.516C34.7145 45.516 34.8055 45.5487 34.8989 45.614C34.9922 45.6793 35.1042 45.7517 35.2349 45.831C35.3655 45.9057 35.5242 45.9757 35.7109 46.041C35.8975 46.1017 36.1309 46.132 36.4109 46.132C36.6442 46.132 36.8472 46.104 37.0199 46.048C37.1925 45.9873 37.3349 45.908 37.4469 45.81C37.5635 45.7073 37.6499 45.5907 37.7059 45.46C37.7619 45.3293 37.7899 45.1917 37.7899 45.047C37.7899 44.8603 37.7362 44.7063 37.6289 44.585C37.5262 44.459 37.3885 44.3517 37.2159 44.263C37.0479 44.1743 36.8542 44.0973 36.6349 44.032C36.4155 43.9667 36.1915 43.8967 35.9629 43.822C35.7342 43.7473 35.5102 43.661 35.2909 43.563C35.0715 43.465 34.8755 43.3413 34.7029 43.192C34.5349 43.0427 34.3972 42.8607 34.2899 42.646C34.1872 42.4313 34.1359 42.17 34.1359 41.862C34.1359 41.5867 34.1919 41.323 34.3039 41.071C34.4205 40.819 34.5862 40.5973 34.8009 40.406C35.0202 40.2147 35.2885 40.063 35.6059 39.951C35.9279 39.8343 36.2942 39.776 36.7049 39.776C37.1762 39.776 37.6009 39.8507 37.9789 40C38.3615 40.1493 38.6882 40.3547 38.9589 40.616L38.6579 41.113ZM45.2598 42.653C45.2598 42.3823 45.2202 42.1327 45.1408 41.904C45.0662 41.6753 44.9542 41.477 44.8048 41.309C44.6555 41.141 44.4735 41.0103 44.2588 40.917C44.0442 40.8237 43.7968 40.777 43.5168 40.777C42.9428 40.777 42.4902 40.9427 42.1588 41.274C41.8322 41.6053 41.6245 42.065 41.5358 42.653H45.2598ZM46.3868 45.985C46.2188 46.181 46.0252 46.3513 45.8058 46.496C45.5865 46.636 45.3532 46.7503 45.1058 46.839C44.8585 46.9277 44.6018 46.993 44.3358 47.035C44.0745 47.077 43.8155 47.098 43.5588 47.098C43.0688 47.098 42.6138 47.0163 42.1938 46.853C41.7785 46.685 41.4168 46.4423 41.1088 46.125C40.8055 45.803 40.5675 45.4063 40.3948 44.935C40.2268 44.459 40.1428 43.913 40.1428 43.297C40.1428 42.8023 40.2198 42.3427 40.3738 41.918C40.5278 41.4887 40.7472 41.1153 41.0318 40.798C41.3212 40.4807 41.6735 40.231 42.0888 40.049C42.5042 39.867 42.9708 39.776 43.4888 39.776C43.9228 39.776 44.3218 39.8483 44.6858 39.993C45.0545 40.133 45.3718 40.3383 45.6378 40.609C45.9038 40.8797 46.1115 41.2133 46.2608 41.61C46.4148 42.0067 46.4918 42.4593 46.4918 42.968C46.4918 43.178 46.4685 43.3203 46.4218 43.395C46.3752 43.465 46.2888 43.5 46.1628 43.5H41.5008C41.5148 43.9247 41.5755 44.2957 41.6828 44.613C41.7902 44.9257 41.9372 45.187 42.1238 45.397C42.3152 45.607 42.5415 45.7633 42.8028 45.866C43.0642 45.9687 43.3558 46.02 43.6778 46.02C43.9812 46.02 44.2425 45.985 44.4618 45.915C44.6858 45.845 44.8772 45.7703 45.0358 45.691C45.1992 45.607 45.3345 45.53 45.4418 45.46C45.5538 45.39 45.6518 45.355 45.7358 45.355C45.8478 45.355 45.9342 45.397 45.9948 45.481L46.3868 45.985ZM53.278 38.159V41.526H57.31V42.737H53.278V47H51.78V36.948H58.01V38.159H53.278ZM60.8167 39.888V47H59.4517V39.888H60.8167ZM61.0757 37.69C61.0757 37.816 61.05 37.9373 60.9987 38.054C60.9474 38.166 60.8774 38.2663 60.7887 38.355C60.7047 38.439 60.6044 38.5067 60.4877 38.558C60.371 38.6047 60.2497 38.628 60.1237 38.628C59.9977 38.628 59.8787 38.6047 59.7667 38.558C59.6547 38.5067 59.5544 38.439 59.4657 38.355C59.3817 38.2663 59.314 38.166 59.2627 38.054C59.216 37.9373 59.1927 37.816 59.1927 37.69C59.1927 37.5593 59.216 37.438 59.2627 37.326C59.314 37.2093 59.3817 37.109 59.4657 37.025C59.5544 36.9363 59.6547 36.8687 59.7667 36.822C59.8787 36.7707 59.9977 36.745 60.1237 36.745C60.2497 36.745 60.371 36.7707 60.4877 36.822C60.6044 36.8687 60.7047 36.9363 60.7887 37.025C60.8774 37.109 60.9474 37.2093 60.9987 37.326C61.05 37.438 61.0757 37.5593 61.0757 37.69ZM64.193 36.668V47H62.821V36.668H64.193ZM70.8536 42.653C70.8536 42.3823 70.8139 42.1327 70.7346 41.904C70.6599 41.6753 70.5479 41.477 70.3986 41.309C70.2493 41.141 70.0673 41.0103 69.8526 40.917C69.6379 40.8237 69.3906 40.777 69.1106 40.777C68.5366 40.777 68.0839 40.9427 67.7526 41.274C67.4259 41.6053 67.2183 42.065 67.1296 42.653H70.8536ZM71.9806 45.985C71.8126 46.181 71.6189 46.3513 71.3996 46.496C71.1803 46.636 70.9469 46.7503 70.6996 46.839C70.4523 46.9277 70.1956 46.993 69.9296 47.035C69.6683 47.077 69.4093 47.098 69.1526 47.098C68.6626 47.098 68.2076 47.0163 67.7876 46.853C67.3723 46.685 67.0106 46.4423 66.7026 46.125C66.3993 45.803 66.1613 45.4063 65.9886 44.935C65.8206 44.459 65.7366 43.913 65.7366 43.297C65.7366 42.8023 65.8136 42.3427 65.9676 41.918C66.1216 41.4887 66.3409 41.1153 66.6256 40.798C66.9149 40.4807 67.2673 40.231 67.6826 40.049C68.0979 39.867 68.5646 39.776 69.0826 39.776C69.5166 39.776 69.9156 39.8483 70.2796 39.993C70.6483 40.133 70.9656 40.3383 71.2316 40.609C71.4976 40.8797 71.7053 41.2133 71.8546 41.61C72.0086 42.0067 72.0856 42.4593 72.0856 42.968C72.0856 43.178 72.0623 43.3203 72.0156 43.395C71.9689 43.465 71.8826 43.5 71.7566 43.5H67.0946C67.1086 43.9247 67.1693 44.2957 67.2766 44.613C67.3839 44.9257 67.5309 45.187 67.7176 45.397C67.9089 45.607 68.1353 45.7633 68.3966 45.866C68.6579 45.9687 68.9496 46.02 69.2716 46.02C69.5749 46.02 69.8363 45.985 70.0556 45.915C70.2796 45.845 70.4709 45.7703 70.6296 45.691C70.7929 45.607 70.9283 45.53 71.0356 45.46C71.1476 45.39 71.2456 45.355 71.3296 45.355C71.4416 45.355 71.5279 45.397 71.5886 45.481L71.9806 45.985Z" fill="#B7B7B7"/>
</svg>
