<svg width="52" height="76" viewBox="0 0 52 76" fill="none" xmlns="http://www.w3.org/2000/svg">
<path d="M0.00244141 40.5875L10.8765 34.7711L10.8765 10.8739L30.3499 10.8741L30.4911 10.8752C35.1395 10.9506 38.8845 14.7423 38.8845 19.4086V19.7165L38.8834 19.8526C38.8457 22.1735 37.847 24.2607 36.2678 25.7337L45.9307 31.1891C48.3341 27.9946 49.7586 24.0219 49.7586 19.7165V19.4086L49.756 19.0877C49.5846 8.51662 40.9619 0 30.3499 0H0.00244141V40.5875Z" fill="black"/>
<path fill-rule="evenodd" clip-rule="evenodd" d="M22.3123 31.58V25.8081H13.7141V36.3314L0 43.91V53.8557L10.4261 48.2297L10.426 66.2608L10.426 66.5229H0.0405021V75.2594H14.1047V75.2536C14.307 75.2574 14.5164 75.2592 14.7354 75.2592L15.3543 75.2542C19.4676 75.1875 31.8447 75.1984 41.092 75.2177C47.127 75.2303 52.0206 70.3328 51.9999 64.2978L51.9411 47.0823C51.9224 41.6277 48.9774 36.6029 44.2275 33.9213L31.2913 26.618L22.3123 31.58ZM22.2875 41.5067H22.3123V41.4933L31.1742 36.6731L40.3957 41.6948C42.3476 42.7577 43.5624 44.8025 43.5624 47.025V64.139C43.5624 65.396 42.5434 66.415 41.2864 66.415H35.2094V48.0622C35.2094 45.6879 33.2847 43.7631 30.9104 43.7631C28.5361 43.7631 26.6113 45.6879 26.6113 48.0622V66.415H18.7718L18.7714 43.4192L22.2875 41.5067Z" fill="black"/>
</svg>
